<?xml version="1.0" encoding="UTF-8" standalone="no"?>
<!DOCTYPE svg PUBLIC "-//W3C//DTD SVG 1.1//EN" "http://www.w3.org/Graphics/SVG/1.1/DTD/svg11.dtd">
<svg width="100%" height="100%" viewBox="0 0 955 713" version="1.1" xmlns="http://www.w3.org/2000/svg" xmlns:xlink="http://www.w3.org/1999/xlink" xml:space="preserve" xmlns:serif="http://www.serif.com/" style="fill-rule:evenodd;clip-rule:evenodd;stroke-miterlimit:2;">
    <g transform="matrix(4.16667,0,0,4.16667,0,0)">
        <path d="M20.783,158.496L20.783,0.823" style="fill:none;stroke:rgb(35,31,32);stroke-width:0.75px;"/>
        <path d="M14.508,152.354L228.804,152.354" style="fill:none;stroke:rgb(35,31,32);stroke-width:0.75px;"/>
        <path d="M49.737,152.296L49.737,7.526" style="fill:none;stroke:rgb(35,31,32);stroke-width:0.25px;"/>
        <path d="M78.691,152.296L78.691,7.526" style="fill:none;stroke:rgb(35,31,32);stroke-width:0.25px;"/>
        <path d="M107.645,152.296L107.645,7.526" style="fill:none;stroke:rgb(35,31,32);stroke-width:0.25px;"/>
        <path d="M136.599,152.296L136.599,7.526" style="fill:none;stroke:rgb(35,31,32);stroke-width:0.25px;"/>
        <path d="M165.553,152.296L165.553,7.526" style="fill:none;stroke:rgb(35,31,32);stroke-width:0.25px;"/>
        <path d="M194.508,152.296L194.508,7.526" style="fill:none;stroke:rgb(35,31,32);stroke-width:0.25px;"/>
        <path d="M223.462,152.296L223.462,7.526" style="fill:none;stroke:rgb(35,31,32);stroke-width:0.25px;"/>
        <path d="M20.783,123.308L223.462,123.308" style="fill:none;stroke:rgb(35,31,32);stroke-width:0.25px;"/>
        <path d="M20.783,94.388L223.462,94.388" style="fill:none;stroke:rgb(35,31,32);stroke-width:0.25px;"/>
        <path d="M20.783,65.434L223.462,65.434" style="fill:none;stroke:rgb(35,31,32);stroke-width:0.25px;"/>
        <path d="M20.783,36.671L223.462,36.671" style="fill:none;stroke:rgb(35,31,32);stroke-width:0.25px;"/>
        <path d="M20.783,7.526L223.462,7.526" style="fill:none;stroke:rgb(35,31,32);stroke-width:0.25px;"/>
        <path d="M98.438,78.89C98.438,79.924 97.6,80.762 96.566,80.762C95.533,80.762 94.695,79.924 94.695,78.89C94.695,77.857 95.533,77.019 96.566,77.019C97.6,77.019 98.438,77.857 98.438,78.89Z" style="fill:rgb(159,207,224);fill-rule:nonzero;"/>
        <path d="M98.438,78.89C98.438,79.924 97.6,80.762 96.566,80.762C95.533,80.762 94.695,79.924 94.695,78.89C94.695,77.857 95.533,77.019 96.566,77.019C97.6,77.019 98.438,77.857 98.438,78.89Z" style="fill:none;stroke:rgb(35,31,32);stroke-width:0.75px;"/>
        <path d="M104.462,90.513C104.462,91.547 103.624,92.385 102.59,92.385C101.557,92.385 100.719,91.547 100.719,90.513C100.719,89.48 101.557,88.642 102.59,88.642C103.624,88.642 104.462,89.48 104.462,90.513Z" style="fill:rgb(159,207,224);fill-rule:nonzero;"/>
        <path d="M104.462,90.513C104.462,91.547 103.624,92.385 102.59,92.385C101.557,92.385 100.719,91.547 100.719,90.513C100.719,89.48 101.557,88.642 102.59,88.642C103.624,88.642 104.462,89.48 104.462,90.513Z" style="fill:none;stroke:rgb(35,31,32);stroke-width:0.75px;"/>
        <path d="M53.025,110.228C53.025,111.261 52.187,112.099 51.154,112.099C50.12,112.099 49.283,111.261 49.283,110.228C49.283,109.195 50.12,108.357 51.154,108.357C52.187,108.357 53.025,109.195 53.025,110.228Z" style="fill:rgb(159,207,224);fill-rule:nonzero;"/>
        <path d="M53.025,110.228C53.025,111.261 52.187,112.099 51.154,112.099C50.12,112.099 49.283,111.261 49.283,110.228C49.283,109.195 50.12,108.357 51.154,108.357C52.187,108.357 53.025,109.195 53.025,110.228Z" style="fill:none;stroke:rgb(35,31,32);stroke-width:0.75px;"/>
        <path d="M57.739,87.167C57.739,88.2 56.901,89.038 55.867,89.038C54.834,89.038 53.996,88.2 53.996,87.167C53.996,86.133 54.834,85.295 55.867,85.295C56.901,85.295 57.739,86.133 57.739,87.167Z" style="fill:rgb(159,207,224);fill-rule:nonzero;"/>
        <path d="M57.739,87.167C57.739,88.2 56.901,89.038 55.867,89.038C54.834,89.038 53.996,88.2 53.996,87.167C53.996,86.133 54.834,85.295 55.867,85.295C56.901,85.295 57.739,86.133 57.739,87.167Z" style="fill:none;stroke:rgb(35,31,32);stroke-width:0.75px;"/>
        <path d="M131.614,28.537C131.614,29.571 130.776,30.408 129.743,30.408C128.71,30.408 127.872,29.571 127.872,28.537C127.872,27.503 128.71,26.666 129.743,26.666C130.776,26.666 131.614,27.503 131.614,28.537Z" style="fill:rgb(159,207,224);fill-rule:nonzero;"/>
        <path d="M131.614,28.537C131.614,29.571 130.776,30.408 129.743,30.408C128.71,30.408 127.872,29.571 127.872,28.537C127.872,27.503 128.71,26.666 129.743,26.666C130.776,26.666 131.614,27.503 131.614,28.537Z" style="fill:none;stroke:rgb(35,31,32);stroke-width:0.75px;"/>
        <path d="M94.695,86.77C94.695,87.804 93.857,88.642 92.824,88.642C91.79,88.642 90.952,87.804 90.952,86.77C90.952,85.737 91.79,84.899 92.824,84.899C93.857,84.899 94.695,85.737 94.695,86.77Z" style="fill:rgb(159,207,224);fill-rule:nonzero;"/>
        <path d="M94.695,86.77C94.695,87.804 93.857,88.642 92.824,88.642C91.79,88.642 90.952,87.804 90.952,86.77C90.952,85.737 91.79,84.899 92.824,84.899C93.857,84.899 94.695,85.737 94.695,86.77Z" style="fill:none;stroke:rgb(35,31,32);stroke-width:0.75px;"/>
        <path d="M161.976,108.357C161.976,109.39 161.138,110.228 160.105,110.228C159.072,110.228 158.234,109.39 158.234,108.357C158.234,107.323 159.072,106.485 160.105,106.485C161.138,106.485 161.976,107.323 161.976,108.357Z" style="fill:rgb(159,207,224);fill-rule:nonzero;"/>
        <path d="M161.976,108.357C161.976,109.39 161.138,110.228 160.105,110.228C159.072,110.228 158.234,109.39 158.234,108.357C158.234,107.323 159.072,106.485 160.105,106.485C161.138,106.485 161.976,107.323 161.976,108.357Z" style="fill:none;stroke:rgb(35,31,32);stroke-width:0.75px;"/>
        <path d="M110.076,45.577C110.076,46.611 109.238,47.448 108.204,47.448C107.171,47.448 106.333,46.611 106.333,45.577C106.333,44.544 107.171,43.706 108.204,43.706C109.238,43.706 110.076,44.544 110.076,45.577Z" style="fill:rgb(159,207,224);fill-rule:nonzero;"/>
        <path d="M110.076,45.577C110.076,46.611 109.238,47.448 108.204,47.448C107.171,47.448 106.333,46.611 106.333,45.577C106.333,44.544 107.171,43.706 108.204,43.706C109.238,43.706 110.076,44.544 110.076,45.577Z" style="fill:none;stroke:rgb(35,31,32);stroke-width:0.75px;"/>
        <path d="M167.024,36.445C167.024,37.479 166.186,38.317 165.152,38.317C164.119,38.317 163.281,37.479 163.281,36.445C163.281,35.412 164.119,34.574 165.152,34.574C166.186,34.574 167.024,35.412 167.024,36.445Z" style="fill:rgb(159,207,224);fill-rule:nonzero;"/>
        <path d="M167.024,36.445C167.024,37.479 166.186,38.317 165.152,38.317C164.119,38.317 163.281,37.479 163.281,36.445C163.281,35.412 164.119,34.574 165.152,34.574C166.186,34.574 167.024,35.412 167.024,36.445Z" style="fill:none;stroke:rgb(35,31,32);stroke-width:0.75px;"/>
        <path d="M85.984,92.781C85.984,93.814 85.146,94.652 84.113,94.652C83.079,94.652 82.242,93.814 82.242,92.781C82.242,91.747 83.079,90.909 84.113,90.909C85.146,90.909 85.984,91.747 85.984,92.781Z" style="fill:rgb(159,207,224);fill-rule:nonzero;"/>
        <path d="M85.984,92.781C85.984,93.814 85.146,94.652 84.113,94.652C83.079,94.652 82.242,93.814 82.242,92.781C82.242,91.747 83.079,90.909 84.113,90.909C85.146,90.909 85.984,91.747 85.984,92.781Z" style="fill:none;stroke:rgb(35,31,32);stroke-width:0.75px;"/>
        <path d="M94.695,69.121C94.695,70.154 93.857,70.992 92.824,70.992C91.79,70.992 90.952,70.154 90.952,69.121C90.952,68.087 91.79,67.249 92.824,67.249C93.857,67.249 94.695,68.087 94.695,69.121Z" style="fill:rgb(159,207,224);fill-rule:nonzero;"/>
        <path d="M94.695,69.121C94.695,70.154 93.857,70.992 92.824,70.992C91.79,70.992 90.952,70.154 90.952,69.121C90.952,68.087 91.79,67.249 92.824,67.249C93.857,67.249 94.695,68.087 94.695,69.121Z" style="fill:none;stroke:rgb(35,31,32);stroke-width:0.75px;"/>
        <path d="M185.783,30.408C185.783,31.442 184.945,32.28 183.911,32.28C182.878,32.28 182.04,31.442 182.04,30.408C182.04,29.375 182.878,28.537 183.911,28.537C184.945,28.537 185.783,29.375 185.783,30.408Z" style="fill:rgb(159,207,224);fill-rule:nonzero;"/>
        <path d="M185.783,30.408C185.783,31.442 184.945,32.28 183.911,32.28C182.878,32.28 182.04,31.442 182.04,30.408C182.04,29.375 182.878,28.537 183.911,28.537C184.945,28.537 185.783,29.375 185.783,30.408Z" style="fill:none;stroke:rgb(35,31,32);stroke-width:0.75px;"/>
        <path d="M207.434,57.837C207.434,58.871 206.596,59.709 205.563,59.709C204.529,59.709 203.691,58.871 203.691,57.837C203.691,56.803 204.529,55.966 205.563,55.966C206.596,55.966 207.434,56.803 207.434,57.837Z" style="fill:rgb(159,207,224);fill-rule:nonzero;"/>
        <path d="M207.434,57.837C207.434,58.871 206.596,59.709 205.563,59.709C204.529,59.709 203.691,58.871 203.691,57.837C203.691,56.803 204.529,55.966 205.563,55.966C206.596,55.966 207.434,56.803 207.434,57.837Z" style="fill:none;stroke:rgb(35,31,32);stroke-width:0.75px;"/>
        <path d="M146.567,117.639C146.567,118.672 145.729,119.51 144.695,119.51C143.662,119.51 142.824,118.672 142.824,117.639C142.824,116.606 143.662,115.768 144.695,115.768C145.729,115.768 146.567,116.606 146.567,117.639Z" style="fill:rgb(159,207,224);fill-rule:nonzero;"/>
        <path d="M146.567,117.639C146.567,118.672 145.729,119.51 144.695,119.51C143.662,119.51 142.824,118.672 142.824,117.639C142.824,116.606 143.662,115.768 144.695,115.768C145.729,115.768 146.567,116.606 146.567,117.639Z" style="fill:none;stroke:rgb(35,31,32);stroke-width:0.75px;"/>
        <path d="M113.098,108.357C113.098,109.39 112.26,110.228 111.226,110.228C110.193,110.228 109.355,109.39 109.355,108.357C109.355,107.323 110.193,106.485 111.226,106.485C112.26,106.485 113.098,107.323 113.098,108.357Z" style="fill:rgb(159,207,224);fill-rule:nonzero;"/>
        <path d="M113.098,108.357C113.098,109.39 112.26,110.228 111.226,110.228C110.193,110.228 109.355,109.39 109.355,108.357C109.355,107.323 110.193,106.485 111.226,106.485C112.26,106.485 113.098,107.323 113.098,108.357Z" style="fill:none;stroke:rgb(35,31,32);stroke-width:0.75px;"/>
        <path d="M133.486,60.616C133.486,61.65 132.648,62.488 131.614,62.488C130.58,62.488 129.743,61.65 129.743,60.616C129.743,59.583 130.58,58.745 131.614,58.745C132.648,58.745 133.486,59.583 133.486,60.616Z" style="fill:rgb(159,207,224);fill-rule:nonzero;"/>
        <path d="M133.486,60.616C133.486,61.65 132.648,62.488 131.614,62.488C130.58,62.488 129.743,61.65 129.743,60.616C129.743,59.583 130.58,58.745 131.614,58.745C132.648,58.745 133.486,59.583 133.486,60.616Z" style="fill:none;stroke:rgb(35,31,32);stroke-width:0.75px;"/>
        <path d="M94.695,99.993C94.695,101.026 93.857,101.864 92.824,101.864C91.79,101.864 90.952,101.026 90.952,99.993C90.952,98.959 91.79,98.121 92.824,98.121C93.857,98.121 94.695,98.959 94.695,99.993Z" style="fill:rgb(159,207,224);fill-rule:nonzero;"/>
        <path d="M94.695,99.993C94.695,101.026 93.857,101.864 92.824,101.864C91.79,101.864 90.952,101.026 90.952,99.993C90.952,98.959 91.79,98.121 92.824,98.121C93.857,98.121 94.695,98.959 94.695,99.993Z" style="fill:none;stroke:rgb(35,31,32);stroke-width:0.75px;"/>
        <path d="M113.098,85.92C113.098,86.954 112.26,87.792 111.226,87.792C110.193,87.792 109.355,86.954 109.355,85.92C109.355,84.886 110.193,84.049 111.226,84.049C112.26,84.049 113.098,84.886 113.098,85.92Z" style="fill:rgb(159,207,224);fill-rule:nonzero;"/>
        <path d="M113.098,85.92C113.098,86.954 112.26,87.792 111.226,87.792C110.193,87.792 109.355,86.954 109.355,85.92C109.355,84.886 110.193,84.049 111.226,84.049C112.26,84.049 113.098,84.886 113.098,85.92Z" style="fill:none;stroke:rgb(35,31,32);stroke-width:0.75px;"/>
        <path d="M64.594,58.745C64.594,59.779 63.756,60.616 62.722,60.616C61.689,60.616 60.851,59.779 60.851,58.745C60.851,57.712 61.689,56.874 62.722,56.874C63.756,56.874 64.594,57.712 64.594,58.745Z" style="fill:rgb(159,207,224);fill-rule:nonzero;"/>
        <path d="M64.594,58.745C64.594,59.779 63.756,60.616 62.722,60.616C61.689,60.616 60.851,59.779 60.851,58.745C60.851,57.712 61.689,56.874 62.722,56.874C63.756,56.874 64.594,57.712 64.594,58.745Z" style="fill:none;stroke:rgb(35,31,32);stroke-width:0.75px;"/>
        <path d="M74.05,119.623C74.05,120.657 73.212,121.494 72.179,121.494C71.145,121.494 70.307,120.657 70.307,119.623C70.307,118.589 71.145,117.751 72.179,117.751C73.212,117.751 74.05,118.589 74.05,119.623Z" style="fill:rgb(159,207,224);fill-rule:nonzero;"/>
        <path d="M74.05,119.623C74.05,120.657 73.212,121.494 72.179,121.494C71.145,121.494 70.307,120.657 70.307,119.623C70.307,118.589 71.145,117.751 72.179,117.751C73.212,117.751 74.05,118.589 74.05,119.623Z" style="fill:none;stroke:rgb(35,31,32);stroke-width:0.75px;"/>
        <path d="M201.089,121.494C201.089,122.528 200.251,123.366 199.218,123.366C198.183,123.366 197.345,122.528 197.345,121.494C197.345,120.461 198.183,119.623 199.218,119.623C200.251,119.623 201.089,120.461 201.089,121.494Z" style="fill:rgb(159,207,224);fill-rule:nonzero;"/>
        <path d="M201.089,121.494C201.089,122.528 200.251,123.366 199.218,123.366C198.183,123.366 197.345,122.528 197.345,121.494C197.345,120.461 198.183,119.623 199.218,119.623C200.251,119.623 201.089,120.461 201.089,121.494Z" style="fill:none;stroke:rgb(35,31,32);stroke-width:0.75px;"/>
        <path d="M87.856,26.666C87.856,27.699 87.018,28.537 85.984,28.537C84.951,28.537 84.113,27.699 84.113,26.666C84.113,25.632 84.951,24.794 85.984,24.794C87.018,24.794 87.856,25.632 87.856,26.666Z" style="fill:rgb(159,207,224);fill-rule:nonzero;"/>
        <path d="M87.856,26.666C87.856,27.699 87.018,28.537 85.984,28.537C84.951,28.537 84.113,27.699 84.113,26.666C84.113,25.632 84.951,24.794 85.984,24.794C87.018,24.794 87.856,25.632 87.856,26.666Z" style="fill:none;stroke:rgb(35,31,32);stroke-width:0.75px;"/>
        <path d="M173.205,86.77C173.205,87.804 172.367,88.642 171.334,88.642C170.301,88.642 169.463,87.804 169.463,86.77C169.463,85.737 170.301,84.899 171.334,84.899C172.367,84.899 173.205,85.737 173.205,86.77Z" style="fill:rgb(159,207,224);fill-rule:nonzero;"/>
        <path d="M173.205,86.77C173.205,87.804 172.367,88.642 171.334,88.642C170.301,88.642 169.463,87.804 169.463,86.77C169.463,85.737 170.301,84.899 171.334,84.899C172.367,84.899 173.205,85.737 173.205,86.77Z" style="fill:none;stroke:rgb(35,31,32);stroke-width:0.75px;"/>
        <path d="M153.686,56.874C153.686,57.907 152.848,58.745 151.815,58.745C150.781,58.745 149.943,57.907 149.943,56.874C149.943,55.84 150.781,55.003 151.815,55.003C152.848,55.003 153.686,55.84 153.686,56.874Z" style="fill:rgb(159,207,224);fill-rule:nonzero;"/>
        <path d="M153.686,56.874C153.686,57.907 152.848,58.745 151.815,58.745C150.781,58.745 149.943,57.907 149.943,56.874C149.943,55.84 150.781,55.003 151.815,55.003C152.848,55.003 153.686,55.84 153.686,56.874Z" style="fill:none;stroke:rgb(35,31,32);stroke-width:0.75px;"/>
        <path d="M108.204,73.624C108.204,74.657 107.366,75.495 106.333,75.495C105.3,75.495 104.462,74.657 104.462,73.624C104.462,72.59 105.3,71.753 106.333,71.753C107.366,71.753 108.204,72.59 108.204,73.624Z" style="fill:rgb(159,207,224);fill-rule:nonzero;"/>
        <path d="M108.204,73.624C108.204,74.657 107.366,75.495 106.333,75.495C105.3,75.495 104.462,74.657 104.462,73.624C104.462,72.59 105.3,71.753 106.333,71.753C107.366,71.753 108.204,72.59 108.204,73.624Z" style="fill:none;stroke:rgb(35,31,32);stroke-width:0.75px;"/>
        <path d="M119.676,75.495C119.676,76.529 118.838,77.366 117.803,77.366C116.77,77.366 115.932,76.529 115.932,75.495C115.932,74.462 116.77,73.624 117.803,73.624C118.838,73.624 119.676,74.462 119.676,75.495Z" style="fill:rgb(159,207,224);fill-rule:nonzero;"/>
        <path d="M119.676,75.495C119.676,76.529 118.838,77.366 117.803,77.366C116.77,77.366 115.932,76.529 115.932,75.495C115.932,74.462 116.77,73.624 117.803,73.624C118.838,73.624 119.676,74.462 119.676,75.495Z" style="fill:none;stroke:rgb(35,31,32);stroke-width:0.75px;"/>
        <path d="M104.462,59.709C104.462,60.742 103.624,61.58 102.59,61.58C101.557,61.58 100.719,60.742 100.719,59.709C100.719,58.675 101.557,57.837 102.59,57.837C103.624,57.837 104.462,58.675 104.462,59.709Z" style="fill:rgb(159,207,224);fill-rule:nonzero;"/>
        <path d="M104.462,59.709C104.462,60.742 103.624,61.58 102.59,61.58C101.557,61.58 100.719,60.742 100.719,59.709C100.719,58.675 101.557,57.837 102.59,57.837C103.624,57.837 104.462,58.675 104.462,59.709Z" style="fill:none;stroke:rgb(35,31,32);stroke-width:0.75px;"/>
        <path d="M64.594,40.471C64.594,41.505 63.756,42.343 62.722,42.343C61.689,42.343 60.851,41.505 60.851,40.471C60.851,39.438 61.689,38.6 62.722,38.6C63.756,38.6 64.594,39.438 64.594,40.471Z" style="fill:rgb(159,207,224);fill-rule:nonzero;"/>
        <path d="M64.594,40.471C64.594,41.505 63.756,42.343 62.722,42.343C61.689,42.343 60.851,41.505 60.851,40.471C60.851,39.438 61.689,38.6 62.722,38.6C63.756,38.6 64.594,39.438 64.594,40.471Z" style="fill:none;stroke:rgb(35,31,32);stroke-width:0.75px;"/>
        <path d="M179.136,61.58C179.136,62.614 178.298,63.451 177.263,63.451C176.23,63.451 175.392,62.614 175.392,61.58C175.392,60.546 176.23,59.709 177.263,59.709C178.298,59.709 179.136,60.546 179.136,61.58Z" style="fill:rgb(159,207,224);fill-rule:nonzero;"/>
        <path d="M179.136,61.58C179.136,62.614 178.298,63.451 177.263,63.451C176.23,63.451 175.392,62.614 175.392,61.58C175.392,60.546 176.23,59.709 177.263,59.709C178.298,59.709 179.136,60.546 179.136,61.58Z" style="fill:none;stroke:rgb(35,31,32);stroke-width:0.75px;"/>
        <path d="M146.567,85.92C146.567,86.954 145.729,87.792 144.695,87.792C143.662,87.792 142.824,86.954 142.824,85.92C142.824,84.886 143.662,84.049 144.695,84.049C145.729,84.049 146.567,84.886 146.567,85.92Z" style="fill:rgb(159,207,224);fill-rule:nonzero;"/>
        <path d="M146.567,85.92C146.567,86.954 145.729,87.792 144.695,87.792C143.662,87.792 142.824,86.954 142.824,85.92C142.824,84.886 143.662,84.049 144.695,84.049C145.729,84.049 146.567,84.886 146.567,85.92Z" style="fill:none;stroke:rgb(35,31,32);stroke-width:0.75px;"/>
        <path d="M108.204,101.67C108.204,102.703 107.366,103.541 106.333,103.541C105.3,103.541 104.462,102.703 104.462,101.67C104.462,100.637 105.3,99.8 106.333,99.8C107.366,99.8 108.204,100.637 108.204,101.67Z" style="fill:rgb(159,207,224);fill-rule:nonzero;"/>
        <path d="M108.204,101.67C108.204,102.703 107.366,103.541 106.333,103.541C105.3,103.541 104.462,102.703 104.462,101.67C104.462,100.637 105.3,99.8 106.333,99.8C107.366,99.8 108.204,100.637 108.204,101.67Z" style="fill:none;stroke:rgb(35,31,32);stroke-width:0.75px;"/>
        <path d="M117.803,88.642C117.803,89.676 116.966,90.513 115.932,90.513C114.899,90.513 114.061,89.676 114.061,88.642C114.061,87.608 114.899,86.77 115.932,86.77C116.966,86.77 117.803,87.608 117.803,88.642Z" style="fill:rgb(159,207,224);fill-rule:nonzero;"/>
        <path d="M117.803,88.642C117.803,89.676 116.966,90.513 115.932,90.513C114.899,90.513 114.061,89.676 114.061,88.642C114.061,87.608 114.899,86.77 115.932,86.77C116.966,86.77 117.803,87.608 117.803,88.642Z" style="fill:none;stroke:rgb(35,31,32);stroke-width:0.75px;"/>
        <g>
            <path d="M104.91,164.235C104.821,164.016 104.792,164.016 104.563,164.016L102.884,164.016L102.884,164.324L103.123,164.324C103.887,164.324 103.907,164.433 103.907,164.79L103.907,169.756C103.907,170.025 103.907,170.492 102.884,170.492L102.884,170.8C103.232,170.79 103.718,170.77 104.046,170.77C104.374,170.77 104.86,170.79 105.209,170.8L105.209,170.492C104.185,170.492 104.185,170.025 104.185,169.756L104.185,164.403L104.195,164.403L106.59,170.581C106.638,170.711 106.688,170.8 106.788,170.8C106.898,170.8 106.928,170.72 106.967,170.611L109.41,164.324L109.421,164.324L109.421,170.025C109.421,170.383 109.401,170.492 108.636,170.492L108.398,170.492L108.398,170.8C108.765,170.77 109.44,170.77 109.827,170.77C110.215,170.77 110.881,170.77 111.248,170.8L111.248,170.492L111.011,170.492C110.245,170.492 110.224,170.383 110.224,170.025L110.224,164.79C110.224,164.433 110.245,164.324 111.011,164.324L111.248,164.324L111.248,164.016L109.57,164.016C109.312,164.016 109.312,164.025 109.241,164.204L107.067,169.797L104.91,164.235Z" style="fill:rgb(35,31,32);fill-rule:nonzero;"/>
            <path d="M112.729,168.297C112.788,166.817 113.623,166.569 113.96,166.569C114.984,166.569 115.084,167.909 115.084,168.297L112.729,168.297ZM112.72,168.504L115.49,168.504C115.709,168.504 115.739,168.504 115.739,168.297C115.739,167.313 115.202,166.35 113.96,166.35C112.809,166.35 111.895,167.373 111.895,168.614C111.895,169.946 112.938,170.909 114.081,170.909C115.292,170.909 115.739,169.806 115.739,169.617C115.739,169.519 115.66,169.498 115.61,169.498C115.521,169.498 115.501,169.558 115.481,169.637C115.134,170.66 114.239,170.66 114.14,170.66C113.643,170.66 113.246,170.363 113.016,169.995C112.72,169.519 112.72,168.863 112.72,168.504Z" style="fill:rgb(35,31,32);fill-rule:nonzero;"/>
            <path d="M117.676,167.501L117.676,166.409L116.295,166.519L116.295,166.826C116.99,166.826 117.07,166.895 117.07,167.383L117.07,170.045C117.07,170.492 116.96,170.492 116.295,170.492L116.295,170.8C116.682,170.79 117.149,170.77 117.428,170.77C117.824,170.77 118.292,170.77 118.688,170.8L118.688,170.492L118.48,170.492C117.745,170.492 117.726,170.383 117.726,170.025L117.726,168.495C117.726,167.512 118.143,166.628 118.898,166.628C118.967,166.628 118.987,166.628 119.008,166.637C118.977,166.649 118.777,166.767 118.777,167.025C118.777,167.303 118.987,167.451 119.206,167.451C119.384,167.451 119.633,167.332 119.633,167.016C119.633,166.697 119.324,166.409 118.898,166.409C118.173,166.409 117.815,167.075 117.676,167.501Z" style="fill:rgb(35,31,32);fill-rule:nonzero;"/>
            <path d="M120.97,170.045C120.97,170.492 120.86,170.492 120.195,170.492L120.195,170.8C120.523,170.79 120.99,170.77 121.277,170.77C121.576,170.77 121.972,170.78 122.37,170.8L122.37,170.492C121.704,170.492 121.595,170.492 121.595,170.045L121.595,169.022L122.23,168.475C122.996,169.528 123.414,170.084 123.414,170.264C123.414,170.451 123.245,170.492 123.055,170.492L123.055,170.8C123.334,170.79 123.92,170.77 124.129,170.77C124.417,170.77 124.704,170.78 124.993,170.8L124.993,170.492C124.625,170.492 124.407,170.492 124.029,169.965L122.768,168.188C122.758,168.167 122.707,168.108 122.707,168.078C122.707,168.039 123.414,167.442 123.512,167.363C124.138,166.856 124.555,166.836 124.763,166.826L124.763,166.519C124.476,166.548 124.346,166.548 124.068,166.548C123.712,166.548 123.095,166.528 122.956,166.519L122.956,166.826C123.144,166.836 123.245,166.946 123.245,167.075C123.245,167.274 123.105,167.392 123.026,167.462L121.626,168.673L121.626,163.907L120.195,164.016L120.195,164.324C120.89,164.324 120.97,164.392 120.97,164.879L120.97,170.045Z" style="fill:rgb(35,31,32);fill-rule:nonzero;"/>
            <path d="M126.308,167.383L126.308,170.045C126.308,170.492 126.199,170.492 125.534,170.492L125.534,170.8C125.883,170.79 126.388,170.77 126.657,170.77C126.915,170.77 127.432,170.79 127.769,170.8L127.769,170.492C127.104,170.492 126.995,170.492 126.995,170.045L126.995,168.217C126.995,167.184 127.699,166.628 128.336,166.628C128.962,166.628 129.071,167.164 129.071,167.731L129.071,170.045C129.071,170.492 128.962,170.492 128.297,170.492L128.297,170.8C128.643,170.79 129.151,170.77 129.418,170.77C129.677,170.77 130.192,170.79 130.531,170.8L130.531,170.492C129.865,170.492 129.756,170.492 129.756,170.045L129.756,168.217C129.756,167.184 130.462,166.628 131.097,166.628C131.722,166.628 131.832,167.164 131.832,167.731L131.832,170.045C131.832,170.492 131.722,170.492 131.057,170.492L131.057,170.8C131.406,170.79 131.912,170.77 132.18,170.77C132.438,170.77 132.956,170.79 133.293,170.8L133.293,170.492C132.776,170.492 132.527,170.492 132.518,170.194L132.518,168.297C132.518,167.442 132.518,167.134 132.211,166.777C132.071,166.608 131.743,166.409 131.167,166.409C130.332,166.409 129.894,167.004 129.726,167.383C129.587,166.519 128.852,166.409 128.406,166.409C127.68,166.409 127.214,166.836 126.935,167.451L126.935,166.409L125.534,166.519L125.534,166.826C126.229,166.826 126.308,166.895 126.308,167.383Z" style="fill:rgb(35,31,32);fill-rule:nonzero;"/>
            <path d="M136.824,170.045C136.865,170.442 137.133,170.86 137.599,170.86C137.807,170.86 138.414,170.72 138.414,169.915L138.414,169.36L138.165,169.36L138.165,169.915C138.165,170.492 137.917,170.551 137.807,170.551C137.48,170.551 137.44,170.105 137.44,170.055L137.44,168.069C137.44,167.652 137.44,167.264 137.082,166.895C136.695,166.509 136.199,166.35 135.721,166.35C134.907,166.35 134.221,166.817 134.221,167.472C134.221,167.77 134.422,167.939 134.679,167.939C134.957,167.939 135.136,167.741 135.136,167.483C135.136,167.363 135.086,167.034 134.629,167.025C134.898,166.678 135.384,166.569 135.703,166.569C136.188,166.569 136.756,166.956 136.756,167.839L136.756,168.207C136.248,168.238 135.553,168.267 134.928,168.566C134.182,168.903 133.933,169.418 133.933,169.856C133.933,170.66 134.898,170.909 135.523,170.909C136.179,170.909 136.636,170.512 136.824,170.045ZM136.756,168.415L136.756,169.409C136.756,170.353 136.04,170.691 135.594,170.691C135.105,170.691 134.699,170.344 134.699,169.847C134.699,169.3 135.117,168.475 136.756,168.415Z" style="fill:rgb(35,31,32);fill-rule:nonzero;"/>
            <path d="M140.274,163.907L138.845,164.016L138.845,164.324C139.54,164.324 139.62,164.392 139.62,164.879L139.62,170.045C139.62,170.492 139.511,170.492 138.845,170.492L138.845,170.8C139.173,170.79 139.699,170.77 139.946,170.77C140.195,170.77 140.682,170.79 141.05,170.8L141.05,170.492C140.384,170.492 140.274,170.492 140.274,170.045L140.274,163.907Z" style="fill:rgb(35,31,32);fill-rule:nonzero;"/>
            <path d="M148.834,166.717L148,164.741C147.97,164.66 147.951,164.621 147.951,164.611C147.951,164.551 148.12,164.363 148.537,164.324C148.636,164.314 148.735,164.303 148.735,164.134C148.735,164.016 148.617,164.016 148.586,164.016C148.179,164.016 147.751,164.045 147.334,164.045C147.086,164.045 146.47,164.016 146.221,164.016C146.162,164.016 146.043,164.016 146.043,164.214C146.043,164.324 146.143,164.324 146.271,164.324C146.868,164.324 146.928,164.422 147.016,164.641L148.188,167.412L146.094,169.667L145.964,169.777C145.477,170.303 145.011,170.462 144.504,170.492C144.375,170.501 144.285,170.501 144.285,170.691C144.285,170.7 144.285,170.8 144.414,170.8C144.712,170.8 145.04,170.77 145.347,170.77C145.715,170.77 146.102,170.8 146.461,170.8C146.519,170.8 146.638,170.8 146.638,170.602C146.638,170.501 146.54,170.492 146.519,170.492C146.43,170.483 146.123,170.462 146.123,170.184C146.123,170.025 146.271,169.866 146.39,169.738L147.404,168.664L148.298,167.691L149.301,170.066C149.342,170.173 149.351,170.184 149.351,170.204C149.351,170.283 149.162,170.451 148.774,170.492C148.665,170.501 148.576,170.512 148.576,170.681C148.576,170.8 148.685,170.8 148.724,170.8C149.004,170.8 149.699,170.77 149.977,170.77C150.224,170.77 150.831,170.8 151.079,170.8C151.149,170.8 151.268,170.8 151.268,170.611C151.268,170.492 151.168,170.492 151.09,170.492C150.425,170.483 150.404,170.451 150.235,170.055C149.847,169.131 149.182,167.581 148.954,166.986C149.629,166.29 150.673,165.108 150.99,164.829C151.277,164.592 151.656,164.353 152.251,164.324C152.381,164.314 152.47,164.314 152.47,164.125C152.47,164.114 152.47,164.016 152.342,164.016C152.043,164.016 151.715,164.045 151.407,164.045C151.04,164.045 150.662,164.016 150.304,164.016C150.245,164.016 150.117,164.016 150.117,164.214C150.117,164.283 150.165,164.314 150.235,164.324C150.324,164.332 150.633,164.353 150.633,164.631C150.633,164.77 150.523,164.9 150.443,164.989L148.834,166.717Z" style="fill:rgb(35,31,32);fill-rule:nonzero;"/>
        </g>
        <g>
            <path d="M1.234,104.742C1.015,104.832 1.015,104.862 1.015,105.09L1.015,106.77L1.323,106.77L1.323,106.531C1.323,105.766 1.432,105.746 1.79,105.746L6.756,105.746C7.025,105.746 7.491,105.746 7.491,106.77L7.8,106.77C7.79,106.421 7.77,105.935 7.77,105.607C7.77,105.279 7.79,104.793 7.8,104.445L7.491,104.445C7.491,105.468 7.025,105.468 6.756,105.468L1.403,105.468L1.403,105.458L7.581,103.063C7.71,103.015 7.8,102.965 7.8,102.865C7.8,102.755 7.72,102.726 7.611,102.687L1.323,100.243L1.323,100.232L7.025,100.232C7.382,100.232 7.491,100.253 7.491,101.018L7.491,101.255L7.8,101.255C7.77,100.888 7.77,100.214 7.77,99.826C7.77,99.438 7.77,98.773 7.8,98.406L7.491,98.406L7.491,98.643C7.491,99.409 7.382,99.429 7.025,99.429L1.79,99.429C1.432,99.429 1.323,99.409 1.323,98.643L1.323,98.406L1.015,98.406L1.015,100.084C1.015,100.342 1.025,100.342 1.204,100.412L6.796,102.586L1.234,104.742Z" style="fill:rgb(35,31,32);fill-rule:nonzero;"/>
            <path d="M5.296,96.925C3.817,96.865 3.568,96.031 3.568,95.693C3.568,94.67 4.909,94.57 5.296,94.57L5.296,96.925ZM5.504,96.934L5.504,94.164C5.504,93.945 5.504,93.915 5.296,93.915C4.312,93.915 3.349,94.451 3.349,95.693C3.349,96.844 4.373,97.759 5.614,97.759C6.945,97.759 7.909,96.716 7.909,95.573C7.909,94.362 6.806,93.915 6.616,93.915C6.518,93.915 6.498,93.993 6.498,94.044C6.498,94.133 6.557,94.153 6.637,94.173C7.66,94.52 7.66,95.415 7.66,95.513C7.66,96.01 7.362,96.407 6.995,96.637C6.518,96.934 5.862,96.934 5.504,96.934Z" style="fill:rgb(35,31,32);fill-rule:nonzero;"/>
            <path d="M4.501,91.978L3.409,91.978L3.518,93.359L3.826,93.359C3.826,92.664 3.895,92.584 4.382,92.584L7.045,92.584C7.491,92.584 7.491,92.693 7.491,93.359L7.8,93.359C7.79,92.971 7.77,92.504 7.77,92.226C7.77,91.829 7.77,91.362 7.8,90.965L7.491,90.965L7.491,91.173C7.491,91.909 7.382,91.927 7.025,91.927L5.495,91.927C4.512,91.927 3.628,91.51 3.628,90.756C3.628,90.687 3.628,90.667 3.637,90.647C3.648,90.676 3.767,90.876 4.025,90.876C4.303,90.876 4.451,90.667 4.451,90.448C4.451,90.27 4.332,90.022 4.015,90.022C3.697,90.022 3.409,90.329 3.409,90.756C3.409,91.481 4.074,91.839 4.501,91.978Z" style="fill:rgb(35,31,32);fill-rule:nonzero;"/>
            <path d="M7.045,88.684C7.491,88.684 7.491,88.793 7.491,89.459L7.8,89.459C7.79,89.131 7.77,88.664 7.77,88.376C7.77,88.078 7.779,87.681 7.8,87.284L7.491,87.284C7.491,87.949 7.491,88.059 7.045,88.059L6.021,88.059L5.474,87.423C6.528,86.657 7.084,86.24 7.263,86.24C7.451,86.24 7.491,86.409 7.491,86.598L7.8,86.598C7.79,86.32 7.77,85.734 7.77,85.525C7.77,85.237 7.779,84.949 7.8,84.66L7.491,84.66C7.491,85.029 7.491,85.246 6.965,85.625L5.187,86.885C5.167,86.897 5.107,86.947 5.077,86.947C5.038,86.947 4.442,86.24 4.362,86.142C3.856,85.515 3.835,85.098 3.826,84.89L3.518,84.89C3.548,85.177 3.548,85.307 3.548,85.586C3.548,85.942 3.528,86.559 3.518,86.698L3.826,86.698C3.835,86.509 3.945,86.409 4.074,86.409C4.273,86.409 4.392,86.548 4.462,86.628L5.673,88.028L0.906,88.028L1.015,89.459L1.323,89.459C1.323,88.764 1.392,88.684 1.879,88.684L7.045,88.684Z" style="fill:rgb(35,31,32);fill-rule:nonzero;"/>
            <path d="M4.382,83.345L7.045,83.345C7.491,83.345 7.491,83.454 7.491,84.12L7.8,84.12C7.79,83.772 7.77,83.265 7.77,82.996C7.77,82.739 7.79,82.221 7.8,81.884L7.491,81.884C7.491,82.55 7.491,82.659 7.045,82.659L5.217,82.659C4.184,82.659 3.628,81.954 3.628,81.318C3.628,80.692 4.163,80.582 4.731,80.582L7.045,80.582C7.491,80.582 7.491,80.692 7.491,81.357L7.8,81.357C7.79,81.01 7.77,80.503 7.77,80.236C7.77,79.976 7.79,79.461 7.8,79.123L7.491,79.123C7.491,79.789 7.491,79.898 7.045,79.898L5.217,79.898C4.184,79.898 3.628,79.192 3.628,78.556C3.628,77.931 4.163,77.822 4.731,77.822L7.045,77.822C7.491,77.822 7.491,77.931 7.491,78.596L7.8,78.596C7.79,78.248 7.77,77.742 7.77,77.473C7.77,77.215 7.79,76.698 7.8,76.361L7.491,76.361C7.491,76.878 7.491,77.126 7.193,77.135L5.296,77.135C4.442,77.135 4.134,77.135 3.776,77.443C3.607,77.582 3.409,77.91 3.409,78.487C3.409,79.322 4.004,79.759 4.382,79.927C3.518,80.067 3.409,80.801 3.409,81.248C3.409,81.973 3.835,82.44 4.451,82.719L3.409,82.719L3.518,84.12L3.826,84.12C3.826,83.425 3.895,83.345 4.382,83.345Z" style="fill:rgb(35,31,32);fill-rule:nonzero;"/>
            <path d="M7.045,72.829C7.442,72.789 7.859,72.522 7.859,72.054C7.859,71.846 7.72,71.24 6.915,71.24L6.359,71.24L6.359,71.489L6.915,71.489C7.491,71.489 7.551,71.737 7.551,71.846C7.551,72.173 7.104,72.214 7.054,72.214L5.068,72.214C4.651,72.214 4.263,72.214 3.895,72.572C3.509,72.959 3.349,73.454 3.349,73.932C3.349,74.746 3.817,75.432 4.471,75.432C4.77,75.432 4.939,75.232 4.939,74.974C4.939,74.697 4.74,74.518 4.482,74.518C4.362,74.518 4.034,74.568 4.025,75.025C3.678,74.756 3.568,74.27 3.568,73.951C3.568,73.465 3.956,72.898 4.839,72.898L5.207,72.898C5.237,73.406 5.267,74.101 5.565,74.726C5.903,75.471 6.418,75.72 6.856,75.72C7.66,75.72 7.909,74.756 7.909,74.131C7.909,73.474 7.512,73.018 7.045,72.829ZM5.415,72.898L6.409,72.898C7.353,72.898 7.69,73.614 7.69,74.06C7.69,74.548 7.343,74.954 6.846,74.954C6.3,74.954 5.474,74.537 5.415,72.898Z" style="fill:rgb(35,31,32);fill-rule:nonzero;"/>
            <path d="M0.906,69.379L1.015,70.809L1.323,70.809C1.323,70.114 1.392,70.034 1.879,70.034L7.045,70.034C7.491,70.034 7.491,70.143 7.491,70.809L7.8,70.809C7.79,70.481 7.77,69.954 7.77,69.707C7.77,69.459 7.79,68.971 7.8,68.604L7.491,68.604C7.491,69.27 7.491,69.379 7.045,69.379L0.906,69.379Z" style="fill:rgb(35,31,32);fill-rule:nonzero;"/>
            <path d="M2.148,59.707L2.009,59.568C1.71,59.27 1.373,58.942 1.323,58.267C1.314,58.157 1.314,58.068 1.134,58.068C1.054,58.068 1.015,58.117 1.015,58.197C1.015,58.454 1.045,58.743 1.045,59.01C1.045,59.339 1.015,59.687 1.015,60.004C1.015,60.064 1.015,60.193 1.204,60.193C1.314,60.193 1.323,60.094 1.323,60.045C1.323,59.974 1.343,59.687 1.551,59.687C1.72,59.687 1.978,59.915 2.028,59.954L4.681,62.259L1.731,63.353C1.592,63.412 1.572,63.412 1.56,63.412C1.323,63.412 1.323,62.925 1.323,62.826C1.323,62.687 1.323,62.587 1.124,62.587C1.015,62.587 1.015,62.707 1.015,62.737C1.015,63.015 1.045,63.711 1.045,63.989C1.045,64.237 1.015,64.853 1.015,65.101C1.015,65.16 1.015,65.289 1.214,65.289C1.323,65.289 1.323,65.19 1.323,65.06C1.323,64.465 1.412,64.425 1.66,64.336L4.929,63.114C4.959,63.104 5.068,63.074 5.098,63.074C5.128,63.074 6.726,63.471 6.906,63.522C7.451,63.65 7.482,63.66 7.491,64.454C7.491,64.643 7.491,64.723 7.69,64.723C7.8,64.723 7.8,64.604 7.8,64.584C7.8,64.306 7.77,63.611 7.77,63.332C7.77,63.054 7.8,62.339 7.8,62.06C7.8,61.992 7.8,61.871 7.601,61.871C7.491,61.871 7.491,61.962 7.491,62.15C7.491,62.17 7.491,62.359 7.471,62.528C7.451,62.737 7.432,62.797 7.312,62.797C7.243,62.797 6.895,62.707 6.687,62.657L5.287,62.309C5.098,62.259 5.068,62.25 4.978,62.17L2.148,59.707Z" style="fill:rgb(35,31,32);fill-rule:nonzero;"/>
        </g>
    </g>
</svg>
