<?xml version="1.0" encoding="UTF-8"?>
<svg id="Layer_1" data-name="Layer 1" xmlns="http://www.w3.org/2000/svg" xmlns:xlink="http://www.w3.org/1999/xlink" viewBox="0 0 243.69 138.49">
  <defs>
    <style>
      .cls-1 {
        clip-path: url(#clippath-6);
      }

      .cls-2 {
        clip-path: url(#clippath-4);
      }

      .cls-3, .cls-4, .cls-5 {
        fill: #231f20;
      }

      .cls-6, .cls-7, .cls-8, .cls-9, .cls-10 {
        fill: none;
      }

      .cls-4, .cls-5, .cls-7, .cls-8, .cls-9, .cls-10, .cls-11 {
        stroke-miterlimit: 10;
      }

      .cls-4, .cls-7, .cls-8 {
        stroke-width: .5px;
      }

      .cls-4, .cls-7, .cls-8, .cls-9, .cls-10, .cls-11 {
        stroke: #231f20;
      }

      .cls-12 {
        clip-path: url(#clippath-1);
      }

      .cls-13 {
        clip-path: url(#clippath-5);
      }

      .cls-14 {
        clip-path: url(#clippath-3);
      }

      .cls-5 {
        stroke: #4db748;
      }

      .cls-7 {
        stroke-dasharray: 2 1;
      }

      .cls-10, .cls-11 {
        stroke-width: .75px;
      }

      .cls-15 {
        clip-path: url(#clippath-2);
      }

      .cls-11 {
        fill: #9fcfe0;
      }

      .cls-16 {
        clip-path: url(#clippath);
      }
    </style>
    <clipPath id="clippath">
      <rect class="cls-6" x="237.69" y="133.49" width="6" height="5"/>
    </clipPath>
    <clipPath id="clippath-1">
      <rect class="cls-6" x="26.68" y="1.68" width="6" height="7"/>
    </clipPath>
    <clipPath id="clippath-2">
      <rect class="cls-6" x="25.43" y="26.38" width="6" height="5"/>
    </clipPath>
    <clipPath id="clippath-3">
      <rect class="cls-6" x="222.66" y="100.6" width="7" height="10"/>
    </clipPath>
    <clipPath id="clippath-4">
      <rect class="cls-6" x="204.73" y="90.24" width="4" height="7"/>
    </clipPath>
    <clipPath id="clippath-5">
      <rect class="cls-6" x="145.66" y="58.05" width="8" height="7"/>
    </clipPath>
    <clipPath id="clippath-6">
      <rect class="cls-6" y="70.86" width="33" height="10"/>
    </clipPath>
  </defs>
  <line class="cls-7" x1="142.67" y1="46.45" x2="35.8" y2="46.45"/>
  <line class="cls-7" x1="142.67" y1="76.62" x2="35.8" y2="76.62"/>
  <line class="cls-5" x1="142.67" y1="46.45" x2="142.67" y2="76.62"/>
  <line class="cls-5" x1="119.99" y1="36.33" x2="119.99" y2="66.05"/>
  <line class="cls-5" x1="114.32" y1="63.4" x2="114.32" y2="78.55"/>
  <line class="cls-5" x1="82.38" y1="48.51" x2="82.38" y2="59.02"/>
  <line class="cls-5" x1="60.79" y1="34.46" x2="60.79" y2="38.44"/>
  <line class="cls-5" x1="134.17" y1="91.76" x2="134.17" y2="72.65"/>
  <line class="cls-5" x1="162.51" y1="85.6" x2="162.51" y2="79.45"/>
  <line class="cls-5" x1="174.42" y1="102.62" x2="174.42" y2="91.42"/>
  <line class="cls-5" x1="185.19" y1="96.45" x2="185.19" y2="88.14"/>
  <line class="cls-5" x1="209.83" y1="112.61" x2="209.83" y2="107.93"/>
  <g>
    <line class="cls-10" x1="40.29" y1="135.17" x2="40.29" y2="2.12"/>
    <polygon class="cls-3" points="42.67 6.55 41.97 6.81 40.29 2.19 38.61 6.81 37.9 6.55 40.29 0 42.67 6.55"/>
  </g>
  <g>
    <line class="cls-10" x1="34.01" y1="129.03" x2="237.66" y2="129.03"/>
    <polygon class="cls-3" points="233.22 131.42 232.97 130.71 237.58 129.03 232.97 127.35 233.22 126.65 239.77 129.03 233.22 131.42"/>
  </g>
  <circle class="cls-11" cx="82.54" cy="60.89" r="1.87"/>
  <circle class="cls-11" cx="134.17" cy="93.63" r="1.87"/>
  <circle class="cls-11" cx="114.32" cy="80.42" r="1.87"/>
  <circle class="cls-11" cx="119.99" cy="34.46" r="1.87"/>
  <circle class="cls-11" cx="60.79" cy="32.59" r="1.87"/>
  <circle class="cls-11" cx="142.67" cy="46.45" r="1.87"/>
  <circle class="cls-11" cx="162.51" cy="77.58" r="1.87"/>
  <circle class="cls-11" cx="185.19" cy="86.27" r="1.87"/>
  <circle class="cls-11" cx="209.83" cy="114.48" r="1.87"/>
  <circle class="cls-11" cx="174.42" cy="104.5" r="1.87"/>
  <g>
    <path d="M147.91,132.73c.06-.26.29-1.17.98-1.17.05,0,.29,0,.5.13-.28.05-.48.3-.48.54,0,.16.11.35.38.35.22,0,.54-.18.54-.57,0-.52-.59-.66-.92-.66-.58,0-.92.53-1.04.75-.25-.65-.79-.75-1.07-.75-1.03,0-1.6,1.28-1.6,1.53,0,.1.1.1.12.1.08,0,.11-.02.13-.11.34-1.05.99-1.3,1.33-1.3.19,0,.54.09.54.67,0,.31-.17.97-.54,2.36-.16.62-.51,1.03-.94,1.03-.06,0-.29,0-.5-.13.25-.05.47-.26.47-.54s-.22-.35-.37-.35c-.3,0-.55.26-.55.58,0,.46.5.66.93.66.66,0,1.01-.7,1.04-.75.12.37.48.75,1.07.75,1.02,0,1.59-1.28,1.59-1.53,0-.1-.09-.1-.12-.1-.09,0-.11.04-.13.11-.33,1.06-1,1.3-1.32,1.3-.39,0-.55-.32-.55-.66,0-.22.06-.44.17-.87l.34-1.36"/>
    <path d="M151.13,136.41c-.03.09-.06.17-.06.3,0,.33.28.6.67.6.7,0,1.01-.97,1.01-1.08,0-.09-.09-.09-.11-.09-.1,0-.11.04-.13.12-.16.56-.47.85-.75.85-.14,0-.17-.09-.17-.25,0-.16.05-.3.11-.45.07-.19.15-.38.23-.56.06-.17.32-.81.34-.89.02-.07.04-.15.04-.22,0-.33-.28-.6-.67-.6-.7,0-1.02.96-1.02,1.07,0,.09.1.09.12.09.1,0,.1-.04.13-.11.18-.6.49-.86.75-.86.11,0,.18.06.18.25,0,.16-.04.27-.22.7l-.44,1.13M152.57,132.84c0-.11-.08-.27-.28-.27s-.39.18-.39.39c0,.12.09.27.28.27.2,0,.39-.2.39-.39Z"/>
  </g>
  <g>
    <path d="M29.97,43.84c.04-.14.04-.16.04-.23,0-.18-.14-.27-.29-.27-.1,0-.26.06-.35.21-.02.05-.1.36-.14.54-.07.26-.14.53-.2.79l-.45,1.79c-.04.15-.47.84-1.12.84-.51,0-.62-.44-.62-.8,0-.46.17-1.07.51-1.95.16-.41.2-.52.2-.72,0-.45-.32-.81-.81-.81-.94,0-1.31,1.44-1.31,1.53,0,.1.1.1.12.1.1,0,.11-.02.16-.18.27-.93.67-1.23,1-1.23.08,0,.25,0,.25.32,0,.25-.1.51-.17.7-.4,1.05-.58,1.62-.58,2.09,0,.88.62,1.18,1.21,1.18.39,0,.73-.17,1-.45-.13.52-.25,1-.65,1.53-.26.34-.64.62-1.09.62-.14,0-.59-.03-.75-.42.16,0,.29,0,.43-.12.1-.09.2-.22.2-.41,0-.31-.27-.35-.37-.35-.23,0-.56.16-.56.65s.44.86,1.05.86c1.02,0,2.05-.9,2.32-2.03l.95-3.79"/>
    <path d="M30.89,48.3c-.03.09-.06.17-.06.3,0,.33.28.6.67.6.7,0,1.01-.97,1.01-1.08,0-.09-.09-.09-.11-.09-.1,0-.11.04-.13.12-.16.56-.47.85-.75.85-.14,0-.18-.09-.18-.25,0-.16.05-.3.11-.45.07-.19.15-.38.23-.56.06-.17.32-.81.34-.89.02-.07.04-.15.04-.22,0-.33-.28-.6-.67-.6-.7,0-1.02.96-1.02,1.07,0,.09.1.09.12.09.1,0,.1-.04.13-.11.18-.6.49-.86.75-.86.11,0,.18.06.18.25,0,.16-.04.27-.22.7l-.44,1.13M32.32,44.73c0-.11-.08-.27-.28-.27s-.39.18-.39.39c0,.12.09.27.28.27.2,0,.39-.2.39-.39Z"/>
  </g>
  <g class="cls-16">
    <path d="M241.71,135.29c.06-.26.29-1.17.98-1.17.05,0,.29,0,.5.13-.28.05-.48.3-.48.54,0,.16.11.35.38.35.22,0,.54-.18.54-.58,0-.52-.59-.66-.92-.66-.58,0-.92.53-1.04.75-.25-.65-.79-.75-1.07-.75-1.03,0-1.6,1.28-1.6,1.53,0,.1.1.1.12.1.08,0,.11-.02.13-.11.34-1.05.99-1.3,1.33-1.3.19,0,.54.09.54.67,0,.31-.17.97-.54,2.36-.16.62-.51,1.03-.94,1.03-.06,0-.29,0-.5-.13.25-.05.47-.26.47-.54s-.22-.35-.37-.35c-.3,0-.55.26-.55.58,0,.46.5.66.93.66.66,0,1.01-.7,1.04-.75.12.37.48.75,1.07.75,1.02,0,1.59-1.28,1.59-1.53,0-.1-.09-.1-.12-.1-.09,0-.11.04-.13.11-.33,1.06-1,1.3-1.32,1.3-.39,0-.55-.32-.55-.66,0-.22.06-.44.17-.87l.34-1.36"/>
  </g>
  <g class="cls-12">
    <path d="M32.21,2.7c.04-.14.04-.16.04-.23,0-.18-.14-.27-.29-.27-.1,0-.26.06-.35.21-.02.05-.1.36-.14.54-.07.26-.14.53-.2.79l-.45,1.79c-.04.15-.47.84-1.12.84-.51,0-.62-.44-.62-.8,0-.46.17-1.07.51-1.95.16-.41.2-.52.2-.72,0-.45-.32-.81-.81-.81-.94,0-1.31,1.44-1.31,1.53,0,.1.1.1.12.1.1,0,.11-.02.16-.18.27-.93.67-1.23,1-1.23.08,0,.25,0,.25.32,0,.25-.1.51-.17.7-.4,1.05-.57,1.62-.57,2.09,0,.88.62,1.18,1.21,1.18.39,0,.73-.17,1-.45-.13.52-.25,1-.65,1.53-.26.34-.64.62-1.09.62-.14,0-.59-.03-.75-.42.16,0,.29,0,.43-.12.1-.09.2-.22.2-.41,0-.31-.27-.35-.37-.35-.23,0-.56.16-.56.65s.44.86,1.05.86c1.02,0,2.05-.9,2.32-2.03l.95-3.79"/>
  </g>
  <line class="cls-9" x1="26.68" y1="22.53" x2="227.88" y2="116.35"/>
  <line class="cls-10" x1="35.8" y1="28.88" x2="44.77" y2="28.88"/>
  <line class="cls-10" x1="35.8" y1="46.45" x2="44.77" y2="46.45"/>
  <line class="cls-10" x1="35.8" y1="76.62" x2="44.77" y2="76.62"/>
  <line class="cls-10" x1="142.61" y1="124.55" x2="142.61" y2="133.52"/>
  <g class="cls-15">
    <path d="M29.21,30.2c-.88.76-1.64.87-2.04.87-.6,0-.89-.45-.89-1.08,0-.49.26-1.56.58-2.07.47-.73,1-.91,1.35-.91.98,0,.98,1.3.98,2.08,0,.37,0,.94.02,1.11M29.87,28.84c0-1.56-.92-2.05-1.66-2.05-1.36,0-2.67,1.42-2.67,2.82,0,.92.6,1.68,1.61,1.68.62,0,1.34-.23,2.1-.83.13.53.46.83.9.83.53,0,.83-.55.83-.7,0-.07-.06-.1-.12-.1-.07,0-.1.03-.13.1-.18.49-.54.49-.56.49-.31,0-.31-.78-.31-1.01,0-.21,0-.23.1-.35.93-1.17,1.14-2.33,1.14-2.33,0-.02,0-.1-.12-.1-.1,0-.1.03-.15.21-.18.63-.51,1.38-.97,1.97v-.62Z"/>
  </g>
  <line class="cls-8" x1="193.74" y1="99.93" x2="220.2" y2="99.93"/>
  <line class="cls-8" x1="220.2" y1="99.93" x2="220.2" y2="112.27"/>
  <g class="cls-14">
    <path d="M228.51,102.52c0,.7-.38,1.41-.9,1.72-.27-.1-.47-.12-.76-.12-.21,0-.77,0-.77.32,0,.28.51.25.69.25.37,0,.52,0,.81-.13.38.36.43.67.44,1.12.02.58-.22,1.32-.5,1.71-.39.54-1.05.89-1.62.89-.75,0-1.13-.58-1.13-1.28,0-.1,0-.25.05-.44l.64-2.51c.22-.85.93-2.43,2.12-2.43.58,0,.92.31.92.9M227.28,104.4c-.13.05-.24.07-.48.07-.14,0-.34.01-.44-.04.02-.1.38-.08.49-.08.21,0,.3,0,.43.05ZM229.07,102.75c0-.75-.55-1.36-1.35-1.36-.58,0-.85.16-1.2.42-.55.4-1.09,1.36-1.28,2.12l-1.58,6.31s.04.1.12.1.11-.02.12-.05l.7-2.74c.19.6.63.96,1.35.96s1.47-.35,1.92-.79c.48-.46.8-1.09.8-1.83s-.37-1.23-.73-1.48c.58-.33,1.14-.94,1.14-1.66Z"/>
  </g>
  <g class="cls-2">
    <path d="M207.35,90.69c0-.24,0-.26-.23-.26-.62.64-1.49.64-1.81.64v.31c.2,0,.78,0,1.3-.26v5.15c0,.36-.03.48-.93.48h-.32v.31c.35-.03,1.21-.03,1.61-.03s1.26,0,1.61.03v-.31h-.32c-.89,0-.92-.11-.92-.48v-5.57"/>
  </g>
  <g class="cls-13">
    <path d="M148.09,60.47c.23-.08.44-.09.61-.09.25,0,.29,0,.47.06-.15.07-.17.08-.55.08-.22,0-.34,0-.53-.05M147.76,60.6c.33.14.62.14.85.14.26,0,.8,0,.8-.31,0-.24-.35-.27-.72-.27-.21,0-.56.02-.92.19-.23-.12-.4-.31-.4-.58,0-.61.97-.96,1.87-.96.16,0,.52,0,.91.28.11.08.13.1.2.1.13,0,.27-.13.27-.27,0-.19-.6-.57-1.28-.57-1.14,0-2.21.67-2.21,1.42,0,.43.36.68.4.71-.59.33-.9.88-.9,1.34,0,.65.57,1.25,1.62,1.25,1.31,0,1.87-.88,1.87-1.02,0-.06-.05-.1-.11-.1-.05,0-.08.04-.1.07-.14.23-.38.6-1.57.6-.61,0-1.45-.15-1.45-.85,0-.34.28-.86.88-1.16Z"/>
    <path d="M151.81,63.53c-.03.09-.06.18-.06.3,0,.33.28.6.67.6.7,0,1.01-.97,1.01-1.08,0-.09-.09-.09-.11-.09-.1,0-.11.04-.13.12-.16.56-.47.85-.75.85-.14,0-.18-.09-.18-.25,0-.16.05-.3.11-.45.07-.19.15-.38.22-.56.06-.17.32-.81.34-.89.02-.07.04-.15.04-.23,0-.33-.28-.6-.67-.6-.7,0-1.02.96-1.02,1.08,0,.09.1.09.12.09.1,0,.1-.04.13-.11.18-.6.49-.86.75-.86.11,0,.18.06.18.25,0,.16-.04.27-.22.7l-.44,1.13M153.24,59.96c0-.11-.08-.27-.28-.27s-.39.18-.39.39c0,.12.09.27.28.27.2,0,.39-.2.39-.39Z"/>
  </g>
  <line class="cls-7" x1="142.67" y1="76.62" x2="142.67" y2="133.49"/>
  <g class="cls-1">
    <path d="M3.77,77.68c-.88.76-1.64.87-2.04.87-.6,0-.89-.45-.89-1.08,0-.49.26-1.56.58-2.07.47-.73,1-.91,1.35-.91.98,0,.98,1.3.98,2.08,0,.37,0,.94.02,1.11M4.44,76.32c0-1.56-.92-2.05-1.66-2.05-1.36,0-2.67,1.42-2.67,2.82,0,.92.6,1.68,1.61,1.68.62,0,1.34-.23,2.1-.83.13.53.46.83.9.83.53,0,.83-.55.83-.7,0-.07-.06-.1-.12-.1-.07,0-.1.03-.13.1-.18.49-.54.49-.56.49-.31,0-.31-.78-.31-1.01,0-.21,0-.23.1-.35.93-1.17,1.14-2.33,1.14-2.33,0-.02,0-.1-.12-.1-.1,0-.1.03-.15.21-.18.63-.51,1.38-.97,1.97v-.62Z"/>
    <path d="M12.36,76.38h2.77c.14,0,.33,0,.33-.2s-.19-.2-.33-.2h-2.77v-2.78c0-.14,0-.33-.2-.33s-.2.19-.2.33v2.78h-2.78c-.14,0-.33,0-.33.2s.19.2.33.2h2.78v2.78c0,.14,0,.33.2.33s.2-.19.2-.33v-2.78"/>
    <path d="M23.36,72.78c0,.7-.38,1.41-.9,1.72-.27-.1-.47-.12-.76-.12-.21,0-.77,0-.77.32,0,.28.51.25.69.25.37,0,.52,0,.81-.13.38.36.43.67.44,1.12.02.58-.22,1.32-.5,1.71-.39.54-1.05.89-1.62.89-.75,0-1.13-.58-1.13-1.28,0-.1,0-.25.05-.44l.64-2.51c.22-.85.93-2.43,2.12-2.43.58,0,.92.31.92.9M22.12,74.66c-.13.05-.24.07-.48.07-.14,0-.34.01-.44-.04.02-.1.38-.08.49-.08.21,0,.3,0,.43.05ZM23.91,73.01c0-.75-.55-1.36-1.35-1.36-.58,0-.85.16-1.2.42-.55.4-1.09,1.36-1.28,2.12l-1.58,6.31s.04.1.12.1.11-.02.12-.05l.7-2.74c.19.6.63.96,1.35.96s1.47-.35,1.92-.79c.48-.46.8-1.09.8-1.83s-.37-1.23-.73-1.48c.58-.33,1.14-.94,1.14-1.66Z"/>
    <path d="M27.72,75.66c.06-.26.29-1.17.98-1.17.05,0,.29,0,.5.13-.28.05-.48.3-.48.54,0,.16.11.35.38.35.22,0,.54-.18.54-.57,0-.52-.59-.66-.92-.66-.58,0-.92.53-1.04.75-.25-.65-.79-.75-1.07-.75-1.03,0-1.6,1.28-1.6,1.53,0,.1.1.1.12.1.08,0,.11-.02.13-.11.34-1.05.99-1.3,1.33-1.3.19,0,.54.09.54.67,0,.31-.17.97-.54,2.36-.16.62-.51,1.03-.94,1.03-.06,0-.29,0-.5-.13.25-.05.47-.26.47-.54s-.22-.35-.37-.35c-.3,0-.55.26-.55.58,0,.46.5.66.93.66.66,0,1.01-.7,1.04-.75.12.37.48.75,1.07.75,1.02,0,1.59-1.28,1.59-1.53,0-.1-.09-.1-.12-.1-.09,0-.11.04-.13.11-.33,1.06-1,1.3-1.32,1.3-.39,0-.55-.32-.55-.66,0-.22.06-.44.17-.87l.34-1.36"/>
    <path d="M30.94,79.34c-.03.09-.06.17-.06.3,0,.33.28.6.67.6.7,0,1.01-.97,1.01-1.08,0-.09-.09-.09-.11-.09-.1,0-.11.04-.13.12-.16.56-.47.85-.75.85-.14,0-.17-.09-.17-.25,0-.16.05-.3.11-.45.07-.19.15-.38.23-.56.06-.17.32-.81.34-.89.02-.07.04-.15.04-.23,0-.33-.28-.6-.67-.6-.7,0-1.02.96-1.02,1.08,0,.09.1.09.12.09.1,0,.1-.04.13-.11.18-.6.49-.86.75-.86.11,0,.18.06.18.25,0,.16-.04.27-.22.7l-.44,1.13M32.38,75.77c0-.11-.08-.27-.28-.27s-.39.18-.39.39c0,.12.09.27.28.27.2,0,.39-.2.39-.39Z"/>
  </g>
  <circle class="cls-4" cx="142.67" cy="76.62" r="1.42"/>
</svg>