<?xml version="1.0" encoding="UTF-8"?>
<svg id="Ebene_1" data-name="Ebene 1" xmlns="http://www.w3.org/2000/svg" xmlns:xlink="http://www.w3.org/1999/xlink" viewBox="0 0 2080 820">
  <defs>
    <style>
      .cls-1, .cls-2, .cls-3, .cls-4, .cls-5, .cls-6 {
        font-weight: 700;
      }

      .cls-1, .cls-2, .cls-4, .cls-5 {
        font-family: Lora-Bold, Lora;
        font-size: 48px;
      }

      .cls-7 {
        clip-path: url(#clippath-7);
      }

      .cls-8 {
        clip-path: url(#clippath-4);
      }

      .cls-2, .cls-5 {
        letter-spacing: .49em;
      }

      .cls-9, .cls-10, .cls-11, .cls-12, .cls-13, .cls-14, .cls-15, .cls-16 {
        font-family: OpenSans-Regular, 'OpenSans Regular';
      }

      .cls-9, .cls-3, .cls-11, .cls-15, .cls-16, .cls-6 {
        font-size: 24px;
      }

      .cls-9, .cls-15 {
        letter-spacing: 1.29em;
      }

      .cls-17 {
        stroke: #d8d8d8;
      }

      .cls-17, .cls-18, .cls-19, .cls-20, .cls-21, .cls-22, .cls-23 {
        fill: none;
      }

      .cls-17, .cls-21 {
        stroke-width: 2px;
      }

      .cls-24 {
        clip-path: url(#clippath-9);
      }

      .cls-25 {
        clip-path: url(#clippath-10);
      }

      .cls-10 {
        fill: #909090;
        font-size: 18px;
      }

      .cls-26 {
        fill: #fff;
      }

      .cls-3 {
        letter-spacing: 1.24em;
      }

      .cls-3, .cls-6 {
        fill: #333;
        font-family: OpenSans-Bold, 'Open Sans';
      }

      .cls-27 {
        clip-path: url(#clippath-11);
      }

      .cls-19, .cls-20 {
        stroke-linecap: round;
        stroke-linejoin: round;
      }

      .cls-19, .cls-20, .cls-22, .cls-23 {
        stroke-width: 4px;
      }

      .cls-19, .cls-23 {
        stroke: #ba0f27;
      }

      .cls-28 {
        clip-path: url(#clippath-1);
      }

      .cls-29 {
        letter-spacing: .74em;
      }

      .cls-29, .cls-30, .cls-31 {
        fill: #777;
        font-family: Lora-Regular, Lora;
        font-size: 36px;
      }

      .cls-32 {
        clip-path: url(#clippath-5);
      }

      .cls-33 {
        clip-path: url(#clippath-8);
      }

      .cls-31 {
        letter-spacing: .74em;
      }

      .cls-34 {
        clip-path: url(#clippath-3);
      }

      .cls-20, .cls-22 {
        stroke: #000;
      }

      .cls-4, .cls-35, .cls-5, .cls-13, .cls-15, .cls-16 {
        fill: #ba0f27;
      }

      .cls-12 {
        letter-spacing: 1.42em;
      }

      .cls-12, .cls-13, .cls-14 {
        font-size: 22px;
      }

      .cls-36 {
        clip-path: url(#clippath-14);
      }

      .cls-37 {
        clip-path: url(#clippath-2);
      }

      .cls-21 {
        stroke: #c0d0e0;
      }

      .cls-38 {
        clip-path: url(#clippath-13);
      }
    </style>
    <clipPath id="clippath-1">
      <rect class="cls-18" width="2080" height="820"/>
    </clipPath>
    <clipPath id="clippath-2">
      <rect class="cls-18" width="2080" height="820"/>
    </clipPath>
    <clipPath id="clippath-3">
      <rect class="cls-18" width="2080" height="820"/>
    </clipPath>
    <clipPath id="clippath-4">
      <rect class="cls-18" width="2080" height="820"/>
    </clipPath>
    <clipPath id="clippath-5">
      <rect class="cls-18" x="158" y="272" width="1682" height="394"/>
    </clipPath>
    <clipPath id="clippath-7">
      <rect class="cls-18" width="2080" height="820"/>
    </clipPath>
    <clipPath id="clippath-8">
      <rect class="cls-18" width="2080" height="820"/>
    </clipPath>
    <clipPath id="clippath-9">
      <rect class="cls-18" width="2080" height="820"/>
    </clipPath>
    <clipPath id="clippath-10">
      <rect class="cls-18" width="2080" height="820"/>
    </clipPath>
    <clipPath id="clippath-11">
      <rect class="cls-18" x="158" y="272" width="1682" height="394"/>
    </clipPath>
    <clipPath id="clippath-13">
      <rect class="cls-18" width="2080" height="820"/>
    </clipPath>
    <clipPath id="clippath-14">
      <rect class="cls-18" width="2080" height="820"/>
    </clipPath>
    <clipPath id="clippath-16">
      <rect class="cls-18" width="2080" height="820"/>
    </clipPath>
  </defs>
  <g class="cls-28">
    <g class="cls-37">
      <rect class="cls-26" width="2080" height="820"/>
      <line class="cls-17" x1="158" y1="667" x2="1840" y2="667"/>
      <line class="cls-17" x1="158" y1="535" x2="1840" y2="535"/>
      <line class="cls-17" x1="158" y1="405" x2="1840" y2="405"/>
      <line class="cls-17" x1="158" y1="271" x2="1840" y2="271"/>
      <line class="cls-17" x1="158" y1="667" x2="1840" y2="667"/>
      <line class="cls-17" x1="158" y1="535" x2="1840" y2="535"/>
      <line class="cls-17" x1="158" y1="405" x2="1840" y2="405"/>
      <line class="cls-17" x1="158" y1="271" x2="1840" y2="271"/>
      <line class="cls-21" x1="325" y1="666" x2="325" y2="686"/>
      <line class="cls-21" x1="493" y1="666" x2="493" y2="686"/>
      <line class="cls-21" x1="661" y1="666" x2="661" y2="686"/>
      <line class="cls-21" x1="829" y1="666" x2="829" y2="686"/>
      <line class="cls-21" x1="999" y1="666" x2="999" y2="686"/>
      <line class="cls-21" x1="1167" y1="666" x2="1167" y2="686"/>
      <line class="cls-21" x1="1335" y1="666" x2="1335" y2="686"/>
      <line class="cls-21" x1="1503" y1="666" x2="1503" y2="686"/>
      <line class="cls-21" x1="1671" y1="666" x2="1671" y2="686"/>
      <line class="cls-21" x1="1839" y1="666" x2="1839" y2="686"/>
      <line class="cls-21" x1="157" y1="666" x2="157" y2="686"/>
      <line class="cls-21" x1="158" y1="667" x2="1840" y2="667"/>
      <line class="cls-21" x1="325" y1="272" x2="325" y2="252"/>
      <line class="cls-21" x1="493" y1="272" x2="493" y2="252"/>
      <line class="cls-21" x1="661" y1="272" x2="661" y2="252"/>
      <line class="cls-21" x1="829" y1="272" x2="829" y2="252"/>
      <line class="cls-21" x1="999" y1="272" x2="999" y2="252"/>
      <line class="cls-21" x1="1167" y1="272" x2="1167" y2="252"/>
      <line class="cls-21" x1="1335" y1="272" x2="1335" y2="252"/>
      <line class="cls-21" x1="1503" y1="272" x2="1503" y2="252"/>
      <line class="cls-21" x1="1671" y1="272" x2="1671" y2="252"/>
      <line class="cls-21" x1="1839" y1="272" x2="1839" y2="252"/>
      <line class="cls-21" x1="157" y1="272" x2="157" y2="252"/>
      <line class="cls-21" x1="158" y1="271" x2="1840" y2="271"/>
      <text class="cls-11" transform="translate(2028.09 339) rotate(90)"><tspan x="0" y="0">E</tspan></text>
      <text class="cls-11" transform="translate(2028.09 352) rotate(90)"><tspan x="0" y="0">n</tspan></text>
      <text class="cls-11" transform="translate(2028.09 367) rotate(90)"><tspan x="0" y="0">g</tspan></text>
      <text class="cls-11" transform="translate(2028.09 381) rotate(90)"><tspan x="0" y="0">i</tspan></text>
      <text class="cls-11" transform="translate(2028.09 387) rotate(90)"><tspan x="0" y="0">n</tspan></text>
      <text class="cls-11" transform="translate(2028.09 402) rotate(90)"><tspan x="0" y="0">e</tspan></text>
      <text class="cls-11" transform="translate(2028.09 415) rotate(90)"><tspan x="0" y="0">e</tspan></text>
      <text class="cls-11" transform="translate(2028.09 428) rotate(90)"><tspan x="0" y="0">r</tspan></text>
      <text class="cls-11" transform="translate(2028.09 438) rotate(90)"><tspan x="0" y="0">i</tspan></text>
      <text class="cls-11" transform="translate(2028.09 444) rotate(90)"><tspan x="0" y="0">n</tspan></text>
      <text class="cls-11" transform="translate(2028.09 459) rotate(90)"><tspan x="0" y="0">g</tspan></text>
      <text class="cls-9" transform="translate(2028.09 473) rotate(90)"><tspan x="0" y="0">	</tspan></text>
      <text class="cls-11" transform="translate(2028.09 479) rotate(90)"><tspan x="0" y="0">d</tspan></text>
      <text class="cls-11" transform="translate(2028.09 493) rotate(90)"><tspan x="0" y="0">o</tspan></text>
      <text class="cls-11" transform="translate(2028.09 507) rotate(90)"><tspan x="0" y="0">c</tspan></text>
      <text class="cls-11" transform="translate(2028.09 518) rotate(90)"><tspan x="0" y="0">t</tspan></text>
      <text class="cls-11" transform="translate(2028.09 528) rotate(90)"><tspan x="0" y="0">o</tspan></text>
      <text class="cls-11" transform="translate(2028.09 542) rotate(90)"><tspan x="0" y="0">r</tspan></text>
      <text class="cls-11" transform="translate(2028.09 552) rotate(90)"><tspan x="0" y="0">a</tspan></text>
      <text class="cls-11" transform="translate(2028.09 565) rotate(90)"><tspan x="0" y="0">t</tspan></text>
      <text class="cls-11" transform="translate(2028.09 575) rotate(90)"><tspan x="0" y="0">e</tspan></text>
      <text class="cls-11" transform="translate(2028.09 588) rotate(90)"><tspan x="0" y="0">s</tspan></text>
      <text class="cls-16" transform="translate(53.28 645.5) rotate(-90)"><tspan x="0" y="0">M</tspan></text>
      <text class="cls-16" transform="translate(53.28 624.5) rotate(-90)"><tspan x="0" y="0">o</tspan></text>
      <text class="cls-16" transform="translate(53.28 610.5) rotate(-90)"><tspan x="0" y="0">z</tspan></text>
      <text class="cls-16" transform="translate(53.28 599.5) rotate(-90)"><tspan x="0" y="0">z</tspan></text>
      <text class="cls-16" transform="translate(53.28 588.5) rotate(-90)"><tspan x="0" y="0">a</tspan></text>
      <text class="cls-16" transform="translate(53.28 575.5) rotate(-90)"><tspan x="0" y="0">r</tspan></text>
      <text class="cls-16" transform="translate(53.28 565.5) rotate(-90)"><tspan x="0" y="0">e</tspan></text>
      <text class="cls-16" transform="translate(53.28 552.5) rotate(-90)"><tspan x="0" y="0">l</tspan></text>
      <text class="cls-16" transform="translate(53.28 546.5) rotate(-90)"><tspan x="0" y="0">l</tspan></text>
      <text class="cls-16" transform="translate(53.28 540.5) rotate(-90)"><tspan x="0" y="0">a</tspan></text>
      <text class="cls-15" transform="translate(53.28 527.5) rotate(-90)"><tspan x="0" y="0">	</tspan></text>
      <text class="cls-16" transform="translate(53.28 521.5) rotate(-90)"><tspan x="0" y="0">c</tspan></text>
      <text class="cls-16" transform="translate(53.28 510.5) rotate(-90)"><tspan x="0" y="0">h</tspan></text>
      <text class="cls-16" transform="translate(53.28 495.5) rotate(-90)"><tspan x="0" y="0">e</tspan></text>
      <text class="cls-16" transform="translate(53.28 482.5) rotate(-90)"><tspan x="0" y="0">e</tspan></text>
      <text class="cls-16" transform="translate(53.28 469.5) rotate(-90)"><tspan x="0" y="0">s</tspan></text>
      <text class="cls-16" transform="translate(53.28 458.5) rotate(-90)"><tspan x="0" y="0">e</tspan></text>
      <text class="cls-15" transform="translate(53.28 445.5) rotate(-90)"><tspan x="0" y="0">	</tspan></text>
      <text class="cls-16" transform="translate(53.28 439.5) rotate(-90)"><tspan x="0" y="0">c</tspan></text>
      <text class="cls-16" transform="translate(53.28 428.5) rotate(-90)"><tspan x="0" y="0">o</tspan></text>
      <text class="cls-16" transform="translate(53.28 414.5) rotate(-90)"><tspan x="0" y="0">n</tspan></text>
      <text class="cls-16" transform="translate(53.28 399.5) rotate(-90)"><tspan x="0" y="0">s</tspan></text>
      <text class="cls-16" transform="translate(53.28 388.5) rotate(-90)"><tspan x="0" y="0">u</tspan></text>
      <text class="cls-16" transform="translate(53.28 373.5) rotate(-90)"><tspan x="0" y="0">m</tspan></text>
      <text class="cls-16" transform="translate(53.28 351.5) rotate(-90)"><tspan x="0" y="0">p</tspan></text>
      <text class="cls-16" transform="translate(53.28 337.5) rotate(-90)"><tspan x="0" y="0">t</tspan></text>
      <text class="cls-16" transform="translate(53.28 327.5) rotate(-90)"><tspan x="0" y="0">i</tspan></text>
      <text class="cls-16" transform="translate(53.28 321.5) rotate(-90)"><tspan x="0" y="0">o</tspan></text>
      <text class="cls-16" transform="translate(53.28 307.5) rotate(-90)"><tspan x="0" y="0">n</tspan></text>
    </g>
  </g>
  <g class="cls-34">
    <g class="cls-8">
      <g class="cls-32">
        <path class="cls-20" d="M242.1,613.47s100.92-5.91,168.2-13.79,100.92-18.91,168.2-25.61c67.28-6.7,100.92-7.88,168.2-7.88s100.92,3.28,168.2,3.28,100.92-35.07,168.2-49.25c67.28-14.18,100.92-11.29,168.2-21.67,67.28-10.38,100.92-22.98,168.2-30.21s100.92-7.22,168.2-7.22,168.2,2.63,168.2,2.63"/>
      </g>
    </g>
  </g>
  <g class="cls-7">
    <g class="cls-33">
      <path d="M1754,455.75c10.66,0,10.66,16,0,16s-10.66-16,0-16Z"/>
      <path d="M1586,453.12c10.66,0,10.66,16,0,16s-10.66-16,0-16Z"/>
      <path d="M1418,460.34c10.66,0,10.66,16,0,16s-10.66-16,0-16Z"/>
      <path d="M1250,490.55c10.66,0,10.66,16,0,16s-10.66-16,0-16Z"/>
      <path d="M1082,512.22c10.66,0,10.66,16,0,16s-10.66-16,0-16Z"/>
      <path d="M914,561.47c10.66,0,10.66,16,0,16s-10.66-16,0-16Z"/>
      <path d="M746,558.19c10.66,0,10.66,16,0,16s-10.66-16,0-16Z"/>
      <path d="M578,566.07c10.66,0,10.66,16,0,16s-10.66-16,0-16Z"/>
      <path d="M410,591.68c10.66,0,10.66,16,0,16s-10.66-16,0-16Z"/>
      <path d="M242,605.47c10.66,0,10.66,16,0,16s-10.66-16,0-16Z"/>
    </g>
  </g>
  <g class="cls-24">
    <g class="cls-25">
      <g class="cls-27">
        <path class="cls-19" d="M242.1,626.6s100.92-52.53,168.2-52.53h336.4c67.28,0,100.92-13.13,168.2-26.27,67.28-13.13,100.92-23.64,168.2-39.4,67.28-15.76,100.92-18.39,168.2-39.4,67.28-21.01,100.92-65.67,168.2-65.67s100.92,52.53,168.2,52.53h168.2"/>
      </g>
    </g>
  </g>
  <g class="cls-38">
    <g class="cls-36">
      <rect class="cls-35" x="1748.34" y="450.21" width="11.31" height="11.31" transform="translate(191.39 1373.79) rotate(-45)"/>
      <rect class="cls-35" x="1580.34" y="450.21" width="11.31" height="11.31" transform="translate(142.18 1254.99) rotate(-45)"/>
      <rect class="cls-35" x="1412.34" y="397.68" width="11.31" height="11.31" transform="translate(130.12 1120.81) rotate(-45)"/>
      <rect class="cls-35" x="1244.34" y="463.34" width="11.31" height="11.31" transform="translate(34.48 1021.25) rotate(-45)"/>
      <rect class="cls-35" x="1076.34" y="502.74" width="11.31" height="11.31" transform="translate(-42.58 914) rotate(-45)"/>
      <rect class="cls-35" x="908.34" y="542.14" width="11.31" height="11.31" transform="translate(-119.65 806.74) rotate(-45)"/>
      <rect class="cls-35" x="740.34" y="568.41" width="11.31" height="11.31" transform="translate(-187.43 695.64) rotate(-45)"/>
      <rect class="cls-35" x="572.34" y="568.41" width="11.31" height="11.31" transform="translate(-236.63 576.85) rotate(-45)"/>
      <rect class="cls-35" x="404.34" y="568.41" width="11.31" height="11.31" transform="translate(-285.84 458.05) rotate(-45)"/>
      <rect class="cls-35" x="236.34" y="620.94" width="11.31" height="11.31" transform="translate(-372.19 354.65) rotate(-45)"/>
      <text class="cls-4" transform="translate(518.5 48)"><tspan x="0" y="0">P</tspan></text>
      <text class="cls-4" transform="translate(548.5 48)"><tspan x="0" y="0">e</tspan></text>
      <text class="cls-4" transform="translate(574.5 48)"><tspan x="0" y="0">r</tspan></text>
      <text class="cls-5" transform="translate(598.5 48)"><tspan x="0" y="0">	</tspan></text>
      <text class="cls-4" transform="translate(611.5 48)"><tspan x="0" y="0">c</tspan></text>
      <text class="cls-4" transform="translate(636.5 48)"><tspan x="0" y="0">a</tspan></text>
      <text class="cls-4" transform="translate(661.5 48)"><tspan x="0" y="0">p</tspan></text>
      <text class="cls-4" transform="translate(691.5 48)"><tspan x="0" y="0">i</tspan></text>
      <text class="cls-4" transform="translate(707.5 48)"><tspan x="0" y="0">t</tspan></text>
      <text class="cls-4" transform="translate(727.5 48)"><tspan x="0" y="0">a</tspan></text>
      <text class="cls-5" transform="translate(752.5 48)"><tspan x="0" y="0">	</tspan></text>
      <text class="cls-4" transform="translate(765.5 48)"><tspan x="0" y="0">c</tspan></text>
      <text class="cls-4" transform="translate(790.5 48)"><tspan x="0" y="0">o</tspan></text>
      <text class="cls-4" transform="translate(817.5 48)"><tspan x="0" y="0">n</tspan></text>
      <text class="cls-4" transform="translate(848.5 48)"><tspan x="0" y="0">s</tspan></text>
      <text class="cls-4" transform="translate(872.5 48)"><tspan x="0" y="0">u</tspan></text>
      <text class="cls-4" transform="translate(902.5 48)"><tspan x="0" y="0">m</tspan></text>
      <text class="cls-4" transform="translate(946.5 48)"><tspan x="0" y="0">p</tspan></text>
      <text class="cls-4" transform="translate(976.5 48)"><tspan x="0" y="0">t</tspan></text>
      <text class="cls-4" transform="translate(996.5 48)"><tspan x="0" y="0">i</tspan></text>
      <text class="cls-4" transform="translate(1012.5 48)"><tspan x="0" y="0">o</tspan></text>
      <text class="cls-4" transform="translate(1039.5 48)"><tspan x="0" y="0">n</tspan></text>
      <text class="cls-5" transform="translate(1070.5 48)"><tspan x="0" y="0">	</tspan></text>
      <text class="cls-4" transform="translate(1083.5 48)"><tspan x="0" y="0">o</tspan></text>
      <text class="cls-4" transform="translate(1110.5 48)"><tspan x="0" y="0">f</tspan></text>
      <text class="cls-5" transform="translate(1127.5 48)"><tspan x="0" y="0">	</tspan></text>
      <text class="cls-4" transform="translate(1140.5 48)"><tspan x="0" y="0">m</tspan></text>
      <text class="cls-4" transform="translate(1184.5 48)"><tspan x="0" y="0">o</tspan></text>
      <text class="cls-4" transform="translate(1211.5 48)"><tspan x="0" y="0">z</tspan></text>
      <text class="cls-4" transform="translate(1236.5 48)"><tspan x="0" y="0">z</tspan></text>
      <text class="cls-4" transform="translate(1261.5 48)"><tspan x="0" y="0">a</tspan></text>
      <text class="cls-4" transform="translate(1286.5 48)"><tspan x="0" y="0">r</tspan></text>
      <text class="cls-4" transform="translate(1310.5 48)"><tspan x="0" y="0">e</tspan></text>
      <text class="cls-4" transform="translate(1336.5 48)"><tspan x="0" y="0">l</tspan></text>
      <text class="cls-4" transform="translate(1351.5 48)"><tspan x="0" y="0">l</tspan></text>
      <text class="cls-4" transform="translate(1366.5 48)"><tspan x="0" y="0">a</tspan></text>
      <text class="cls-5" transform="translate(1391.5 48)"><tspan x="0" y="0">	</tspan></text>
      <text class="cls-4" transform="translate(1404.5 48)"><tspan x="0" y="0">c</tspan></text>
      <text class="cls-4" transform="translate(1429.5 48)"><tspan x="0" y="0">h</tspan></text>
      <text class="cls-4" transform="translate(1459.5 48)"><tspan x="0" y="0">e</tspan></text>
      <text class="cls-4" transform="translate(1485.5 48)"><tspan x="0" y="0">e</tspan></text>
      <text class="cls-4" transform="translate(1511.5 48)"><tspan x="0" y="0">s</tspan></text>
      <text class="cls-4" transform="translate(1535.5 48)"><tspan x="0" y="0">e</tspan></text>
      <text class="cls-31" transform="translate(905 90)"><tspan x="0" y="0">	</tspan></text>
      <text class="cls-30" transform="translate(914 90)"><tspan x="0" y="0">c</tspan></text>
      <text class="cls-30" transform="translate(933 90)"><tspan x="0" y="0">o</tspan></text>
      <text class="cls-30" transform="translate(953 90)"><tspan x="0" y="0">r</tspan></text>
      <text class="cls-30" transform="translate(969 90)"><tspan x="0" y="0">r</tspan></text>
      <text class="cls-30" transform="translate(985 90)"><tspan x="0" y="0">e</tspan></text>
      <text class="cls-30" transform="translate(1005 90)"><tspan x="0" y="0">l</tspan></text>
      <text class="cls-30" transform="translate(1014 90)"><tspan x="0" y="0">a</tspan></text>
      <text class="cls-30" transform="translate(1032 90)"><tspan x="0" y="0">t</tspan></text>
      <text class="cls-30" transform="translate(1046 90)"><tspan x="0" y="0">e</tspan></text>
      <text class="cls-30" transform="translate(1066 90)"><tspan x="0" y="0">s</tspan></text>
      <text class="cls-29" transform="translate(1082 90)"><tspan x="0" y="0">	</tspan></text>
      <text class="cls-30" transform="translate(1091 90)"><tspan x="0" y="0">w</tspan></text>
      <text class="cls-30" transform="translate(1121 90)"><tspan x="0" y="0">i</tspan></text>
      <text class="cls-30" transform="translate(1131 90)"><tspan x="0" y="0">t</tspan></text>
      <text class="cls-30" transform="translate(1145 90)"><tspan x="0" y="0">h</tspan></text>
      <text class="cls-29" transform="translate(1166 90)"><tspan x="0" y="0">	</tspan></text>
      <text class="cls-1" transform="translate(604 148)"><tspan x="0" y="0">C</tspan></text>
      <text class="cls-1" transform="translate(637 148)"><tspan x="0" y="0">i</tspan></text>
      <text class="cls-1" transform="translate(653 148)"><tspan x="0" y="0">v</tspan></text>
      <text class="cls-1" transform="translate(680 148)"><tspan x="0" y="0">i</tspan></text>
      <text class="cls-1" transform="translate(696 148)"><tspan x="0" y="0">l</tspan></text>
      <text class="cls-2" transform="translate(711 148)"><tspan x="0" y="0">	</tspan></text>
      <text class="cls-1" transform="translate(724 148)"><tspan x="0" y="0">e</tspan></text>
      <text class="cls-1" transform="translate(750 148)"><tspan x="0" y="0">n</tspan></text>
      <text class="cls-1" transform="translate(781 148)"><tspan x="0" y="0">g</tspan></text>
      <text class="cls-1" transform="translate(808 148)"><tspan x="0" y="0">i</tspan></text>
      <text class="cls-1" transform="translate(824 148)"><tspan x="0" y="0">n</tspan></text>
      <text class="cls-1" transform="translate(855 148)"><tspan x="0" y="0">e</tspan></text>
      <text class="cls-1" transform="translate(881 148)"><tspan x="0" y="0">e</tspan></text>
      <text class="cls-1" transform="translate(907 148)"><tspan x="0" y="0">r</tspan></text>
      <text class="cls-1" transform="translate(931 148)"><tspan x="0" y="0">i</tspan></text>
      <text class="cls-1" transform="translate(947 148)"><tspan x="0" y="0">n</tspan></text>
      <text class="cls-1" transform="translate(978 148)"><tspan x="0" y="0">g</tspan></text>
      <text class="cls-2" transform="translate(1005 148)"><tspan x="0" y="0">	</tspan></text>
      <text class="cls-1" transform="translate(1018 148)"><tspan x="0" y="0">d</tspan></text>
      <text class="cls-1" transform="translate(1047 148)"><tspan x="0" y="0">o</tspan></text>
      <text class="cls-1" transform="translate(1074 148)"><tspan x="0" y="0">c</tspan></text>
      <text class="cls-1" transform="translate(1099 148)"><tspan x="0" y="0">t</tspan></text>
      <text class="cls-1" transform="translate(1119 148)"><tspan x="0" y="0">o</tspan></text>
      <text class="cls-1" transform="translate(1146 148)"><tspan x="0" y="0">r</tspan></text>
      <text class="cls-1" transform="translate(1170 148)"><tspan x="0" y="0">a</tspan></text>
      <text class="cls-1" transform="translate(1195 148)"><tspan x="0" y="0">t</tspan></text>
      <text class="cls-1" transform="translate(1215 148)"><tspan x="0" y="0">e</tspan></text>
      <text class="cls-1" transform="translate(1241 148)"><tspan x="0" y="0">s</tspan></text>
      <text class="cls-2" transform="translate(1265 148)"><tspan x="0" y="0">	</tspan></text>
      <text class="cls-1" transform="translate(1278 148)"><tspan x="0" y="0">a</tspan></text>
      <text class="cls-1" transform="translate(1303 148)"><tspan x="0" y="0">w</tspan></text>
      <text class="cls-1" transform="translate(1343 148)"><tspan x="0" y="0">a</tspan></text>
      <text class="cls-1" transform="translate(1368 148)"><tspan x="0" y="0">r</tspan></text>
      <text class="cls-1" transform="translate(1392 148)"><tspan x="0" y="0">d</tspan></text>
      <text class="cls-1" transform="translate(1421 148)"><tspan x="0" y="0">e</tspan></text>
      <text class="cls-1" transform="translate(1447 148)"><tspan x="0" y="0">d</tspan></text>
      <line class="cls-22" x1="658" y1="764" x2="690" y2="764"/>
      <path d="M674,756c10.66,0,10.66,16,0,16s-10.66-16,0-16Z"/>
      <text class="cls-6" transform="translate(700 772)"><tspan x="0" y="0">E</tspan></text>
      <text class="cls-6" transform="translate(713 772)"><tspan x="0" y="0">n</tspan></text>
      <text class="cls-6" transform="translate(729 772)"><tspan x="0" y="0">g</tspan></text>
      <text class="cls-6" transform="translate(744 772)"><tspan x="0" y="0">i</tspan></text>
      <text class="cls-6" transform="translate(751 772)"><tspan x="0" y="0">n</tspan></text>
      <text class="cls-6" transform="translate(767 772)"><tspan x="0" y="0">e</tspan></text>
      <text class="cls-6" transform="translate(781 772)"><tspan x="0" y="0">e</tspan></text>
      <text class="cls-6" transform="translate(795 772)"><tspan x="0" y="0">r</tspan></text>
      <text class="cls-6" transform="translate(806 772)"><tspan x="0" y="0">i</tspan></text>
      <text class="cls-6" transform="translate(813 772)"><tspan x="0" y="0">n</tspan></text>
      <text class="cls-6" transform="translate(829 772)"><tspan x="0" y="0">g</tspan></text>
      <text class="cls-3" transform="translate(844 772)"><tspan x="0" y="0">	</tspan></text>
      <text class="cls-6" transform="translate(850 772)"><tspan x="0" y="0">d</tspan></text>
      <text class="cls-6" transform="translate(865 772)"><tspan x="0" y="0">o</tspan></text>
      <text class="cls-6" transform="translate(880 772)"><tspan x="0" y="0">c</tspan></text>
      <text class="cls-6" transform="translate(892 772)"><tspan x="0" y="0">t</tspan></text>
      <text class="cls-6" transform="translate(903 772)"><tspan x="0" y="0">o</tspan></text>
      <text class="cls-6" transform="translate(918 772)"><tspan x="0" y="0">r</tspan></text>
      <text class="cls-6" transform="translate(929 772)"><tspan x="0" y="0">a</tspan></text>
      <text class="cls-6" transform="translate(943 772)"><tspan x="0" y="0">t</tspan></text>
      <text class="cls-6" transform="translate(954 772)"><tspan x="0" y="0">e</tspan></text>
      <text class="cls-6" transform="translate(968 772)"><tspan x="0" y="0">s</tspan></text>
      <line class="cls-23" x1="1008.22" y1="764" x2="1040.22" y2="764"/>
      <rect class="cls-35" x="1018.56" y="758.34" width="11.31" height="11.31" transform="translate(-240.24 948) rotate(-45)"/>
      <text class="cls-6" transform="translate(1050.22 772)"><tspan x="0" y="0">M</tspan></text>
      <text class="cls-6" transform="translate(1073.22 772)"><tspan x="0" y="0">o</tspan></text>
      <text class="cls-6" transform="translate(1088.22 772)"><tspan x="0" y="0">z</tspan></text>
      <text class="cls-6" transform="translate(1100.22 772)"><tspan x="0" y="0">z</tspan></text>
      <text class="cls-6" transform="translate(1112.22 772)"><tspan x="0" y="0">a</tspan></text>
      <text class="cls-6" transform="translate(1126.22 772)"><tspan x="0" y="0">r</tspan></text>
      <text class="cls-6" transform="translate(1137.22 772)"><tspan x="0" y="0">e</tspan></text>
      <text class="cls-6" transform="translate(1151.22 772)"><tspan x="0" y="0">l</tspan></text>
      <text class="cls-6" transform="translate(1159.22 772)"><tspan x="0" y="0">l</tspan></text>
      <text class="cls-6" transform="translate(1167.22 772)"><tspan x="0" y="0">a</tspan></text>
      <text class="cls-3" transform="translate(1181.22 772)"><tspan x="0" y="0">	</tspan></text>
      <text class="cls-6" transform="translate(1187.22 772)"><tspan x="0" y="0">c</tspan></text>
      <text class="cls-6" transform="translate(1199.22 772)"><tspan x="0" y="0">h</tspan></text>
      <text class="cls-6" transform="translate(1215.22 772)"><tspan x="0" y="0">e</tspan></text>
      <text class="cls-6" transform="translate(1229.22 772)"><tspan x="0" y="0">e</tspan></text>
      <text class="cls-6" transform="translate(1243.22 772)"><tspan x="0" y="0">s</tspan></text>
      <text class="cls-6" transform="translate(1255.22 772)"><tspan x="0" y="0">e</tspan></text>
      <text class="cls-3" transform="translate(1269.22 772)"><tspan x="0" y="0">	</tspan></text>
      <text class="cls-6" transform="translate(1275.22 772)"><tspan x="0" y="0">c</tspan></text>
      <text class="cls-6" transform="translate(1287.22 772)"><tspan x="0" y="0">o</tspan></text>
      <text class="cls-6" transform="translate(1302.22 772)"><tspan x="0" y="0">n</tspan></text>
      <text class="cls-6" transform="translate(1318.22 772)"><tspan x="0" y="0">s</tspan></text>
      <text class="cls-6" transform="translate(1330.22 772)"><tspan x="0" y="0">u</tspan></text>
      <text class="cls-6" transform="translate(1346.22 772)"><tspan x="0" y="0">m</tspan></text>
      <text class="cls-6" transform="translate(1369.22 772)"><tspan x="0" y="0">p</tspan></text>
      <text class="cls-6" transform="translate(1384.22 772)"><tspan x="0" y="0">t</tspan></text>
      <text class="cls-6" transform="translate(1395.22 772)"><tspan x="0" y="0">i</tspan></text>
      <text class="cls-6" transform="translate(1402.22 772)"><tspan x="0" y="0">o</tspan></text>
      <text class="cls-6" transform="translate(1417.22 772)"><tspan x="0" y="0">n</tspan></text>
      <text class="cls-14" transform="translate(218.09 704)"><tspan x="0" y="0">2</tspan></text>
      <text class="cls-14" transform="translate(230.09 704)"><tspan x="0" y="0">0</tspan></text>
      <text class="cls-14" transform="translate(242.09 704)"><tspan x="0" y="0">0</tspan></text>
      <text class="cls-14" transform="translate(254.09 704)"><tspan x="0" y="0">0</tspan></text>
      <text class="cls-14" transform="translate(385.8 704)"><tspan x="0" y="0">2</tspan></text>
      <text class="cls-14" transform="translate(397.8 704)"><tspan x="0" y="0">0</tspan></text>
      <text class="cls-14" transform="translate(409.8 704)"><tspan x="0" y="0">0</tspan></text>
      <text class="cls-14" transform="translate(421.8 704)"><tspan x="0" y="0">1</tspan></text>
      <text class="cls-14" transform="translate(554.5 704)"><tspan x="0" y="0">2</tspan></text>
      <text class="cls-14" transform="translate(566.5 704)"><tspan x="0" y="0">0</tspan></text>
      <text class="cls-14" transform="translate(578.5 704)"><tspan x="0" y="0">0</tspan></text>
      <text class="cls-14" transform="translate(590.5 704)"><tspan x="0" y="0">2</tspan></text>
      <text class="cls-14" transform="translate(722.69 704)"><tspan x="0" y="0">2</tspan></text>
      <text class="cls-14" transform="translate(734.69 704)"><tspan x="0" y="0">0</tspan></text>
      <text class="cls-14" transform="translate(746.69 704)"><tspan x="0" y="0">0</tspan></text>
      <text class="cls-14" transform="translate(758.69 704)"><tspan x="0" y="0">3</tspan></text>
      <text class="cls-14" transform="translate(889.89 704)"><tspan x="0" y="0">2</tspan></text>
      <text class="cls-14" transform="translate(901.89 704)"><tspan x="0" y="0">0</tspan></text>
      <text class="cls-14" transform="translate(913.89 704)"><tspan x="0" y="0">0</tspan></text>
      <text class="cls-14" transform="translate(925.89 704)"><tspan x="0" y="0">4</tspan></text>
      <text class="cls-14" transform="translate(1059.09 704)"><tspan x="0" y="0">2</tspan></text>
      <text class="cls-14" transform="translate(1071.09 704)"><tspan x="0" y="0">0</tspan></text>
      <text class="cls-14" transform="translate(1083.09 704)"><tspan x="0" y="0">0</tspan></text>
      <text class="cls-14" transform="translate(1095.09 704)"><tspan x="0" y="0">5</tspan></text>
      <text class="cls-14" transform="translate(1227.3 704)"><tspan x="0" y="0">2</tspan></text>
      <text class="cls-14" transform="translate(1239.3 704)"><tspan x="0" y="0">0</tspan></text>
      <text class="cls-14" transform="translate(1251.3 704)"><tspan x="0" y="0">0</tspan></text>
      <text class="cls-14" transform="translate(1263.3 704)"><tspan x="0" y="0">6</tspan></text>
      <text class="cls-14" transform="translate(1395.5 704)"><tspan x="0" y="0">2</tspan></text>
      <text class="cls-14" transform="translate(1407.5 704)"><tspan x="0" y="0">0</tspan></text>
      <text class="cls-14" transform="translate(1419.5 704)"><tspan x="0" y="0">0</tspan></text>
      <text class="cls-14" transform="translate(1431.5 704)"><tspan x="0" y="0">7</tspan></text>
      <text class="cls-14" transform="translate(1563.69 704)"><tspan x="0" y="0">2</tspan></text>
      <text class="cls-14" transform="translate(1575.69 704)"><tspan x="0" y="0">0</tspan></text>
      <text class="cls-14" transform="translate(1587.69 704)"><tspan x="0" y="0">0</tspan></text>
      <text class="cls-14" transform="translate(1599.69 704)"><tspan x="0" y="0">8</tspan></text>
      <text class="cls-14" transform="translate(1731.89 704)"><tspan x="0" y="0">2</tspan></text>
      <text class="cls-14" transform="translate(1743.89 704)"><tspan x="0" y="0">0</tspan></text>
      <text class="cls-14" transform="translate(1755.89 704)"><tspan x="0" y="0">0</tspan></text>
      <text class="cls-14" transform="translate(1767.89 704)"><tspan x="0" y="0">9</tspan></text>
      <text class="cls-13" transform="translate(218.09 242)"><tspan x="0" y="0">2</tspan></text>
      <text class="cls-13" transform="translate(230.09 242)"><tspan x="0" y="0">0</tspan></text>
      <text class="cls-13" transform="translate(242.09 242)"><tspan x="0" y="0">0</tspan></text>
      <text class="cls-13" transform="translate(254.09 242)"><tspan x="0" y="0">0</tspan></text>
      <text class="cls-13" transform="translate(385.8 242)"><tspan x="0" y="0">2</tspan></text>
      <text class="cls-13" transform="translate(397.8 242)"><tspan x="0" y="0">0</tspan></text>
      <text class="cls-13" transform="translate(409.8 242)"><tspan x="0" y="0">0</tspan></text>
      <text class="cls-13" transform="translate(421.8 242)"><tspan x="0" y="0">1</tspan></text>
      <text class="cls-13" transform="translate(554.5 242)"><tspan x="0" y="0">2</tspan></text>
      <text class="cls-13" transform="translate(566.5 242)"><tspan x="0" y="0">0</tspan></text>
      <text class="cls-13" transform="translate(578.5 242)"><tspan x="0" y="0">0</tspan></text>
      <text class="cls-13" transform="translate(590.5 242)"><tspan x="0" y="0">2</tspan></text>
      <text class="cls-13" transform="translate(722.69 242)"><tspan x="0" y="0">2</tspan></text>
      <text class="cls-13" transform="translate(734.69 242)"><tspan x="0" y="0">0</tspan></text>
      <text class="cls-13" transform="translate(746.69 242)"><tspan x="0" y="0">0</tspan></text>
      <text class="cls-13" transform="translate(758.69 242)"><tspan x="0" y="0">3</tspan></text>
      <text class="cls-13" transform="translate(889.89 242)"><tspan x="0" y="0">2</tspan></text>
      <text class="cls-13" transform="translate(901.89 242)"><tspan x="0" y="0">0</tspan></text>
      <text class="cls-13" transform="translate(913.89 242)"><tspan x="0" y="0">0</tspan></text>
      <text class="cls-13" transform="translate(925.89 242)"><tspan x="0" y="0">4</tspan></text>
      <text class="cls-13" transform="translate(1059.09 242)"><tspan x="0" y="0">2</tspan></text>
      <text class="cls-13" transform="translate(1071.09 242)"><tspan x="0" y="0">0</tspan></text>
      <text class="cls-13" transform="translate(1083.09 242)"><tspan x="0" y="0">0</tspan></text>
      <text class="cls-13" transform="translate(1095.09 242)"><tspan x="0" y="0">5</tspan></text>
      <text class="cls-13" transform="translate(1227.3 242)"><tspan x="0" y="0">2</tspan></text>
      <text class="cls-13" transform="translate(1239.3 242)"><tspan x="0" y="0">0</tspan></text>
      <text class="cls-13" transform="translate(1251.3 242)"><tspan x="0" y="0">0</tspan></text>
      <text class="cls-13" transform="translate(1263.3 242)"><tspan x="0" y="0">6</tspan></text>
      <text class="cls-13" transform="translate(1395.5 242)"><tspan x="0" y="0">2</tspan></text>
      <text class="cls-13" transform="translate(1407.5 242)"><tspan x="0" y="0">0</tspan></text>
      <text class="cls-13" transform="translate(1419.5 242)"><tspan x="0" y="0">0</tspan></text>
      <text class="cls-13" transform="translate(1431.5 242)"><tspan x="0" y="0">7</tspan></text>
      <text class="cls-13" transform="translate(1563.69 242)"><tspan x="0" y="0">2</tspan></text>
      <text class="cls-13" transform="translate(1575.69 242)"><tspan x="0" y="0">0</tspan></text>
      <text class="cls-13" transform="translate(1587.69 242)"><tspan x="0" y="0">0</tspan></text>
      <text class="cls-13" transform="translate(1599.69 242)"><tspan x="0" y="0">8</tspan></text>
      <text class="cls-13" transform="translate(1731.89 242)"><tspan x="0" y="0">2</tspan></text>
      <text class="cls-13" transform="translate(1743.89 242)"><tspan x="0" y="0">0</tspan></text>
      <text class="cls-13" transform="translate(1755.89 242)"><tspan x="0" y="0">0</tspan></text>
      <text class="cls-13" transform="translate(1767.89 242)"><tspan x="0" y="0">9</tspan></text>
      <text class="cls-14" transform="translate(1870 674)"><tspan x="0" y="0">4</tspan></text>
      <text class="cls-14" transform="translate(1884 674)"><tspan x="0" y="0">0</tspan></text>
      <text class="cls-14" transform="translate(1896 674)"><tspan x="0" y="0">0</tspan></text>
      <text class="cls-12" transform="translate(1908 674)"><tspan x="0" y="0">	</tspan></text>
      <text class="cls-14" transform="translate(1914 674)"><tspan x="0" y="0">d</tspan></text>
      <text class="cls-14" transform="translate(1927 674)"><tspan x="0" y="0">e</tspan></text>
      <text class="cls-14" transform="translate(1939 674)"><tspan x="0" y="0">g</tspan></text>
      <text class="cls-14" transform="translate(1952 674)"><tspan x="0" y="0">r</tspan></text>
      <text class="cls-14" transform="translate(1961 674)"><tspan x="0" y="0">e</tspan></text>
      <text class="cls-14" transform="translate(1973 674)"><tspan x="0" y="0">e</tspan></text>
      <text class="cls-14" transform="translate(1985 674)"><tspan x="0" y="0">s</tspan></text>
      <text class="cls-14" transform="translate(1870 542)"><tspan x="0" y="0">6</tspan></text>
      <text class="cls-14" transform="translate(1882 542)"><tspan x="0" y="0">0</tspan></text>
      <text class="cls-14" transform="translate(1894 542)"><tspan x="0" y="0">0</tspan></text>
      <text class="cls-12" transform="translate(1906 542)"><tspan x="0" y="0">	</tspan></text>
      <text class="cls-14" transform="translate(1912 542)"><tspan x="0" y="0">d</tspan></text>
      <text class="cls-14" transform="translate(1925 542)"><tspan x="0" y="0">e</tspan></text>
      <text class="cls-14" transform="translate(1937 542)"><tspan x="0" y="0">g</tspan></text>
      <text class="cls-14" transform="translate(1950 542)"><tspan x="0" y="0">r</tspan></text>
      <text class="cls-14" transform="translate(1959 542)"><tspan x="0" y="0">e</tspan></text>
      <text class="cls-14" transform="translate(1971 542)"><tspan x="0" y="0">e</tspan></text>
      <text class="cls-14" transform="translate(1983 542)"><tspan x="0" y="0">s</tspan></text>
      <text class="cls-14" transform="translate(1870 410)"><tspan x="0" y="0">8</tspan></text>
      <text class="cls-14" transform="translate(1882 410)"><tspan x="0" y="0">0</tspan></text>
      <text class="cls-14" transform="translate(1894 410)"><tspan x="0" y="0">0</tspan></text>
      <text class="cls-12" transform="translate(1906 410)"><tspan x="0" y="0">	</tspan></text>
      <text class="cls-14" transform="translate(1912 410)"><tspan x="0" y="0">d</tspan></text>
      <text class="cls-14" transform="translate(1925 410)"><tspan x="0" y="0">e</tspan></text>
      <text class="cls-14" transform="translate(1937 410)"><tspan x="0" y="0">g</tspan></text>
      <text class="cls-14" transform="translate(1950 410)"><tspan x="0" y="0">r</tspan></text>
      <text class="cls-14" transform="translate(1959 410)"><tspan x="0" y="0">e</tspan></text>
      <text class="cls-14" transform="translate(1971 410)"><tspan x="0" y="0">e</tspan></text>
      <text class="cls-14" transform="translate(1983 410)"><tspan x="0" y="0">s</tspan></text>
      <text class="cls-14" transform="translate(1870 280)"><tspan x="0" y="0">1</tspan></text>
      <text class="cls-14" transform="translate(1883 280)"><tspan x="0" y="0">0</tspan></text>
      <text class="cls-14" transform="translate(1895 280)"><tspan x="0" y="0">0</tspan></text>
      <text class="cls-14" transform="translate(1907 280)"><tspan x="0" y="0">0</tspan></text>
      <text class="cls-12" transform="translate(1919 280)"><tspan x="0" y="0">	</tspan></text>
      <text class="cls-14" transform="translate(1925 280)"><tspan x="0" y="0">d</tspan></text>
      <text class="cls-14" transform="translate(1938 280)"><tspan x="0" y="0">e</tspan></text>
      <text class="cls-14" transform="translate(1950 280)"><tspan x="0" y="0">g</tspan></text>
      <text class="cls-14" transform="translate(1963 280)"><tspan x="0" y="0">r</tspan></text>
      <text class="cls-14" transform="translate(1972 280)"><tspan x="0" y="0">e</tspan></text>
      <text class="cls-14" transform="translate(1984 280)"><tspan x="0" y="0">e</tspan></text>
      <text class="cls-14" transform="translate(1996 280)"><tspan x="0" y="0">s</tspan></text>
      <text class="cls-13" transform="translate(87 674)"><tspan x="0" y="0">9</tspan></text>
      <text class="cls-13" transform="translate(99 674)"><tspan x="0" y="0">l</tspan></text>
      <text class="cls-13" transform="translate(105 674)"><tspan x="0" y="0">b</tspan></text>
      <text class="cls-13" transform="translate(118 674)"><tspan x="0" y="0">s</tspan></text>
      <text class="cls-13" transform="translate(74 542)"><tspan x="0" y="0">1</tspan></text>
      <text class="cls-13" transform="translate(87 542)"><tspan x="0" y="0">0</tspan></text>
      <text class="cls-13" transform="translate(99 542)"><tspan x="0" y="0">l</tspan></text>
      <text class="cls-13" transform="translate(105 542)"><tspan x="0" y="0">b</tspan></text>
      <text class="cls-13" transform="translate(118 542)"><tspan x="0" y="0">s</tspan></text>
      <text class="cls-13" transform="translate(73 410)"><tspan x="0" y="0">1</tspan></text>
      <text class="cls-13" transform="translate(86 410)"><tspan x="0" y="0">1</tspan></text>
      <text class="cls-13" transform="translate(99 410)"><tspan x="0" y="0">l</tspan></text>
      <text class="cls-13" transform="translate(105 410)"><tspan x="0" y="0">b</tspan></text>
      <text class="cls-13" transform="translate(118 410)"><tspan x="0" y="0">s</tspan></text>
      <text class="cls-13" transform="translate(74 280)"><tspan x="0" y="0">1</tspan></text>
      <text class="cls-13" transform="translate(87 280)"><tspan x="0" y="0">2</tspan></text>
      <text class="cls-13" transform="translate(99 280)"><tspan x="0" y="0">l</tspan></text>
      <text class="cls-13" transform="translate(105 280)"><tspan x="0" y="0">b</tspan></text>
      <text class="cls-13" transform="translate(118 280)"><tspan x="0" y="0">s</tspan></text>
      <text class="cls-10" transform="translate(1933 810)"><tspan x="0" y="0">t</tspan></text>
      <text class="cls-10" transform="translate(1941 810)"><tspan x="0" y="0">y</tspan></text>
      <text class="cls-10" transform="translate(1950 810)"><tspan x="0" y="0">l</tspan></text>
      <text class="cls-10" transform="translate(1955 810)"><tspan x="0" y="0">e</tspan></text>
      <text class="cls-10" transform="translate(1965 810)"><tspan x="0" y="0">r</tspan></text>
      <text class="cls-10" transform="translate(1973 810)"><tspan x="0" y="0">v</tspan></text>
      <text class="cls-10" transform="translate(1982 810)"><tspan x="0" y="0">i</tspan></text>
      <text class="cls-10" transform="translate(1987 810)"><tspan x="0" y="0">g</tspan></text>
      <text class="cls-10" transform="translate(1998 810)"><tspan x="0" y="0">e</tspan></text>
      <text class="cls-10" transform="translate(2008 810)"><tspan x="0" y="0">n</tspan></text>
      <text class="cls-10" transform="translate(2019 810)"><tspan x="0" y="0">.</tspan></text>
      <text class="cls-10" transform="translate(2023 810)"><tspan x="0" y="0">c</tspan></text>
      <text class="cls-10" transform="translate(2032 810)"><tspan x="0" y="0">o</tspan></text>
      <text class="cls-10" transform="translate(2043 810)"><tspan x="0" y="0">m</tspan></text>
    </g>
  </g>
</svg>