<?xml version="1.0" encoding="UTF-8"?>
<svg id="Layer_1" data-name="Layer 1" xmlns="http://www.w3.org/2000/svg" xmlns:xlink="http://www.w3.org/1999/xlink" viewBox="0 0 399.74 207.76">
  <defs>
    <style>
      .cls-1 {
        stroke: #000;
        stroke-miterlimit: 10;
        stroke-width: .4px;
      }

      .cls-1, .cls-2, .cls-3, .cls-4, .cls-5, .cls-6, .cls-7, .cls-8, .cls-9, .cls-10 {
        fill: none;
      }

      .cls-11 {
        clip-path: url(#clippath-4);
      }

      .cls-12 {
        opacity: .61;
      }

      .cls-2 {
        stroke: #ed2224;
        stroke-width: 2px;
      }

      .cls-2, .cls-3, .cls-4, .cls-6, .cls-7, .cls-8, .cls-10 {
        stroke-linecap: round;
        stroke-linejoin: round;
      }

      .cls-3 {
        stroke: #00aeef;
        stroke-width: 1.5px;
      }

      .cls-13 {
        fill: #231f20;
      }

      .cls-4 {
        stroke-width: .75px;
      }

      .cls-4, .cls-9 {
        stroke: #231f20;
      }

      .cls-14 {
        clip-path: url(#clippath-1);
      }

      .cls-6 {
        opacity: .63;
      }

      .cls-6, .cls-8 {
        stroke: #010101;
      }

      .cls-6, .cls-8, .cls-9 {
        stroke-width: .5px;
      }

      .cls-7 {
        stroke: #39b54a;
      }

      .cls-15 {
        clip-path: url(#clippath-3);
      }

      .cls-16 {
        fill: #010101;
      }

      .cls-16, .cls-17 {
        fill-rule: evenodd;
      }

      .cls-18 {
        clip-path: url(#clippath-2);
      }

      .cls-17 {
        fill: #818181;
      }

      .cls-9 {
        stroke-miterlimit: 3.25;
      }

      .cls-19 {
        clip-path: url(#clippath);
      }

      .cls-20 {
        fill: #fcce7f;
      }

      .cls-10 {
        stroke: #fcce7f;
        stroke-width: .03px;
      }
    </style>
    <clipPath id="clippath">
      <rect class="cls-5" x="392.95" y="202.2" width="6" height="5"/>
    </clipPath>
    <clipPath id="clippath-1">
      <rect class="cls-5" x="176.26" y="202.76" width="6" height="5"/>
    </clipPath>
    <clipPath id="clippath-2">
      <rect class="cls-5" x="293.24" y="87.71" width="19" height="13"/>
    </clipPath>
    <clipPath id="clippath-3">
      <rect class="cls-5" y="123.47" width="115" height="22"/>
    </clipPath>
    <clipPath id="clippath-4">
      <rect class="cls-5" x="212.2" y="16.78" width="126" height="9"/>
    </clipPath>
  </defs>
  <g class="cls-12">
    <rect class="cls-20" x="182.38" y="169.27" width="20.3" height="25.92"/>
    <rect class="cls-10" x="182.38" y="169.27" width="20.3" height="25.92"/>
    <rect class="cls-6" x="182.38" y="169.27" width="20.3" height="25.92"/>
    <rect class="cls-20" x="202.68" y="169.27" width="20.3" height="25.92"/>
    <rect class="cls-10" x="202.68" y="169.27" width="20.3" height="25.92"/>
    <rect class="cls-6" x="202.68" y="169.27" width="20.3" height="25.92"/>
    <rect class="cls-20" x="222.98" y="117.41" width="20.3" height="77.78"/>
    <rect class="cls-10" x="222.98" y="117.41" width="20.3" height="77.78"/>
    <rect class="cls-6" x="222.98" y="117.41" width="20.3" height="77.78"/>
    <rect class="cls-20" x="243.27" y="117.41" width="20.3" height="77.78"/>
    <rect class="cls-10" x="243.27" y="117.41" width="20.3" height="77.78"/>
    <rect class="cls-6" x="243.27" y="117.41" width="20.3" height="77.78"/>
    <rect class="cls-20" x="263.57" y="39.64" width="20.3" height="155.55"/>
    <rect class="cls-10" x="263.57" y="39.64" width="20.3" height="155.55"/>
    <rect class="cls-6" x="263.57" y="39.64" width="20.3" height="155.55"/>
    <rect class="cls-20" x="283.87" y="143.34" width="20.3" height="51.85"/>
    <rect class="cls-10" x="283.87" y="143.34" width="20.3" height="51.85"/>
    <rect class="cls-6" x="283.87" y="143.34" width="20.3" height="51.85"/>
    <rect class="cls-20" x="304.17" y="117.41" width="20.3" height="77.78"/>
    <rect class="cls-10" x="304.17" y="117.41" width="20.3" height="77.78"/>
    <rect class="cls-6" x="304.17" y="117.41" width="20.3" height="77.78"/>
    <rect class="cls-20" x="324.47" y="169.27" width="20.3" height="25.92"/>
    <rect class="cls-10" x="324.47" y="169.27" width="20.3" height="25.92"/>
    <rect class="cls-6" x="324.47" y="169.27" width="20.3" height="25.92"/>
  </g>
  <polyline class="cls-3" points="152.47 193.95 152.67 192.08 152.79 190.92 153.04 188.59 153.53 183.98 153.65 182.83 153.78 181.69 154.02 179.42 154.52 174.93 155.5 166.11 155.62 165.02 155.75 163.94 155.99 161.78 156.49 157.51 157.47 149.15 159.44 133.11 159.58 132.06 159.71 131.01 159.98 128.92 160.51 124.8 161.58 116.75 163.72 101.46 163.85 100.54 163.99 99.63 164.26 97.81 164.79 94.22 165.86 87.26 168 74.13 168.12 73.4 168.25 72.67 168.5 71.22 169 68.38 169.99 62.86 171.99 52.52 172.11 51.91 172.24 51.3 172.49 50.08 172.99 47.71 173.99 43.13 175.98 34.67 176.12 34.13 176.25 33.6 176.52 32.54 177.06 30.48 178.14 26.57 178.28 26.1 178.42 25.63 178.68 24.71 179.23 22.93 180.31 19.57 180.44 19.17 180.58 18.77 180.85 17.99 181.39 16.48 182.47 13.68 182.61 13.34 182.74 13.02 183.01 12.37 183.55 11.14 184.63 8.88 184.77 8.63 184.9 8.37 185.17 7.88 185.69 6.94 185.83 6.71 185.96 6.49 186.23 6.06 186.76 5.25 186.89 5.06 187.02 4.88 187.29 4.51 187.82 3.84 187.95 3.68 188.08 3.53 188.35 3.23 188.88 2.69 189.01 2.57 189.15 2.44 189.41 2.21 189.54 2.11 189.68 2 189.94 1.81 190.08 1.72 190.21 1.63 190.47 1.46 190.61 1.39 190.74 1.32 191.01 1.19 191.14 1.13 191.27 1.08 191.4 1.03 191.53 .98 191.67 .94 191.8 .9 191.93 .87 192.07 .84 192.2 .81 192.33 .79 192.47 .78 192.6 .76 192.73 .75 192.86 .75 192.99 .75 193.13 .75 193.25 .76 193.38 .77 193.5 .79 193.62 .8 193.75 .83 193.87 .85 193.99 .88 194.12 .91 194.24 .95 194.36 .99 194.49 1.03 194.61 1.08 194.74 1.13 194.86 1.19 195.11 1.31 195.23 1.37 195.36 1.44 195.6 1.59 195.73 1.67 195.85 1.75 196.1 1.93 196.22 2.02 196.35 2.12 196.59 2.33 197.09 2.78 197.21 2.91 197.34 3.03 197.58 3.3 198.08 3.87 198.2 4.02 198.33 4.18 198.57 4.5 199.07 5.19 199.19 5.37 199.32 5.55 199.56 5.93 200.06 6.73 201.05 8.52 201.18 8.77 201.32 9.04 201.59 9.58 202.12 10.71 203.2 13.17 203.33 13.5 203.47 13.83 203.73 14.51 204.27 15.91 205.35 18.92 205.48 19.31 205.61 19.71 205.88 20.53 206.42 22.2 207.49 25.75 209.64 33.68 209.77 34.17 209.89 34.67 210.14 35.68 210.65 37.75 211.65 42.05 213.65 51.38 213.78 52 213.9 52.61 214.15 53.86 214.65 56.4 215.66 61.66 217.66 72.88 217.8 73.67 217.93 74.47 218.21 76.08 218.75 79.36 219.83 86.11 222.01 100.46 226.35 132.49 226.49 133.55 226.62 134.6 226.89 136.73 227.42 141.04 228.48 149.85 228.62 150.97 228.75 152.09 229.02 154.36 229.55 158.93 230.62 168.28 230.75 169.47 230.88 170.66 231.15 173.05 231.69 177.9 231.82 179.12 231.95 180.34 232.22 182.81 232.75 187.78 232.89 189.04 233.02 190.3 233.15 191.56 233.28 192.83 233.4 193.95"/>
  <line class="cls-7" x1="197.6" y1="195.19" x2="197.6" y2="3.31"/>
  <line class="cls-7" x1="204.12" y1="195.19" x2="204.12" y2="15.51"/>
  <g>
    <line class="cls-13" x1="125.29" y1="195.19" x2="399.74" y2="195.3"/>
    <g>
      <line class="cls-4" x1="125.29" y1="195.19" x2="397.62" y2="195.3"/>
      <polygon class="cls-13" points="393.18 197.69 392.93 196.98 397.54 195.3 392.93 193.62 393.18 192.92 399.74 195.3 393.18 197.69"/>
    </g>
  </g>
  <line class="cls-2" x1="125.29" y1="195.19" x2="156.87" y2="195.19"/>
  <polyline class="cls-2" points="157.13 195.13 157.47 194.97 157.6 194.91 157.72 194.85 157.96 194.73 158.46 194.5 159.44 194.05 159.71 193.94 159.98 193.82 160.51 193.58 161.58 193.12 161.72 193.06 161.85 193.01 162.12 192.89 162.65 192.67 162.78 192.62 162.92 192.56 163.05 192.51 163.32 192.4 163.4 192.37"/>
  <polyline class="cls-2" points="163.66 192.2 163.72 192.15 163.99 191.91 164.26 191.68 164.79 191.22 165.86 190.32 168 188.61 168.12 188.52 168.25 188.42 168.5 188.23 169 187.85 169.99 187.11 171.99 185.7 172.24 185.54 172.49 185.37 172.99 185.04 173.99 184.39 175.98 183.17 176.25 183.02 176.52 182.86 177.06 182.55 178.14 181.96 180.31 180.86 180.44 180.79 180.58 180.73 180.85 180.6 181.39 180.34 182.47 179.86 184.63 178.98 184.9 178.88 185.17 178.78 185.69 178.58 186.76 178.22 186.89 178.17 187.02 178.13 187.29 178.04 187.82 177.88 187.95 177.84 188.08 177.8 188.22 177.76 188.35 177.72 188.48 177.68 188.62 177.64 188.66 177.63"/>
  <polyline class="cls-2" points="188.92 177.49 189.01 177.42 189.15 177.32 189.41 177.12 189.94 176.73 191.01 175.99 193.13 174.61 193.25 174.54 193.38 174.46 193.62 174.31 193.87 174.17 194.12 174.02 194.36 173.88 194.49 173.81 194.61 173.74 194.63 173.73"/>
  <polyline class="cls-2" points="194.89 173.53 195.11 173.31 195.23 173.18 195.36 173.06 195.6 172.81 196.1 172.32 197.09 171.39 197.21 171.27 197.34 171.16 197.58 170.94 198.08 170.5 199.07 169.66 201.05 168.11 201.18 168.01 201.32 167.91 201.59 167.72 201.72 167.63 201.86 167.53 201.99 167.44 202.09 167.37"/>
  <polyline class="cls-2" points="205.65 163.34 205.88 162.9 206.42 161.9 207.49 159.96 209.64 156.39 209.89 156 210.14 155.61 210.65 154.85 211.65 153.39 211.77 153.22 211.9 153.04 212.15 152.7 212.65 152.02 213.65 150.73 213.78 150.58 213.9 150.42 214.15 150.12 214.65 149.52 215.66 148.4 217.66 146.4 217.8 146.28 217.93 146.16 218.21 145.92 218.34 145.8 218.48 145.68 218.75 145.46 218.79 145.42"/>
  <polyline class="cls-2" points="226.17 138.39 226.35 138.19 226.49 138.05 226.62 137.91 226.89 137.64 227.42 137.12 227.55 136.99 227.69 136.87 227.95 136.63 228.48 136.16 228.62 136.05 228.75 135.95 229.02 135.73 229.55 135.33 229.68 135.24 229.82 135.15 230.09 134.96 230.62 134.62 230.75 134.54 230.88 134.46 231.15 134.31 231.28 134.24 231.42 134.17 231.69 134.03 231.82 133.97 231.95 133.91 232.22 133.78 232.75 133.56 232.89 133.51 233.02 133.46 233.15 133.42 233.28 133.37 233.42 133.33 233.44 133.32"/>
  <polyline class="cls-2" points="234.03 132.88 234.08 132.81 234.35 132.5 234.88 131.9 235.01 131.77 235.13 131.64 235.38 131.38 235.51 131.25 235.63 131.13 235.88 130.89 236 130.77 236.04 130.73"/>
  <polyline class="cls-2" points="242.43 122.27 242.84 121.45 242.98 121.19 243.11 120.94 243.38 120.44 243.92 119.46 244.59 118.32"/>
  <polyline class="cls-2" points="249.44 109.6 249.59 109.31 249.86 108.8 250.4 107.82 251.47 105.98 251.6 105.78 251.73 105.58 251.98 105.19 252.48 104.43 252.61 104.24 252.73 104.06 252.98 103.71 253.49 103.03 253.61 102.87 253.74 102.7 253.99 102.39 254.49 101.79 255.5 100.7 255.63 100.58 255.75 100.45 255.77 100.44"/>
  <polyline class="cls-2" points="256.03 100.13 256.26 99.82 256.51 99.48 256.63 99.31 256.76 99.15 257.01 98.84 257.52 98.24 257.64 98.09 257.77 97.95 258.02 97.67 258.52 97.16 258.65 97.04 258.78 96.91 259.03 96.68 259.53 96.25 259.65 96.15 259.78 96.05 260.03 95.86 260.15 95.77 260.27 95.68 260.52 95.52 260.64 95.44 260.76 95.36 261.01 95.21 261.51 94.95 261.63 94.89 261.75 94.83 262 94.73 262.25 94.63 262.49 94.54 262.62 94.5 262.74 94.46 262.86 94.43 262.99 94.4 263.11 94.37 263.23 94.34 263.36 94.32 263.48 94.3 263.6 94.28 263.73 94.26 263.97 94.23 264.1 94.22 264.22 94.22 264.34 94.21 264.47 94.21 264.59 94.21 264.84 94.22 264.96 94.23 265.09 94.24 265.21 94.25 265.33 94.27 265.45 94.29 265.7 94.33 265.82 94.36 265.95 94.39 266.07 94.42 266.2 94.45 266.44 94.52 266.57 94.56 266.69 94.61 266.94 94.7 267.06 94.75 267.18 94.81 267.31 94.86 267.43 94.92"/>
  <polyline class="cls-2" points="283.54 106.07 283.75 106.12 284 106.19 284.13 106.23 284.27 106.27 284.54 106.37 284.67 106.42 284.81 106.48 285.08 106.6 285.21 106.67 285.35 106.74 285.62 106.88 285.76 106.96 285.89 107.04 286.03 107.12 286.16 107.21 286.18 107.22"/>
  <polyline class="cls-2" points="286.84 107.13 286.98 107.04 287.25 106.87 287.38 106.79 287.52 106.71 287.79 106.56 287.92 106.49 288.06 106.42 288.33 106.3 288.46 106.24 288.6 106.18 288.87 106.08 289.14 105.98 289.41 105.9 289.55 105.86 289.68 105.83 289.82 105.8 289.96 105.77 290.22 105.72 290.36 105.7 290.5 105.69 290.63 105.67 290.77 105.66 290.9 105.65 291.04 105.65 291.17 105.64 291.31 105.64 291.44 105.65 291.58 105.65 291.72 105.66 291.85 105.67 291.99 105.68 292.12 105.7 292.26 105.72 292.39 105.74 292.53 105.77 292.8 105.83 292.93 105.86 293.06 105.9 293.19 105.93 293.33 105.97 293.46 106.02 293.73 106.12 293.86 106.17 293.99 106.22 294.26 106.34 294.39 106.4 294.52 106.47 294.79 106.6 294.92 106.68 295.06 106.76 295.32 106.92 295.85 107.27 296.12 107.46 296.39 107.67 296.92 108.11 297.05 108.22 297.18 108.35 297.45 108.59 297.98 109.12 299.04 110.3 299.98 111.49"/>
  <polyline class="cls-2" points="307.36 121.7 309.24 124.62 309.38 124.85 309.65 125.31 310.18 126.25 311.26 128.26 313.41 132.71 313.68 133.31 313.95 133.92 314.08 134.23 314.22 134.54 314.49 135.17 314.62 135.49 314.63 135.51"/>
  <line class="cls-2" x1="330.63" y1="157.07" x2="336.96" y2="163.78"/>
  <line class="cls-2" x1="337.22" y1="164.04" x2="348.62" y2="176.01"/>
  <polyline class="cls-2" points="348.88 176.29 358.79 186.46 358.92 186.62 359.04 186.77 359.29 187.07 359.8 187.69 360.81 188.96 361.06 189.28 361.31 189.61 361.81 190.26 362.82 191.6 363.08 191.94 363.33 192.29 363.46 192.46 363.58 192.63 363.83 192.98 363.96 193.15 364.08 193.33 364.12 193.37"/>
  <polyline class="cls-2" points="364.64 193.85 364.97 194 365.35 194.17 365.85 194.4 365.98 194.46 366.1 194.52 366.35 194.63 366.86 194.87 366.98 194.93 367.11 194.99 367.23 195.04 367.35 195.1 367.41 195.13"/>
  <line class="cls-2" x1="367.66" y1="195.19" x2="387.59" y2="195.19"/>
  <polyline class="cls-2" points="205.25 163.99 205.35 163.84 205.39 163.77"/>
  <polyline class="cls-2" points="219.05 145.15 219.16 145.01 219.29 144.84 219.83 144.18 219.97 144.01 220.11 143.85 220.38 143.54 220.92 142.92 222.01 141.79 222.14 141.65 222.28 141.52 222.55 141.26 223.09 140.76 224.18 139.84 224.31 139.73 224.45 139.63 224.72 139.42 225.27 139.03 225.4 138.94 225.54 138.85 225.67 138.76 225.81 138.67 225.91 138.61"/>
  <polyline class="cls-2" points="244.85 117.83 247.16 113.34 247.29 113.1 247.43 112.87 247.7 112.41 248.24 111.51 249.18 110.04"/>
  <polyline class="cls-2" points="270.11 95.57 270.24 95.57 270.38 95.57 270.51 95.58 270.64 95.59 270.78 95.61 270.91 95.62 271.04 95.64 271.18 95.66 271.31 95.69 271.45 95.71 271.58 95.74 271.72 95.78 271.85 95.82 271.98 95.85 272.12 95.9 272.25 95.94 272.38 95.99 272.52 96.04 272.78 96.15 272.92 96.21 273.05 96.28 273.32 96.41 273.86 96.72 273.99 96.81 274.12 96.89 274.39 97.07 274.93 97.48 275.06 97.58 275.2 97.69 275.46 97.92 275.6 98.05 275.73 98.17 275.83 98.25"/>
  <polyline class="cls-2" points="276.08 98.44 276.5 98.67 277 98.97 277.12 99.05 277.25 99.13 277.5 99.31 278 99.69 278.12 99.79 278.25 99.89 278.5 100.11 279 100.56 280 101.59 280.12 101.73 280.25 101.87 280.5 102.16 281 102.77 281.25 103.09 281.5 103.42 282 104.11 282.12 104.28 282.25 104.46 282.5 104.83 282.62 105.02 282.75 105.21 282.87 105.4 282.93 105.49"/>
  <polyline class="cls-2" points="300.24 111.78 301.42 112.94 301.67 113.21 302.16 113.77 303.16 115 303.28 115.17 303.4 115.33 303.65 115.67 304.15 116.37 305.14 117.88 305.26 118.08 305.39 118.28 305.64 118.69 306.13 119.53 307.1 121.28"/>
  <polyline class="cls-2" points="317.49 140.22 317.97 140.82 318.22 141.14 318.72 141.81 319.72 143.23 319.97 143.59 320.22 143.97 320.73 144.73 320.85 144.93 320.98 145.12 321.23 145.52 321.35 145.72 321.48 145.92 321.73 146.33 323.16 148.77"/>
  <polyline class="cls-2" points="323.49 149.27 326.73 152.39 327.72 153.49 329.69 155.88 330.37 156.78"/>
  <polyline class="cls-2" points="202.35 167.13 202.66 166.78 203.2 166.18 203.33 166.03 203.47 165.88 203.73 165.59 204.27 165.03 204.41 164.89 204.54 164.75 204.81 164.48 204.99 164.3"/>
  <polyline class="cls-2" points="236.3 130.43 236.87 129.66 238.06 128.22"/>
  <polyline class="cls-2" points="267.69 94.99 267.83 95 267.96 95.01 268.1 95.03 268.23 95.05 268.37 95.07 268.5 95.09 268.64 95.12 268.77 95.15 268.9 95.18 269.04 95.22 269.17 95.26 269.3 95.3 269.57 95.4 269.71 95.45 269.84 95.51 269.85 95.51"/>
  <polyline class="cls-2" points="238.32 127.87 239.11 126.66 239.36 126.3 239.86 125.6 240.85 124.29 240.98 124.14 241.1 123.98 241.35 123.69 241.48 123.54 241.6 123.4 241.85 123.12 241.97 122.98"/>
  <polyline class="cls-2" points="315.22 136.64 315.56 137.16 315.7 137.36 315.83 137.57 316.1 137.99 316.64 138.85 317.23 139.84"/>
  <polyline class="cls-2" points="286.43 107.29 286.57 107.25 286.58 107.25"/>
  <line class="cls-2" x1="283.19" y1="105.83" x2="283.28" y2="105.94"/>
  <line class="cls-2" x1="364.38" y1="193.67" x2="364.38" y2="193.68"/>
  <line class="cls-2" x1="314.89" y1="136.07" x2="314.96" y2="136.2"/>
  <line class="cls-2" x1="233.7" y1="133.19" x2="233.77" y2="133.14"/>
  <line class="cls-7" x1="229.39" y1="195.19" x2="229.39" y2="157.51"/>
  <path class="cls-17" d="M236.18,195.3c0-.15-.06-.29-.17-.4-.11-.11-.25-.17-.4-.17s-.29.06-.4.17c-.11.11-.17.25-.17.4s.06.29.17.4c.11.11.25.17.4.17s.29-.06.4-.17c.11-.11.17-.25.17-.4Z"/>
  <path class="cls-17" d="M243.52,195.3c0-.15-.06-.29-.17-.4-.11-.11-.25-.17-.4-.17s-.29.06-.4.17c-.11.11-.17.25-.17.4s.06.29.17.4c.11.11.25.17.4.17s.29-.06.4-.17c.11-.11.17-.25.17-.4Z"/>
  <path class="cls-17" d="M246.91,195.3c0-.15-.06-.29-.17-.4-.11-.11-.25-.17-.4-.17s-.29.06-.4.17c-.11.11-.17.25-.17.4s.06.29.17.4c.11.11.25.17.4.17s.29-.06.4-.17c.11-.11.17-.25.17-.4Z"/>
  <path class="cls-17" d="M259.9,195.3c0-.15-.06-.29-.17-.4-.11-.11-.25-.17-.4-.17s-.29.06-.4.17c-.11.11-.17.25-.17.4s.06.29.17.4c.11.11.25.17.4.17s.29-.06.4-.17c.11-.11.17-.25.17-.4Z"/>
  <path class="cls-17" d="M246.35,195.3c0-.15-.06-.29-.17-.4-.11-.11-.25-.17-.4-.17s-.29.06-.4.17c-.11.11-.17.25-.17.4s.06.29.17.4c.11.11.25.17.4.17s.29-.06.4-.17c.11-.11.17-.25.17-.4Z"/>
  <path class="cls-17" d="M267.24,195.3c0-.15-.06-.29-.17-.4-.11-.11-.25-.17-.4-.17s-.29.06-.4.17c-.11.11-.17.25-.17.4s.06.29.17.4c.11.11.25.17.4.17s.29-.06.4-.17c.11-.11.17-.25.17-.4Z"/>
  <path class="cls-17" d="M274.59,195.3c0-.15-.06-.29-.17-.4-.11-.11-.25-.17-.4-.17s-.29.06-.4.17c-.11.11-.17.25-.17.4s.06.29.17.4c.11.11.25.17.4.17s.29-.06.4-.17c.11-.11.17-.25.17-.4Z"/>
  <path class="cls-17" d="M275.15,195.3c0-.15-.06-.29-.17-.4-.11-.11-.25-.17-.4-.17s-.29.06-.4.17c-.11.11-.17.25-.17.4s.06.29.17.4c.11.11.25.17.4.17s.29-.06.4-.17c.11-.11.17-.25.17-.4Z"/>
  <path class="cls-17" d="M277.41,195.3c0-.15-.06-.29-.17-.4-.11-.11-.25-.17-.4-.17s-.29.06-.4.17c-.11.11-.17.25-.17.4s.06.29.17.4c.11.11.25.17.4.17s.29-.06.4-.17c.11-.11.17-.25.17-.4Z"/>
  <path class="cls-17" d="M283.06,195.3c0-.15-.06-.29-.17-.4-.11-.11-.25-.17-.4-.17s-.29.06-.4.17c-.11.11-.17.25-.17.4s.06.29.17.4c.11.11.25.17.4.17s.29-.06.4-.17c.11-.11.17-.25.17-.4Z"/>
  <path class="cls-17" d="M283.62,195.3c0-.15-.06-.29-.17-.4-.11-.11-.25-.17-.4-.17s-.29.06-.4.17c-.11.11-.17.25-.17.4s.06.29.17.4c.11.11.25.17.4.17s.29-.06.4-.17c.11-.11.17-.25.17-.4Z"/>
  <path class="cls-17" d="M290.4,195.3c0-.15-.06-.29-.17-.4-.11-.11-.25-.17-.4-.17s-.29.06-.4.17c-.11.11-.17.25-.17.4s.06.29.17.4c.11.11.25.17.4.17s.29-.06.4-.17c.11-.11.17-.25.17-.4Z"/>
  <path class="cls-17" d="M297.18,195.3c0-.15-.06-.29-.17-.4-.11-.11-.25-.17-.4-.17s-.29.06-.4.17c-.11.11-.17.25-.17.4s.06.29.17.4c.11.11.25.17.4.17s.29-.06.4-.17c.11-.11.17-.25.17-.4Z"/>
  <path class="cls-17" d="M308.47,195.3c0-.15-.06-.29-.17-.4-.11-.11-.25-.17-.4-.17s-.29.06-.4.17c-.11.11-.17.25-.17.4s.06.29.17.4c.11.11.25.17.4.17s.29-.06.4-.17c.11-.11.17-.25.17-.4Z"/>
  <path class="cls-17" d="M324.28,195.3c0-.15-.06-.29-.17-.4-.11-.11-.25-.17-.4-.17s-.29.06-.4.17c-.11.11-.17.25-.17.4s.06.29.17.4c.11.11.25.17.4.17s.29-.06.4-.17c.11-.11.17-.25.17-.4Z"/>
  <path class="cls-17" d="M324.28,195.3c0-.15-.06-.29-.17-.4-.11-.11-.25-.17-.4-.17s-.29.06-.4.17c-.11.11-.17.25-.17.4s.06.29.17.4c.11.11.25.17.4.17s.29-.06.4-.17c.11-.11.17-.25.17-.4Z"/>
  <path class="cls-17" d="M327.67,195.3c0-.15-.06-.29-.17-.4-.11-.11-.25-.17-.4-.17s-.29.06-.4.17c-.11.11-.17.25-.17.4s.06.29.17.4c.11.11.25.17.4.17s.29-.06.4-.17c.11-.11.17-.25.17-.4Z"/>
  <line class="cls-2" x1="192.94" y1="195.19" x2="192.94" y2="174.73"/>
  <path class="cls-16" d="M200.14,195.3c0-.55-.25-1.09-.69-1.48-.44-.39-1.05-.61-1.67-.61s-1.23.22-1.67.61c-.44.39-.69.92-.69,1.48s.25,1.09.69,1.48c.44.39,1.05.61,1.67.61s1.23-.22,1.67-.61c.44-.39.69-.92.69-1.48Z"/>
  <path class="cls-16" d="M206.36,195.3c0-.55-.25-1.09-.69-1.48-.44-.39-1.05-.61-1.67-.61s-1.23.22-1.67.61c-.44.39-.69.92-.69,1.48s.25,1.09.69,1.48c.44.39,1.05.61,1.67.61s1.23-.22,1.67-.61c.44-.39.69-.92.69-1.48Z"/>
  <path class="cls-16" d="M231.77,195.3c0-.55-.25-1.09-.69-1.48-.44-.39-1.05-.61-1.67-.61s-1.23.22-1.67.61c-.44.39-.69.92-.69,1.48s.25,1.09.69,1.48c.44.39,1.05.61,1.67.61s1.23-.22,1.67-.61c.44-.39.69-.92.69-1.48Z"/>
  <path class="cls-16" d="M237.98,195.3c0-.55-.25-1.09-.69-1.48-.44-.39-1.05-.61-1.67-.61s-1.23.22-1.67.61c-.44.39-.69.92-.69,1.48s.25,1.09.69,1.48c.44.39,1.05.61,1.67.61s1.23-.22,1.67-.61c.44-.39.69-.92.69-1.48Z"/>
  <path class="cls-16" d="M245.33,195.3c0-.55-.25-1.09-.69-1.48-.44-.39-1.05-.61-1.67-.61s-1.23.22-1.67.61c-.44.39-.69.92-.69,1.48s.25,1.09.69,1.48c.44.39,1.05.61,1.67.61s1.23-.22,1.67-.61c.44-.39.69-.92.69-1.48Z"/>
  <path class="cls-16" d="M248.71,195.3c0-.55-.25-1.09-.69-1.48-.44-.39-1.05-.61-1.67-.61s-1.23.22-1.67.61c-.44.39-.69.92-.69,1.48s.25,1.09.69,1.48c.44.39,1.05.61,1.67.61s1.23-.22,1.67-.61c.44-.39.69-.92.69-1.48Z"/>
  <path class="cls-16" d="M261.7,195.3c0-.55-.25-1.09-.69-1.48-.44-.39-1.05-.61-1.67-.61s-1.23.22-1.67.61c-.44.39-.69.92-.69,1.48s.25,1.09.69,1.48c.44.39,1.05.61,1.67.61s1.23-.22,1.67-.61c.44-.39.69-.92.69-1.48Z"/>
  <path class="cls-16" d="M248.15,195.3c0-.55-.25-1.09-.69-1.48-.44-.39-1.05-.61-1.67-.61s-1.23.22-1.67.61c-.44.39-.69.92-.69,1.48s.25,1.09.69,1.48c.44.39,1.05.61,1.67.61s1.23-.22,1.67-.61c.44-.39.69-.92.69-1.48Z"/>
  <path class="cls-16" d="M269.05,195.3c0-.55-.25-1.09-.69-1.48-.44-.39-1.05-.61-1.67-.61s-1.23.22-1.67.61c-.44.39-.69.92-.69,1.48s.25,1.09.69,1.48c.44.39,1.05.61,1.67.61s1.23-.22,1.67-.61c.44-.39.69-.92.69-1.48Z"/>
  <path class="cls-16" d="M276.39,195.3c0-.55-.25-1.09-.69-1.48-.44-.39-1.05-.61-1.67-.61s-1.23.22-1.67.61c-.44.39-.69.92-.69,1.48s.25,1.09.69,1.48c.44.39,1.05.61,1.67.61s1.23-.22,1.67-.61c.44-.39.69-.92.69-1.48Z"/>
  <path class="cls-16" d="M276.95,195.3c0-.55-.25-1.09-.69-1.48-.44-.39-1.05-.61-1.67-.61s-1.23.22-1.67.61c-.44.39-.69.92-.69,1.48s.25,1.09.69,1.48c.44.39,1.05.61,1.67.61s1.23-.22,1.67-.61c.44-.39.69-.92.69-1.48Z"/>
  <path class="cls-16" d="M279.21,195.3c0-.55-.25-1.09-.69-1.48-.44-.39-1.05-.61-1.67-.61s-1.23.22-1.67.61c-.44.39-.69.92-.69,1.48s.25,1.09.69,1.48c.44.39,1.05.61,1.67.61s1.23-.22,1.67-.61c.44-.39.69-.92.69-1.48Z"/>
  <path class="cls-16" d="M284.86,195.3c0-.55-.25-1.09-.69-1.48-.44-.39-1.05-.61-1.67-.61s-1.23.22-1.67.61c-.44.39-.69.92-.69,1.48s.25,1.09.69,1.48c.44.39,1.05.61,1.67.61s1.23-.22,1.67-.61c.44-.39.69-.92.69-1.48Z"/>
  <path class="cls-16" d="M285.42,195.3c0-.55-.25-1.09-.69-1.48-.44-.39-1.05-.61-1.67-.61s-1.23.22-1.67.61c-.44.39-.69.92-.69,1.48s.25,1.09.69,1.48c.44.39,1.05.61,1.67.61s1.23-.22,1.67-.61c.44-.39.69-.92.69-1.48Z"/>
  <path class="cls-16" d="M292.2,195.3c0-.55-.25-1.09-.69-1.48-.44-.39-1.05-.61-1.67-.61s-1.23.22-1.67.61c-.44.39-.69.92-.69,1.48s.25,1.09.69,1.48c.44.39,1.05.61,1.67.61s1.23-.22,1.67-.61c.44-.39.69-.92.69-1.48Z"/>
  <path class="cls-16" d="M298.98,195.3c0-.55-.25-1.09-.69-1.48-.44-.39-1.05-.61-1.67-.61s-1.23.22-1.67.61c-.44.39-.69.92-.69,1.48s.25,1.09.69,1.48c.44.39,1.05.61,1.67.61s1.23-.22,1.67-.61c.44-.39.69-.92.69-1.48Z"/>
  <path class="cls-16" d="M310.27,195.3c0-.55-.25-1.09-.69-1.48-.44-.39-1.05-.61-1.67-.61s-1.23.22-1.67.61c-.44.39-.69.92-.69,1.48s.25,1.09.69,1.48c.44.39,1.05.61,1.67.61s1.23-.22,1.67-.61c.44-.39.69-.92.69-1.48Z"/>
  <path class="cls-16" d="M326.09,195.3c0-.55-.25-1.09-.69-1.48-.44-.39-1.05-.61-1.67-.61s-1.23.22-1.67.61c-.44.39-.69.92-.69,1.48s.25,1.09.69,1.48c.44.39,1.05.61,1.67.61s1.23-.22,1.67-.61c.44-.39.69-.92.69-1.48Z"/>
  <path class="cls-16" d="M326.09,195.3c0-.55-.25-1.09-.69-1.48-.44-.39-1.05-.61-1.67-.61s-1.23.22-1.67.61c-.44.39-.69.92-.69,1.48s.25,1.09.69,1.48c.44.39,1.05.61,1.67.61s1.23-.22,1.67-.61c.44-.39.69-.92.69-1.48Z"/>
  <path class="cls-16" d="M329.48,195.3c0-.55-.25-1.09-.69-1.48-.44-.39-1.05-.61-1.67-.61s-1.23.22-1.67.61c-.44.39-.69.92-.69,1.48s.25,1.09.69,1.48c.44.39,1.05.61,1.67.61s1.23-.22,1.67-.61c.44-.39.69-.92.69-1.48Z"/>
  <g class="cls-19">
    <path d="M396.96,204c.06-.26.29-1.17.98-1.17.05,0,.29,0,.5.13-.28.05-.48.3-.48.54,0,.16.11.35.38.35.22,0,.54-.18.54-.58,0-.52-.59-.66-.92-.66-.58,0-.92.53-1.04.75-.25-.65-.79-.75-1.07-.75-1.03,0-1.6,1.28-1.6,1.53,0,.1.1.1.12.1.08,0,.11-.02.13-.11.34-1.05.99-1.3,1.33-1.3.19,0,.54.09.54.67,0,.31-.17.97-.54,2.36-.16.62-.51,1.03-.94,1.03-.06,0-.29,0-.5-.13.25-.05.47-.26.47-.54s-.22-.35-.37-.35c-.3,0-.55.26-.55.58,0,.46.5.66.93.66.66,0,1.01-.7,1.04-.75.12.37.48.75,1.07.75,1.02,0,1.59-1.28,1.59-1.53,0-.1-.09-.1-.12-.1-.09,0-.11.04-.13.11-.33,1.06-1,1.3-1.32,1.3-.39,0-.55-.32-.55-.66,0-.22.06-.44.17-.87l.34-1.36"/>
  </g>
  <g class="cls-14">
    <path d="M180.28,204.56c.06-.26.29-1.17.98-1.17.05,0,.29,0,.5.13-.28.05-.48.3-.48.54,0,.16.11.35.38.35.22,0,.54-.18.54-.58,0-.52-.59-.66-.92-.66-.58,0-.92.53-1.04.75-.25-.65-.79-.75-1.07-.75-1.03,0-1.6,1.28-1.6,1.53,0,.1.1.1.12.1.08,0,.11-.02.13-.11.34-1.05.99-1.3,1.33-1.3.19,0,.54.09.54.67,0,.31-.17.97-.54,2.36-.16.62-.51,1.03-.94,1.03-.06,0-.29,0-.5-.13.25-.05.47-.26.47-.54s-.22-.35-.37-.35c-.3,0-.55.26-.55.58,0,.46.5.66.93.66.66,0,1.01-.7,1.04-.75.12.37.48.75,1.07.75,1.02,0,1.59-1.28,1.59-1.53,0-.1-.09-.1-.12-.1-.09,0-.11.04-.13.11-.33,1.06-1,1.3-1.32,1.3-.39,0-.55-.32-.55-.66,0-.22.06-.44.17-.87l.34-1.36"/>
  </g>
  <g class="cls-18">
    <polyline points="297.53 88.72 296.2 90.07 296.38 90.25 297.53 89.23 298.67 90.25 298.85 90.07 297.53 88.72"/>
    <path d="M296.59,94.24h.85c.2,0,.3,0,.3-.2,0-.11-.1-.11-.27-.11h-.82l.21-1.13c.04-.21.18-.91.24-1.03.09-.19.26-.34.47-.34.04,0,.3,0,.49.18-.44.04-.54.39-.54.54,0,.23.18.35.37.35.26,0,.55-.22.55-.6,0-.46-.46-.69-.86-.69-.34,0-.96.18-1.26,1.16-.06.21-.09.31-.33,1.56h-.69c-.19,0-.3,0-.3.19,0,.12.09.12.28.12h.65l-.75,3.92c-.18.96-.35,1.87-.86,1.87-.04,0-.29,0-.48-.18.46-.03.55-.39.55-.54,0-.23-.18-.35-.37-.35-.26,0-.55.22-.55.6,0,.45.44.68.84.68.55,0,.94-.59,1.12-.96.32-.63.55-1.83.56-1.9l.6-3.15"/>
    <path d="M302.13,100.6s0-.05-.17-.22c-1.24-1.25-1.56-3.13-1.56-4.65,0-1.73.38-3.46,1.6-4.7.13-.12.13-.14.13-.17,0-.07-.04-.1-.1-.1-.1,0-.99.68-1.58,1.94-.51,1.09-.63,2.2-.63,3.03,0,.77.11,1.98.66,3.1.6,1.22,1.45,1.87,1.55,1.87.06,0,.1-.03.1-.1"/>
    <path d="M306.06,95.21c.06-.26.29-1.17.98-1.17.05,0,.29,0,.5.13-.28.05-.48.3-.48.54,0,.16.11.35.38.35.22,0,.54-.18.54-.57,0-.52-.59-.66-.92-.66-.58,0-.92.53-1.04.75-.25-.65-.79-.75-1.07-.75-1.03,0-1.6,1.28-1.6,1.53,0,.1.1.1.12.1.08,0,.11-.02.13-.11.34-1.05.99-1.3,1.33-1.3.19,0,.54.09.54.67,0,.31-.17.97-.54,2.36-.16.62-.51,1.03-.94,1.03-.06,0-.29,0-.5-.13.25-.05.47-.26.47-.54s-.22-.35-.37-.35c-.3,0-.55.26-.55.58,0,.46.5.66.93.66.66,0,1.01-.7,1.04-.75.12.37.48.75,1.07.75,1.02,0,1.59-1.28,1.59-1.53,0-.1-.09-.1-.12-.1-.09,0-.11.04-.13.11-.33,1.06-1,1.3-1.32,1.3-.39,0-.55-.32-.55-.66,0-.22.06-.44.17-.87l.34-1.36"/>
    <path d="M311.32,95.73c0-.78-.11-1.98-.65-3.1-.6-1.22-1.45-1.87-1.55-1.87-.06,0-.1.04-.1.1,0,.03,0,.05.19.23.97.98,1.54,2.56,1.54,4.64,0,1.7-.37,3.45-1.6,4.7-.13.12-.13.14-.13.17,0,.06.04.1.1.1.1,0,.99-.68,1.58-1.94.51-1.09.62-2.2.62-3.03"/>
  </g>
  <polyline class="cls-8" points="192.28 173.19 146.15 134.65 120.76 134.65"/>
  <g>
    <line class="cls-9" x1="211.66" y1="3.31" x2="253.18" y2="3.31"/>
    <polygon class="cls-13" points="250.23 4.9 250.06 4.43 253.13 3.31 250.06 2.19 250.23 1.72 254.6 3.31 250.23 4.9"/>
  </g>
  <g>
    <line class="cls-9" x1="173.94" y1="3.31" x2="132.41" y2="3.31"/>
    <polygon class="cls-13" points="135.37 1.72 135.54 2.19 132.46 3.31 135.54 4.43 135.37 4.9 131 3.31 135.37 1.72"/>
  </g>
  <g class="cls-15">
    <path d="M6.79,130.15c.13.22.53.62.64.62.09,0,.09-.08.09-.23v-1.73c0-.39.04-.44.69-.44v-.31c-.37.01-.91.03-1.21.03-.4,0-1.24,0-1.6-.03v.31h.32c.89,0,.92.11.92.48v.64c0,1.11-1.26,1.2-1.54,1.2-.65,0-2.61-.35-2.61-3.31s1.96-3.3,2.55-3.3c1.06,0,1.97.89,2.17,2.35.02.14.02.17.16.17.16,0,.16-.03.16-.24v-2.35c0-.17,0-.24-.11-.24-.04,0-.08,0-.16.12l-.5.74c-.32-.32-.85-.85-1.84-.85-1.85,0-3.46,1.57-3.46,3.61s1.59,3.62,3.48,3.62c.72,0,1.52-.26,1.86-.85"/>
    <path d="M9.8,128.48h2.77c.22,0,.25,0,.25-.21,0-.98-.54-1.95-1.78-1.95-1.15,0-2.07,1.02-2.07,2.26,0,1.33,1.04,2.3,2.19,2.3,1.21,0,1.66-1.1,1.66-1.29,0-.1-.08-.12-.13-.12-.09,0-.11.06-.13.14-.35,1.02-1.24,1.02-1.34,1.02-.5,0-.89-.3-1.12-.67-.3-.48-.3-1.13-.3-1.49M9.81,128.27c.06-1.48.89-1.73,1.23-1.73,1.02,0,1.12,1.34,1.12,1.73h-2.35Z"/>
    <path d="M15.17,128.85c.22.04,1.03.2,1.03.91,0,.51-.35.9-1.12.9-.83,0-1.19-.57-1.38-1.41-.03-.13-.04-.17-.14-.17-.13,0-.13.07-.13.25v1.31c0,.17,0,.24.11.24.05,0,.06,0,.25-.2.02-.02.02-.04.2-.23.44.42.88.43,1.09.43,1.14,0,1.6-.67,1.6-1.38,0-.53-.3-.82-.42-.94-.33-.32-.72-.4-1.13-.48-.56-.11-1.22-.24-1.22-.81,0-.35.26-.75,1.11-.75,1.09,0,1.14.89,1.16,1.2,0,.09.1.09.12.09.13,0,.13-.05.13-.24v-1c0-.17,0-.24-.11-.24-.05,0-.07,0-.2.12-.03.04-.13.13-.17.16-.38-.28-.79-.28-.93-.28-1.21,0-1.59.67-1.59,1.22,0,.35.16.62.43.84.32.26.6.32,1.31.46"/>
    <path d="M20.24,128.39v.99c0,.94-.72,1.28-1.16,1.28-.49,0-.89-.35-.89-.84,0-.55.42-1.37,2.06-1.43M20.31,130.02c.04.4.31.81.77.81.21,0,.81-.14.81-.94v-.56h-.25v.56c0,.58-.25.64-.36.64-.33,0-.37-.45-.37-.5v-1.99c0-.42,0-.8-.36-1.17-.39-.39-.88-.55-1.36-.55-.81,0-1.5.47-1.5,1.12,0,.3.2.47.46.47.28,0,.46-.2.46-.46,0-.12-.05-.45-.51-.46.27-.35.75-.46,1.07-.46.49,0,1.05.39,1.05,1.27v.37c-.51.03-1.2.06-1.83.36-.75.34-.99.85-.99,1.29,0,.8.96,1.05,1.59,1.05.66,0,1.11-.4,1.3-.86Z"/>
    <path d="M23.09,127.35v2.66c0,.45-.11.45-.78.45v.31c.35,0,.85-.03,1.12-.03s.78.02,1.11.03v-.31c-.67,0-.77,0-.77-.45v-1.83c0-1.03.7-1.59,1.34-1.59s.74.54.74,1.1v2.31c0,.45-.11.45-.77.45v.31c.35,0,.85-.03,1.12-.03s.77.02,1.11.03v-.31c-.67,0-.77,0-.77-.45v-1.83c0-1.03.71-1.59,1.34-1.59s.73.54.73,1.1v2.31c0,.45-.11.45-.77.45v.31c.35,0,.85-.03,1.12-.03s.77.02,1.11.03v-.31c-.52,0-.77,0-.78-.3v-1.9c0-.85,0-1.16-.31-1.52-.14-.17-.47-.37-1.04-.37-.83,0-1.27.6-1.44.97-.14-.86-.87-.97-1.32-.97-.73,0-1.19.43-1.47,1.04v-1.04l-1.4.11v.31c.7,0,.78.07.78.56"/>
    <path d="M31.72,126.8h1.42v-.31h-1.42v-1.83h-.25c0,.81-.31,1.88-1.28,1.92v.22h.84v2.74c0,1.22.92,1.34,1.28,1.34.71,0,.98-.7.98-1.34v-.57h-.25v.55c0,.73-.3,1.11-.67,1.11-.67,0-.67-.9-.67-1.07v-2.76"/>
    <path d="M35.66,123.88l-1.43.11v.31c.7,0,.78.07.78.56v5.17c0,.45-.11.45-.78.45v.31c.33,0,.85-.03,1.1-.03s.74.02,1.1.03v-.31c-.67,0-.78,0-.78-.45v-6.14"/>
    <path d="M40.63,125.02c0-.28-.22-.5-.5-.5-.3,0-.5.26-.5.5s.2.5.5.5c.28,0,.5-.22.5-.5M38.72,125.02c0-.24-.2-.5-.5-.5-.28,0-.5.22-.5.5s.22.5.5.5c.3,0,.5-.26.5-.5Z"/>
    <path d="M39.94,128.39v.99c0,.94-.72,1.28-1.16,1.28-.49,0-.89-.35-.89-.84,0-.55.42-1.37,2.06-1.43M40.01,130.02c.04.4.31.81.77.81.21,0,.81-.14.81-.94v-.56h-.25v.56c0,.58-.25.64-.36.64-.33,0-.37-.45-.37-.5v-1.99c0-.42,0-.8-.36-1.17-.39-.39-.88-.55-1.36-.55-.81,0-1.5.47-1.5,1.12,0,.3.2.47.46.47.28,0,.46-.2.46-.46,0-.12-.05-.45-.51-.46.27-.35.75-.46,1.07-.46.49,0,1.05.39,1.05,1.27v.37c-.51.03-1.2.06-1.83.36-.75.34-.99.85-.99,1.29,0,.8.96,1.05,1.59,1.05.66,0,1.11-.4,1.3-.86Z"/>
    <path d="M42.79,127.35v2.66c0,.45-.11.45-.78.45v.31c.35,0,.85-.03,1.12-.03s.77.02,1.11.03v-.31c-.67,0-.78,0-.78-.45v-1.83c0-1.03.7-1.59,1.34-1.59s.74.54.74,1.1v2.31c0,.45-.11.45-.77.45v.31c.35,0,.85-.03,1.12-.03s.78.02,1.11.03v-.31c-.52,0-.76,0-.77-.3v-1.9c0-.85,0-1.16-.31-1.52-.14-.17-.47-.37-1.04-.37-.72,0-1.19.43-1.47,1.04v-1.04l-1.4.11v.31c.7,0,.78.07.78.56"/>
    <path d="M49.68,132.59c-1,0-1.69-.51-1.69-1.03,0-.46.38-.82.81-.85h.59c.85,0,1.97,0,1.97.85,0,.54-.71,1.03-1.68,1.03M48.25,129.45s0-.27.17-.47c.39.28.8.31.98.31.92,0,1.61-.69,1.61-1.45,0-.37-.16-.74-.41-.96.36-.34.71-.39.89-.39.02,0,.07,0,.1,0-.11.04-.16.15-.16.27,0,.17.13.29.29.29.1,0,.29-.07.29-.3,0-.17-.12-.49-.51-.49-.2,0-.64.06-1.05.47-.42-.33-.83-.36-1.05-.36-.92,0-1.61.69-1.61,1.45,0,.44.22.81.47,1.02-.13.15-.31.48-.31.83,0,.31.13.68.44.88-.6.17-.91.6-.91.99,0,.72.98,1.26,2.2,1.26s2.2-.51,2.2-1.28c0-.35-.14-.85-.65-1.13-.53-.28-1.1-.28-1.71-.28-.25,0-.68,0-.75-.01-.32-.04-.53-.35-.53-.67ZM49.4,129.06c-.86,0-.86-.99-.86-1.22,0-.27.01-.59.16-.84.08-.12.31-.4.7-.4.86,0,.86.99.86,1.22,0,.27,0,.59-.16.83-.08.12-.31.4-.71.4Z"/>
    <path d="M53.3,128.48h2.77c.22,0,.25,0,.25-.21,0-.98-.54-1.95-1.78-1.95-1.15,0-2.07,1.02-2.07,2.26,0,1.33,1.04,2.3,2.19,2.3,1.21,0,1.66-1.1,1.66-1.29,0-.1-.08-.12-.13-.12-.09,0-.11.06-.13.14-.35,1.02-1.24,1.02-1.34,1.02-.5,0-.89-.3-1.12-.67-.3-.48-.3-1.13-.3-1.49M53.31,128.27c.06-1.48.89-1.73,1.23-1.73,1.02,0,1.12,1.34,1.12,1.73h-2.35Z"/>
    <path d="M62.38,132.59c-1,0-1.69-.51-1.69-1.03,0-.46.38-.82.81-.85h.59c.85,0,1.97,0,1.97.85,0,.54-.71,1.03-1.68,1.03M60.95,129.45s0-.27.17-.47c.39.28.8.31.98.31.92,0,1.61-.69,1.61-1.45,0-.37-.16-.74-.41-.96.36-.34.71-.39.89-.39.02,0,.07,0,.1,0-.11.04-.16.15-.16.27,0,.17.13.29.29.29.1,0,.29-.07.29-.3,0-.17-.12-.49-.51-.49-.2,0-.64.06-1.05.47-.42-.33-.83-.36-1.05-.36-.92,0-1.61.69-1.61,1.45,0,.44.22.81.47,1.02-.13.15-.31.48-.31.83,0,.31.13.68.44.88-.6.17-.91.6-.91.99,0,.72.98,1.26,2.2,1.26s2.2-.51,2.2-1.28c0-.35-.14-.85-.65-1.13-.53-.28-1.1-.28-1.71-.28-.25,0-.68,0-.75-.01-.32-.04-.53-.35-.53-.67ZM62.1,129.06c-.86,0-.86-.99-.86-1.22,0-.27.01-.59.16-.84.08-.12.31-.4.7-.4.86,0,.86.99.86,1.22,0,.27,0,.59-.16.83-.08.12-.31.4-.71.4Z"/>
    <path d="M66.56,127.47v-1.09l-1.38.11v.31c.7,0,.78.07.78.56v2.66c0,.45-.11.45-.78.45v.31c.39,0,.85-.03,1.13-.03.4,0,.86,0,1.26.03v-.31h-.21c-.74,0-.75-.11-.75-.47v-1.53c0-.98.42-1.87,1.17-1.87.07,0,.09,0,.11,0-.03.01-.23.13-.23.39,0,.28.21.43.43.43.18,0,.43-.12.43-.44s-.31-.61-.73-.61c-.73,0-1.08.67-1.22,1.09"/>
    <path d="M73.03,125.02c0-.28-.22-.5-.5-.5-.3,0-.5.26-.5.5s.2.5.5.5c.28,0,.5-.22.5-.5M71.12,125.02c0-.24-.2-.5-.5-.5-.28,0-.5.22-.5.5s.22.5.5.5c.3,0,.5-.26.5-.5Z"/>
    <path d="M72.68,129.99v.89l1.43-.11v-.31c-.7,0-.77-.07-.77-.56v-3.53l-1.46.11v.31c.7,0,.78.07.78.56v1.77c0,.86-.48,1.54-1.2,1.54-.83,0-.87-.47-.87-.98v-3.3l-1.46.11v.31c.77,0,.77.03.77.91v1.49c0,.77,0,1.68,1.51,1.68.56,0,.99-.28,1.28-.89"/>
    <path d="M75.39,127.35v2.66c0,.45-.11.45-.77.45v.31c.35,0,.85-.03,1.12-.03s.78.02,1.11.03v-.31c-.67,0-.78,0-.78-.45v-1.83c0-1.03.7-1.59,1.34-1.59s.74.54.74,1.1v2.31c0,.45-.11.45-.78.45v.31c.35,0,.85-.03,1.12-.03s.78.02,1.11.03v-.31c-.52,0-.76,0-.77-.3v-1.9c0-.85,0-1.16-.31-1.52-.14-.17-.47-.37-1.04-.37-.72,0-1.19.43-1.47,1.04v-1.04l-1.4.11v.31c.7,0,.77.07.77.56"/>
    <path d="M81,128.48h2.77c.22,0,.25,0,.25-.21,0-.98-.54-1.95-1.78-1.95-1.15,0-2.07,1.02-2.07,2.26,0,1.33,1.04,2.3,2.19,2.3,1.21,0,1.66-1.1,1.66-1.29,0-.1-.08-.12-.13-.12-.09,0-.11.06-.13.14-.35,1.02-1.24,1.02-1.34,1.02-.5,0-.89-.3-1.12-.67-.3-.48-.3-1.13-.3-1.49M81.01,128.27c.06-1.48.89-1.73,1.23-1.73,1.02,0,1.12,1.34,1.12,1.73h-2.35Z"/>
    <path d="M93.38,128.21h-.25c-.11,1.01-.25,2.25-2,2.25h-.81c-.47,0-.49-.07-.49-.4v-5.3c0-.34,0-.48.94-.48h.33v-.31c-.36.03-1.26.03-1.67.03s-1.16,0-1.51-.03v.31h.24c.77,0,.79.11.79.47v5.23c0,.36-.02.47-.79.47h-.24v.31h5.18l.28-2.56"/>
    <path d="M95.6,124.65c0-.32-.25-.53-.53-.53-.31,0-.53.27-.53.53s.22.53.53.53c.28,0,.53-.21.53-.53M95.56,126.38l-1.39.11v.31c.65,0,.74.06.74.55v2.67c0,.45-.11.45-.78.45v.31c.32,0,.85-.03,1.09-.03.35,0,.7.02,1.03.03v-.31c-.65,0-.7-.05-.7-.44v-3.65Z"/>
    <path d="M97.69,127.35v2.66c0,.45-.11.45-.78.45v.31c.35,0,.85-.03,1.12-.03s.77.02,1.11.03v-.31c-.67,0-.78,0-.78-.45v-1.83c0-1.03.7-1.59,1.34-1.59s.74.54.74,1.1v2.31c0,.45-.11.45-.78.45v.31c.35,0,.85-.03,1.12-.03s.78.02,1.11.03v-.31c-.52,0-.76,0-.77-.3v-1.9c0-.85,0-1.16-.31-1.52-.14-.17-.46-.37-1.04-.37-.73,0-1.19.43-1.47,1.04v-1.04l-1.4.11v.31c.7,0,.78.07.78.56"/>
    <path d="M103.9,124.65c0-.32-.25-.53-.53-.53-.31,0-.53.27-.53.53s.22.53.53.53c.28,0,.53-.21.53-.53M103.86,126.38l-1.39.11v.31c.65,0,.74.06.74.55v2.67c0,.45-.11.45-.78.45v.31c.32,0,.86-.03,1.09-.03.35,0,.7.02,1.03.03v-.31c-.65,0-.69-.05-.69-.44v-3.65Z"/>
    <path d="M106,128.48h2.77c.22,0,.25,0,.25-.21,0-.98-.54-1.95-1.78-1.95-1.15,0-2.07,1.02-2.07,2.26,0,1.33,1.04,2.3,2.19,2.3,1.21,0,1.66-1.1,1.66-1.29,0-.1-.08-.12-.13-.12-.09,0-.11.06-.13.14-.35,1.02-1.24,1.02-1.34,1.02-.5,0-.89-.3-1.12-.67-.3-.48-.3-1.13-.3-1.49M106.01,128.27c.06-1.48.89-1.73,1.23-1.73,1.02,0,1.12,1.34,1.12,1.73h-2.35Z"/>
    <path d="M110.39,127.35v2.66c0,.45-.11.45-.78.45v.31c.35,0,.86-.03,1.12-.03s.78.02,1.11.03v-.31c-.67,0-.78,0-.78-.45v-1.83c0-1.03.71-1.59,1.34-1.59s.74.54.74,1.1v2.31c0,.45-.11.45-.78.45v.31c.35,0,.85-.03,1.12-.03s.78.02,1.11.03v-.31c-.52,0-.76,0-.78-.3v-1.9c0-.85,0-1.16-.31-1.52-.14-.17-.47-.37-1.04-.37-.72,0-1.19.43-1.47,1.04v-1.04l-1.4.11v.31c.7,0,.78.07.78.56"/>
    <line class="cls-1" x1=".85" y1="135.04" x2="114.88" y2="135.04"/>
    <path d="M55.77,143.79c-.03.15-.09.38-.09.43,0,.18.14.27.29.27.12,0,.3-.08.37-.28,0-.02.13-.49.19-.74l.22-.89c.06-.22.12-.44.17-.67.04-.17.12-.46.13-.5.15-.31.68-1.21,1.62-1.21.45,0,.54.37.54.7,0,.62-.49,1.89-.65,2.31-.09.23-.1.35-.1.46,0,.47.35.81.81.81.93,0,1.3-1.45,1.3-1.53,0-.1-.09-.1-.12-.1-.1,0-.1.03-.15.18-.2.68-.53,1.23-1.01,1.23-.17,0-.24-.1-.24-.33,0-.25.09-.49.18-.7.19-.53.61-1.62.61-2.19,0-.67-.43-1.06-1.14-1.06-.9,0-1.38.64-1.55.86-.05-.56-.46-.86-.91-.86s-.65.39-.75.57c-.16.34-.3.93-.3.96,0,.1.1.1.12.1.1,0,.11-.01.17-.23.17-.7.37-1.18.72-1.18.2,0,.31.13.31.46,0,.21-.03.32-.16.83l-.58,2.3"/>
  </g>
  <line class="cls-8" x1="192.65" y1="197.74" x2="185.1" y2="204.75"/>
  <g class="cls-11">
    <path d="M215.87,20.42l1.79-1.72c.08-.08.61-.59,1.41-.6v-.31c-.26.03-.58.03-.84.03-.36,0-.92,0-1.26-.03v.31c.4,0,.46.24.46.33,0,.16-.1.26-.18.33l-3.11,2.97v-3.16c0-.36.02-.47.79-.47h.24v-.31c-.35.03-1.08.03-1.46.03s-1.12,0-1.47-.03v.31h.24c.77,0,.79.11.79.47v5.23c0,.36-.02.47-.79.47h-.24v.31c.35-.03,1.08-.03,1.46-.03s1.12,0,1.47.03v-.31h-.24c-.77,0-.79-.11-.79-.47v-1.74l1.15-1.09,1.8,2.66c.06.09.15.22.15.34,0,.3-.39.3-.59.3v.31c.35-.03,1.04-.03,1.42-.03.35,0,.72,0,1.14.03v-.31c-.54,0-.75-.04-1.04-.48l-2.3-3.38"/>
    <path d="M220.7,22.28h2.77c.22,0,.25,0,.25-.21,0-.98-.54-1.95-1.78-1.95-1.15,0-2.07,1.02-2.07,2.26,0,1.33,1.04,2.3,2.19,2.3,1.21,0,1.66-1.1,1.66-1.29,0-.1-.08-.12-.13-.12-.09,0-.11.06-.13.14-.35,1.02-1.24,1.02-1.34,1.02-.5,0-.89-.3-1.12-.67-.3-.48-.3-1.13-.3-1.49M220.71,22.07c.06-1.48.89-1.73,1.23-1.73,1.02,0,1.12,1.34,1.12,1.73h-2.35Z"/>
    <path d="M225.66,21.28v-1.09l-1.38.11v.31c.7,0,.77.07.77.56v2.66c0,.45-.11.45-.77.45v.31c.39,0,.85-.03,1.13-.03.4,0,.86,0,1.26.03v-.31h-.21c-.74,0-.75-.11-.75-.47v-1.53c0-.98.42-1.87,1.17-1.87.07,0,.09,0,.11,0-.03.01-.23.13-.23.39,0,.28.21.43.43.43.18,0,.43-.12.43-.44s-.31-.61-.73-.61c-.73,0-1.08.67-1.22,1.09"/>
    <path d="M228.99,21.16v2.66c0,.45-.11.45-.78.45v.31c.35,0,.85-.03,1.12-.03s.78.02,1.11.03v-.31c-.67,0-.77,0-.77-.45v-1.83c0-1.03.7-1.59,1.34-1.59s.74.54.74,1.1v2.31c0,.45-.11.45-.77.45v.31c.35,0,.85-.03,1.12-.03s.77.02,1.11.03v-.31c-.52,0-.76,0-.77-.3v-1.9c0-.85,0-1.16-.31-1.52-.14-.17-.47-.37-1.04-.37-.73,0-1.19.43-1.47,1.04v-1.04l-1.4.11v.31c.7,0,.78.07.78.56"/>
    <path d="M235.24,20.3v-1.15c0-.87.48-1.35.91-1.35.03,0,.18,0,.33.07-.12.04-.3.17-.3.42,0,.23.16.43.43.43.29,0,.44-.2.44-.44,0-.37-.37-.7-.9-.7-.7,0-1.54.53-1.54,1.58v1.14h-.78v.31h.78v3.22c0,.45-.11.45-.77.45v.31c.39,0,.85-.03,1.13-.03.4,0,.86,0,1.26.03v-.31h-.21c-.74,0-.75-.11-.75-.47v-3.2h1.13v-.31h-1.16"/>
    <path d="M240.39,23.79v.89l1.43-.11v-.31c-.7,0-.77-.07-.77-.56v-3.53l-1.46.11v.31c.7,0,.77.07.77.56v1.77c0,.86-.48,1.54-1.2,1.54-.83,0-.87-.47-.87-.98v-3.3l-1.46.11v.31c.77,0,.77.03.77.91v1.49c0,.77,0,1.68,1.51,1.68.56,0,.99-.28,1.28-.89"/>
    <path d="M243.09,21.16v2.66c0,.45-.11.45-.77.45v.31c.35,0,.85-.03,1.12-.03s.77.02,1.11.03v-.31c-.67,0-.78,0-.78-.45v-1.83c0-1.03.7-1.59,1.34-1.59s.74.54.74,1.1v2.31c0,.45-.11.45-.77.45v.31c.35,0,.85-.03,1.12-.03s.78.02,1.11.03v-.31c-.52,0-.76,0-.77-.3v-1.9c0-.85,0-1.16-.31-1.52-.14-.17-.47-.37-1.04-.37-.72,0-1.19.43-1.47,1.04v-1.04l-1.4.11v.31c.7,0,.77.07.77.56"/>
    <path d="M248.65,23.82c0,.45-.11.45-.77.45v.31c.33,0,.8-.03,1.08-.03s.7,0,1.09.03v-.31c-.67,0-.78,0-.78-.45v-1.02l.64-.55c.77,1.05,1.18,1.61,1.18,1.79s-.17.23-.36.23v.31c.28,0,.86-.03,1.07-.03.29,0,.58,0,.86.03v-.31c-.37,0-.59,0-.96-.53l-1.26-1.78s-.06-.08-.06-.11c0-.04.71-.64.8-.72.63-.51,1.04-.53,1.25-.54v-.31c-.29.03-.42.03-.7.03-.36,0-.97-.02-1.11-.03v.31c.19,0,.29.12.29.25,0,.2-.14.32-.22.39l-1.4,1.21v-4.77l-1.43.11v.31c.7,0,.77.07.77.56v5.17"/>
    <path d="M254.52,20.6h1.42v-.31h-1.42v-1.83h-.25c0,.81-.31,1.88-1.28,1.92v.22h.84v2.74c0,1.22.92,1.34,1.28,1.34.71,0,.98-.7.98-1.34v-.57h-.25v.55c0,.73-.3,1.11-.67,1.11-.67,0-.67-.9-.67-1.07v-2.76"/>
    <path d="M258.5,18.46c0-.32-.25-.53-.53-.53-.31,0-.53.27-.53.53s.22.53.53.53c.28,0,.53-.21.53-.53M258.46,20.19l-1.39.11v.31c.65,0,.74.06.74.55v2.67c0,.45-.11.45-.78.45v.31c.32,0,.85-.03,1.09-.03.35,0,.7.02,1.03.03v-.31c-.65,0-.7-.05-.7-.44v-3.65Z"/>
    <path d="M261.98,24.44c-.43,0-.86-.21-1.13-.67-.25-.44-.25-1.04-.25-1.4,0-.39,0-.93.24-1.36.27-.46.74-.67,1.13-.67.44,0,.86.22,1.12.65.26.43.26,1,.26,1.38,0,.36,0,.89-.22,1.33-.22.45-.66.73-1.15.73M264.18,22.45c0-1.27-.99-2.32-2.2-2.32s-2.2,1.08-2.2,2.32,1.03,2.24,2.2,2.24,2.2-.97,2.2-2.24Z"/>
    <path d="M265.59,21.16v2.66c0,.45-.11.45-.78.45v.31c.35,0,.85-.03,1.12-.03s.77.02,1.11.03v-.31c-.67,0-.78,0-.78-.45v-1.83c0-1.03.7-1.59,1.34-1.59s.74.54.74,1.1v2.31c0,.45-.11.45-.77.45v.31c.35,0,.85-.03,1.12-.03s.78.02,1.11.03v-.31c-.52,0-.76,0-.77-.3v-1.9c0-.85,0-1.16-.31-1.52-.14-.17-.47-.37-1.04-.37-.72,0-1.19.43-1.47,1.04v-1.04l-1.4.11v.31c.7,0,.78.07.78.56"/>
    <path d="M275.04,20.3v-1.15c0-.87.48-1.35.91-1.35.03,0,.18,0,.33.07-.12.04-.3.17-.3.42,0,.23.16.43.43.43.29,0,.44-.2.44-.44,0-.37-.37-.7-.9-.7-.7,0-1.54.53-1.54,1.58v1.14h-.78v.31h.78v3.22c0,.45-.11.45-.77.45v.31c.39,0,.85-.03,1.13-.03.4,0,.86,0,1.26.03v-.31h-.21c-.74,0-.75-.11-.75-.47v-3.2h1.13v-.31h-1.16"/>
    <path d="M280.54,18.93c0-.28-.22-.5-.5-.5-.3,0-.5.26-.5.5s.2.5.5.5c.28,0,.5-.22.5-.5M278.62,18.93c0-.24-.2-.5-.5-.5-.28,0-.5.22-.5.5s.22.5.5.5c.3,0,.5-.26.5-.5Z"/>
    <path d="M280.29,23.79v.89l1.43-.11v-.31c-.7,0-.78-.07-.78-.56v-3.53l-1.46.11v.31c.7,0,.78.07.78.56v1.77c0,.86-.48,1.54-1.2,1.54-.83,0-.87-.47-.87-.98v-3.3l-1.46.11v.31c.78,0,.78.03.78.91v1.49c0,.77,0,1.68,1.51,1.68.56,0,.99-.28,1.28-.89"/>
    <path d="M283.56,21.28v-1.09l-1.38.11v.31c.7,0,.78.07.78.56v2.66c0,.45-.11.45-.78.45v.31c.39,0,.85-.03,1.13-.03.4,0,.86,0,1.26.03v-.31h-.21c-.74,0-.75-.11-.75-.47v-1.53c0-.98.42-1.87,1.17-1.87.07,0,.09,0,.11,0-.03.01-.23.13-.23.39,0,.28.21.43.43.43.18,0,.43-.12.43-.44s-.31-.61-.73-.61c-.73,0-1.08.67-1.22,1.09"/>
    <path d="M292.88,21.37v2.04c0,.18,0,.2-.11.37-.3.48-.75.7-1.17.7s-.8-.26-1.04-.64c-.26-.41-.29-.97-.29-1.38,0-.37.02-.96.31-1.41.21-.31.59-.64,1.12-.64.35,0,.77.15,1.07.6.11.17.11.19.11.37M292.88,24.03v.66l1.46-.11v-.31c-.7,0-.77-.07-.77-.56v-6.03l-1.43.11v.31c.7,0,.78.07.78.56v2.15c-.29-.36-.72-.62-1.25-.62-1.17,0-2.22.97-2.22,2.25s.97,2.25,2.11,2.25c.64,0,1.08-.34,1.33-.66Z"/>
    <path d="M296.4,18.46c0-.32-.25-.53-.53-.53-.31,0-.53.27-.53.53s.22.53.53.53c.28,0,.53-.21.53-.53M296.36,20.19l-1.39.11v.31c.65,0,.74.06.74.55v2.67c0,.45-.11.45-.78.45v.31c.32,0,.85-.03,1.09-.03.35,0,.7.02,1.03.03v-.31c-.65,0-.7-.05-.7-.44v-3.65Z"/>
    <path d="M298.5,22.28h2.77c.22,0,.25,0,.25-.21,0-.98-.54-1.95-1.78-1.95-1.15,0-2.07,1.02-2.07,2.26,0,1.33,1.04,2.3,2.19,2.3,1.21,0,1.66-1.1,1.66-1.29,0-.1-.08-.12-.13-.12-.09,0-.11.06-.13.14-.35,1.02-1.24,1.02-1.34,1.02-.5,0-.89-.3-1.12-.67-.3-.48-.3-1.13-.3-1.49M298.51,22.07c.06-1.48.89-1.73,1.23-1.73,1.02,0,1.12,1.34,1.12,1.73h-2.35Z"/>
    <path d="M308.67,20.72l-1.27-.31c-.62-.15-1-.68-1-1.26,0-.7.54-1.3,1.31-1.3,1.66,0,1.88,1.63,1.94,2.08,0,.06,0,.12.12.12.13,0,.13-.05.13-.24v-2c0-.17,0-.24-.11-.24-.07,0-.08,0-.15.13l-.35.57c-.3-.29-.7-.7-1.59-.7-1.1,0-1.94.87-1.94,1.93,0,.82.53,1.55,1.3,1.82.11.04.62.16,1.31.33.27.07.57.14.84.51.21.26.31.59.31.91,0,.7-.5,1.42-1.33,1.42-.29,0-1.04-.05-1.57-.54-.58-.54-.61-1.17-.62-1.53,0-.1-.09-.1-.12-.1-.13,0-.13.07-.13.25v1.99c0,.17,0,.24.11.24.07,0,.08-.02.15-.13,0,0,.03-.04.36-.57.31.34.94.7,1.83.7,1.16,0,1.96-.97,1.96-2.07,0-.99-.65-1.81-1.49-2.01"/>
    <path d="M312.42,20.6h1.42v-.31h-1.42v-1.83h-.25c0,.81-.31,1.88-1.28,1.92v.22h.84v2.74c0,1.22.92,1.34,1.28,1.34.71,0,.98-.7.98-1.34v-.57h-.25v.55c0,.73-.3,1.11-.67,1.11-.67,0-.67-.9-.67-1.07v-2.76"/>
    <path d="M315.7,22.28h2.77c.22,0,.25,0,.25-.21,0-.98-.54-1.95-1.78-1.95-1.15,0-2.07,1.02-2.07,2.26,0,1.33,1.04,2.3,2.19,2.3,1.21,0,1.66-1.1,1.66-1.29,0-.1-.08-.12-.13-.12-.09,0-.11.06-.13.14-.35,1.02-1.24,1.02-1.34,1.02-.5,0-.89-.3-1.12-.67-.3-.48-.3-1.13-.3-1.49M315.71,22.07c.06-1.48.89-1.73,1.23-1.73,1.02,0,1.12,1.34,1.12,1.73h-2.35Z"/>
    <path d="M320.76,17.68l-1.43.11v.31c.69,0,.77.07.77.56v5.17c0,.45-.11.45-.77.45v.31c.33,0,.85-.03,1.1-.03s.74.02,1.1.03v-.31c-.67,0-.77,0-.77-.45v-6.14"/>
    <path d="M323.56,17.68l-1.43.11v.31c.69,0,.78.07.78.56v5.17c0,.45-.11.45-.78.45v.31c.33,0,.86-.03,1.1-.03s.74.02,1.1.03v-.31c-.67,0-.78,0-.78-.45v-6.14"/>
    <path d="M325.6,22.28h2.77c.22,0,.25,0,.25-.21,0-.98-.54-1.95-1.78-1.95-1.15,0-2.07,1.02-2.07,2.26,0,1.33,1.04,2.3,2.19,2.3,1.21,0,1.66-1.1,1.66-1.29,0-.1-.08-.12-.13-.12-.09,0-.11.06-.13.14-.35,1.02-1.24,1.02-1.34,1.02-.5,0-.89-.3-1.12-.67-.3-.48-.3-1.13-.3-1.49M325.61,22.07c.06-1.48.89-1.73,1.23-1.73,1.02,0,1.12,1.34,1.12,1.73h-2.35Z"/>
    <path d="M335.62,21.58c.06-.26.29-1.17.99-1.17.05,0,.29,0,.5.13-.28.05-.48.3-.48.54,0,.16.11.35.38.35.22,0,.54-.18.54-.58,0-.52-.59-.66-.92-.66-.58,0-.92.53-1.04.75-.25-.65-.79-.75-1.07-.75-1.03,0-1.6,1.28-1.6,1.53,0,.1.1.1.12.1.08,0,.11-.02.13-.11.34-1.05.99-1.3,1.33-1.3.19,0,.54.09.54.67,0,.31-.17.97-.54,2.36-.16.62-.51,1.03-.94,1.03-.06,0-.29,0-.5-.13.25-.05.47-.26.47-.54s-.22-.35-.37-.35c-.3,0-.55.26-.55.58,0,.46.5.66.93.66.66,0,1.01-.7,1.04-.75.12.37.48.75,1.07.75,1.02,0,1.59-1.28,1.59-1.53,0-.1-.09-.1-.12-.1-.09,0-.11.04-.13.11-.33,1.06-1,1.3-1.32,1.3-.39,0-.55-.32-.55-.66,0-.22.06-.44.17-.87l.34-1.36"/>
  </g>
</svg>