<?xml version="1.0" encoding="UTF-8"?>
<svg xmlns="http://www.w3.org/2000/svg" xmlns:xlink="http://www.w3.org/1999/xlink" viewBox="0 0 191.83 147.2">
  <defs>
    <style>
      .cls-1 {
        fill: rgba(140, 97, 168, .51);
      }

      .cls-1, .cls-2, .cls-3, .cls-4, .cls-5, .cls-6, .cls-7 {
        stroke-miterlimit: 10;
      }

      .cls-1, .cls-2, .cls-3, .cls-4, .cls-7 {
        stroke-width: .75px;
      }

      .cls-1, .cls-2, .cls-3, .cls-7 {
        stroke: #000;
      }

      .cls-2 {
        fill: #add8e6;
        opacity: .5;
      }

      .cls-3, .cls-8, .cls-4, .cls-5, .cls-6 {
        fill: none;
      }

      .cls-9 {
        fill: #fff;
      }

      .cls-4, .cls-5 {
        stroke: #231f20;
      }

      .cls-4, .cls-6 {
        stroke-linecap: round;
      }

      .cls-10 {
        clip-path: url(#clippath-1);
      }

      .cls-11 {
        fill: #231f20;
      }

      .cls-12 {
        clip-path: url(#clippath-3);
      }

      .cls-5 {
        stroke-width: .5px;
      }

      .cls-13 {
        clip-path: url(#clippath-2);
      }

      .cls-6 {
        stroke: #a6a8ab;
        stroke-width: .25px;
      }

      .cls-14 {
        clip-path: url(#clippath);
      }

      .cls-7 {
        fill: #595959;
        opacity: .1;
      }
    </style>
    <clipPath id="clippath">
      <rect class="cls-8" x="130.34" y="142.2" width="5" height="5"/>
    </clipPath>
    <clipPath id="clippath-1">
      <rect class="cls-8" x="143.04" y="139.2" width="4" height="8"/>
    </clipPath>
    <clipPath id="clippath-2">
      <rect class="cls-8" x="185.83" y="140.7" width="6" height="5"/>
    </clipPath>
    <clipPath id="clippath-3">
      <rect class="cls-8" x="13.99" y="26.61" width="49" height="10"/>
    </clipPath>
  </defs>
  <g id="Layer_2" data-name="Layer 2">
    <line class="cls-6" x1="132.73" y1="132.82" x2="132.73" y2="3.46"/>
    <line class="cls-6" x1="144.93" y1="132.82" x2="144.93" y2="3.46"/>
    <line class="cls-6" x1="108.34" y1="132.82" x2="108.34" y2="3.46"/>
    <line class="cls-6" x1="120.53" y1="132.82" x2="120.53" y2="3.46"/>
    <line class="cls-6" x1="83.95" y1="132.82" x2="83.95" y2="3.46"/>
    <line class="cls-6" x1="71.75" y1="132.82" x2="71.75" y2="3.46"/>
    <line class="cls-6" x1="59.56" y1="132.82" x2="59.56" y2="3.46"/>
    <line class="cls-6" x1="47.36" y1="132.82" x2="47.36" y2="3.46"/>
    <line class="cls-6" x1="35.17" y1="132.82" x2="35.17" y2="3.46"/>
    <line class="cls-6" x1="22.97" y1="132.82" x2="22.97" y2="3.46"/>
    <line class="cls-6" x1="11.9" y1="132.82" x2="11.9" y2="3.46"/>
    <line class="cls-6" x1="96.14" y1="132.82" x2="96.14" y2="3.46"/>
    <line class="cls-6" x1="181.51" y1="132.82" x2="181.51" y2="3.46"/>
    <line class="cls-6" x1="157.12" y1="132.82" x2="157.12" y2="3.46"/>
    <line class="cls-6" x1="169.32" y1="132.82" x2="169.32" y2="3.46"/>
    <line class="cls-6" x1="2.38" y1="132.82" x2="131.75" y2="132.82"/>
    <line class="cls-6" x1="2.38" y1="7.89" x2="187.77" y2="7.89"/>
    <line class="cls-6" x1="2.38" y1="20.23" x2="187.77" y2="20.23"/>
    <line class="cls-6" x1="2.38" y1="32.57" x2="187.77" y2="32.57"/>
    <line class="cls-6" x1="2.38" y1="44.91" x2="187.77" y2="44.91"/>
    <line class="cls-6" x1="2.38" y1="57.25" x2="187.77" y2="57.25"/>
    <line class="cls-6" x1="2.38" y1="69.59" x2="187.77" y2="69.59"/>
    <line class="cls-6" x1="2.38" y1="81.93" x2="187.77" y2="81.93"/>
    <line class="cls-6" x1="2.38" y1="94.26" x2="187.77" y2="94.26"/>
    <line class="cls-6" x1="2.38" y1="106.6" x2="187.77" y2="106.6"/>
    <line class="cls-6" x1="2.38" y1="118.94" x2="187.77" y2="118.94"/>
    <line class="cls-6" x1="2.38" y1="132.82" x2="2.38" y2="3.46"/>
    <g>
      <line class="cls-4" x1="2.38" y1="132.82" x2="2.38" y2="2.12"/>
      <polygon class="cls-11" points="4.77 6.55 4.06 6.81 2.38 2.19 .7 6.81 0 6.55 2.38 0 4.77 6.55"/>
    </g>
    <g>
      <line class="cls-4" x1="2.38" y1="132.82" x2="189.71" y2="132.82"/>
      <polygon class="cls-11" points="185.28 135.2 185.02 134.5 189.64 132.82 185.02 131.14 185.28 130.43 191.83 132.82 185.28 135.2"/>
    </g>
    <g class="cls-14">
      <path d="M133.1,145.82c-.05.18-.05.2-.2.37-.44.55-.84.7-1.12.7-.5,0-.64-.55-.64-.93,0-.5.32-1.72.55-2.17.31-.59.76-.95,1.15-.95.65,0,.78.81.78.87s-.02.12-.03.17l-.5,1.95M133.75,143.25c-.18-.37-.47-.64-.91-.64-1.16,0-2.39,1.46-2.39,2.91,0,.93.55,1.59,1.32,1.59.2,0,.7-.04,1.29-.75.08.42.43.75.9.75.35,0,.58-.23.73-.55.17-.36.3-.96.3-.98,0-.1-.09-.1-.12-.1-.1,0-.11.04-.14.18-.17.65-.35,1.23-.75,1.23-.27,0-.3-.26-.3-.46,0-.22.02-.3.13-.74.11-.42.13-.52.22-.89l.36-1.39c.07-.28.07-.3.07-.34,0-.17-.12-.27-.29-.27-.24,0-.39.22-.42.44Z"/>
    </g>
    <g class="cls-10">
      <path d="M144.18,143.97c.06-.22.06-.24.15-.35.49-.65.93-.79,1.19-.79.36,0,.63.3.63.93,0,.59-.33,1.73-.51,2.11-.33.67-.78,1.02-1.17,1.02-.34,0-.67-.27-.67-1,0-.19,0-.38.16-1l.22-.91M145.12,140.22s0-.11-.13-.11c-.23,0-.95.08-1.21.1-.08.01-.19.02-.19.2,0,.12.09.12.24.12.48,0,.5.07.5.17,0,.07-.09.41-.14.62l-.81,3.24c-.12.5-.16.65-.16,1,0,.94.53,1.56,1.26,1.56,1.17,0,2.39-1.48,2.39-2.91,0-.9-.53-1.59-1.32-1.59-.46,0-.86.29-1.16.6l.73-2.99Z"/>
    </g>
    <g class="cls-13">
      <path d="M189.85,142.5c.06-.26.29-1.17.98-1.17.05,0,.29,0,.5.13-.28.05-.48.3-.48.54,0,.16.11.35.38.35.22,0,.54-.18.54-.58,0-.52-.59-.66-.92-.66-.58,0-.92.53-1.04.75-.25-.65-.79-.75-1.07-.75-1.03,0-1.6,1.28-1.6,1.53,0,.1.1.1.12.1.08,0,.11-.02.13-.11.34-1.05.99-1.3,1.33-1.3.19,0,.54.09.54.67,0,.31-.17.97-.54,2.36-.16.62-.51,1.03-.94,1.03-.06,0-.29,0-.5-.13.25-.05.47-.26.47-.54s-.22-.35-.37-.35c-.3,0-.55.26-.55.58,0,.46.5.66.93.66.66,0,1.01-.7,1.04-.75.12.37.48.75,1.07.75,1.02,0,1.59-1.28,1.59-1.53,0-.1-.09-.1-.12-.1-.09,0-.11.04-.13.11-.33,1.06-1,1.3-1.32,1.3-.39,0-.55-.32-.55-.66,0-.22.06-.44.17-.87l.34-1.36"/>
    </g>
  </g>
  <g id="Layer_1" data-name="Layer 1">
    <g>
      <path class="cls-7" d="M10.77,132.89h12.2-12.2Z"/>
      <path class="cls-3" d="M10.77,132.89h12.2-12.2Z"/>
    </g>
    <g>
      <path class="cls-7" d="M22.97,132.89h12.2-12.2Z"/>
      <path class="cls-3" d="M22.97,132.89h12.2-12.2Z"/>
    </g>
    <g>
      <rect class="cls-7" x="35.17" y="131.77" width="12.2" height="1.12"/>
      <rect class="cls-3" x="35.17" y="131.77" width="12.2" height="1.12"/>
    </g>
    <g>
      <rect class="cls-7" x="47.37" y="130.66" width="12.2" height="2.23"/>
      <rect class="cls-3" x="47.37" y="130.66" width="12.2" height="2.23"/>
    </g>
    <g>
      <rect class="cls-7" x="59.58" y="126.19" width="12.2" height="6.7"/>
      <rect class="cls-3" x="59.58" y="126.19" width="12.2" height="6.7"/>
    </g>
    <g>
      <rect class="cls-7" x="71.78" y="101.64" width="12.2" height="31.25"/>
      <rect class="cls-3" x="71.78" y="101.64" width="12.2" height="31.25"/>
    </g>
    <g>
      <rect class="cls-7" x="83.98" y="67.04" width="12.2" height="65.85"/>
      <rect class="cls-3" x="83.98" y="67.04" width="12.2" height="65.85"/>
    </g>
    <g>
      <rect class="cls-7" x="96.18" y="7.89" width="12.2" height="125"/>
      <rect class="cls-3" x="96.18" y="7.89" width="12.2" height="125"/>
    </g>
    <g>
      <rect class="cls-7" x="108.38" y="42.49" width="12.2" height="90.4"/>
      <rect class="cls-3" x="108.38" y="42.49" width="12.2" height="90.4"/>
    </g>
    <g>
      <rect class="cls-7" x="120.58" y="51.42" width="12.2" height="81.47"/>
      <rect class="cls-3" x="120.58" y="51.42" width="12.2" height="81.47"/>
    </g>
    <g>
      <rect class="cls-7" x="132.78" y="101.64" width="12.2" height="31.25"/>
      <rect class="cls-3" x="132.78" y="101.64" width="12.2" height="31.25"/>
    </g>
    <g>
      <rect class="cls-7" x="144.99" y="121.73" width="12.2" height="11.16"/>
      <rect class="cls-3" x="144.99" y="121.73" width="12.2" height="11.16"/>
    </g>
    <g>
      <path class="cls-7" d="M157.19,132.89h12.2-12.2Z"/>
      <path class="cls-3" d="M157.19,132.89h12.2-12.2Z"/>
    </g>
    <g>
      <path class="cls-7" d="M169.39,132.89h12.2-12.2Z"/>
      <path class="cls-3" d="M169.39,132.89h12.2-12.2Z"/>
    </g>
    <polygon class="cls-2" points="10.77 132.89 11.1 132.89 11.44 132.89 11.77 132.89 12.11 132.89 12.44 132.89 12.78 132.89 13.11 132.89 13.44 132.89 13.78 132.89 14.11 132.89 14.45 132.89 14.78 132.89 15.12 132.89 15.45 132.89 15.78 132.89 16.12 132.89 16.45 132.89 16.79 132.89 17.12 132.89 17.46 132.89 17.79 132.89 18.12 132.89 18.46 132.89 18.79 132.89 19.13 132.89 19.46 132.89 19.8 132.89 20.13 132.89 20.46 132.89 20.8 132.89 21.13 132.88 21.47 132.88 21.8 132.88 22.14 132.88 22.47 132.88 22.8 132.88 23.14 132.88 23.47 132.88 23.81 132.87 24.14 132.87 24.48 132.87 24.81 132.87 25.14 132.86 25.48 132.86 25.81 132.86 26.15 132.85 26.48 132.85 26.82 132.84 27.15 132.84 27.48 132.83 27.82 132.83 28.15 132.82 28.49 132.81 28.82 132.81 29.16 132.8 29.49 132.79 29.82 132.78 30.16 132.77 30.49 132.76 30.83 132.75 31.16 132.73 31.5 132.72 31.83 132.71 32.16 132.69 32.5 132.68 32.83 132.66 33.17 132.64 33.5 132.62 33.84 132.61 34.17 132.59 34.5 132.57 34.84 132.55 35.17 132.52 35.51 132.5 35.84 132.48 36.18 132.45 36.51 132.43 36.84 132.41 37.18 132.38 37.51 132.35 37.85 132.33 38.18 132.3 38.52 132.27 38.85 132.24 39.18 132.21 39.52 132.19 39.85 132.16 40.19 132.13 40.52 132.1 40.86 132.06 41.19 132.03 41.52 132 41.86 131.97 42.19 131.94 42.53 131.91 42.86 131.87 43.2 131.84 43.53 131.8 43.86 131.77 44.2 131.73 44.53 131.7 44.87 131.66 45.2 131.62 45.54 131.59 45.87 131.55 46.2 131.5 46.54 131.46 46.87 131.42 47.21 131.38 47.54 131.33 47.88 131.28 48.21 131.23 48.54 131.18 48.88 131.13 49.21 131.07 49.55 131.02 49.88 130.96 50.22 130.89 50.55 130.83 50.88 130.76 51.22 130.69 51.55 130.62 51.89 130.55 52.22 130.47 52.56 130.39 52.89 130.3 53.22 130.22 53.56 130.13 53.89 130.03 54.23 129.93 54.56 129.83 54.9 129.72 55.23 129.61 55.56 129.5 55.9 129.38 56.23 129.25 56.57 129.12 56.9 128.98 57.24 128.84 57.57 128.69 57.9 128.54 58.24 128.38 58.57 128.21 58.91 128.04 59.24 127.86 59.58 127.67 59.91 127.47 60.24 127.26 60.58 127.05 60.91 126.83 61.25 126.6 61.58 126.35 61.92 126.1 62.25 125.84 62.58 125.57 62.92 125.29 63.25 124.99 63.59 124.69 63.92 124.38 64.26 124.05 64.59 123.71 64.92 123.37 65.26 123.01 65.59 122.64 65.93 122.26 66.26 121.86 66.6 121.46 66.93 121.04 67.26 120.62 67.6 120.18 67.93 119.73 68.27 119.27 68.6 118.8 68.94 118.32 69.27 117.83 69.6 117.32 69.94 116.81 70.27 116.29 70.61 115.76 70.94 115.21 71.28 114.66 71.61 114.1 71.94 113.53 72.28 112.95 72.61 112.36 72.95 111.76 73.28 111.15 73.62 110.54 73.95 109.91 74.28 109.28 74.62 108.63 74.95 107.98 75.29 107.31 75.62 106.64 75.96 105.96 76.29 105.26 76.62 104.56 76.96 103.84 77.29 103.11 77.63 102.37 77.96 101.63 78.3 100.86 78.63 100.08 78.96 99.29 79.3 98.49 79.63 97.67 79.97 96.84 80.3 95.99 80.64 95.12 80.97 94.24 81.3 93.34 81.64 92.42 81.97 91.48 82.31 90.53 82.64 89.55 82.98 88.56 83.31 87.54 83.64 86.5 83.98 85.44 84.31 84.37 84.65 83.27 84.98 82.15 85.32 81 85.65 79.84 85.98 78.65 86.32 77.44 86.65 76.22 86.99 74.97 87.32 73.7 87.66 72.41 87.99 71.11 88.32 69.78 88.66 68.44 88.99 67.09 89.33 65.72 89.66 64.34 90 62.94 90.33 61.54 90.66 60.13 91 58.71 91.33 57.29 91.67 55.87 92 54.44 92.34 53.02 92.67 51.6 93 50.19 93.34 48.79 93.67 47.4 94.01 46.02 94.34 44.66 94.68 43.31 95.01 41.99 95.34 40.69 95.68 39.41 96.01 38.16 96.35 36.94 96.68 35.76 97.02 34.6 97.35 33.48 97.68 32.4 98.02 31.36 98.35 30.36 98.69 29.4 99.02 28.49 99.36 27.63 99.69 26.81 100.02 26.03 100.36 25.32 100.69 24.65 101.03 24.03 101.36 23.45 101.7 22.94 102.03 22.48 102.36 22.06 102.7 21.7 103.03 21.4 103.37 21.14 103.7 20.93 104.04 20.77 104.37 20.67 104.7 20.62 105.04 20.6 105.37 20.64 105.71 20.73 106.04 20.86 106.38 21.03 106.71 21.25 107.04 21.51 107.38 21.8 107.71 22.13 108.05 22.49 108.38 22.9 108.72 23.32 109.05 23.78 109.38 24.27 109.72 24.78 110.05 25.31 110.39 25.86 110.72 26.44 111.06 27.04 111.39 27.64 111.72 28.26 112.06 28.9 112.39 29.54 112.73 30.19 113.06 30.85 113.4 31.51 113.73 32.18 114.06 32.85 114.4 33.52 114.73 34.19 115.07 34.86 115.4 35.54 115.74 36.2 116.07 36.87 116.4 37.53 116.74 38.2 117.07 38.85 117.41 39.51 117.74 40.16 118.08 40.81 118.41 41.46 118.74 42.11 119.08 42.75 119.41 43.4 119.75 44.05 120.08 44.7 120.42 45.35 120.75 46 121.08 46.66 121.42 47.33 121.75 48 122.09 48.68 122.42 49.37 122.76 50.07 123.09 50.78 123.42 51.5 123.76 52.24 124.09 52.99 124.43 53.76 124.76 54.54 125.1 55.34 125.43 56.16 125.76 56.99 126.1 57.84 126.43 58.71 126.77 59.6 127.1 60.5 127.44 61.43 127.77 62.37 128.1 63.33 128.44 64.31 128.77 65.3 129.11 66.32 129.44 67.34 129.78 68.38 130.11 69.44 130.44 70.5 130.78 71.58 131.11 72.67 131.45 73.77 131.78 74.88 132.12 75.99 132.45 77.11 132.78 78.23 133.12 79.35 133.45 80.48 133.79 81.6 134.12 82.72 134.46 83.84 134.79 84.96 135.12 86.07 135.46 87.17 135.79 88.26 136.13 89.35 136.46 90.42 136.8 91.48 137.13 92.52 137.46 93.56 137.8 94.58 138.13 95.58 138.47 96.56 138.8 97.54 139.14 98.49 139.47 99.42 139.8 100.34 140.14 101.23 140.47 102.11 140.81 102.97 141.14 103.81 141.48 104.63 141.81 105.43 142.14 106.21 142.48 106.98 142.81 107.73 143.15 108.45 143.48 109.16 143.82 109.86 144.15 110.53 144.48 111.19 144.82 111.84 145.15 112.47 145.49 113.08 145.82 113.68 146.16 114.26 146.49 114.84 146.82 115.39 147.16 115.94 147.49 116.48 147.83 117 148.16 117.51 148.5 118.01 148.83 118.51 149.16 118.99 149.5 119.46 149.83 119.92 150.17 120.38 150.5 120.82 150.84 121.26 151.17 121.68 151.5 122.1 151.84 122.52 152.17 122.92 152.51 123.31 152.84 123.7 153.18 124.07 153.51 124.44 153.84 124.8 154.18 125.16 154.51 125.5 154.85 125.83 155.18 126.16 155.52 126.48 155.85 126.79 156.18 127.08 156.52 127.38 156.85 127.66 157.19 127.93 157.52 128.19 157.86 128.45 158.19 128.69 158.52 128.93 158.86 129.16 159.19 129.38 159.53 129.59 159.86 129.79 160.2 129.98 160.53 130.16 160.86 130.34 161.2 130.5 161.53 130.66 161.87 130.81 162.2 130.96 162.54 131.09 162.87 131.22 163.2 131.34 163.54 131.46 163.87 131.56 164.21 131.66 164.54 131.76 164.88 131.85 165.21 131.93 165.54 132.01 165.88 132.08 166.21 132.15 166.55 132.21 166.88 132.27 167.22 132.32 167.55 132.37 167.88 132.42 168.22 132.46 168.55 132.5 168.89 132.54 169.22 132.57 169.56 132.6 169.89 132.63 170.22 132.66 170.56 132.68 170.89 132.7 171.23 132.72 171.56 132.74 171.9 132.76 172.23 132.77 172.56 132.78 172.9 132.79 173.23 132.81 173.57 132.82 173.9 132.82 174.24 132.83 174.57 132.84 174.9 132.84 175.24 132.85 175.57 132.86 175.91 132.86 176.24 132.86 176.58 132.87 176.91 132.87 177.24 132.87 177.58 132.87 177.91 132.88 178.25 132.88 178.58 132.88 178.92 132.88 179.25 132.88 179.58 132.88 179.92 132.89 180.25 132.89 180.59 132.89 180.92 132.89 181.26 132.89 181.59 132.89 181.26 132.89 180.92 132.89 180.59 132.89 180.25 132.89 179.92 132.89 179.58 132.89 179.25 132.89 178.92 132.89 178.58 132.89 178.25 132.89 177.91 132.89 177.58 132.89 177.24 132.89 176.91 132.89 176.58 132.89 176.24 132.89 175.91 132.89 175.57 132.89 175.24 132.89 174.9 132.89 174.57 132.89 174.24 132.89 173.9 132.89 173.57 132.89 173.23 132.89 172.9 132.89 172.56 132.89 172.23 132.89 171.9 132.89 171.56 132.89 171.23 132.89 170.89 132.89 170.56 132.89 170.22 132.89 169.89 132.89 169.56 132.89 169.22 132.89 168.89 132.89 168.55 132.89 168.22 132.89 167.88 132.89 167.55 132.89 167.22 132.89 166.88 132.89 166.55 132.89 166.21 132.89 165.88 132.89 165.54 132.89 165.21 132.89 164.88 132.89 164.54 132.89 164.21 132.89 163.87 132.89 163.54 132.89 163.2 132.89 162.87 132.89 162.54 132.89 162.2 132.89 161.87 132.89 161.53 132.89 161.2 132.89 160.86 132.89 160.53 132.89 160.2 132.89 159.86 132.89 159.53 132.89 159.19 132.89 158.86 132.89 158.52 132.89 158.19 132.89 157.86 132.89 157.52 132.89 157.19 132.89 156.85 132.89 156.52 132.89 156.18 132.89 155.85 132.89 155.52 132.89 155.18 132.89 154.85 132.89 154.51 132.89 154.18 132.89 153.84 132.89 153.51 132.89 153.18 132.89 152.84 132.89 152.51 132.89 152.17 132.89 151.84 132.89 151.5 132.89 151.17 132.89 150.84 132.89 150.5 132.89 150.17 132.89 149.83 132.89 149.5 132.89 149.16 132.89 148.83 132.89 148.5 132.89 148.16 132.89 147.83 132.89 147.49 132.89 147.16 132.89 146.82 132.89 146.49 132.89 146.16 132.89 145.82 132.89 145.49 132.89 145.15 132.89 144.82 132.89 144.48 132.89 144.15 132.89 143.82 132.89 143.48 132.89 143.15 132.89 142.81 132.89 142.48 132.89 142.14 132.89 141.81 132.89 141.48 132.89 141.14 132.89 140.81 132.89 140.47 132.89 140.14 132.89 139.8 132.89 139.47 132.89 139.14 132.89 138.8 132.89 138.47 132.89 138.13 132.89 137.8 132.89 137.46 132.89 137.13 132.89 136.8 132.89 136.46 132.89 136.13 132.89 135.79 132.89 135.46 132.89 135.12 132.89 134.79 132.89 134.46 132.89 134.12 132.89 133.79 132.89 133.45 132.89 133.12 132.89 132.78 132.89 132.45 132.89 132.12 132.89 131.78 132.89 131.45 132.89 131.11 132.89 130.78 132.89 130.44 132.89 130.11 132.89 129.78 132.89 129.44 132.89 129.11 132.89 128.77 132.89 128.44 132.89 128.1 132.89 127.77 132.89 127.44 132.89 127.1 132.89 126.77 132.89 126.43 132.89 126.1 132.89 125.76 132.89 125.43 132.89 125.1 132.89 124.76 132.89 124.43 132.89 124.09 132.89 123.76 132.89 123.42 132.89 123.09 132.89 122.76 132.89 122.42 132.89 122.09 132.89 121.75 132.89 121.42 132.89 121.08 132.89 120.75 132.89 120.42 132.89 120.08 132.89 119.75 132.89 119.41 132.89 119.08 132.89 118.74 132.89 118.41 132.89 118.08 132.89 117.74 132.89 117.41 132.89 117.07 132.89 116.74 132.89 116.4 132.89 116.07 132.89 115.74 132.89 115.4 132.89 115.07 132.89 114.73 132.89 114.4 132.89 114.06 132.89 113.73 132.89 113.4 132.89 113.06 132.89 112.73 132.89 112.39 132.89 112.06 132.89 111.72 132.89 111.39 132.89 111.06 132.89 110.72 132.89 110.39 132.89 110.05 132.89 109.72 132.89 109.38 132.89 109.05 132.89 108.72 132.89 108.38 132.89 108.05 132.89 107.71 132.89 107.38 132.89 107.04 132.89 106.71 132.89 106.38 132.89 106.04 132.89 105.71 132.89 105.37 132.89 105.04 132.89 104.7 132.89 104.37 132.89 104.04 132.89 103.7 132.89 103.37 132.89 103.03 132.89 102.7 132.89 102.36 132.89 102.03 132.89 101.7 132.89 101.36 132.89 101.03 132.89 100.69 132.89 100.36 132.89 100.02 132.89 99.69 132.89 99.36 132.89 99.02 132.89 98.69 132.89 98.35 132.89 98.02 132.89 97.68 132.89 97.35 132.89 97.02 132.89 96.68 132.89 96.35 132.89 96.01 132.89 95.68 132.89 95.34 132.89 95.01 132.89 94.68 132.89 94.34 132.89 94.01 132.89 93.67 132.89 93.34 132.89 93 132.89 92.67 132.89 92.34 132.89 92 132.89 91.67 132.89 91.33 132.89 91 132.89 90.66 132.89 90.33 132.89 90 132.89 89.66 132.89 89.33 132.89 88.99 132.89 88.66 132.89 88.32 132.89 87.99 132.89 87.66 132.89 87.32 132.89 86.99 132.89 86.65 132.89 86.32 132.89 85.98 132.89 85.65 132.89 85.32 132.89 84.98 132.89 84.65 132.89 84.31 132.89 83.98 132.89 83.64 132.89 83.31 132.89 82.98 132.89 82.64 132.89 82.31 132.89 81.97 132.89 81.64 132.89 81.3 132.89 80.97 132.89 80.64 132.89 80.3 132.89 79.97 132.89 79.63 132.89 79.3 132.89 78.96 132.89 78.63 132.89 78.3 132.89 77.96 132.89 77.63 132.89 77.29 132.89 76.96 132.89 76.62 132.89 76.29 132.89 75.96 132.89 75.62 132.89 75.29 132.89 74.95 132.89 74.62 132.89 74.28 132.89 73.95 132.89 73.62 132.89 73.28 132.89 72.95 132.89 72.61 132.89 72.28 132.89 71.94 132.89 71.61 132.89 71.28 132.89 70.94 132.89 70.61 132.89 70.27 132.89 69.94 132.89 69.6 132.89 69.27 132.89 68.94 132.89 68.6 132.89 68.27 132.89 67.93 132.89 67.6 132.89 67.26 132.89 66.93 132.89 66.6 132.89 66.26 132.89 65.93 132.89 65.59 132.89 65.26 132.89 64.92 132.89 64.59 132.89 64.26 132.89 63.92 132.89 63.59 132.89 63.25 132.89 62.92 132.89 62.58 132.89 62.25 132.89 61.92 132.89 61.58 132.89 61.25 132.89 60.91 132.89 60.58 132.89 60.24 132.89 59.91 132.89 59.58 132.89 59.24 132.89 58.91 132.89 58.57 132.89 58.24 132.89 57.9 132.89 57.57 132.89 57.24 132.89 56.9 132.89 56.57 132.89 56.23 132.89 55.9 132.89 55.56 132.89 55.23 132.89 54.9 132.89 54.56 132.89 54.23 132.89 53.89 132.89 53.56 132.89 53.22 132.89 52.89 132.89 52.56 132.89 52.22 132.89 51.89 132.89 51.55 132.89 51.22 132.89 50.88 132.89 50.55 132.89 50.22 132.89 49.88 132.89 49.55 132.89 49.21 132.89 48.88 132.89 48.54 132.89 48.21 132.89 47.88 132.89 47.54 132.89 47.21 132.89 46.87 132.89 46.54 132.89 46.2 132.89 45.87 132.89 45.54 132.89 45.2 132.89 44.87 132.89 44.53 132.89 44.2 132.89 43.86 132.89 43.53 132.89 43.2 132.89 42.86 132.89 42.53 132.89 42.19 132.89 41.86 132.89 41.52 132.89 41.19 132.89 40.86 132.89 40.52 132.89 40.19 132.89 39.85 132.89 39.52 132.89 39.18 132.89 38.85 132.89 38.52 132.89 38.18 132.89 37.85 132.89 37.51 132.89 37.18 132.89 36.84 132.89 36.51 132.89 36.18 132.89 35.84 132.89 35.51 132.89 35.17 132.89 34.84 132.89 34.5 132.89 34.17 132.89 33.84 132.89 33.5 132.89 33.17 132.89 32.83 132.89 32.5 132.89 32.16 132.89 31.83 132.89 31.5 132.89 31.16 132.89 30.83 132.89 30.49 132.89 30.16 132.89 29.82 132.89 29.49 132.89 29.16 132.89 28.82 132.89 28.49 132.89 28.15 132.89 27.82 132.89 27.48 132.89 27.15 132.89 26.82 132.89 26.48 132.89 26.15 132.89 25.81 132.89 25.48 132.89 25.14 132.89 24.81 132.89 24.48 132.89 24.14 132.89 23.81 132.89 23.47 132.89 23.14 132.89 22.8 132.89 22.47 132.89 22.14 132.89 21.8 132.89 21.47 132.89 21.13 132.89 20.8 132.89 20.46 132.89 20.13 132.89 19.8 132.89 19.46 132.89 19.13 132.89 18.79 132.89 18.46 132.89 18.12 132.89 17.79 132.89 17.46 132.89 17.12 132.89 16.79 132.89 16.45 132.89 16.12 132.89 15.78 132.89 15.45 132.89 15.12 132.89 14.78 132.89 14.45 132.89 14.11 132.89 13.78 132.89 13.44 132.89 13.11 132.89 12.78 132.89 12.44 132.89 12.11 132.89 11.77 132.89 11.44 132.89 11.1 132.89 10.77 132.89"/>
    <polygon class="cls-3" points="10.77 132.89 11.1 132.89 11.44 132.89 11.77 132.89 12.11 132.89 12.44 132.89 12.78 132.89 13.11 132.89 13.44 132.89 13.78 132.89 14.11 132.89 14.45 132.89 14.78 132.89 15.12 132.89 15.45 132.89 15.78 132.89 16.12 132.89 16.45 132.89 16.79 132.89 17.12 132.89 17.46 132.89 17.79 132.89 18.12 132.89 18.46 132.89 18.79 132.89 19.13 132.89 19.46 132.89 19.8 132.89 20.13 132.89 20.46 132.89 20.8 132.89 21.13 132.88 21.47 132.88 21.8 132.88 22.14 132.88 22.47 132.88 22.8 132.88 23.14 132.88 23.47 132.88 23.81 132.87 24.14 132.87 24.48 132.87 24.81 132.87 25.14 132.86 25.48 132.86 25.81 132.86 26.15 132.85 26.48 132.85 26.82 132.84 27.15 132.84 27.48 132.83 27.82 132.83 28.15 132.82 28.49 132.81 28.82 132.81 29.16 132.8 29.49 132.79 29.82 132.78 30.16 132.77 30.49 132.76 30.83 132.75 31.16 132.73 31.5 132.72 31.83 132.71 32.16 132.69 32.5 132.68 32.83 132.66 33.17 132.64 33.5 132.62 33.84 132.61 34.17 132.59 34.5 132.57 34.84 132.55 35.17 132.52 35.51 132.5 35.84 132.48 36.18 132.45 36.51 132.43 36.84 132.41 37.18 132.38 37.51 132.35 37.85 132.33 38.18 132.3 38.52 132.27 38.85 132.24 39.18 132.21 39.52 132.19 39.85 132.16 40.19 132.13 40.52 132.1 40.86 132.06 41.19 132.03 41.52 132 41.86 131.97 42.19 131.94 42.53 131.91 42.86 131.87 43.2 131.84 43.53 131.8 43.86 131.77 44.2 131.73 44.53 131.7 44.87 131.66 45.2 131.62 45.54 131.59 45.87 131.55 46.2 131.5 46.54 131.46 46.87 131.42 47.21 131.38 47.54 131.33 47.88 131.28 48.21 131.23 48.54 131.18 48.88 131.13 49.21 131.07 49.55 131.02 49.88 130.96 50.22 130.89 50.55 130.83 50.88 130.76 51.22 130.69 51.55 130.62 51.89 130.55 52.22 130.47 52.56 130.39 52.89 130.3 53.22 130.22 53.56 130.13 53.89 130.03 54.23 129.93 54.56 129.83 54.9 129.72 55.23 129.61 55.56 129.5 55.9 129.38 56.23 129.25 56.57 129.12 56.9 128.98 57.24 128.84 57.57 128.69 57.9 128.54 58.24 128.38 58.57 128.21 58.91 128.04 59.24 127.86 59.58 127.67 59.91 127.47 60.24 127.26 60.58 127.05 60.91 126.83 61.25 126.6 61.58 126.35 61.92 126.1 62.25 125.84 62.58 125.57 62.92 125.29 63.25 124.99 63.59 124.69 63.92 124.38 64.26 124.05 64.59 123.71 64.92 123.37 65.26 123.01 65.59 122.64 65.93 122.26 66.26 121.86 66.6 121.46 66.93 121.04 67.26 120.62 67.6 120.18 67.93 119.73 68.27 119.27 68.6 118.8 68.94 118.32 69.27 117.83 69.6 117.32 69.94 116.81 70.27 116.29 70.61 115.76 70.94 115.21 71.28 114.66 71.61 114.1 71.94 113.53 72.28 112.95 72.61 112.36 72.95 111.76 73.28 111.15 73.62 110.54 73.95 109.91 74.28 109.28 74.62 108.63 74.95 107.98 75.29 107.31 75.62 106.64 75.96 105.96 76.29 105.26 76.62 104.56 76.96 103.84 77.29 103.11 77.63 102.37 77.96 101.63 78.3 100.86 78.63 100.08 78.96 99.29 79.3 98.49 79.63 97.67 79.97 96.84 80.3 95.99 80.64 95.12 80.97 94.24 81.3 93.34 81.64 92.42 81.97 91.48 82.31 90.53 82.64 89.55 82.98 88.56 83.31 87.54 83.64 86.5 83.98 85.44 84.31 84.37 84.65 83.27 84.98 82.15 85.32 81 85.65 79.84 85.98 78.65 86.32 77.44 86.65 76.22 86.99 74.97 87.32 73.7 87.66 72.41 87.99 71.11 88.32 69.78 88.66 68.44 88.99 67.09 89.33 65.72 89.66 64.34 90 62.94 90.33 61.54 90.66 60.13 91 58.71 91.33 57.29 91.67 55.87 92 54.44 92.34 53.02 92.67 51.6 93 50.19 93.34 48.79 93.67 47.4 94.01 46.02 94.34 44.66 94.68 43.31 95.01 41.99 95.34 40.69 95.68 39.41 96.01 38.16 96.35 36.94 96.68 35.76 97.02 34.6 97.35 33.48 97.68 32.4 98.02 31.36 98.35 30.36 98.69 29.4 99.02 28.49 99.36 27.63 99.69 26.81 100.02 26.03 100.36 25.32 100.69 24.65 101.03 24.03 101.36 23.45 101.7 22.94 102.03 22.48 102.36 22.06 102.7 21.7 103.03 21.4 103.37 21.14 103.7 20.93 104.04 20.77 104.37 20.67 104.7 20.62 105.04 20.6 105.37 20.64 105.71 20.73 106.04 20.86 106.38 21.03 106.71 21.25 107.04 21.51 107.38 21.8 107.71 22.13 108.05 22.49 108.38 22.9 108.72 23.32 109.05 23.78 109.38 24.27 109.72 24.78 110.05 25.31 110.39 25.86 110.72 26.44 111.06 27.04 111.39 27.64 111.72 28.26 112.06 28.9 112.39 29.54 112.73 30.19 113.06 30.85 113.4 31.51 113.73 32.18 114.06 32.85 114.4 33.52 114.73 34.19 115.07 34.86 115.4 35.54 115.74 36.2 116.07 36.87 116.4 37.53 116.74 38.2 117.07 38.85 117.41 39.51 117.74 40.16 118.08 40.81 118.41 41.46 118.74 42.11 119.08 42.75 119.41 43.4 119.75 44.05 120.08 44.7 120.42 45.35 120.75 46 121.08 46.66 121.42 47.33 121.75 48 122.09 48.68 122.42 49.37 122.76 50.07 123.09 50.78 123.42 51.5 123.76 52.24 124.09 52.99 124.43 53.76 124.76 54.54 125.1 55.34 125.43 56.16 125.76 56.99 126.1 57.84 126.43 58.71 126.77 59.6 127.1 60.5 127.44 61.43 127.77 62.37 128.1 63.33 128.44 64.31 128.77 65.3 129.11 66.32 129.44 67.34 129.78 68.38 130.11 69.44 130.44 70.5 130.78 71.58 131.11 72.67 131.45 73.77 131.78 74.88 132.12 75.99 132.45 77.11 132.78 78.23 133.12 79.35 133.45 80.48 133.79 81.6 134.12 82.72 134.46 83.84 134.79 84.96 135.12 86.07 135.46 87.17 135.79 88.26 136.13 89.35 136.46 90.42 136.8 91.48 137.13 92.52 137.46 93.56 137.8 94.58 138.13 95.58 138.47 96.56 138.8 97.54 139.14 98.49 139.47 99.42 139.8 100.34 140.14 101.23 140.47 102.11 140.81 102.97 141.14 103.81 141.48 104.63 141.81 105.43 142.14 106.21 142.48 106.98 142.81 107.73 143.15 108.45 143.48 109.16 143.82 109.86 144.15 110.53 144.48 111.19 144.82 111.84 145.15 112.47 145.49 113.08 145.82 113.68 146.16 114.26 146.49 114.84 146.82 115.39 147.16 115.94 147.49 116.48 147.83 117 148.16 117.51 148.5 118.01 148.83 118.51 149.16 118.99 149.5 119.46 149.83 119.92 150.17 120.38 150.5 120.82 150.84 121.26 151.17 121.68 151.5 122.1 151.84 122.52 152.17 122.92 152.51 123.31 152.84 123.7 153.18 124.07 153.51 124.44 153.84 124.8 154.18 125.16 154.51 125.5 154.85 125.83 155.18 126.16 155.52 126.48 155.85 126.79 156.18 127.08 156.52 127.38 156.85 127.66 157.19 127.93 157.52 128.19 157.86 128.45 158.19 128.69 158.52 128.93 158.86 129.16 159.19 129.38 159.53 129.59 159.86 129.79 160.2 129.98 160.53 130.16 160.86 130.34 161.2 130.5 161.53 130.66 161.87 130.81 162.2 130.96 162.54 131.09 162.87 131.22 163.2 131.34 163.54 131.46 163.87 131.56 164.21 131.66 164.54 131.76 164.88 131.85 165.21 131.93 165.54 132.01 165.88 132.08 166.21 132.15 166.55 132.21 166.88 132.27 167.22 132.32 167.55 132.37 167.88 132.42 168.22 132.46 168.55 132.5 168.89 132.54 169.22 132.57 169.56 132.6 169.89 132.63 170.22 132.66 170.56 132.68 170.89 132.7 171.23 132.72 171.56 132.74 171.9 132.76 172.23 132.77 172.56 132.78 172.9 132.79 173.23 132.81 173.57 132.82 173.9 132.82 174.24 132.83 174.57 132.84 174.9 132.84 175.24 132.85 175.57 132.86 175.91 132.86 176.24 132.86 176.58 132.87 176.91 132.87 177.24 132.87 177.58 132.87 177.91 132.88 178.25 132.88 178.58 132.88 178.92 132.88 179.25 132.88 179.58 132.88 179.92 132.89 180.25 132.89 180.59 132.89 180.92 132.89 181.26 132.89 181.59 132.89 181.26 132.89 180.92 132.89 180.59 132.89 180.25 132.89 179.92 132.89 179.58 132.89 179.25 132.89 178.92 132.89 178.58 132.89 178.25 132.89 177.91 132.89 177.58 132.89 177.24 132.89 176.91 132.89 176.58 132.89 176.24 132.89 175.91 132.89 175.57 132.89 175.24 132.89 174.9 132.89 174.57 132.89 174.24 132.89 173.9 132.89 173.57 132.89 173.23 132.89 172.9 132.89 172.56 132.89 172.23 132.89 171.9 132.89 171.56 132.89 171.23 132.89 170.89 132.89 170.56 132.89 170.22 132.89 169.89 132.89 169.56 132.89 169.22 132.89 168.89 132.89 168.55 132.89 168.22 132.89 167.88 132.89 167.55 132.89 167.22 132.89 166.88 132.89 166.55 132.89 166.21 132.89 165.88 132.89 165.54 132.89 165.21 132.89 164.88 132.89 164.54 132.89 164.21 132.89 163.87 132.89 163.54 132.89 163.2 132.89 162.87 132.89 162.54 132.89 162.2 132.89 161.87 132.89 161.53 132.89 161.2 132.89 160.86 132.89 160.53 132.89 160.2 132.89 159.86 132.89 159.53 132.89 159.19 132.89 158.86 132.89 158.52 132.89 158.19 132.89 157.86 132.89 157.52 132.89 157.19 132.89 156.85 132.89 156.52 132.89 156.18 132.89 155.85 132.89 155.52 132.89 155.18 132.89 154.85 132.89 154.51 132.89 154.18 132.89 153.84 132.89 153.51 132.89 153.18 132.89 152.84 132.89 152.51 132.89 152.17 132.89 151.84 132.89 151.5 132.89 151.17 132.89 150.84 132.89 150.5 132.89 150.17 132.89 149.83 132.89 149.5 132.89 149.16 132.89 148.83 132.89 148.5 132.89 148.16 132.89 147.83 132.89 147.49 132.89 147.16 132.89 146.82 132.89 146.49 132.89 146.16 132.89 145.82 132.89 145.49 132.89 145.15 132.89 144.82 132.89 144.48 132.89 144.15 132.89 143.82 132.89 143.48 132.89 143.15 132.89 142.81 132.89 142.48 132.89 142.14 132.89 141.81 132.89 141.48 132.89 141.14 132.89 140.81 132.89 140.47 132.89 140.14 132.89 139.8 132.89 139.47 132.89 139.14 132.89 138.8 132.89 138.47 132.89 138.13 132.89 137.8 132.89 137.46 132.89 137.13 132.89 136.8 132.89 136.46 132.89 136.13 132.89 135.79 132.89 135.46 132.89 135.12 132.89 134.79 132.89 134.46 132.89 134.12 132.89 133.79 132.89 133.45 132.89 133.12 132.89 132.78 132.89 132.45 132.89 132.12 132.89 131.78 132.89 131.45 132.89 131.11 132.89 130.78 132.89 130.44 132.89 130.11 132.89 129.78 132.89 129.44 132.89 129.11 132.89 128.77 132.89 128.44 132.89 128.1 132.89 127.77 132.89 127.44 132.89 127.1 132.89 126.77 132.89 126.43 132.89 126.1 132.89 125.76 132.89 125.43 132.89 125.1 132.89 124.76 132.89 124.43 132.89 124.09 132.89 123.76 132.89 123.42 132.89 123.09 132.89 122.76 132.89 122.42 132.89 122.09 132.89 121.75 132.89 121.42 132.89 121.08 132.89 120.75 132.89 120.42 132.89 120.08 132.89 119.75 132.89 119.41 132.89 119.08 132.89 118.74 132.89 118.41 132.89 118.08 132.89 117.74 132.89 117.41 132.89 117.07 132.89 116.74 132.89 116.4 132.89 116.07 132.89 115.74 132.89 115.4 132.89 115.07 132.89 114.73 132.89 114.4 132.89 114.06 132.89 113.73 132.89 113.4 132.89 113.06 132.89 112.73 132.89 112.39 132.89 112.06 132.89 111.72 132.89 111.39 132.89 111.06 132.89 110.72 132.89 110.39 132.89 110.05 132.89 109.72 132.89 109.38 132.89 109.05 132.89 108.72 132.89 108.38 132.89 108.05 132.89 107.71 132.89 107.38 132.89 107.04 132.89 106.71 132.89 106.38 132.89 106.04 132.89 105.71 132.89 105.37 132.89 105.04 132.89 104.7 132.89 104.37 132.89 104.04 132.89 103.7 132.89 103.37 132.89 103.03 132.89 102.7 132.89 102.36 132.89 102.03 132.89 101.7 132.89 101.36 132.89 101.03 132.89 100.69 132.89 100.36 132.89 100.02 132.89 99.69 132.89 99.36 132.89 99.02 132.89 98.69 132.89 98.35 132.89 98.02 132.89 97.68 132.89 97.35 132.89 97.02 132.89 96.68 132.89 96.35 132.89 96.01 132.89 95.68 132.89 95.34 132.89 95.01 132.89 94.68 132.89 94.34 132.89 94.01 132.89 93.67 132.89 93.34 132.89 93 132.89 92.67 132.89 92.34 132.89 92 132.89 91.67 132.89 91.33 132.89 91 132.89 90.66 132.89 90.33 132.89 90 132.89 89.66 132.89 89.33 132.89 88.99 132.89 88.66 132.89 88.32 132.89 87.99 132.89 87.66 132.89 87.32 132.89 86.99 132.89 86.65 132.89 86.32 132.89 85.98 132.89 85.65 132.89 85.32 132.89 84.98 132.89 84.65 132.89 84.31 132.89 83.98 132.89 83.64 132.89 83.31 132.89 82.98 132.89 82.64 132.89 82.31 132.89 81.97 132.89 81.64 132.89 81.3 132.89 80.97 132.89 80.64 132.89 80.3 132.89 79.97 132.89 79.63 132.89 79.3 132.89 78.96 132.89 78.63 132.89 78.3 132.89 77.96 132.89 77.63 132.89 77.29 132.89 76.96 132.89 76.62 132.89 76.29 132.89 75.96 132.89 75.62 132.89 75.29 132.89 74.95 132.89 74.62 132.89 74.28 132.89 73.95 132.89 73.62 132.89 73.28 132.89 72.95 132.89 72.61 132.89 72.28 132.89 71.94 132.89 71.61 132.89 71.28 132.89 70.94 132.89 70.61 132.89 70.27 132.89 69.94 132.89 69.6 132.89 69.27 132.89 68.94 132.89 68.6 132.89 68.27 132.89 67.93 132.89 67.6 132.89 67.26 132.89 66.93 132.89 66.6 132.89 66.26 132.89 65.93 132.89 65.59 132.89 65.26 132.89 64.92 132.89 64.59 132.89 64.26 132.89 63.92 132.89 63.59 132.89 63.25 132.89 62.92 132.89 62.58 132.89 62.25 132.89 61.92 132.89 61.58 132.89 61.25 132.89 60.91 132.89 60.58 132.89 60.24 132.89 59.91 132.89 59.58 132.89 59.24 132.89 58.91 132.89 58.57 132.89 58.24 132.89 57.9 132.89 57.57 132.89 57.24 132.89 56.9 132.89 56.57 132.89 56.23 132.89 55.9 132.89 55.56 132.89 55.23 132.89 54.9 132.89 54.56 132.89 54.23 132.89 53.89 132.89 53.56 132.89 53.22 132.89 52.89 132.89 52.56 132.89 52.22 132.89 51.89 132.89 51.55 132.89 51.22 132.89 50.88 132.89 50.55 132.89 50.22 132.89 49.88 132.89 49.55 132.89 49.21 132.89 48.88 132.89 48.54 132.89 48.21 132.89 47.88 132.89 47.54 132.89 47.21 132.89 46.87 132.89 46.54 132.89 46.2 132.89 45.87 132.89 45.54 132.89 45.2 132.89 44.87 132.89 44.53 132.89 44.2 132.89 43.86 132.89 43.53 132.89 43.2 132.89 42.86 132.89 42.53 132.89 42.19 132.89 41.86 132.89 41.52 132.89 41.19 132.89 40.86 132.89 40.52 132.89 40.19 132.89 39.85 132.89 39.52 132.89 39.18 132.89 38.85 132.89 38.52 132.89 38.18 132.89 37.85 132.89 37.51 132.89 37.18 132.89 36.84 132.89 36.51 132.89 36.18 132.89 35.84 132.89 35.51 132.89 35.17 132.89 34.84 132.89 34.5 132.89 34.17 132.89 33.84 132.89 33.5 132.89 33.17 132.89 32.83 132.89 32.5 132.89 32.16 132.89 31.83 132.89 31.5 132.89 31.16 132.89 30.83 132.89 30.49 132.89 30.16 132.89 29.82 132.89 29.49 132.89 29.16 132.89 28.82 132.89 28.49 132.89 28.15 132.89 27.82 132.89 27.48 132.89 27.15 132.89 26.82 132.89 26.48 132.89 26.15 132.89 25.81 132.89 25.48 132.89 25.14 132.89 24.81 132.89 24.48 132.89 24.14 132.89 23.81 132.89 23.47 132.89 23.14 132.89 22.8 132.89 22.47 132.89 22.14 132.89 21.8 132.89 21.47 132.89 21.13 132.89 20.8 132.89 20.46 132.89 20.13 132.89 19.8 132.89 19.46 132.89 19.13 132.89 18.79 132.89 18.46 132.89 18.12 132.89 17.79 132.89 17.46 132.89 17.12 132.89 16.79 132.89 16.45 132.89 16.12 132.89 15.78 132.89 15.45 132.89 15.12 132.89 14.78 132.89 14.45 132.89 14.11 132.89 13.78 132.89 13.44 132.89 13.11 132.89 12.78 132.89 12.44 132.89 12.11 132.89 11.77 132.89 11.44 132.89 11.1 132.89 10.77 132.89"/>
    <polygon class="cls-1" points="145.15 112.12 144.81 111.49 144.46 110.84 144.12 110.18 143.79 109.51 143.44 108.81 143.1 108.1 142.75 107.38 142.42 106.63 142.07 105.86 141.73 105.08 141.39 104.28 141.05 103.46 140.71 102.62 140.36 101.76 140.02 100.88 139.67 99.99 139.34 99.07 139 98.14 138.65 97.19 138.31 96.21 137.97 95.23 137.63 94.23 137.28 93.21 136.94 92.17 136.61 91.13 136.26 90.07 135.92 89 135.57 87.91 135.24 86.82 134.89 85.72 134.55 84.61 134.21 83.49 133.87 82.37 133.53 81.25 133.18 80.13 132.84 79 132.84 132.82 144.81 132.82 145.15 112.12"/>
    <line class="cls-3" x1="144.85" y1="136.01" x2="144.85" y2="132.3"/>
    <line class="cls-3" x1="132.84" y1="136.01" x2="132.84" y2="132.3"/>
    <rect class="cls-9" x="11.9" y="23.71" width="53.32" height="15.2"/>
    <g class="cls-12">
      <path d="M16.4,33.81c-.47,0-.49-.07-.49-.4v-5.38c0-.33.02-.4.49-.4h.99c.62,0,1.3.22,1.81.92.43.59.52,1.44.52,2.22,0,1.1-.19,1.7-.55,2.19-.2.27-.76.84-1.77.84h-1M14.04,27.33v.31h.24c.77,0,.78.11.78.47v5.23c0,.36-.02.47-.78.47h-.24v.31h3.63c1.67,0,3.04-1.47,3.04-3.34s-1.34-3.45-3.04-3.45h-3.63Z"/>
      <path d="M23.09,27.99c0-.32-.25-.53-.53-.53-.31,0-.53.27-.53.53s.22.53.53.53c.28,0,.53-.21.53-.53M23.05,29.72l-1.39.11v.31c.65,0,.74.06.74.55v2.67c0,.45-.11.45-.78.45v.31c.32,0,.85-.03,1.09-.03.35,0,.7.02,1.03.03v-.31c-.65,0-.7-.05-.7-.44v-3.65Z"/>
      <path d="M25.15,31.95c0-1.62.81-2.04,1.34-2.04.09,0,.72,0,1.06.37-.41.03-.47.33-.47.46,0,.26.18.46.46.46.26,0,.46-.17.46-.47,0-.68-.75-1.06-1.52-1.06-1.24,0-2.16,1.07-2.16,2.3s.98,2.25,2.14,2.25c1.33,0,1.65-1.19,1.65-1.29s-.1-.1-.13-.1c-.09,0-.11.04-.13.1-.29.92-.93,1.04-1.3,1.04-.53,0-1.4-.43-1.4-2.03"/>
      <path d="M29.28,33.36c0,.45-.11.45-.78.45v.31c.35,0,.85-.03,1.12-.03s.78.02,1.11.03v-.31c-.67,0-.77,0-.77-.45v-1.83c0-1.03.7-1.59,1.34-1.59s.74.54.74,1.1v2.31c0,.45-.11.45-.77.45v.31c.35,0,.85-.03,1.12-.03s.77.02,1.11.03v-.31c-.52,0-.76,0-.77-.3v-1.9c0-.85,0-1.16-.31-1.52-.14-.17-.47-.37-1.04-.37-.83,0-1.27.6-1.44.97v-3.48l-1.43.11v.31c.7,0,.78.07.78.56v5.17"/>
      <path d="M35.11,30.14h1.42v-.31h-1.42v-1.83h-.25c0,.81-.31,1.88-1.28,1.92v.22h.84v2.74c0,1.22.92,1.34,1.28,1.34.71,0,.98-.7.98-1.34v-.57h-.25v.55c0,.73-.3,1.11-.67,1.11-.67,0-.67-.9-.67-1.07v-2.76"/>
      <path d="M38.39,31.82h2.77c.22,0,.25,0,.25-.21,0-.98-.54-1.95-1.78-1.95-1.15,0-2.07,1.02-2.07,2.26,0,1.33,1.04,2.3,2.19,2.3,1.21,0,1.66-1.1,1.66-1.29,0-.1-.08-.12-.13-.12-.09,0-.11.06-.13.14-.35,1.02-1.24,1.02-1.34,1.02-.5,0-.89-.3-1.12-.67-.3-.48-.3-1.13-.3-1.49M38.4,31.61c.06-1.48.89-1.73,1.23-1.73,1.02,0,1.12,1.34,1.12,1.73h-2.35Z"/>
      <path d="M48.13,30.14h.85c.2,0,.3,0,.3-.2,0-.11-.1-.11-.27-.11h-.82l.21-1.13c.04-.21.18-.91.24-1.03.09-.19.26-.34.47-.34.04,0,.3,0,.49.18-.44.04-.54.39-.54.54,0,.23.18.35.37.35.26,0,.55-.22.55-.6,0-.46-.46-.69-.86-.69-.34,0-.96.18-1.26,1.16-.06.21-.09.31-.33,1.56h-.69c-.19,0-.3,0-.3.19,0,.12.09.12.28.12h.65l-.75,3.92c-.18.96-.35,1.87-.86,1.87-.04,0-.29,0-.48-.18.46-.03.55-.39.55-.54,0-.23-.18-.35-.37-.35-.26,0-.55.22-.55.6,0,.45.44.68.84.68.55,0,.94-.59,1.12-.96.32-.63.55-1.83.56-1.9l.6-3.15"/>
      <path d="M53.78,36.5s0-.05-.17-.22c-1.24-1.25-1.56-3.13-1.56-4.65,0-1.73.38-3.46,1.6-4.7.13-.12.13-.14.13-.17,0-.07-.04-.1-.1-.1-.1,0-.99.68-1.58,1.94-.51,1.09-.63,2.2-.63,3.03,0,.77.11,1.98.66,3.1.6,1.22,1.45,1.87,1.55,1.87.06,0,.1-.03.1-.1"/>
      <path d="M57.61,31.11c.06-.26.29-1.17.98-1.17.05,0,.29,0,.5.13-.28.05-.48.3-.48.54,0,.16.11.35.38.35.22,0,.54-.18.54-.57,0-.52-.59-.66-.92-.66-.58,0-.92.53-1.04.75-.25-.65-.79-.75-1.07-.75-1.03,0-1.6,1.28-1.6,1.53,0,.1.1.1.12.1.08,0,.11-.02.13-.11.34-1.05.99-1.3,1.33-1.3.19,0,.54.09.54.67,0,.31-.17.97-.54,2.36-.16.62-.51,1.03-.94,1.03-.06,0-.29,0-.5-.13.25-.05.47-.26.47-.54s-.22-.35-.37-.35c-.3,0-.55.26-.55.58,0,.46.5.66.93.66.66,0,1.01-.7,1.04-.75.12.37.48.75,1.07.75,1.02,0,1.59-1.28,1.59-1.53,0-.1-.09-.1-.12-.1-.09,0-.11.04-.13.11-.33,1.06-1,1.3-1.32,1.3-.39,0-.55-.32-.55-.66,0-.22.06-.44.17-.87l.34-1.36"/>
      <path d="M62.86,31.63c0-.78-.11-1.98-.65-3.1-.6-1.22-1.45-1.87-1.55-1.87-.06,0-.1.04-.1.1,0,.03,0,.05.19.23.97.98,1.54,2.56,1.54,4.64,0,1.7-.37,3.45-1.6,4.7-.13.12-.13.14-.13.17,0,.06.04.1.1.1.1,0,.99-.68,1.58-1.94.51-1.09.62-2.2.62-3.03"/>
    </g>
    <polyline class="cls-5" points="65.22 31.31 81.41 31.31 92.45 52.29"/>
  </g>
</svg>