<?xml version="1.0" encoding="UTF-8"?>
<svg id="Layer_1" data-name="Layer 1" xmlns="http://www.w3.org/2000/svg" xmlns:xlink="http://www.w3.org/1999/xlink" viewBox="0 0 343.57 109.99">
  <defs>
    <style>
      .cls-1 {
        clip-path: url(#clippath-6);
      }

      .cls-2 {
        clip-path: url(#clippath-7);
      }

      .cls-3 {
        clip-path: url(#clippath-4);
      }

      .cls-4 {
        fill: rgba(140, 97, 169, .51);
      }

      .cls-4, .cls-5, .cls-6, .cls-7 {
        stroke-linecap: round;
        stroke-miterlimit: 10;
      }

      .cls-4, .cls-5, .cls-7 {
        stroke: #231f20;
        stroke-width: .75px;
      }

      .cls-8 {
        fill: #231f20;
      }

      .cls-9 {
        clip-path: url(#clippath-9);
      }

      .cls-10, .cls-6, .cls-7 {
        fill: none;
      }

      .cls-5 {
        fill: rgba(0, 163, 212, .51);
      }

      .cls-11 {
        clip-path: url(#clippath-1);
      }

      .cls-12 {
        clip-path: url(#clippath-5);
      }

      .cls-13 {
        clip-path: url(#clippath-8);
      }

      .cls-14 {
        clip-path: url(#clippath-3);
      }

      .cls-6 {
        stroke: #a7a9ac;
        stroke-width: .25px;
      }

      .cls-15 {
        clip-path: url(#clippath-2);
      }

      .cls-16 {
        clip-path: url(#clippath);
      }
    </style>
    <clipPath id="clippath">
      <rect class="cls-10" x="143.46" y="104.11" width="6" height="5"/>
    </clipPath>
    <clipPath id="clippath-1">
      <rect class="cls-10" x="9.12" width="49" height="10"/>
    </clipPath>
    <clipPath id="clippath-2">
      <rect class="cls-10" x="337.57" y="104.11" width="6" height="5"/>
    </clipPath>
    <clipPath id="clippath-3">
      <rect class="cls-10" x="203.23" width="49" height="10"/>
    </clipPath>
    <clipPath id="clippath-4">
      <rect class="cls-10" x="26.89" y="89.48" width="6" height="7"/>
    </clipPath>
    <clipPath id="clippath-5">
      <rect class="cls-10" x="67.52" y="87.48" width="22" height="9"/>
    </clipPath>
    <clipPath id="clippath-6">
      <rect class="cls-10" x="231.29" y="84.48" width="15" height="10"/>
    </clipPath>
    <clipPath id="clippath-7">
      <rect class="cls-10" x="282.21" y="84.48" width="15" height="10"/>
    </clipPath>
    <clipPath id="clippath-8">
      <rect class="cls-10" x="41.6" y="101.99" width="11" height="8"/>
    </clipPath>
    <clipPath id="clippath-9">
      <rect class="cls-10" x="268.54" y="101.99" width="21" height="7"/>
    </clipPath>
  </defs>
  <line class="cls-6" x1="2.38" y1="99" x2="86.98" y2="99"/>
  <line class="cls-6" x1="86.98" y1="84.52" x2="86.98" y2="14.41"/>
  <line class="cls-6" x1="2.38" y1="82.08" x2="137.74" y2="82.08"/>
  <line class="cls-6" x1="2.38" y1="65.16" x2="137.74" y2="65.16"/>
  <line class="cls-6" x1="2.38" y1="48.24" x2="137.74" y2="48.24"/>
  <line class="cls-6" x1="2.38" y1="31.33" x2="137.74" y2="31.33"/>
  <line class="cls-6" x1="2.38" y1="14.41" x2="137.74" y2="14.41"/>
  <line class="cls-6" x1="70.06" y1="84.52" x2="70.06" y2="14.41"/>
  <line class="cls-6" x1="53.14" y1="99" x2="53.14" y2="14.41"/>
  <line class="cls-6" x1="36.22" y1="99" x2="36.22" y2="14.41"/>
  <line class="cls-6" x1="137.74" y1="99" x2="137.74" y2="14.41"/>
  <line class="cls-6" x1="120.82" y1="99" x2="120.82" y2="14.41"/>
  <line class="cls-6" x1="103.9" y1="99" x2="103.9" y2="14.41"/>
  <line class="cls-6" x1="19.3" y1="99" x2="19.3" y2="14.41"/>
  <line class="cls-6" x1="2.38" y1="99" x2="2.38" y2="14.41"/>
  <g>
    <line class="cls-7" x1="2.38" y1="99" x2="2.38" y2="6.3"/>
    <polygon class="cls-8" points="4.77 10.73 4.06 10.99 2.38 6.37 .7 10.99 0 10.73 2.38 4.18 4.77 10.73"/>
  </g>
  <g class="cls-16">
    <path d="M147.48,105.91c.06-.26.29-1.17.98-1.17.05,0,.29,0,.5.13-.28.05-.48.3-.48.54,0,.16.11.35.38.35.22,0,.54-.18.54-.58,0-.52-.59-.66-.92-.66-.58,0-.92.53-1.04.75-.25-.65-.79-.75-1.07-.75-1.03,0-1.6,1.28-1.6,1.53,0,.1.1.1.12.1.08,0,.11-.02.13-.11.34-1.05.99-1.3,1.33-1.3.19,0,.54.09.54.67,0,.31-.17.97-.54,2.36-.16.62-.51,1.03-.94,1.03-.06,0-.29,0-.5-.13.25-.05.47-.26.47-.54s-.22-.35-.37-.35c-.3,0-.55.26-.55.58,0,.46.5.66.93.66.66,0,1.01-.7,1.04-.75.12.37.48.75,1.07.75,1.02,0,1.59-1.28,1.59-1.53,0-.1-.09-.1-.12-.1-.09,0-.11.04-.13.11-.33,1.06-1,1.3-1.32,1.3-.39,0-.55-.32-.55-.66,0-.22.06-.44.17-.87l.34-1.36"/>
  </g>
  <g class="cls-11">
    <path d="M11.53,7.19c-.47,0-.49-.07-.49-.4V1.42c0-.33.02-.4.49-.4h.99c.62,0,1.3.22,1.81.92.43.59.52,1.44.52,2.22,0,1.1-.19,1.7-.55,2.19-.2.27-.76.84-1.77.84h-1M9.17.72v.31h.24c.77,0,.78.11.78.47v5.23c0,.36-.02.47-.78.47h-.24v.31h3.63c1.67,0,3.04-1.47,3.04-3.34s-1.34-3.45-3.04-3.45h-3.63Z"/>
    <path d="M18.22,1.38c0-.32-.25-.53-.53-.53-.31,0-.53.27-.53.53s.22.53.53.53c.28,0,.53-.21.53-.53M18.18,3.11l-1.39.11v.31c.65,0,.74.06.74.55v2.67c0,.45-.11.45-.78.45v.31c.32,0,.85-.03,1.09-.03.35,0,.7.02,1.03.03v-.31c-.65,0-.7-.05-.7-.44v-3.65Z"/>
    <path d="M20.28,5.33c0-1.62.81-2.04,1.34-2.04.09,0,.72,0,1.06.37-.41.03-.47.33-.47.46,0,.26.18.46.46.46.26,0,.46-.17.46-.47,0-.68-.75-1.06-1.52-1.06-1.24,0-2.16,1.07-2.16,2.3s.98,2.25,2.14,2.25c1.33,0,1.65-1.19,1.65-1.29s-.1-.1-.13-.1c-.09,0-.11.04-.13.1-.29.92-.93,1.04-1.3,1.04-.53,0-1.4-.43-1.4-2.03"/>
    <path d="M24.41,6.75c0,.45-.11.45-.78.45v.31c.35,0,.85-.03,1.12-.03s.78.02,1.11.03v-.31c-.67,0-.77,0-.77-.45v-1.83c0-1.03.7-1.59,1.34-1.59s.74.54.74,1.1v2.31c0,.45-.11.45-.77.45v.31c.35,0,.85-.03,1.12-.03s.77.02,1.11.03v-.31c-.52,0-.76,0-.77-.3v-1.9c0-.85,0-1.16-.31-1.52-.14-.17-.47-.37-1.04-.37-.83,0-1.27.6-1.44.97V.61l-1.43.11v.31c.7,0,.78.07.78.56v5.17"/>
    <path d="M30.24,3.53h1.42v-.31h-1.42v-1.83h-.25c0,.81-.31,1.88-1.28,1.92v.22h.84v2.74c0,1.22.92,1.34,1.28,1.34.71,0,.98-.7.98-1.34v-.57h-.25v.55c0,.73-.3,1.11-.67,1.11-.67,0-.67-.9-.67-1.07v-2.76"/>
    <path d="M33.52,5.2h2.77c.22,0,.25,0,.25-.21,0-.98-.54-1.95-1.78-1.95-1.15,0-2.07,1.02-2.07,2.26,0,1.33,1.04,2.3,2.19,2.3,1.21,0,1.66-1.1,1.66-1.29,0-.1-.08-.12-.13-.12-.09,0-.11.06-.13.14-.35,1.02-1.24,1.02-1.34,1.02-.5,0-.89-.3-1.12-.67-.3-.48-.3-1.13-.3-1.49M33.53,5c.06-1.48.89-1.73,1.23-1.73,1.02,0,1.12,1.34,1.12,1.73h-2.35Z"/>
    <path d="M43.27,3.53h.85c.2,0,.3,0,.3-.2,0-.11-.1-.11-.27-.11h-.82l.21-1.13c.04-.21.18-.91.24-1.03.09-.19.26-.34.47-.34.04,0,.3,0,.49.18-.44.04-.54.39-.54.54,0,.23.18.35.37.35.26,0,.55-.22.55-.6,0-.46-.46-.69-.86-.69-.34,0-.96.18-1.26,1.16-.06.21-.09.31-.33,1.56h-.69c-.19,0-.3,0-.3.19,0,.12.09.12.28.12h.65l-.75,3.92c-.18.96-.35,1.87-.86,1.87-.04,0-.29,0-.48-.18.46-.03.55-.39.55-.54,0-.23-.18-.35-.37-.35-.26,0-.55.22-.55.6,0,.45.44.68.84.68.55,0,.94-.59,1.12-.96.32-.63.55-1.83.56-1.9l.6-3.15"/>
    <path d="M48.91,9.88s0-.05-.17-.22c-1.24-1.25-1.56-3.13-1.56-4.65,0-1.73.38-3.46,1.6-4.7.13-.12.13-.14.13-.17,0-.07-.04-.1-.1-.1-.1,0-.99.68-1.58,1.94-.51,1.09-.63,2.2-.63,3.03,0,.77.11,1.98.66,3.1.6,1.22,1.45,1.87,1.55,1.87.06,0,.1-.03.1-.1"/>
    <path d="M52.74,4.5c.06-.26.29-1.17.98-1.17.05,0,.29,0,.5.13-.28.05-.48.3-.48.54,0,.16.11.35.38.35.22,0,.54-.18.54-.57,0-.52-.59-.66-.92-.66-.58,0-.92.53-1.04.75-.25-.65-.79-.75-1.07-.75-1.03,0-1.6,1.28-1.6,1.53,0,.1.1.1.12.1.08,0,.11-.02.13-.11.34-1.05.99-1.3,1.33-1.3.19,0,.54.09.54.67,0,.31-.17.97-.54,2.36-.16.62-.51,1.03-.94,1.03-.06,0-.29,0-.5-.13.25-.05.47-.26.47-.54s-.22-.35-.37-.35c-.3,0-.55.26-.55.58,0,.46.5.66.93.66.66,0,1.01-.7,1.04-.75.12.37.48.75,1.07.75,1.02,0,1.59-1.28,1.59-1.53,0-.1-.09-.1-.12-.1-.09,0-.11.04-.13.11-.33,1.06-1,1.3-1.32,1.3-.39,0-.55-.32-.55-.66,0-.22.06-.44.17-.87l.34-1.36"/>
    <path d="M57.99,5.02c0-.78-.11-1.98-.65-3.1-.6-1.22-1.45-1.87-1.55-1.87-.06,0-.1.04-.1.1,0,.03,0,.05.19.23.97.98,1.54,2.56,1.54,4.64,0,1.7-.37,3.45-1.6,4.7-.13.12-.13.14-.13.17,0,.06.04.1.1.1.1,0,.99-.68,1.58-1.94.51-1.09.62-2.2.62-3.03"/>
  </g>
  <path class="cls-4" d="M129.78,99c-10.75-31.23-30.14-77.65-58.82-77.65-14.77,0-23.09,17.01-31.61,35.36v42.3"/>
  <path class="cls-5" d="M9.12,99c13.97-6.55,22.19-25.02,30.22-42.3v42.3"/>
  <g>
    <line class="cls-7" x1="2.38" y1="99" x2="144.35" y2="99"/>
    <polygon class="cls-8" points="139.92 101.39 139.66 100.68 144.28 99 139.66 97.32 139.92 96.62 146.47 99 139.92 101.39"/>
  </g>
  <line class="cls-6" x1="196.49" y1="99" x2="281.09" y2="99"/>
  <line class="cls-6" x1="281.09" y1="99" x2="281.09" y2="14.41"/>
  <line class="cls-6" x1="196.49" y1="82.08" x2="331.84" y2="82.08"/>
  <line class="cls-6" x1="196.49" y1="65.16" x2="331.84" y2="65.16"/>
  <line class="cls-6" x1="196.49" y1="48.24" x2="331.84" y2="48.24"/>
  <line class="cls-6" x1="196.49" y1="31.33" x2="331.84" y2="31.33"/>
  <line class="cls-6" x1="196.49" y1="14.41" x2="331.84" y2="14.41"/>
  <line class="cls-6" x1="264.17" y1="99" x2="264.17" y2="14.41"/>
  <line class="cls-6" x1="247.25" y1="99" x2="247.25" y2="14.41"/>
  <line class="cls-6" x1="230.33" y1="99" x2="230.33" y2="14.41"/>
  <line class="cls-6" x1="331.84" y1="99" x2="331.84" y2="14.41"/>
  <line class="cls-6" x1="314.93" y1="99" x2="314.93" y2="14.41"/>
  <line class="cls-6" x1="298.01" y1="99" x2="298.01" y2="14.41"/>
  <line class="cls-6" x1="213.41" y1="99" x2="213.41" y2="14.41"/>
  <line class="cls-6" x1="196.49" y1="99" x2="196.49" y2="14.41"/>
  <g>
    <line class="cls-7" x1="196.49" y1="99" x2="196.49" y2="6.3"/>
    <polygon class="cls-8" points="198.88 10.73 198.17 10.99 196.49 6.37 194.81 10.99 194.11 10.73 196.49 4.18 198.88 10.73"/>
  </g>
  <g class="cls-15">
    <path d="M341.59,105.91c.06-.26.29-1.17.98-1.17.05,0,.29,0,.5.13-.28.05-.48.3-.48.54,0,.16.11.35.38.35.22,0,.54-.18.54-.58,0-.52-.59-.66-.92-.66-.58,0-.92.53-1.04.75-.25-.65-.79-.75-1.07-.75-1.03,0-1.6,1.28-1.6,1.53,0,.1.1.1.12.1.08,0,.11-.02.13-.11.34-1.05.99-1.3,1.33-1.3.19,0,.54.09.54.67,0,.31-.17.97-.54,2.36-.16.62-.51,1.03-.94,1.03-.06,0-.29,0-.5-.13.25-.05.47-.26.47-.54s-.22-.35-.37-.35c-.3,0-.55.26-.55.58,0,.46.5.66.93.66.66,0,1.01-.7,1.04-.75.12.37.48.75,1.07.75,1.02,0,1.59-1.28,1.59-1.53,0-.1-.09-.1-.12-.1-.09,0-.11.04-.13.11-.33,1.06-1,1.3-1.32,1.3-.39,0-.55-.32-.55-.66,0-.22.06-.44.17-.87l.34-1.36"/>
  </g>
  <g class="cls-14">
    <path d="M205.64,7.19c-.47,0-.49-.07-.49-.4V1.42c0-.33.02-.4.49-.4h.99c.62,0,1.3.22,1.81.92.43.59.52,1.44.52,2.22,0,1.1-.19,1.7-.55,2.19-.2.27-.76.84-1.77.84h-1M203.28.72v.31h.24c.77,0,.78.11.78.47v5.23c0,.36-.02.47-.78.47h-.24v.31h3.63c1.67,0,3.04-1.47,3.04-3.34s-1.34-3.45-3.04-3.45h-3.63Z"/>
    <path d="M212.33,1.38c0-.32-.25-.53-.53-.53-.31,0-.53.27-.53.53s.22.53.53.53c.28,0,.53-.21.53-.53M212.29,3.11l-1.39.11v.31c.65,0,.74.06.74.55v2.67c0,.45-.11.45-.78.45v.31c.32,0,.85-.03,1.09-.03.35,0,.7.02,1.03.03v-.31c-.65,0-.7-.05-.7-.44v-3.65Z"/>
    <path d="M214.39,5.33c0-1.62.81-2.04,1.34-2.04.09,0,.72,0,1.06.37-.41.03-.47.33-.47.46,0,.26.18.46.46.46.26,0,.46-.17.46-.47,0-.68-.75-1.06-1.52-1.06-1.24,0-2.16,1.07-2.16,2.3s.98,2.25,2.14,2.25c1.33,0,1.65-1.19,1.65-1.29s-.1-.1-.13-.1c-.09,0-.11.04-.13.1-.29.92-.93,1.04-1.3,1.04-.53,0-1.4-.43-1.4-2.03"/>
    <path d="M218.52,6.75c0,.45-.11.45-.78.45v.31c.35,0,.85-.03,1.12-.03s.78.02,1.11.03v-.31c-.67,0-.77,0-.77-.45v-1.83c0-1.03.7-1.59,1.34-1.59s.74.54.74,1.1v2.31c0,.45-.11.45-.77.45v.31c.35,0,.85-.03,1.12-.03s.77.02,1.11.03v-.31c-.52,0-.76,0-.77-.3v-1.9c0-.85,0-1.16-.31-1.52-.14-.17-.47-.37-1.04-.37-.83,0-1.27.6-1.44.97V.61l-1.43.11v.31c.7,0,.78.07.78.56v5.17"/>
    <path d="M224.35,3.53h1.42v-.31h-1.42v-1.83h-.25c0,.81-.31,1.88-1.28,1.92v.22h.84v2.74c0,1.22.92,1.34,1.28,1.34.71,0,.98-.7.98-1.34v-.57h-.25v.55c0,.73-.3,1.11-.67,1.11-.67,0-.67-.9-.67-1.07v-2.76"/>
    <path d="M227.63,5.2h2.77c.22,0,.25,0,.25-.21,0-.98-.54-1.95-1.78-1.95-1.15,0-2.07,1.02-2.07,2.26,0,1.33,1.04,2.3,2.19,2.3,1.21,0,1.66-1.1,1.66-1.29,0-.1-.08-.12-.13-.12-.09,0-.11.06-.13.14-.35,1.02-1.24,1.02-1.34,1.02-.5,0-.89-.3-1.12-.67-.3-.48-.3-1.13-.3-1.49M227.64,5c.06-1.48.89-1.73,1.23-1.73,1.02,0,1.12,1.34,1.12,1.73h-2.35Z"/>
    <path d="M237.38,3.53h.85c.2,0,.3,0,.3-.2,0-.11-.1-.11-.27-.11h-.82l.21-1.13c.04-.21.18-.91.24-1.03.09-.19.26-.34.47-.34.04,0,.3,0,.49.18-.44.04-.54.39-.54.54,0,.23.18.35.37.35.26,0,.55-.22.55-.6,0-.46-.46-.69-.86-.69-.34,0-.96.18-1.26,1.16-.06.21-.09.31-.33,1.56h-.69c-.19,0-.3,0-.3.19,0,.12.09.12.28.12h.65l-.75,3.92c-.18.96-.35,1.87-.86,1.87-.04,0-.29,0-.48-.18.46-.03.55-.39.55-.54,0-.23-.18-.35-.37-.35-.26,0-.55.22-.55.6,0,.45.44.68.84.68.55,0,.94-.59,1.12-.96.32-.63.55-1.83.56-1.9l.6-3.15"/>
    <path d="M243.02,9.88s0-.05-.17-.22c-1.24-1.25-1.56-3.13-1.56-4.65,0-1.73.38-3.46,1.6-4.7.13-.12.13-.14.13-.17,0-.07-.04-.1-.1-.1-.1,0-.99.68-1.58,1.94-.51,1.09-.63,2.2-.63,3.03,0,.77.11,1.98.66,3.1.6,1.22,1.45,1.87,1.55,1.87.06,0,.1-.03.1-.1"/>
    <path d="M246.85,4.5c.06-.26.29-1.17.98-1.17.05,0,.29,0,.5.13-.28.05-.48.3-.48.54,0,.16.11.35.38.35.22,0,.54-.18.54-.57,0-.52-.59-.66-.92-.66-.58,0-.92.53-1.04.75-.25-.65-.79-.75-1.07-.75-1.03,0-1.6,1.28-1.6,1.53,0,.1.1.1.12.1.08,0,.11-.02.13-.11.34-1.05.99-1.3,1.33-1.3.19,0,.54.09.54.67,0,.31-.17.97-.54,2.36-.16.62-.51,1.03-.94,1.03-.06,0-.29,0-.5-.13.25-.05.47-.26.47-.54s-.22-.35-.37-.35c-.3,0-.55.26-.55.58,0,.46.5.66.93.66.66,0,1.01-.7,1.04-.75.12.37.48.75,1.07.75,1.02,0,1.59-1.28,1.59-1.53,0-.1-.09-.1-.12-.1-.09,0-.11.04-.13.11-.33,1.06-1,1.3-1.32,1.3-.39,0-.55-.32-.55-.66,0-.22.06-.44.17-.87l.34-1.36"/>
    <path d="M252.1,5.02c0-.78-.11-1.98-.65-3.1-.6-1.22-1.45-1.87-1.55-1.87-.06,0-.1.04-.1.1,0,.03,0,.05.19.23.97.98,1.54,2.56,1.54,4.64,0,1.7-.37,3.45-1.6,4.7-.13.12-.13.14-.13.17,0,.06.04.1.1.1.1,0,.99-.68,1.58-1.94.51-1.09.62-2.2.62-3.03"/>
  </g>
  <path class="cls-4" d="M323.88,99c-10.75-31.23-30.14-77.65-58.82-77.65v77.65"/>
  <path class="cls-5" d="M203.23,99c28.8-13.5,33.15-77.65,61.83-77.65v77.65"/>
  <g>
    <line class="cls-7" x1="196.49" y1="99" x2="338.46" y2="99"/>
    <polygon class="cls-8" points="334.03 101.39 333.77 100.68 338.39 99 333.77 97.32 334.03 96.62 340.58 99 334.03 101.39"/>
  </g>
  <g class="cls-3">
    <path d="M29.78,91.18c.07-.27.34-.55.52-.7.35-.31.64-.38.8-.38.4,0,.63.35.63.93s-.33,1.73-.51,2.11c-.34.7-.81,1.02-1.18,1.02-.66,0-.79-.83-.79-.88,0-.02,0-.04.03-.16l.49-1.95M28.03,95.49c-.08.34-.1.41-.54.41-.12,0-.23,0-.23.19,0,.08.05.12.13.12.27,0,.56-.03.83-.03.33,0,.67.03.98.03.05,0,.18,0,.18-.2,0-.11-.1-.11-.24-.11-.5,0-.5-.07-.5-.16,0-.12.42-1.74.49-1.99.13.29.41.64.91.64,1.15,0,2.39-1.45,2.39-2.91,0-.93-.57-1.59-1.32-1.59-.5,0-.97.36-1.3.75-.1-.54-.53-.75-.89-.75-.46,0-.65.39-.74.57-.18.34-.31.93-.31.96,0,.1.1.1.12.1.1,0,.11-.01.17-.23.17-.7.37-1.18.73-1.18.17,0,.31.08.31.46,0,.23-.03.34-.07.51l-1.11,4.42Z"/>
  </g>
  <g class="cls-12">
    <path d="M70.14,87.92c0-.24,0-.26-.23-.26-.62.64-1.49.64-1.81.64v.31c.2,0,.78,0,1.3-.26v5.15c0,.36-.03.48-.93.48h-.32v.31c.35-.03,1.21-.03,1.61-.03s1.26,0,1.61.03v-.31h-.32c-.89,0-.92-.11-.92-.48v-5.57"/>
    <path d="M80.97,92c.17,0,.35,0,.35-.2s-.18-.2-.35-.2h-5.38c-.17,0-.35,0-.35.2s.18.2.35.2h5.38"/>
    <path d="M86.51,91.18c.07-.27.34-.55.52-.7.35-.31.64-.38.8-.38.4,0,.63.35.63.93s-.33,1.73-.51,2.11c-.34.7-.81,1.02-1.18,1.02-.66,0-.79-.83-.79-.88,0-.02,0-.04.03-.16l.49-1.95M84.77,95.49c-.08.34-.1.41-.54.41-.12,0-.23,0-.23.19,0,.08.05.12.13.12.27,0,.56-.03.83-.03.33,0,.67.03.98.03.05,0,.18,0,.18-.2,0-.11-.1-.11-.24-.11-.5,0-.5-.07-.5-.16,0-.12.42-1.74.49-1.99.13.29.41.64.91.64,1.15,0,2.39-1.45,2.39-2.91,0-.93-.57-1.59-1.32-1.59-.5,0-.97.36-1.3.75-.1-.54-.53-.75-.89-.75-.46,0-.65.39-.74.57-.18.34-.31.93-.31.96,0,.1.1.1.12.1.1,0,.11-.01.17-.23.17-.7.37-1.18.73-1.18.17,0,.31.08.31.46,0,.23-.03.34-.07.51l-1.11,4.42Z"/>
  </g>
  <g class="cls-1">
    <path d="M233.91,85.62c0-.24,0-.26-.23-.26-.62.64-1.49.64-1.81.64v.31c.2,0,.78,0,1.3-.26v5.15c0,.36-.03.48-.93.48h-.32v.31c.35-.03,1.21-.03,1.61-.03s1.26,0,1.61.03v-.31h-.32c-.89,0-.92-.11-.92-.48v-5.57"/>
    <path d="M240.25,84.91c.05-.13.05-.17.05-.18,0-.11-.09-.2-.2-.2-.07,0-.14.03-.17.09l-3.45,9.47c-.05.13-.05.17-.05.18,0,.11.09.2.2.2.13,0,.16-.07.22-.24l3.4-9.32"/>
    <path d="M242.15,91.21l1.05-1.02c1.55-1.37,2.15-1.91,2.15-2.9,0-1.13-.9-1.93-2.11-1.93-1.12,0-1.86.91-1.86,1.8,0,.56.5.56.53.56.17,0,.52-.12.52-.53,0-.26-.18-.52-.53-.52-.08,0-.1,0-.13,0,.23-.65.76-1.01,1.34-1.01.9,0,1.33.8,1.33,1.62s-.5,1.58-1.04,2.2l-1.91,2.13c-.11.11-.11.13-.11.37h3.69l.28-1.73h-.25c-.05.3-.12.73-.22.88-.07.08-.72.08-.94.08h-1.79"/>
  </g>
  <g class="cls-2">
    <path d="M284.83,85.62c0-.24,0-.26-.23-.26-.62.64-1.49.64-1.81.64v.31c.2,0,.78,0,1.3-.26v5.15c0,.36-.03.48-.93.48h-.32v.31c.35-.03,1.21-.03,1.61-.03s1.26,0,1.61.03v-.31h-.32c-.89,0-.92-.11-.92-.48v-5.57"/>
    <path d="M291.17,84.91c.05-.13.05-.17.05-.18,0-.11-.09-.2-.2-.2-.07,0-.14.03-.17.09l-3.45,9.47c-.05.13-.05.17-.05.18,0,.11.09.2.2.2.13,0,.16-.07.22-.24l3.4-9.32"/>
    <path d="M293.07,91.21l1.05-1.02c1.55-1.37,2.15-1.91,2.15-2.9,0-1.13-.9-1.93-2.11-1.93-1.12,0-1.86.91-1.86,1.8,0,.56.5.56.53.56.17,0,.52-.12.52-.53,0-.26-.18-.52-.53-.52-.08,0-.1,0-.13,0,.23-.65.76-1.01,1.34-1.01.9,0,1.33.8,1.33,1.62s-.5,1.58-1.04,2.2l-1.91,2.13c-.11.11-.11.13-.11.37h3.69l.28-1.73h-.25c-.05.3-.12.73-.22.88-.07.08-.72.08-.94.08h-1.79"/>
  </g>
  <line class="cls-7" x1="39.34" y1="99" x2="39.34" y2="105.09"/>
  <line class="cls-7" x1="265.06" y1="99" x2="265.06" y2="105.09"/>
  <g class="cls-13">
    <path d="M45.61,103.79c.06-.26.29-1.17.98-1.17.05,0,.29,0,.5.13-.28.05-.48.3-.48.54,0,.16.11.35.38.35.22,0,.54-.18.54-.57,0-.52-.59-.66-.92-.66-.58,0-.92.53-1.04.75-.25-.65-.79-.75-1.07-.75-1.03,0-1.6,1.28-1.6,1.53,0,.1.1.1.12.1.08,0,.11-.02.13-.11.34-1.05.99-1.3,1.33-1.3.19,0,.54.09.54.67,0,.31-.17.97-.54,2.36-.16.62-.51,1.03-.94,1.03-.06,0-.29,0-.5-.13.25-.05.47-.26.47-.54s-.22-.35-.37-.35c-.3,0-.55.26-.55.58,0,.46.5.66.93.66.66,0,1.01-.7,1.04-.75.12.37.48.75,1.07.75,1.02,0,1.59-1.28,1.59-1.53,0-.1-.09-.1-.12-.1-.09,0-.11.04-.13.11-.33,1.06-1,1.3-1.32,1.3-.39,0-.55-.32-.55-.66,0-.22.06-.44.17-.87l.34-1.36"/>
    <path d="M49.85,106.03c.41-.54.76-.65.98-.65.27,0,.51.2.51.68,0,.29-.15,1.01-.37,1.41-.18.34-.52.68-.88.68-.5,0-.63-.54-.63-.61,0-.03.01-.08.02-.11l.35-1.41M48.52,109.15c-.05.2-.06.25-.34.25-.09,0-.19,0-.19.15,0,.08.06.11.1.11.18,0,.42-.03.6-.03.24,0,.51.03.74.03.06,0,.14-.02.14-.15,0-.1-.1-.1-.18-.1-.15,0-.35,0-.35-.08,0-.04.05-.22.08-.32.08-.37.18-.75.26-1.05.08.14.3.41.73.41.86,0,1.81-.95,1.81-2,0-.82-.57-1.17-1.05-1.17-.44,0-.81.3-1,.49-.12-.4-.51-.49-.72-.49-.27,0-.44.18-.56.37-.14.24-.25.66-.25.7,0,.09.1.09.12.09.1,0,.1-.02.15-.21.1-.41.24-.76.51-.76.18,0,.23.15.23.34,0,.08-.01.17-.02.21l-.8,3.21Z"/>
  </g>
  <g class="cls-9">
    <path d="M272.55,103.79c.06-.26.29-1.17.98-1.17.05,0,.29,0,.5.13-.28.05-.48.3-.48.54,0,.16.11.35.38.35.22,0,.54-.18.54-.57,0-.52-.59-.66-.92-.66-.58,0-.92.53-1.04.75-.25-.65-.79-.75-1.07-.75-1.03,0-1.6,1.28-1.6,1.53,0,.1.1.1.12.1.08,0,.11-.02.13-.11.34-1.05.99-1.3,1.33-1.3.19,0,.54.09.54.67,0,.31-.17.97-.54,2.36-.16.62-.51,1.03-.94,1.03-.06,0-.29,0-.5-.13.25-.05.47-.26.47-.54s-.22-.35-.37-.35c-.3,0-.55.26-.55.58,0,.46.5.66.93.66.66,0,1.01-.7,1.04-.75.12.37.48.75,1.07.75,1.02,0,1.59-1.28,1.59-1.53,0-.1-.09-.1-.12-.1-.09,0-.11.04-.13.11-.33,1.06-1,1.3-1.32,1.3-.39,0-.55-.32-.55-.66,0-.22.06-.44.17-.87l.34-1.36"/>
    <path d="M280.72,106.16c0-.61-.3-.97-1.05-.97-.55,0-.93.3-1.12.65-.14-.5-.52-.65-1.03-.65-.58,0-.95.32-1.15.68h0v-.68l-1.03.08v.25c.47,0,.53.05.53.39v1.82c0,.3-.07.3-.53.3v.25s.51-.03.8-.03c.26,0,.75.02.81.03v-.25c-.46,0-.53,0-.53-.3v-1.27c0-.74.58-1.08,1.05-1.08.49,0,.56.39.56.75v1.6c0,.3-.07.3-.53.3v.25s.51-.03.8-.03c.26,0,.75.02.81.03v-.25c-.46,0-.53,0-.53-.3v-1.27c0-.74.58-1.08,1.05-1.08.49,0,.56.39.56.75v1.6c0,.3-.07.3-.53.3v.25s.51-.03.8-.03c.26,0,.75.02.81.03v-.25c-.46,0-.53,0-.53-.3v-1.58"/>
    <path d="M282.36,106.51c.08-.99.71-1.15.98-1.15.86,0,.89.98.9,1.15h-1.88M284.53,106.69c.15,0,.2,0,.2-.15,0-.62-.35-1.38-1.39-1.38-.92,0-1.62.73-1.62,1.6s.78,1.61,1.72,1.61,1.3-.76,1.3-.91c0-.03-.01-.1-.12-.1-.09,0-.1.04-.13.11-.22.57-.75.68-1,.68-.33,0-.65-.15-.86-.41-.26-.33-.27-.76-.27-1.03h2.18Z"/>
    <path d="M287.94,107.55c-.18.33-.54.61-1,.61-.39,0-.68-.23-.82-.44-.14-.21-.23-.49-.23-.94,0-.16,0-.69.29-1.02.28-.32.62-.38.83-.38.34,0,.64.15.84.41.08.11.08.12.08.25v1.5M287.44,103.49v.25c.47,0,.53.05.53.39v1.45c-.26-.25-.6-.4-.98-.4-.93,0-1.72.7-1.72,1.59s.75,1.58,1.64,1.58c.58,0,.92-.31,1.04-.44v.44l1.08-.07v-.25c-.47,0-.53-.05-.53-.39v-4.23l-1.05.08Z"/>
  </g>
</svg>