<?xml version="1.0" encoding="UTF-8"?>
<svg id="Ebene_1" data-name="Ebene 1" xmlns="http://www.w3.org/2000/svg" xmlns:xlink="http://www.w3.org/1999/xlink" viewBox="0 0 180 189.68">
  <defs>
    <style>
      .cls-1, .cls-2, .cls-3, .cls-4, .cls-5 {
        fill: none;
      }

      .cls-6 {
        clip-path: url(#clippath-1);
      }

      .cls-2 {
        stroke-linecap: square;
      }

      .cls-2, .cls-3, .cls-4 {
        stroke-width: .2px;
      }

      .cls-2, .cls-3, .cls-4, .cls-5 {
        stroke-miterlimit: 3.25;
      }

      .cls-2, .cls-4 {
        stroke: #000;
      }

      .cls-7 {
        isolation: isolate;
      }

      .cls-3 {
        opacity: .4;
        stroke: gray;
      }

      .cls-8 {
        font-family: Mathematica, Mathematica;
      }

      .cls-8, .cls-9 {
        font-size: 9px;
      }

      .cls-9 {
        font-family: Times-Bold, 'Times Bold';
        font-weight: 700;
      }

      .cls-5 {
        stroke: #00a;
        stroke-width: 1.6px;
      }

      .cls-10 {
        clip-path: url(#clippath);
      }
    </style>
    <clipPath id="clippath">
      <rect class="cls-1" x="10" y="176.78" width="43" height="1"/>
    </clipPath>
    <clipPath id="clippath-1">
      <rect class="cls-1" x="135" y="176.78" width="42" height="1"/>
    </clipPath>
  </defs>
  <g class="cls-7">
    <line class="cls-3" x1="93.7" y1="177.68" x2="93.7" y2="5.28"/>
    <line class="cls-3" x1="7.5" y1="177.68" x2="179.9" y2="177.68"/>
    <g class="cls-10">
      <line class="cls-5" x1="10.95" y1="177.68" x2="52.27" y2="177.68"/>
    </g>
    <polyline class="cls-5" points="52.38 177.35 52.44 176.92 52.56 176.24 52.61 175.9 52.66 175.57 52.77 174.89 53.05 173.21 53.1 172.88 53.21 172.21 53.43 170.88 53.86 168.24 54.73 163.05 54.78 162.76 54.84 162.46 55.14 160.67 55.55 158.31 56.36 153.68 57.99 144.7 61.52 126.61 64.98 110.68 68.21 97.46 71.71 84.9 71.77 84.72 72.12 83.55 72.53 82.23 73.35 79.67 74.98 74.84 75.09 74.53 75.2 74.22 75.43 73.61 75.87 72.4 76.75 70.07 76.86 69.79 76.98 69.51 77.19 68.95 77.64 67.87 78.53 65.78 78.58 65.65 78.63 65.53 78.74 65.28 78.96 64.79 79.39 63.84 80.27 62.02 80.32 61.9 80.38 61.8 80.48 61.58 80.7 61.15 81.13 60.31 82 58.72 82.11 58.54 82.41 58.01 82.82 57.33 83.62 56.05 83.73 55.89 83.83 55.74 84.03 55.44 84.44 54.86 85.25 53.78 85.31 53.71 85.36 53.64 85.69 53.23 86.13 52.71 86.24 52.59 86.35 52.47 86.57 52.22 87.01 51.76 87.23 51.55 87.45 51.33 87.89 50.94 88.77 50.22 88.82 50.18 88.87 50.15 88.97 50.07 89.18 49.93 89.59 49.66 89.69 49.6 89.79 49.54 90 49.42 90.41 49.2 90.46 49.17 90.61 49.1 90.82 49.01 90.87 48.99 90.92 48.97 91.03 48.92 91.23 48.84 91.28 48.83 91.33 48.81 91.44 48.77 91.64 48.71 91.69 48.69 91.75 48.67 91.85 48.64 92.05 48.59 92.31 48.53 92.36 48.52 92.45 48.5 92.5 48.49 92.76 48.45 92.86 48.44 92.91 48.43 92.96 48.42 93.06 48.42 93.11 48.41 93.26 48.4 93.31 48.4 93.41 48.39 93.46 48.39 93.51 48.39 93.91 48.39 94.02 48.39 94.07 48.39 94.12 48.4 94.16 48.4 94.37 48.42 94.47 48.43 94.52 48.44 94.57 48.44 94.92 48.49 94.97 48.51 95.07 48.53 95.27 48.57 95.33 48.58 95.38 48.6 95.82 48.72 95.93 48.76 96.14 48.83 96.2 48.86 96.25 48.88 96.36 48.92 96.58 49.01 97.02 49.22 97.13 49.27 97.46 49.45 97.89 49.71 97.95 49.74 98 49.78 98.11 49.85 98.33 50 98.77 50.32 98.87 50.4 99.17 50.65 99.58 50.99 99.99 51.37 100.39 51.77 100.45 51.82 100.5 51.87 100.6 51.98 100.81 52.19 101.21 52.65 102.03 53.62 102.25 53.9 102.47 54.19 102.91 54.79 103.79 56.08 103.9 56.25 104.02 56.42 104.23 56.76 104.68 57.48 105.56 59.01 105.67 59.2 105.78 59.4 105.99 59.8 106.43 60.62 107.29 62.34 109.03 66.13 109.13 66.37 109.43 67.08 109.84 68.05 110.65 70.07 112.27 74.41 112.32 74.57 112.38 74.72 112.7 75.66 113.14 76.93 114.02 79.56 115.77 85.18 119.05 96.92 122.26 109.99 125.75 125.94 129 142.47 132.52 162.2 132.62 162.8 132.73 163.4 132.93 164.62 133.34 167.07 133.4 167.38 133.55 168.31 133.75 169.55 134.16 172.05 134.21 172.37 134.27 172.68 134.37 173.31 134.57 174.58 134.63 174.89 134.68 175.21 134.78 175.85 134.83 176.17 134.88 176.49 134.99 177.13 135.02 177.35"/>
    <g class="cls-6">
      <line class="cls-5" x1="135.13" y1="177.68" x2="176.45" y2="177.68"/>
    </g>
    <line class="cls-2" x1="179.9" y1="177.68" x2="7.5" y2="177.68"/>
    <line class="cls-2" x1="7.5" y1="177.68" x2="7.5" y2="5.28"/>
    <line class="cls-2" x1="7.5" y1="5.28" x2="179.9" y2="5.28"/>
    <line class="cls-2" x1="179.9" y1="5.28" x2="179.9" y2="177.68"/>
    <line class="cls-4" x1="10.95" y1="177.68" x2="10.95" y2="175.09"/>
    <text class="cls-8" transform="translate(5.8 187.43)"><tspan x="0" y="0">-</tspan></text>
    <text class="cls-9" transform="translate(11.6 187.43)"><tspan x="0" y="0">2</tspan></text>
    <line class="cls-4" x1="52.32" y1="177.68" x2="52.32" y2="175.09"/>
    <text class="cls-8" transform="translate(47.18 187.43)"><tspan x="0" y="0">-</tspan></text>
    <text class="cls-9" transform="translate(52.97 187.43)"><tspan x="0" y="0">1</tspan></text>
    <line class="cls-4" x1="93.7" y1="177.68" x2="93.7" y2="175.09"/>
    <text class="cls-9" transform="translate(91.45 187.43)"><tspan x="0" y="0">0</tspan></text>
    <line class="cls-4" x1="135.07" y1="177.68" x2="135.07" y2="175.09"/>
    <text class="cls-9" transform="translate(132.83 187.43)"><tspan x="0" y="0">1</tspan></text>
    <line class="cls-4" x1="176.45" y1="177.68" x2="176.45" y2="175.09"/>
    <text class="cls-9" transform="translate(174.2 187.43)"><tspan x="0" y="0">2</tspan></text>
    <line class="cls-4" x1="7.5" y1="177.68" x2="10.09" y2="177.68"/>
    <text class="cls-9" transform="translate(0 179.93)"><tspan x="0" y="0">0</tspan></text>
    <line class="cls-4" x1="7.5" y1="5.28" x2="10.09" y2="5.28"/>
    <text class="cls-9" transform="translate(0 7.53)"><tspan x="0" y="0">1</tspan></text>
  </g>
</svg>