<?xml version="1.0" encoding="UTF-8"?>
<svg id="Ebene_1" data-name="Ebene 1" xmlns="http://www.w3.org/2000/svg" xmlns:xlink="http://www.w3.org/1999/xlink" viewBox="0 0 180 189.68">
  <defs>
    <style>
      .cls-1, .cls-2, .cls-3, .cls-4, .cls-5 {
        fill: none;
      }

      .cls-6 {
        clip-path: url(#clippath-1);
      }

      .cls-2 {
        stroke-linecap: square;
      }

      .cls-2, .cls-3, .cls-4 {
        stroke-width: .2px;
      }

      .cls-2, .cls-3, .cls-4, .cls-5 {
        stroke-miterlimit: 3.25;
      }

      .cls-2, .cls-4 {
        stroke: #000;
      }

      .cls-7 {
        isolation: isolate;
      }

      .cls-3 {
        opacity: .4;
        stroke: gray;
      }

      .cls-8 {
        font-family: Mathematica, Mathematica;
      }

      .cls-8, .cls-9 {
        font-size: 9px;
      }

      .cls-10 {
        clip-path: url(#clippath-2);
      }

      .cls-9 {
        font-family: Times-Bold, 'Times Bold';
        font-weight: 700;
      }

      .cls-5 {
        stroke: #00a;
        stroke-width: 1.6px;
      }

      .cls-11 {
        clip-path: url(#clippath);
      }
    </style>
    <clipPath id="clippath">
      <rect class="cls-1" x="10" y="176.78" width="43" height="1"/>
    </clipPath>
    <clipPath id="clippath-1">
      <rect class="cls-1" x="52" y="14.78" width="84" height="163"/>
    </clipPath>
    <clipPath id="clippath-2">
      <rect class="cls-1" x="135" y="176.78" width="42" height="1"/>
    </clipPath>
  </defs>
  <g class="cls-7">
    <line class="cls-3" x1="93.7" y1="177.68" x2="93.7" y2="5.28"/>
    <line class="cls-3" x1="7.5" y1="177.68" x2="179.9" y2="177.68"/>
    <g class="cls-11">
      <line class="cls-5" x1="10.95" y1="177.68" x2="52.27" y2="177.68"/>
    </g>
    <g class="cls-6">
      <polyline class="cls-5" points="52.38 177.68 52.44 177.68 52.61 177.65 52.77 177.61 52.88 177.57 52.94 177.55 53.05 177.49 53.1 177.46 53.21 177.39 53.26 177.36 53.32 177.32 53.43 177.24 53.48 177.19 53.53 177.15 53.65 177.05 53.86 176.82 53.97 176.7 54.08 176.57 54.3 176.28 54.35 176.21 54.41 176.12 54.52 175.96 54.73 175.62 54.84 175.44 54.94 175.26 55.14 174.89 55.55 174.06 55.6 173.95 55.75 173.61 55.96 173.13 56.36 172.11 56.41 171.98 56.57 171.57 56.77 171 57.18 169.81 57.99 167.17 58.1 166.78 58.21 166.4 58.43 165.6 58.87 163.96 59.75 160.42 61.52 152.47 61.73 151.42 61.95 150.36 62.38 148.2 63.25 143.73 64.98 134.28 68.21 115.46 71.71 94.45 74.98 75.44 78.53 56.61 78.58 56.34 78.63 56.07 78.74 55.54 78.96 54.48 79.39 52.39 80.27 48.34 80.32 48.1 80.38 47.85 80.48 47.36 80.7 46.4 81.13 44.5 82 40.86 82.11 40.44 82.21 40.04 82.41 39.23 82.82 37.65 83.62 34.65 83.83 33.93 84.03 33.22 84.44 31.85 85.25 29.26 85.36 28.93 85.47 28.6 85.69 27.95 86.13 26.7 86.18 26.55 86.35 26.1 86.57 25.52 87.01 24.4 87.06 24.27 87.23 23.87 87.45 23.35 87.89 22.37 88.77 20.62 88.82 20.53 88.87 20.43 88.97 20.25 89.18 19.9 89.59 19.23 89.64 19.15 89.69 19.08 89.79 18.93 90 18.64 90.41 18.1 90.51 17.97 90.61 17.85 90.82 17.62 90.92 17.51 91.03 17.4 91.23 17.21 91.28 17.16 91.33 17.12 91.44 17.03 91.64 16.86 91.69 16.82 91.75 16.78 91.85 16.71 92.05 16.57 92.15 16.51 92.25 16.45 92.31 16.43 92.36 16.4 92.45 16.35 92.5 16.33 92.56 16.31 92.66 16.26 92.76 16.22 92.86 16.19 92.96 16.16 93.01 16.15 93.06 16.14 93.11 16.12 93.16 16.12 93.21 16.1 93.26 16.1 93.31 16.09 93.41 16.07 93.56 16.06 93.61 16.06 93.66 16.06 93.71 16.06 93.76 16.06 93.81 16.06 94.02 16.08 94.12 16.09 94.16 16.1 94.21 16.11 94.37 16.14 94.47 16.17 94.52 16.19 94.57 16.2 94.67 16.24 94.77 16.28 94.87 16.32 94.92 16.34 95.07 16.41 95.27 16.53 95.33 16.56 95.49 16.66 95.71 16.82 95.82 16.9 95.93 16.99 96.14 17.19 96.25 17.29 96.36 17.4 96.58 17.62 97.02 18.13 97.24 18.41 97.46 18.71 97.89 19.36 98 19.53 98.11 19.71 98.33 20.08 98.77 20.87 98.82 20.96 98.87 21.06 98.97 21.26 99.17 21.67 99.58 22.52 100.39 24.42 100.45 24.54 100.5 24.67 100.6 24.92 100.81 25.45 101.21 26.54 102.03 28.89 102.25 29.56 102.47 30.25 102.91 31.68 103.79 34.72 105.56 41.53 105.61 41.75 105.67 41.97 105.78 42.42 105.99 43.33 106.43 45.2 107.29 49.07 109.03 57.38 112.27 74.58 115.77 94.97 119.05 114.62 122.26 133.38 122.31 133.69 122.37 133.99 122.48 134.61 122.69 135.83 123.13 138.23 124 142.94 125.75 151.8 125.85 152.29 125.95 152.78 126.15 153.74 126.56 155.63 127.37 159.24 127.42 159.46 127.47 159.67 127.57 160.1 127.78 160.95 128.18 162.6 129 165.7 129.05 165.9 129.1 166.09 129.21 166.49 129.43 167.25 129.88 168.72 129.98 169.07 130.1 169.41 130.32 170.08 130.76 171.35 130.87 171.66 130.98 171.95 131.2 172.52 131.64 173.58 131.69 173.71 131.75 173.83 131.86 174.07 132.08 174.53 132.52 175.37 132.57 175.46 132.62 175.54 132.73 175.71 132.93 176.03 132.98 176.11 133.04 176.19 133.14 176.33 133.34 176.6 133.4 176.66 133.55 176.83 133.65 176.94 133.75 177.05 133.85 177.14 133.96 177.22 134.01 177.26 134.06 177.3 134.16 177.38 134.27 177.44 134.32 177.47 134.42 177.53 134.47 177.55 134.52 177.57 134.57 177.59 134.63 177.61 134.73 177.64 134.83 177.66 134.88 177.67 134.94 177.68 134.99 177.68 135.02 177.68"/>
    </g>
    <g class="cls-10">
      <line class="cls-5" x1="135.13" y1="177.68" x2="176.45" y2="177.68"/>
    </g>
    <line class="cls-2" x1="179.9" y1="177.68" x2="7.5" y2="177.68"/>
    <line class="cls-2" x1="7.5" y1="177.68" x2="7.5" y2="5.28"/>
    <line class="cls-2" x1="7.5" y1="5.28" x2="179.9" y2="5.28"/>
    <line class="cls-2" x1="179.9" y1="5.28" x2="179.9" y2="177.68"/>
    <line class="cls-4" x1="10.95" y1="177.68" x2="10.95" y2="175.09"/>
    <text class="cls-8" transform="translate(5.8 187.43)"><tspan x="0" y="0">-</tspan></text>
    <text class="cls-9" transform="translate(11.6 187.43)"><tspan x="0" y="0">2</tspan></text>
    <line class="cls-4" x1="52.32" y1="177.68" x2="52.32" y2="175.09"/>
    <text class="cls-8" transform="translate(47.18 187.43)"><tspan x="0" y="0">-</tspan></text>
    <text class="cls-9" transform="translate(52.97 187.43)"><tspan x="0" y="0">1</tspan></text>
    <line class="cls-4" x1="93.7" y1="177.68" x2="93.7" y2="175.09"/>
    <text class="cls-9" transform="translate(91.45 187.43)"><tspan x="0" y="0">0</tspan></text>
    <line class="cls-4" x1="135.07" y1="177.68" x2="135.07" y2="175.09"/>
    <text class="cls-9" transform="translate(132.83 187.43)"><tspan x="0" y="0">1</tspan></text>
    <line class="cls-4" x1="176.45" y1="177.68" x2="176.45" y2="175.09"/>
    <text class="cls-9" transform="translate(174.2 187.43)"><tspan x="0" y="0">2</tspan></text>
    <line class="cls-4" x1="7.5" y1="177.68" x2="10.09" y2="177.68"/>
    <text class="cls-9" transform="translate(0 179.93)"><tspan x="0" y="0">0</tspan></text>
    <line class="cls-4" x1="7.5" y1="5.28" x2="10.09" y2="5.28"/>
    <text class="cls-9" transform="translate(0 7.53)"><tspan x="0" y="0">1</tspan></text>
  </g>
</svg>