<?xml version="1.0" encoding="UTF-8"?>
<svg id="Ebene_1" data-name="Ebene 1" xmlns="http://www.w3.org/2000/svg" viewBox="0 0 180 189.68">
  <defs>
    <style>
      .cls-1 {
        stroke-linecap: square;
      }

      .cls-1, .cls-2, .cls-3 {
        stroke-width: .2px;
      }

      .cls-1, .cls-2, .cls-3, .cls-4 {
        fill: none;
        stroke-miterlimit: 3.25;
      }

      .cls-1, .cls-3 {
        stroke: #000;
      }

      .cls-5 {
        isolation: isolate;
      }

      .cls-2 {
        opacity: .4;
        stroke: gray;
      }

      .cls-6 {
        font-family: Mathematica, Mathematica;
      }

      .cls-6, .cls-7 {
        font-size: 9px;
      }

      .cls-7 {
        font-family: Times-Bold, 'Times Bold';
        font-weight: 700;
      }

      .cls-4 {
        stroke: #00a;
        stroke-width: 1.6px;
      }
    </style>
  </defs>
  <g class="cls-5">
    <line class="cls-2" x1="93.7" y1="177.68" x2="93.7" y2="5.28"/>
    <line class="cls-2" x1="7.5" y1="177.68" x2="179.9" y2="177.68"/>
    <polyline class="cls-4" points="10.95 168.38 11.35 168.19 11.76 168.01 12.57 167.62 14.19 166.83 17.72 164.94 21.01 162.99 24.23 160.88 27.73 158.39 30.99 155.87 34.53 152.95 38 149.89 41.24 146.9 44.75 143.52 48.03 140.28 51.25 137.05 54.73 133.54 57.99 130.29 61.52 126.86 64.98 123.63 68.21 120.8 71.71 117.96 74.98 115.6 75.04 115.56 75.09 115.52 75.2 115.44 75.43 115.3 75.87 115.01 76.75 114.44 78.53 113.38 78.58 113.35 78.74 113.26 78.96 113.14 79.39 112.9 80.27 112.44 80.38 112.38 80.48 112.33 80.7 112.22 81.13 112.01 82 111.6 82.11 111.55 82.21 111.51 82.41 111.42 82.82 111.24 83.62 110.91 84.03 110.76 84.44 110.61 85.25 110.33 85.36 110.29 85.69 110.18 86.13 110.05 86.18 110.03 86.35 109.98 86.57 109.92 87.01 109.8 87.06 109.78 87.12 109.77 87.23 109.74 87.45 109.69 87.89 109.58 88.77 109.39 88.82 109.38 88.87 109.37 88.97 109.35 89.18 109.31 89.59 109.24 89.79 109.21 90 109.18 90.41 109.12 90.51 109.11 90.61 109.1 90.82 109.07 90.87 109.06 90.92 109.06 91.03 109.05 91.23 109.03 91.28 109.02 91.33 109.02 91.44 109.01 91.64 108.99 91.69 108.99 91.75 108.98 92.1 108.96 92.15 108.96 92.31 108.94 92.36 108.94 92.45 108.94 92.5 108.94 92.56 108.93 92.66 108.93 92.71 108.92 92.76 108.92 92.86 108.92 92.91 108.92 92.96 108.92 93.01 108.92 93.06 108.91 93.21 108.91 93.26 108.91 93.51 108.91 93.56 108.9 93.86 108.9 93.91 108.91 94.16 108.91 94.21 108.91 94.32 108.91 94.37 108.92 94.47 108.92 94.52 108.92 94.57 108.92 94.67 108.92 94.72 108.93 94.77 108.93 94.87 108.93 94.92 108.94 94.97 108.94 95.07 108.94 95.27 108.96 95.82 108.99 95.93 109.01 96.14 109.03 96.2 109.03 96.25 109.04 96.58 109.07 97.02 109.13 97.46 109.19 97.89 109.26 97.95 109.27 98 109.28 98.11 109.3 98.33 109.33 98.77 109.42 98.82 109.43 98.97 109.46 99.17 109.51 99.58 109.6 100.39 109.8 100.45 109.81 100.5 109.83 100.6 109.85 101.21 110.03 102.03 110.28 102.14 110.32 102.25 110.36 102.47 110.43 102.91 110.59 103.79 110.92 103.9 110.97 104.02 111.01 104.23 111.1 104.68 111.28 105.56 111.67 105.61 111.7 105.67 111.72 105.78 111.78 105.99 111.88 106.43 112.08 107.29 112.52 109.03 113.47 109.08 113.5 109.13 113.53 109.43 113.7 109.84 113.94 110.65 114.44 112.27 115.49 115.77 118.03 119.05 120.67 122.26 123.49 125.75 126.72 129 129.88 132.52 133.39 135.81 136.71 139.04 139.95 142.54 143.41 145.8 146.56 149.34 149.84 152.82 152.9 156.06 155.59 159.57 158.31 162.85 160.67 166.07 162.78 169.56 164.87 172.82 166.63 172.88 166.66 172.93 166.69 173.04 166.74 173.27 166.86 173.73 167.09 174.63 167.53 174.69 167.56 174.75 167.58 174.86 167.64 175.09 167.75 175.54 167.96 175.6 167.99 175.66 168.01 175.77 168.06 176 168.17 176.05 168.19 176.11 168.22 176.23 168.27 176.28 168.3 176.34 168.32 176.4 168.35 176.45 168.38"/>
    <line class="cls-1" x1="179.9" y1="177.68" x2="7.5" y2="177.68"/>
    <line class="cls-1" x1="7.5" y1="177.68" x2="7.5" y2="5.28"/>
    <line class="cls-1" x1="7.5" y1="5.28" x2="179.9" y2="5.28"/>
    <line class="cls-1" x1="179.9" y1="5.28" x2="179.9" y2="177.68"/>
    <line class="cls-3" x1="10.95" y1="177.68" x2="10.95" y2="175.09"/>
    <text class="cls-6" transform="translate(5.8 187.43)"><tspan x="0" y="0">-</tspan></text>
    <text class="cls-7" transform="translate(11.6 187.43)"><tspan x="0" y="0">2</tspan></text>
    <line class="cls-3" x1="52.32" y1="177.68" x2="52.32" y2="175.09"/>
    <text class="cls-6" transform="translate(47.18 187.43)"><tspan x="0" y="0">-</tspan></text>
    <text class="cls-7" transform="translate(52.97 187.43)"><tspan x="0" y="0">1</tspan></text>
    <line class="cls-3" x1="93.7" y1="177.68" x2="93.7" y2="175.09"/>
    <text class="cls-7" transform="translate(91.45 187.43)"><tspan x="0" y="0">0</tspan></text>
    <line class="cls-3" x1="135.07" y1="177.68" x2="135.07" y2="175.09"/>
    <text class="cls-7" transform="translate(132.83 187.43)"><tspan x="0" y="0">1</tspan></text>
    <line class="cls-3" x1="176.45" y1="177.68" x2="176.45" y2="175.09"/>
    <text class="cls-7" transform="translate(174.2 187.43)"><tspan x="0" y="0">2</tspan></text>
    <line class="cls-3" x1="7.5" y1="177.68" x2="10.09" y2="177.68"/>
    <text class="cls-7" transform="translate(0 179.93)"><tspan x="0" y="0">0</tspan></text>
    <line class="cls-3" x1="7.5" y1="5.28" x2="10.09" y2="5.28"/>
    <text class="cls-7" transform="translate(0 7.53)"><tspan x="0" y="0">1</tspan></text>
  </g>
</svg>