<?xml version="1.0" encoding="UTF-8"?>
<svg id="Layer_1" data-name="Layer 1" xmlns="http://www.w3.org/2000/svg" xmlns:xlink="http://www.w3.org/1999/xlink" viewBox="0 0 215.81 125.93">
  <defs>
    <style>
      .cls-1 {
        clip-path: url(#clippath-4);
      }

      .cls-2 {
        fill: #231f20;
      }

      .cls-3 {
        fill: #fff;
      }

      .cls-4, .cls-5, .cls-6, .cls-7, .cls-8 {
        fill: none;
      }

      .cls-9 {
        fill: #ec008c;
      }

      .cls-9, .cls-5, .cls-10, .cls-7 {
        stroke-miterlimit: 3.25;
      }

      .cls-9, .cls-6, .cls-10 {
        stroke-width: .25px;
      }

      .cls-9, .cls-10, .cls-8 {
        stroke: #231f20;
      }

      .cls-11 {
        clip-path: url(#clippath-1);
      }

      .cls-5 {
        stroke: #1c75bc;
      }

      .cls-5, .cls-7 {
        stroke-linecap: square;
      }

      .cls-12 {
        clip-path: url(#clippath-5);
      }

      .cls-13 {
        clip-path: url(#clippath-3);
      }

      .cls-6 {
        stroke: #a7a9ac;
      }

      .cls-6, .cls-8 {
        stroke-linecap: round;
        stroke-miterlimit: 10;
      }

      .cls-10 {
        fill: #3dc7f4;
      }

      .cls-7 {
        stroke: #ec008c;
      }

      .cls-14 {
        clip-path: url(#clippath-2);
      }

      .cls-8 {
        stroke-width: .75px;
      }

      .cls-15 {
        clip-path: url(#clippath);
      }
    </style>
    <clipPath id="clippath">
      <rect class="cls-4" x="209.81" y="120.93" width="6" height="5"/>
    </clipPath>
    <clipPath id="clippath-1">
      <rect class="cls-4" x="105.57" y="118.82" width="5" height="7"/>
    </clipPath>
    <clipPath id="clippath-2">
      <rect class="cls-4" x="45.21" y="9.85" width="12" height="8"/>
    </clipPath>
    <clipPath id="clippath-3">
      <rect class="cls-4" x="107.36" y="18.85" width="37" height="8"/>
    </clipPath>
    <clipPath id="clippath-4">
      <rect class="cls-4" x="145.78" y="94.9" width="32" height="8"/>
    </clipPath>
    <clipPath id="clippath-5">
      <rect class="cls-4" x="89.37" y="80.69" width="25" height="9"/>
    </clipPath>
  </defs>
  <line class="cls-6" x1="153.32" y1="115.82" x2="153.32" y2="13.65"/>
  <line class="cls-6" x1="68.73" y1="98.9" x2="204.08" y2="98.9"/>
  <line class="cls-6" x1="68.73" y1="81.98" x2="204.08" y2="81.98"/>
  <line class="cls-6" x1="68.73" y1="65.07" x2="204.08" y2="65.07"/>
  <line class="cls-6" x1="68.73" y1="48.15" x2="204.08" y2="48.15"/>
  <line class="cls-6" x1="68.73" y1="31.23" x2="204.08" y2="31.23"/>
  <line class="cls-6" x1="136.41" y1="115.82" x2="136.41" y2="13.65"/>
  <line class="cls-6" x1="119.49" y1="115.82" x2="119.49" y2="13.65"/>
  <line class="cls-6" x1="102.57" y1="115.82" x2="102.57" y2="13.65"/>
  <line class="cls-6" x1="204.08" y1="115.82" x2="204.08" y2="13.65"/>
  <line class="cls-6" x1="187.16" y1="115.82" x2="187.16" y2="13.65"/>
  <line class="cls-6" x1="170.24" y1="115.82" x2="170.24" y2="13.65"/>
  <line class="cls-6" x1="85.65" y1="115.82" x2="85.65" y2="13.65"/>
  <line class="cls-6" x1="68.18" y1="98.9" x2=".5" y2="98.9"/>
  <line class="cls-6" x1="68.18" y1="81.98" x2=".5" y2="81.98"/>
  <line class="cls-6" x1="68.18" y1="65.07" x2=".5" y2="65.07"/>
  <line class="cls-6" x1="68.18" y1="48.15" x2=".5" y2="48.15"/>
  <line class="cls-6" x1="68.18" y1="31.23" x2=".5" y2="31.23"/>
  <line class="cls-6" x1=".5" y1="115.82" x2=".5" y2="13.65"/>
  <line class="cls-6" x1="17.42" y1="115.82" x2="17.42" y2="13.65"/>
  <line class="cls-6" x1="34.34" y1="115.82" x2="34.34" y2="13.65"/>
  <line class="cls-6" x1="51.26" y1="115.82" x2="51.26" y2="13.65"/>
  <g>
    <line class="cls-8" x1="68.73" y1="115.82" x2="68.73" y2="2.12"/>
    <polygon class="cls-2" points="71.12 6.55 70.41 6.81 68.73 2.19 67.05 6.81 66.35 6.55 68.73 0 71.12 6.55"/>
  </g>
  <g class="cls-15">
    <path d="M213.82,122.73c.06-.26.29-1.17.98-1.17.05,0,.29,0,.5.13-.28.05-.48.3-.48.54,0,.16.11.35.38.35.22,0,.54-.18.54-.58,0-.52-.59-.66-.92-.66-.58,0-.92.53-1.04.75-.25-.65-.79-.75-1.07-.75-1.03,0-1.6,1.28-1.6,1.53,0,.1.1.1.12.1.08,0,.11-.02.13-.11.34-1.05.99-1.3,1.33-1.3.19,0,.54.09.54.67,0,.31-.17.97-.54,2.36-.16.62-.51,1.03-.94,1.03-.06,0-.29,0-.5-.13.25-.05.47-.26.47-.54s-.22-.35-.37-.35c-.3,0-.55.26-.55.58,0,.46.5.66.93.66.66,0,1.01-.7,1.04-.75.12.37.48.75,1.07.75,1.02,0,1.59-1.28,1.59-1.53,0-.1-.09-.1-.12-.1-.09,0-.11.04-.13.11-.33,1.06-1,1.3-1.32,1.3-.39,0-.55-.32-.55-.66,0-.22.06-.44.17-.87l.34-1.36"/>
  </g>
  <g>
    <line class="cls-8" x1=".5" y1="115.82" x2="210.7" y2="115.82"/>
    <polygon class="cls-2" points="206.26 118.21 206.01 117.5 210.62 115.82 206.01 114.14 206.26 113.44 212.82 115.82 206.26 118.21"/>
  </g>
  <line class="cls-6" x1=".5" y1="13.65" x2="204.08" y2="13.65"/>
  <line class="cls-8" x1="102.57" y1="113.15" x2="102.57" y2="118.82"/>
  <line class="cls-8" x1="71.57" y1="13.65" x2="65.9" y2="13.65"/>
  <g class="cls-11">
    <path d="M106.53,124.86l1.05-1.02c1.55-1.37,2.15-1.91,2.15-2.9,0-1.13-.9-1.93-2.11-1.93-1.12,0-1.86.91-1.86,1.8,0,.56.5.56.53.56.17,0,.52-.12.52-.53,0-.26-.18-.52-.53-.52-.08,0-.1,0-.13,0,.23-.65.76-1.01,1.34-1.01.9,0,1.33.8,1.33,1.62s-.5,1.58-1.04,2.2l-1.91,2.13c-.11.11-.11.13-.11.37h3.69l.28-1.73h-.25c-.05.3-.12.73-.22.88-.07.08-.73.08-.94.08h-1.79"/>
  </g>
  <rect class="cls-3" x="42.96" y="8.33" width="16.42" height="10.52"/>
  <g class="cls-14">
    <path d="M47.38,16.65c-.39,0-.97-.25-1.15-1.2-.11-.6-.11-1.51-.11-2.1,0-.64,0-1.29.08-1.83.19-1.18.93-1.27,1.18-1.27.33,0,.98.18,1.17,1.16.1.56.1,1.31.1,1.94,0,.75,0,1.42-.11,2.06-.15.94-.72,1.24-1.16,1.24M49.48,13.47c0-.8-.05-1.59-.4-2.32-.46-.95-1.27-1.11-1.69-1.11-.6,0-1.32.26-1.73,1.18-.32.69-.37,1.46-.37,2.26,0,.74.04,1.64.45,2.39.43.8,1.15,1,1.64,1,.54,0,1.29-.21,1.73-1.15.32-.68.37-1.46.37-2.24Z"/>
    <path d="M51.72,16.13c0-.29-.24-.53-.53-.53s-.53.24-.53.53.24.53.53.53.53-.24.53-.53"/>
    <path d="M55.1,16.59c-.63,0-.93-.6-.98-.75-.18-.47-.18-1.26-.18-1.44,0-.78.32-1.77,1.21-1.77.16,0,.62,0,.92.62.18.37.18.87.18,1.36s0,.97-.17,1.33c-.3.6-.75.65-.98.65M53.92,13.39v-.24c0-2.51,1.23-2.87,1.74-2.87.24,0,.65.06.87.4-.15,0-.55,0-.55.45,0,.31.24.46.46.46.16,0,.46-.09.46-.48,0-.6-.44-1.07-1.26-1.07-1.27,0-2.61,1.28-2.61,3.48,0,2.65,1.15,3.36,2.08,3.36,1.1,0,2.05-.93,2.05-2.25s-.88-2.22-1.99-2.22c-.68,0-1.04.51-1.24.98Z"/>
  </g>
  <g>
    <rect class="cls-3" x="106.06" y="16.77" width="39.59" height="12.16"/>
    <g class="cls-13">
      <path d="M108.94,25.54c-.49,0-.88-.36-.88-1.07,0-.3.12-1.11.47-1.7.42-.68,1.01-.82,1.35-.82.83,0,.91.65.91.96,0,.47-.2,1.28-.54,1.79-.39.59-.92.84-1.31.84M112.2,21.94c.13,0,.49,0,.49-.34,0-.24-.21-.24-.39-.24h-2.27c-1.5,0-2.6,1.64-2.6,2.82,0,.88.59,1.57,1.49,1.57,1.17,0,2.49-1.2,2.49-2.73,0-.17,0-.65-.31-1.08h1.09Z"/>
      <path d="M122.69,24.33c.14,0,.33,0,.33-.2s-.19-.2-.34-.2h-5.93c-.15,0-.34,0-.34.2s.19.2.33.2h5.95M122.68,22.4c.15,0,.34,0,.34-.2s-.19-.2-.33-.2h-5.95c-.14,0-.33,0-.33.2s.19.2.34.2h5.93Z"/>
      <path d="M128.83,25.65c-.39,0-.97-.25-1.15-1.2-.11-.6-.11-1.51-.11-2.1,0-.64,0-1.29.08-1.83.19-1.18.93-1.27,1.18-1.27.33,0,.98.18,1.17,1.16.1.56.1,1.31.1,1.94,0,.75,0,1.42-.11,2.06-.15.94-.72,1.24-1.16,1.24M130.93,22.47c0-.8-.05-1.59-.4-2.32-.46-.95-1.27-1.11-1.69-1.11-.6,0-1.32.26-1.73,1.18-.32.69-.37,1.46-.37,2.26,0,.74.04,1.64.45,2.39.43.8,1.15,1,1.64,1,.54,0,1.29-.21,1.73-1.15.32-.68.37-1.46.37-2.24Z"/>
      <path d="M133.27,25.12c0-.29-.24-.53-.53-.53s-.53.24-.53.53.24.53.53.53.53-.24.53-.53"/>
      <path d="M138.79,19.6c.09-.12.09-.14.09-.35h-2.41c-1.21,0-1.23-.13-1.27-.32h-.25l-.33,2.05h.25c.03-.16.12-.78.25-.9.07-.06.84-.06.97-.06h2.06c-.11.16-.89,1.24-1.11,1.57-.89,1.34-1.22,2.72-1.22,3.73,0,.1,0,.55.46.55s.46-.45.46-.55v-.51c0-.55.03-1.09.11-1.63.04-.23.18-1.08.62-1.7l1.34-1.89"/>
      <path d="M143.52,23.65c0-1.18-.82-2.18-1.89-2.18-.48,0-.9.16-1.26.51v-1.94c.2.06.53.13.85.13,1.22,0,1.92-.9,1.92-1.03,0-.06-.03-.11-.1-.11,0,0-.03,0-.08.03-.2.09-.69.29-1.35.29-.4,0-.85-.07-1.32-.28-.08-.03-.1-.03-.12-.03-.1,0-.1.08-.1.24v2.94c0,.18,0,.26.14.26.07,0,.09-.03.13-.09.11-.16.48-.7,1.28-.7.52,0,.76.46.84.64.16.37.18.75.18,1.25,0,.35,0,.94-.24,1.36-.24.39-.61.65-1.06.65-.73,0-1.29-.53-1.46-1.11.03,0,.06.02.17.02.33,0,.5-.25.5-.49s-.17-.49-.5-.49c-.14,0-.49.07-.49.53,0,.85.69,1.82,1.8,1.82s2.17-.95,2.17-2.22"/>
    </g>
  </g>
  <g>
    <rect class="cls-3" x="144.23" y="92.83" width="35.11" height="12.16"/>
    <g class="cls-1">
      <path d="M147.36,101.59c-.49,0-.88-.36-.88-1.07,0-.3.12-1.11.47-1.7.42-.68,1.01-.82,1.35-.82.83,0,.91.65.91.96,0,.47-.2,1.28-.54,1.79-.39.59-.92.84-1.31.84M150.63,98c.13,0,.49,0,.49-.34,0-.24-.21-.24-.39-.24h-2.27c-1.5,0-2.6,1.64-2.6,2.82,0,.88.59,1.57,1.49,1.57,1.17,0,2.49-1.2,2.49-2.73,0-.17,0-.65-.31-1.08h1.09Z"/>
      <path d="M161.12,100.38c.14,0,.33,0,.33-.2s-.19-.2-.34-.2h-5.93c-.15,0-.34,0-.34.2s.19.2.33.2h5.95M161.11,98.46c.15,0,.34,0,.34-.2s-.19-.2-.33-.2h-5.95c-.14,0-.33,0-.33.2s.19.2.34.2h5.93Z"/>
      <path d="M167.7,95.35c0-.24,0-.26-.23-.26-.62.64-1.49.64-1.81.64v.31c.2,0,.78,0,1.3-.26v5.15c0,.36-.03.48-.93.48h-.32v.31c.35-.03,1.21-.03,1.61-.03s1.26,0,1.61.03v-.31h-.32c-.89,0-.92-.11-.92-.48v-5.57"/>
      <path d="M171.69,101.18c0-.29-.24-.53-.53-.53s-.53.24-.53.53.24.53.53.53.53-.24.53-.53"/>
      <path d="M176.95,99.71c0-1.18-.82-2.18-1.89-2.18-.48,0-.9.16-1.26.51v-1.94c.2.06.53.13.85.13,1.22,0,1.92-.9,1.92-1.03,0-.06-.03-.11-.1-.11,0,0-.03,0-.08.03-.2.09-.69.29-1.35.29-.4,0-.85-.07-1.32-.28-.08-.03-.1-.03-.12-.03-.1,0-.1.08-.1.24v2.94c0,.18,0,.26.14.26.07,0,.09-.03.13-.09.11-.16.48-.7,1.28-.7.52,0,.76.46.84.64.16.37.18.75.18,1.25,0,.35,0,.94-.24,1.36-.24.39-.61.65-1.06.65-.73,0-1.29-.53-1.46-1.11.03,0,.06.02.17.02.33,0,.5-.25.5-.49s-.17-.49-.5-.49c-.14,0-.49.07-.49.53,0,.85.69,1.82,1.8,1.82s2.17-.95,2.17-2.22"/>
    </g>
  </g>
  <g>
    <polyline class="cls-7" points=".5 115.82 51.92 115.82 51.99 115.82 53.68 115.82 53.81 115.82 54.75 115.82 54.87 115.82 55.37 115.82 55.63 115.82 55.88 115.82 56.13 115.81 56.38 115.81 56.63 115.81 56.88 115.81 57.14 115.81 57.26 115.81 57.39 115.81 57.64 115.81 57.7 115.8 57.89 115.8 58.14 115.8 58.2 115.8 58.39 115.8 58.64 115.8 58.78 115.8 58.91 115.79 59.19 115.79 59.26 115.79 59.32 115.79 59.73 115.78 59.8 115.78 59.87 115.78 60.28 115.77 60.35 115.77 60.41 115.77 60.55 115.77 60.82 115.76 60.89 115.76 60.96 115.76 61.1 115.76 61.37 115.75 61.44 115.75 61.5 115.75 61.64 115.75 61.91 115.74 61.98 115.73 62.05 115.73 62.19 115.73 62.46 115.72 63 115.7 63.07 115.7 63.14 115.69 63.27 115.69 63.54 115.68 63.67 115.67 63.8 115.66 64.07 115.65 64.14 115.64 64.21 115.64 64.34 115.63 64.61 115.61 65.14 115.57 65.21 115.57 65.28 115.56 65.41 115.55 65.68 115.53 65.95 115.5 66.21 115.48 66.28 115.47 66.35 115.46 66.48 115.45 66.75 115.42 67.28 115.35 67.41 115.33 67.53 115.31 67.78 115.27 67.84 115.26 68.03 115.23 68.28 115.18 68.34 115.17 68.4 115.16 68.53 115.14 68.78 115.09 69.28 114.97 69.41 114.94 69.53 114.91 69.78 114.85 69.84 114.83 69.9 114.81 70.03 114.78 70.28 114.71 70.4 114.67 70.53 114.63 70.78 114.55 71.27 114.36 71.34 114.34 71.41 114.31 71.55 114.26 71.82 114.14 71.95 114.09 72.09 114.02 72.36 113.9 72.49 113.83 72.63 113.76 72.9 113.62 73.44 113.3 73.51 113.26 73.58 113.21 73.71 113.13 73.98 112.94 74.52 112.55 74.66 112.44 74.79 112.34 75.06 112.11 75.61 111.62 75.73 111.5 75.86 111.38 76.11 111.12 76.61 110.56 76.68 110.49 76.74 110.42 76.87 110.27 77.12 109.96 77.63 109.3 77.69 109.21 77.88 108.94 78.13 108.58 78.64 107.79 79.65 106.03 79.71 105.89 79.78 105.76 79.92 105.5 80.19 104.95 80.74 103.79 80.81 103.63 80.88 103.48 81.02 103.17 81.29 102.53 81.83 101.18 81.9 101 81.97 100.83 82.11 100.47 82.38 99.73 82.93 98.19 84.02 94.79 84.09 94.57 84.16 94.35 84.29 93.9 84.56 92.98 85.1 91.07 86.18 86.96 88.33 77.71 88.39 77.42 88.45 77.14 88.58 76.56 88.83 75.38 89.33 73 90.33 68.11 92.33 58.06 92.4 57.72 92.47 57.38 92.61 56.7 92.88 55.34 93.42 52.64 94.51 47.4 94.58 47.08 94.65 46.76 94.78 46.13 95.05 44.87 95.6 42.44 96.68 37.89 96.75 37.64 96.81 37.39 96.94 36.9 97.19 35.94 97.7 34.12 97.76 33.9 97.83 33.69 97.95 33.26 98.21 32.44 98.71 30.9 98.78 30.72 98.84 30.54 98.97 30.19 99.22 29.52 99.28 29.36 99.35 29.2 99.48 28.89 99.73 28.31 99.79 28.17 99.86 28.03 99.98 27.76 100.24 27.27 100.36 27.03 100.49 26.81 100.74 26.4 100.81 26.31 100.87 26.22 100.99 26.05 101.06 25.97 101.12 25.89 101.24 25.74 101.3 25.67 101.37 25.6 101.49 25.48 101.55 25.42 101.61 25.36 101.74 25.26 101.8 25.21 101.86 25.17 101.93 25.12 101.99 25.09 102.05 25.05 102.11 25.02 102.18 24.99 102.24 24.96 102.3 24.94 102.36 24.91 102.42 24.9 102.49 24.88 102.55 24.87 102.61 24.86 102.67 24.85 102.73 24.85 102.8 24.85 102.86 24.85 102.92 24.85 102.98 24.86 103.05 24.87 103.11 24.89 103.17 24.9 103.23 24.92 103.29 24.95 103.36 24.97 103.42 25 103.48 25.03 103.54 25.07 103.6 25.1 103.73 25.19 103.79 25.23 103.86 25.28 103.98 25.39 104.04 25.45 104.1 25.51 104.23 25.64 104.29 25.71 104.35 25.78 104.48 25.93 104.72 26.27 104.79 26.37 104.86 26.47 104.99 26.68 105.27 27.15 105.33 27.28 105.4 27.41 105.53 27.67 105.8 28.24 105.87 28.39 105.94 28.55 106.08 28.86 106.34 29.53 106.88 31.01 106.95 31.2 107.02 31.4 107.15 31.81 107.42 32.65 107.96 34.47 109.04 38.55 109.1 38.8 109.17 39.06 109.3 39.58 109.55 40.63 110.05 42.81 111.06 47.42 113.07 57.29 113.14 57.63 113.21 57.97 113.35 58.66 113.62 60.03 114.16 62.78 115.26 68.23 115.32 68.57 115.39 68.91 115.53 69.58 115.8 70.91 116.35 73.55 117.44 78.64 117.51 78.94 117.57 79.24 117.71 79.85 117.98 81.03 118.51 83.35 119.58 87.74 119.65 88.01 119.85 88.78 120.12 89.8 120.66 91.77 121.73 95.42 121.79 95.62 121.85 95.81 121.98 96.21 122.23 96.98 122.73 98.46 122.85 98.82 122.98 99.18 123.23 99.87 123.73 101.18 123.85 101.5 123.98 101.81 124.23 102.42 124.73 103.58 125.73 105.66 125.79 105.8 125.86 105.92 126 106.18 126.27 106.67 126.81 107.61 126.88 107.72 126.95 107.83 127.08 108.04 127.35 108.46 127.9 109.24 127.96 109.33 128.03 109.43 128.17 109.61 128.44 109.95 128.98 110.6 129.05 110.68 129.12 110.75 129.25 110.9 129.52 111.19 130.06 111.72 130.13 111.78 130.19 111.84 130.32 111.95 130.57 112.17 131.08 112.58 131.2 112.67 131.33 112.77 131.58 112.95 132.09 113.28 132.15 113.32 132.22 113.36 132.34 113.43 132.59 113.58 133.1 113.84 133.16 113.88 133.23 113.91 133.35 113.97 133.61 114.08 134.11 114.3 134.17 114.32 134.24 114.35 134.36 114.39 134.61 114.48 135.1 114.65 135.23 114.69 135.35 114.73 135.6 114.8 136.1 114.93 136.16 114.94 136.22 114.96 136.35 114.99 136.59 115.05 136.66 115.06 136.72 115.07 136.84 115.1 137.09 115.15 137.15 115.16 137.21 115.17 137.34 115.19 137.59 115.24 138.08 115.32 138.15 115.33 138.21 115.34 138.35 115.36 138.62 115.39 138.89 115.43 139.16 115.46 139.23 115.46 139.29 115.47 139.43 115.48 139.7 115.51 140.23 115.56 140.3 115.57 140.37 115.57 140.5 115.58 140.77 115.6 140.84 115.61 141.58 115.65 141.85 115.67 142.39 115.69 142.51 115.7 142.64 115.7 143.01 115.72 143.14 115.72 143.89 115.75 144.4 115.76 144.46 115.76 144.52 115.76 144.65 115.76 144.9 115.77 144.96 115.77 145.02 115.77 145.15 115.77 145.4 115.78 145.46 115.78 145.53 115.78 145.9 115.79 145.97 115.79 146.03 115.79 146.16 115.79 146.41 115.79 146.47 115.79 146.54 115.79 146.68 115.79 146.95 115.8 147.09 115.8 147.22 115.8 147.49 115.8 147.63 115.8 147.77 115.8 148.04 115.81 148.18 115.81 148.31 115.81 148.58 115.81 148.65 115.81 148.86 115.81 149.13 115.81 149.4 115.81 149.67 115.82 149.94 115.82 150.22 115.82 150.76 115.82 150.83 115.82 151.84 115.82 151.9 115.82 153.56 115.82 153.81 115.82 205.06 115.82"/>
    <polyline class="cls-5" points=".5 115.82 4.01 115.82 4.51 115.82 8.05 115.82 8.32 115.82 10.14 115.82 10.39 115.82 11.41 115.82 11.92 115.82 12.99 115.82 13.06 115.81 13.99 115.81 14.05 115.81 14.43 115.81 14.92 115.81 15.42 115.81 15.92 115.81 16.92 115.8 17.19 115.8 17.46 115.8 18 115.8 18.27 115.8 18.54 115.8 19.08 115.79 19.15 115.79 19.21 115.79 19.35 115.79 19.62 115.79 20.16 115.79 21.24 115.78 21.37 115.78 21.49 115.78 21.74 115.77 22.25 115.77 22.37 115.77 22.5 115.77 22.75 115.77 23.26 115.76 23.32 115.76 23.38 115.76 23.51 115.76 23.76 115.76 24.26 115.75 25.27 115.74 25.34 115.73 25.41 115.73 25.55 115.73 25.82 115.73 26.37 115.72 26.43 115.72 26.5 115.72 26.64 115.72 26.91 115.71 27.46 115.7 27.53 115.7 27.6 115.7 27.73 115.7 28.01 115.69 28.55 115.68 29.64 115.65 29.78 115.65 29.91 115.64 30.18 115.64 30.72 115.62 30.79 115.62 30.99 115.61 31.25 115.6 31.79 115.59 31.86 115.58 31.92 115.58 32.06 115.57 32.33 115.56 32.86 115.54 33.94 115.5 34 115.49 34.06 115.49 34.19 115.48 34.44 115.47 34.94 115.45 35 115.44 35.06 115.44 35.19 115.43 35.44 115.42 35.94 115.39 36 115.39 36.06 115.38 36.44 115.36 36.94 115.33 37.94 115.25 38.01 115.25 38.08 115.24 38.21 115.23 38.48 115.21 39.03 115.16 39.09 115.16 39.16 115.15 39.3 115.14 40.11 115.06 40.18 115.05 40.25 115.05 40.38 115.03 41.2 114.95 42.28 114.82 42.35 114.81 42.41 114.8 42.54 114.78 42.79 114.75 43.3 114.68 44.31 114.53 44.37 114.52 44.44 114.51 44.56 114.49 44.82 114.45 45.32 114.36 46.34 114.17 46.4 114.16 46.46 114.15 46.58 114.13 46.83 114.08 47.33 113.97 48.32 113.75 48.45 113.72 48.57 113.69 48.82 113.63 49.32 113.5 50.31 113.23 50.58 113.16 50.85 113.08 51.39 112.92 52.47 112.56 52.73 112.47 53 112.37 53.54 112.18 54.62 111.76 54.75 111.7 54.87 111.65 55.12 111.55 55.63 111.33 56.63 110.87 56.76 110.81 56.88 110.75 57.14 110.62 57.64 110.37 58.64 109.84 58.71 109.8 58.78 109.76 58.91 109.69 59.19 109.53 59.73 109.21 60.82 108.55 60.89 108.5 60.96 108.46 61.1 108.37 61.37 108.19 61.91 107.83 63 107.06 63.27 106.87 63.54 106.67 64.07 106.26 65.14 105.41 67.28 103.57 67.53 103.34 67.78 103.11 68.28 102.65 69.28 101.68 71.27 99.64 75.61 94.74 79.65 89.76 84.02 84.28 88.33 79.23 88.39 79.16 88.45 79.09 88.58 78.95 88.83 78.68 89.33 78.15 90.33 77.11 90.46 76.99 90.58 76.86 90.83 76.62 91.33 76.14 92.33 75.22 92.4 75.16 92.47 75.1 92.61 74.98 92.88 74.75 93.42 74.3 93.49 74.24 93.56 74.19 93.69 74.08 93.97 73.87 94.51 73.46 94.58 73.41 94.65 73.36 94.78 73.27 95.05 73.08 95.6 72.72 96.68 72.06 96.75 72.03 96.81 71.99 96.94 71.92 97.19 71.79 97.7 71.54 97.76 71.51 97.83 71.48 97.95 71.43 98.21 71.32 98.71 71.11 98.78 71.09 98.84 71.06 98.97 71.02 99.22 70.93 99.28 70.91 99.35 70.89 99.48 70.85 99.73 70.78 99.79 70.76 99.86 70.74 99.98 70.71 100.24 70.64 100.3 70.63 100.36 70.61 100.49 70.58 100.74 70.53 100.81 70.52 100.87 70.51 100.99 70.49 101.06 70.48 101.12 70.47 101.24 70.45 101.3 70.44 101.55 70.41 101.61 70.4 101.8 70.38 101.86 70.38 101.93 70.37 102.24 70.35 102.3 70.35 102.55 70.34 102.61 70.34 102.92 70.34 102.98 70.34 103.05 70.34 103.17 70.34 103.23 70.35 103.29 70.35 103.36 70.35 103.48 70.36 103.54 70.36 103.6 70.37 103.73 70.38 103.79 70.39 103.86 70.39 103.98 70.4 104.04 70.41 104.1 70.42 104.23 70.44 104.35 70.45 104.48 70.47 104.72 70.51 104.86 70.54 104.99 70.57 105.27 70.63 105.33 70.64 105.53 70.69 105.8 70.77 105.94 70.81 106.08 70.85 106.34 70.93 106.88 71.13 106.95 71.15 107.02 71.18 107.15 71.23 107.42 71.35 107.96 71.59 108.03 71.62 108.1 71.65 108.23 71.72 108.5 71.86 109.04 72.15 109.1 72.19 109.17 72.23 109.3 72.3 109.55 72.45 110.05 72.77 111.06 73.47 111.31 73.65 111.56 73.84 112.07 74.24 113.07 75.08 113.14 75.14 113.21 75.2 113.35 75.32 113.62 75.57 114.16 76.08 115.26 77.14 117.44 79.45 121.73 84.52 125.73 89.53 130.06 94.86 134.11 99.45 134.17 99.52 134.24 99.58 134.36 99.71 134.61 99.98 135.1 100.49 136.1 101.5 138.08 103.39 138.35 103.64 138.62 103.88 139.16 104.35 140.23 105.26 140.5 105.48 140.77 105.7 141.31 106.12 142.39 106.94 142.51 107.03 142.64 107.12 142.89 107.3 143.39 107.65 144.4 108.32 144.46 108.37 144.9 108.65 145.4 108.96 146.41 109.55 146.47 109.59 146.54 109.63 146.68 109.7 146.95 109.85 147.49 110.15 148.58 110.7 148.65 110.73 148.72 110.77 148.86 110.83 149.13 110.96 149.67 111.21 150.76 111.68 150.83 111.71 150.89 111.73 151.02 111.79 151.27 111.89 151.78 112.09 152.8 112.46 152.86 112.48 152.92 112.5 153.05 112.55 153.3 112.63 153.81 112.8 154.83 113.11 154.89 113.13 154.95 113.15 155.08 113.19 155.33 113.25 155.82 113.39 156.82 113.65 156.89 113.66 157.07 113.71 157.32 113.77 157.82 113.88 158.82 114.09 158.88 114.11 158.95 114.12 159.09 114.15 159.36 114.2 159.9 114.3 160.98 114.48 161.05 114.5 161.25 114.53 161.52 114.57 162.06 114.65 163.14 114.8 163.27 114.82 163.39 114.83 163.65 114.86 164.15 114.92 165.16 115.03 165.29 115.05 165.41 115.06 165.67 115.08 166.17 115.13 167.18 115.22 167.25 115.22 167.32 115.23 167.73 115.26 168.27 115.3 168.34 115.3 168.41 115.31 168.54 115.32 168.82 115.34 169.37 115.37 169.43 115.38 169.5 115.38 169.64 115.39 169.91 115.41 170.46 115.44 171.55 115.49 171.62 115.5 171.69 115.5 171.82 115.5 172.09 115.52 172.63 115.54 172.7 115.54 172.76 115.55 172.89 115.55 173.7 115.58 173.77 115.59 174.24 115.6 174.77 115.62 175.85 115.65 175.97 115.65 176.1 115.66 176.85 115.67 176.91 115.68 176.98 115.68 177.1 115.68 177.35 115.68 177.85 115.7 177.91 115.7 177.98 115.7 178.1 115.7 178.35 115.71 178.85 115.71 179.85 115.73 179.92 115.73 179.99 115.73 180.13 115.73 180.4 115.74 180.94 115.75 181.01 115.75 181.08 115.75 181.21 115.75 181.48 115.75 182.03 115.76 182.1 115.76 182.16 115.76 182.3 115.76 183.11 115.77 184.2 115.78 184.32 115.78 184.45 115.78 184.7 115.78 185.21 115.79 185.28 115.79 185.34 115.79 185.47 115.79 185.72 115.79 186.23 115.79 186.35 115.79 186.48 115.79 186.73 115.79 187.24 115.8 188.25 115.8 188.5 115.8 188.75 115.8 189.25 115.8 189.31 115.81 189.75 115.81 190.24 115.81 190.49 115.81 190.74 115.81 191.49 115.81 191.73 115.81 192.5 115.81 192.77 115.82 193.58 115.82 193.85 115.82 194.93 115.82 195.46 115.82 197.05 115.82 197.55 115.82 200.85 115.82 201.13 115.82 205.06 115.82"/>
  </g>
  <circle class="cls-9" cx="115.26" cy="68.23" r="1.42"/>
  <circle class="cls-9" cx="90.39" cy="68.23" r="1.42"/>
  <circle class="cls-10" cx="127.95" cy="92.23" r="1.42"/>
  <circle class="cls-10" cx="77.47" cy="92.23" r="1.42"/>
  <g class="cls-12">
    <path d="M92.37,84.1c.05-.21.15-.59.15-.63,0-.17-.12-.27-.29-.27-.03,0-.31,0-.4.36l-1.43,5.75c-.03.12-.03.14-.03.16,0,.15.11.27.28.27.21,0,.33-.18.35-.21.04-.09.17-.61.55-2.14.32.27.76.31.96.31.7,0,1.08-.45,1.32-.73.09.45.46.73.89.73.35,0,.58-.23.74-.55.17-.36.3-.96.3-.98,0-.1-.09-.1-.12-.1-.1,0-.11.04-.14.18-.17.65-.35,1.23-.75,1.23-.27,0-.3-.26-.3-.46,0-.22.12-.69.2-1.03l.28-1.07c.03-.15.13-.53.17-.68.05-.23.15-.6.15-.66,0-.18-.14-.27-.29-.27-.05,0-.31,0-.39.35l-.47,1.86c-.12.5-.23.91-.26,1.01-.01.05-.49.95-1.29.95-.5,0-.73-.33-.73-.86,0-.29.07-.57.14-.84l.42-1.67"/>
    <path d="M105.61,86.27c.14,0,.33,0,.33-.2s-.19-.2-.34-.2h-5.93c-.15,0-.34,0-.34.2s.19.2.33.2h5.95M105.6,84.34c.15,0,.34,0,.34-.2s-.19-.2-.33-.2h-5.95c-.14,0-.33,0-.33.2s.19.2.34.2h5.93Z"/>
    <path d="M110.54,86.82l1.05-1.02c1.55-1.37,2.15-1.91,2.15-2.9,0-1.13-.9-1.93-2.11-1.93-1.12,0-1.86.91-1.86,1.8,0,.56.5.56.53.56.17,0,.52-.12.52-.53,0-.26-.18-.52-.53-.52-.08,0-.1,0-.13,0,.23-.65.76-1.01,1.34-1.01.9,0,1.33.8,1.33,1.62s-.5,1.58-1.04,2.2l-1.91,2.13c-.11.11-.11.13-.11.37h3.69l.28-1.73h-.25c-.05.3-.12.73-.22.88-.07.08-.73.08-.94.08h-1.79"/>
  </g>
</svg>