<?xml version="1.0" encoding="UTF-8"?>
<svg id="Layer_1" data-name="Layer 1" xmlns="http://www.w3.org/2000/svg" xmlns:xlink="http://www.w3.org/1999/xlink" viewBox="0 0 197.8 124.06">
  <defs>
    <style>
      .cls-1 {
        clip-path: url(#clippath-6);
      }

      .cls-2 {
        clip-path: url(#clippath-7);
      }

      .cls-3 {
        clip-path: url(#clippath-4);
      }

      .cls-4 {
        fill: #60ccf2;
      }

      .cls-4, .cls-5, .cls-6 {
        opacity: .5;
      }

      .cls-7 {
        fill: #231f20;
      }

      .cls-5 {
        fill: #eee817;
      }

      .cls-8 {
        clip-path: url(#clippath-9);
      }

      .cls-9 {
        clip-path: url(#clippath-10);
      }

      .cls-10 {
        stroke-linecap: square;
        stroke-miterlimit: 3.25;
      }

      .cls-10, .cls-11, .cls-12, .cls-13, .cls-14 {
        fill: none;
      }

      .cls-10, .cls-13, .cls-14 {
        stroke: #231f20;
      }

      .cls-15 {
        clip-path: url(#clippath-1);
      }

      .cls-16 {
        clip-path: url(#clippath-5);
      }

      .cls-17 {
        clip-path: url(#clippath-8);
      }

      .cls-12 {
        stroke: #a7a9ac;
      }

      .cls-12, .cls-13 {
        stroke-width: .5px;
      }

      .cls-12, .cls-13, .cls-14 {
        stroke-miterlimit: 10;
      }

      .cls-12, .cls-14 {
        stroke-linecap: round;
      }

      .cls-18 {
        clip-path: url(#clippath-3);
      }

      .cls-19 {
        clip-path: url(#clippath-2);
      }

      .cls-6 {
        fill: #c957a0;
      }

      .cls-14 {
        stroke-width: .75px;
      }

      .cls-20 {
        clip-path: url(#clippath);
      }
    </style>
    <clipPath id="clippath">
      <rect class="cls-11" x="184.3" y="119.06" width="6" height="5"/>
    </clipPath>
    <clipPath id="clippath-1">
      <rect class="cls-11" x="92.47" y="116.08" width="7" height="7"/>
    </clipPath>
    <clipPath id="clippath-2">
      <rect class="cls-11" x="23.62" y="1.51" width="6" height="5"/>
    </clipPath>
    <clipPath id="clippath-3">
      <rect class="cls-11" x="51.46" y="1.51" width="6" height="5"/>
    </clipPath>
    <clipPath id="clippath-4">
      <rect class="cls-11" x="75.64" y="1.51" width="6" height="5"/>
    </clipPath>
    <clipPath id="clippath-5">
      <rect class="cls-11" x="101.4" y="1.51" width="6" height="5"/>
    </clipPath>
    <clipPath id="clippath-6">
      <rect class="cls-11" x="129.24" y="1.51" width="6" height="5"/>
    </clipPath>
    <clipPath id="clippath-7">
      <rect class="cls-11" x="153.42" y="1.51" width="6" height="5"/>
    </clipPath>
    <clipPath id="clippath-8">
      <rect class="cls-11" x="119.35" y="25.65" width="19" height="9"/>
    </clipPath>
    <clipPath id="clippath-9">
      <rect class="cls-11" x="143.92" y="47.28" width="19" height="9"/>
    </clipPath>
    <clipPath id="clippath-10">
      <rect class="cls-11" x="170.8" y="67.93" width="27" height="9"/>
    </clipPath>
  </defs>
  <g>
    <g>
      <polyline class="cls-6" points="66.07 113.95 66.07 59.47 64.21 64.83 59.88 76.24 57.88 81 56.88 83.25 56.38 84.34 56.13 84.88 55.88 85.41 53.74 89.7 52.67 91.68 52.14 92.62 51.87 93.09 51.6 93.54 50.51 95.33 49.97 96.18 49.7 96.59 49.56 96.8 49.49 96.89 49.42 97 48.33 98.55 47.79 99.3 47.52 99.66 47.38 99.83 47.31 99.92 47.24 100 46.24 101.25 45.74 101.84 45.48 102.13 45.36 102.27 45.23 102.41 44.23 103.48 43.72 103.99 43.47 104.24 43.35 104.36 43.22 104.48 42.14 105.46 41.6 105.92 41.33 106.14 41.07 106.36 41.07 113.95"/>
      <polyline class="cls-5" points=".44 113.95 3.95 113.95 4.45 113.95 7.99 113.95 8.26 113.94 10.08 113.94 10.33 113.94 0 113.94 .52 113.93 1.6 113.93 1.66 113.93 2.59 113.93 2.65 113.92 3.03 113.92 3.53 113.92 4.02 113.92 4.52 113.91 5.52 113.9 5.79 113.9 6.06 113.9 6.6 113.89 6.87 113.89 7.14 113.89 7.68 113.89 7.75 113.89 7.82 113.88 7.95 113.88 8.22 113.88 8.76 113.87 9.84 113.85 9.97 113.85 10.09 113.84 10.34 113.84 10.85 113.83 10.97 113.83 11.1 113.83 11.35 113.82 11.86 113.81 11.92 113.81 11.98 113.81 12.11 113.8 12.36 113.8 12.87 113.78 13.87 113.75 13.94 113.75 14.01 113.75 14.15 113.74 14.42 113.73 14.97 113.71 15.03 113.71 15.1 113.71 15.24 113.7 15.52 113.69 16.06 113.67 16.13 113.66 16.2 113.66 16.33 113.65 16.61 113.64 17.15 113.61 18.25 113.55 18.38 113.54 18.51 113.54 18.78 113.52 19.32 113.48 19.39 113.48 19.59 113.46 19.86 113.44 20.39 113.4 20.46 113.39 20.53 113.38 20.66 113.37 20.93 113.35 21.47 113.3 22.54 113.19 22.6 113.19 22.66 113.18 22.79 113.16 23.04 113.14 23.54 113.07 23.6 113.07 23.67 113.06 23.79 113.04 24.04 113.01 24.54 112.94 24.6 112.93 24.66 112.93 25.04 112.87 25.54 112.79 26.54 112.62 26.61 112.61 26.68 112.6 26.81 112.57 27.08 112.52 27.63 112.42 27.69 112.4 27.76 112.39 27.9 112.36 28.71 112.18 28.78 112.16 28.85 112.15 28.98 112.12 29.8 111.91 30.88 111.6 30.95 111.59 31.01 111.57 31.14 111.53 31.39 111.45 31.9 111.29 32.91 110.94 32.97 110.91 33.04 110.89 33.16 110.84 33.42 110.75 33.92 110.54 34.94 110.11 35 110.08 35.06 110.05 35.19 110 35.43 109.88 35.93 109.64 36.92 109.12 37.05 109.05 37.17 108.98 37.42 108.84 37.92 108.55 38.91 107.92 39.18 107.74 39.45 107.56 39.99 107.18 41.07 106.36 41.07 113.95"/>
      <polyline class="cls-4" points="91.15 113.69 91.15 7.99 91.21 7.98 91.15 7.99 90.9 8.01 90.84 8.01 90.53 8.06 90.47 8.08 90.4 8.08 90.21 8.13 90.15 8.14 89.9 8.22 89.84 8.24 89.72 8.29 89.66 8.31 89.59 8.33 89.47 8.39 89.41 8.41 89.34 8.44 89.09 8.56 88.96 8.62 88.9 8.65 88.84 8.69 88.58 8.84 88.46 8.92 88.39 8.96 88.33 9 88.08 9.18 87.95 9.27 87.89 9.32 87.82 9.37 87.57 9.57 87.44 9.68 87.38 9.73 87.31 9.79 86.81 10.26 86.55 10.52 86.43 10.65 86.36 10.72 86.3 10.79 85.79 11.37 85.54 11.68 85.41 11.84 85.35 11.92 85.28 12 84.2 13.52 83.65 14.36 83.38 14.81 83.25 15.03 83.18 15.15 83.11 15.26 82.57 16.21 82.29 16.71 82.16 16.96 82.09 17.09 82.02 17.21 81.48 18.26 81.21 18.8 81.07 19.08 81 19.22 80.94 19.36 79.93 21.49 79.43 22.61 79.18 23.19 79.06 23.48 78.93 23.77 77.93 26.18 77.43 27.42 77.18 28.06 77.05 28.38 76.99 28.53 76.93 28.7 72.63 40.47 68.25 53.24 66.07 59.47 66.07 113.95"/>
    </g>
    <g>
      <polyline class="cls-6" points="116.35 113.95 116.35 59.47 118.21 64.83 122.54 76.24 124.54 81 125.54 83.25 126.04 84.34 126.29 84.88 126.54 85.41 128.68 89.7 129.75 91.68 130.28 92.62 130.55 93.09 130.82 93.54 131.91 95.33 132.45 96.18 132.72 96.59 132.86 96.8 132.93 96.89 133 97 134.09 98.55 134.63 99.3 134.9 99.66 135.04 99.83 135.11 99.92 135.18 100 136.18 101.25 136.68 101.84 136.94 102.13 137.06 102.27 137.19 102.41 138.19 103.48 138.7 103.99 138.95 104.24 139.07 104.36 139.2 104.48 140.28 105.46 140.82 105.92 141.09 106.14 141.35 106.36 141.35 113.95"/>
      <polyline class="cls-5" points="179.15 113.95 175.63 113.95 175.13 113.95 185.77 113.95 185.5 113.94 183.68 113.94 183.43 113.94 182.41 113.94 181.9 113.93 180.82 113.93 180.76 113.93 179.83 113.93 179.77 113.92 179.39 113.92 178.89 113.92 178.4 113.92 177.9 113.91 176.9 113.9 176.63 113.9 176.36 113.9 175.82 113.89 175.55 113.89 175.28 113.89 174.74 113.89 174.67 113.89 174.6 113.88 174.47 113.88 174.2 113.88 173.66 113.87 172.58 113.85 172.45 113.85 172.33 113.84 172.08 113.84 171.57 113.83 171.45 113.83 171.32 113.83 171.07 113.82 170.56 113.81 170.5 113.81 170.44 113.81 170.31 113.8 170.06 113.8 169.55 113.78 168.55 113.75 168.48 113.75 168.41 113.75 168.27 113.74 168 113.73 167.45 113.71 167.39 113.71 167.32 113.71 167.18 113.7 166.91 113.69 166.36 113.67 166.29 113.66 166.22 113.66 166.09 113.65 165.81 113.64 165.27 113.61 164.17 113.55 164.04 113.54 163.91 113.54 163.64 113.52 163.1 113.48 163.03 113.48 162.83 113.46 162.56 113.44 162.03 113.4 161.96 113.39 161.89 113.38 161.76 113.37 161.49 113.35 160.95 113.3 159.88 113.19 159.82 113.19 159.76 113.18 159.63 113.16 159.38 113.14 158.88 113.07 158.82 113.07 158.76 113.06 158.63 113.04 158.38 113.01 157.88 112.94 157.82 112.93 157.76 112.93 157.38 112.87 156.88 112.79 155.88 112.62 155.81 112.61 155.74 112.6 155.61 112.57 155.34 112.52 154.79 112.42 154.73 112.4 154.66 112.39 154.52 112.36 153.71 112.18 153.64 112.16 153.57 112.15 153.44 112.12 152.62 111.91 151.54 111.6 151.47 111.59 151.41 111.57 151.28 111.53 151.03 111.45 150.52 111.29 149.51 110.94 149.45 110.91 149.38 110.89 149.26 110.84 149 110.75 148.5 110.54 147.48 110.11 147.42 110.08 147.36 110.05 147.24 110 146.99 109.88 146.49 109.64 145.5 109.12 145.37 109.05 145.25 108.98 145 108.84 144.5 108.55 143.51 107.92 143.24 107.74 142.97 107.56 142.43 107.18 141.35 106.36 141.35 113.95"/>
      <polyline class="cls-4" points="91.27 113.69 91.27 7.99 91.21 7.98 91.27 7.99 91.52 8.01 91.58 8.01 91.89 8.06 91.95 8.08 92.02 8.08 92.21 8.13 92.27 8.14 92.52 8.22 92.58 8.24 92.7 8.29 92.76 8.31 92.83 8.33 92.95 8.39 93.01 8.41 93.08 8.44 93.33 8.56 93.46 8.62 93.52 8.65 93.58 8.69 93.84 8.84 93.96 8.92 94.03 8.96 94.09 9 94.34 9.18 94.47 9.27 94.53 9.32 94.6 9.37 94.85 9.57 94.98 9.68 95.04 9.73 95.11 9.79 95.61 10.26 95.87 10.52 95.99 10.65 96.06 10.72 96.12 10.79 96.63 11.37 96.88 11.68 97.01 11.84 97.07 11.92 97.14 12 98.22 13.52 98.77 14.36 99.04 14.81 99.17 15.03 99.24 15.15 99.31 15.26 99.85 16.21 100.13 16.71 100.26 16.96 100.33 17.09 100.4 17.21 100.94 18.26 101.21 18.8 101.35 19.08 101.42 19.22 101.48 19.36 102.49 21.49 102.99 22.61 103.24 23.19 103.36 23.48 103.49 23.77 104.49 26.18 104.99 27.42 105.24 28.06 105.37 28.38 105.43 28.53 105.49 28.7 109.79 40.47 114.17 53.24 116.35 59.47 116.35 113.95"/>
    </g>
  </g>
  <g class="cls-20">
    <path d="M188.31,120.86c.06-.26.29-1.17.98-1.17.05,0,.29,0,.5.13-.28.05-.48.3-.48.54,0,.16.11.35.38.35.22,0,.54-.18.54-.58,0-.52-.59-.66-.92-.66-.58,0-.92.53-1.04.75-.25-.65-.79-.75-1.07-.75-1.03,0-1.6,1.28-1.6,1.53,0,.1.1.1.12.1.08,0,.11-.02.13-.11.34-1.05.99-1.3,1.33-1.3.19,0,.54.09.54.67,0,.31-.17.97-.54,2.36-.16.62-.51,1.03-.94,1.03-.06,0-.29,0-.5-.13.25-.05.47-.26.47-.54s-.22-.35-.37-.35c-.3,0-.55.26-.55.58,0,.46.5.66.93.66.66,0,1.01-.7,1.04-.75.12.37.48.75,1.07.75,1.02,0,1.59-1.28,1.59-1.53,0-.1-.09-.1-.12-.1-.09,0-.11.04-.13.11-.33,1.06-1,1.3-1.32,1.3-.39,0-.55-.32-.55-.66,0-.22.06-.44.17-.87l.34-1.36"/>
  </g>
  <g>
    <line class="cls-14" x1=".5" y1="113.95" x2="185.19" y2="113.95"/>
    <polygon class="cls-7" points="180.75 116.33 180.5 115.63 185.11 113.95 180.5 112.27 180.75 111.56 187.31 113.95 180.75 116.33"/>
  </g>
  <polyline class="cls-10" points=".5 113.95 4.01 113.95 4.51 113.94 8.05 113.94 8.32 113.94 10.14 113.94 10.39 113.93 .07 113.93 .58 113.93 1.66 113.93 1.72 113.92 2.65 113.92 2.71 113.92 3.09 113.92 3.59 113.91 4.09 113.91 4.58 113.91 5.58 113.9 5.85 113.9 6.12 113.89 6.66 113.89 6.93 113.89 7.2 113.89 7.74 113.88 7.81 113.88 7.88 113.88 8.01 113.88 8.28 113.87 8.82 113.87 9.9 113.84 10.03 113.84 10.15 113.84 10.4 113.83 10.91 113.83 11.04 113.83 11.16 113.82 11.41 113.82 11.92 113.81 11.98 113.8 12.05 113.8 12.17 113.8 12.42 113.79 12.93 113.78 13.94 113.75 14 113.74 14.07 113.74 14.21 113.74 14.48 113.73 15.03 113.71 15.1 113.7 15.16 113.7 15.3 113.7 15.58 113.68 16.12 113.66 16.19 113.66 16.26 113.65 16.39 113.65 16.67 113.63 17.21 113.61 18.31 113.55 18.44 113.54 18.58 113.53 18.84 113.51 19.38 113.47 19.45 113.47 19.65 113.46 19.92 113.43 20.45 113.39 20.52 113.39 20.59 113.38 20.72 113.37 20.99 113.34 21.53 113.3 22.6 113.19 22.66 113.18 22.73 113.17 22.85 113.16 23.1 113.13 23.6 113.07 23.66 113.06 23.73 113.05 23.85 113.04 24.1 113 24.6 112.94 24.66 112.93 24.73 112.92 25.1 112.86 25.6 112.79 26.6 112.62 26.67 112.61 26.74 112.59 26.87 112.57 27.14 112.52 27.69 112.41 27.76 112.4 27.82 112.38 27.96 112.35 28.77 112.17 28.84 112.16 28.91 112.14 29.05 112.11 29.86 111.9 30.94 111.6 31.01 111.58 31.07 111.57 31.2 111.53 31.45 111.45 31.96 111.29 32.97 110.93 33.03 110.91 33.1 110.89 33.23 110.84 33.48 110.74 33.98 110.54 35 110.11 35.06 110.08 35.12 110.05 35.25 109.99 35.49 109.88 35.99 109.63 36.98 109.11 37.11 109.05 37.23 108.98 37.48 108.83 37.98 108.54 38.97 107.91 39.24 107.74 39.51 107.55 40.05 107.17 41.13 106.35 41.4 106.14 41.67 105.91 42.2 105.45 43.28 104.47 43.41 104.35 43.53 104.23 43.79 103.98 44.29 103.48 45.29 102.4 45.42 102.26 45.54 102.12 45.8 101.84 46.3 101.25 47.3 100 47.37 99.92 47.44 99.83 47.58 99.65 47.85 99.29 48.4 98.55 49.49 96.99 49.55 96.89 49.62 96.79 49.76 96.59 50.03 96.17 50.57 95.32 51.66 93.53 51.93 93.08 52.2 92.62 52.74 91.67 53.8 89.69 55.94 85.4 56.19 84.87 56.44 84.34 56.94 83.25 57.94 81 59.94 76.23 64.27 64.82 68.31 53.24 72.69 40.47 76.99 28.69 77.05 28.53 77.11 28.37 77.24 28.05 77.49 27.42 77.99 26.17 78.99 23.77 79.12 23.47 79.24 23.18 79.49 22.61 79.99 21.49 81 19.35 81.07 19.21 81.13 19.07 81.27 18.8 81.54 18.26 82.08 17.21 82.15 17.08 82.22 16.95 82.36 16.7 82.63 16.21 83.17 15.26 83.24 15.15 83.31 15.03 83.44 14.8 83.71 14.36 84.26 13.52 85.35 12 85.41 11.92 85.47 11.83 85.6 11.68 85.85 11.37 86.36 10.79 86.42 10.72 86.49 10.65 86.61 10.52 86.87 10.26 87.38 9.79 87.44 9.73 87.5 9.67 87.63 9.57 87.88 9.36 87.95 9.31 88.01 9.27 88.14 9.18 88.39 9 88.45 8.95 88.52 8.91 88.64 8.84 88.9 8.68 88.96 8.65 89.03 8.62 89.15 8.55 89.41 8.43 89.47 8.4 89.53 8.38 89.65 8.33 89.72 8.3 89.78 8.28 89.9 8.24 89.96 8.22 90.22 8.14 90.28 8.12 90.46 8.08 90.53 8.07 90.59 8.06 90.9 8.01 90.96 8 91.21 7.98 91.27 7.98 91.58 7.98 91.64 7.98 91.71 7.98 91.83 7.99 91.89 8 91.95 8.01 92.02 8.01 92.14 8.03 92.2 8.04 92.27 8.05 92.39 8.07 92.45 8.09 92.52 8.1 92.64 8.13 92.7 8.15 92.76 8.17 92.89 8.21 93.01 8.25 93.14 8.29 93.39 8.39 93.52 8.45 93.66 8.51 93.93 8.65 93.99 8.69 94.2 8.81 94.47 8.98 94.6 9.07 94.74 9.17 95.01 9.37 95.55 9.81 95.61 9.88 95.68 9.94 95.82 10.06 96.08 10.33 96.63 10.9 96.69 10.97 96.76 11.05 96.89 11.21 97.17 11.52 97.7 12.21 97.77 12.3 97.83 12.38 97.96 12.55 98.21 12.9 98.71 13.65 99.72 15.27 99.97 15.7 100.22 16.15 100.73 17.07 101.73 19.04 101.8 19.17 101.87 19.32 102.01 19.6 102.28 20.17 102.83 21.35 103.92 23.82 106.1 29.21 110.39 41.01 114.39 52.69 118.73 65.11 122.77 75.8 122.83 75.96 122.9 76.11 123.02 76.42 123.27 77.03 123.77 78.23 124.76 80.57 126.74 84.98 127.01 85.55 127.28 86.11 127.82 87.22 128.9 89.34 129.17 89.85 129.44 90.36 129.97 91.35 131.05 93.24 131.17 93.46 131.3 93.67 131.55 94.09 132.05 94.91 133.06 96.48 133.12 96.58 133.56 97.23 134.06 97.95 135.07 99.33 135.13 99.42 135.2 99.51 135.34 99.69 135.61 100.04 136.16 100.72 137.25 102.01 137.31 102.09 137.38 102.17 137.52 102.32 137.79 102.62 138.33 103.2 139.42 104.3 139.49 104.36 139.55 104.42 139.68 104.54 139.93 104.78 140.44 105.24 141.46 106.11 141.52 106.16 141.58 106.21 141.71 106.31 141.96 106.51 142.47 106.9 143.49 107.63 143.55 107.67 143.61 107.72 143.74 107.8 143.99 107.96 144.49 108.28 145.48 108.88 145.55 108.92 145.73 109.02 145.98 109.16 146.48 109.42 147.48 109.91 147.55 109.95 147.61 109.98 147.75 110.04 148.02 110.16 148.56 110.4 149.64 110.83 149.71 110.86 149.91 110.93 150.18 111.03 150.72 111.22 151.8 111.56 151.93 111.6 152.06 111.63 152.31 111.71 152.81 111.85 153.82 112.11 153.95 112.14 154.07 112.16 154.33 112.22 154.83 112.33 155.84 112.54 155.91 112.55 155.98 112.56 156.39 112.64 156.93 112.73 157 112.74 157.07 112.75 157.21 112.77 157.48 112.82 158.03 112.9 158.09 112.91 158.16 112.92 158.3 112.94 158.57 112.98 159.12 113.05 160.21 113.18 160.28 113.19 160.35 113.19 160.48 113.21 160.75 113.24 161.29 113.29 161.36 113.3 161.42 113.31 161.56 113.31 162.36 113.39 162.43 113.39 162.9 113.43 163.44 113.47 164.51 113.54 164.63 113.55 164.76 113.56 165.51 113.6 165.57 113.6 165.64 113.6 165.76 113.61 166.01 113.62 166.51 113.65 166.58 113.65 166.64 113.65 166.76 113.66 167.01 113.67 167.51 113.69 168.52 113.73 168.58 113.73 168.65 113.74 168.79 113.74 169.06 113.75 169.6 113.77 169.67 113.77 169.74 113.77 169.87 113.78 170.14 113.78 170.69 113.8 170.76 113.8 170.82 113.8 170.96 113.81 171.77 113.82 172.86 113.84 172.99 113.84 173.11 113.85 173.37 113.85 173.87 113.86 173.94 113.86 174 113.87 174.13 113.87 174.38 113.87 174.89 113.88 175.02 113.88 175.14 113.88 175.39 113.88 175.9 113.89 176.92 113.9 177.16 113.9 177.41 113.9 177.91 113.9 177.97 113.91 178.41 113.91 178.9 113.91 179.15 113.91 179.4 113.92 180.15 113.92 180.4 113.92 181.16 113.92 181.43 113.93 182.24 113.93 182.51 113.93 183.59 113.93 184.13 113.94 185.71 113.94 186.21 113.94 175.34 113.94 175.62 113.95 179.55 113.95"/>
  <g class="cls-15">
    <path d="M95.46,117.39c.05-.21.15-.59.15-.63,0-.17-.12-.27-.29-.27-.03,0-.31,0-.4.36l-1.43,5.75c-.03.12-.03.14-.03.16,0,.15.11.27.28.27.21,0,.33-.18.35-.21.04-.09.17-.61.55-2.14.32.27.76.31.96.31.7,0,1.08-.45,1.32-.72.09.45.46.72.89.72.35,0,.58-.23.74-.55.17-.36.3-.96.3-.98,0-.1-.09-.1-.12-.1-.1,0-.11.04-.14.18-.17.65-.35,1.23-.75,1.23-.27,0-.3-.26-.3-.46,0-.22.12-.69.2-1.03l.28-1.07c.03-.15.13-.53.17-.68.05-.23.15-.6.15-.66,0-.18-.14-.27-.29-.27-.05,0-.31,0-.39.35l-.47,1.86c-.12.5-.23.91-.26,1.01-.01.05-.49.95-1.29.95-.5,0-.73-.33-.73-.86,0-.29.07-.57.14-.84l.42-1.67"/>
  </g>
  <line class="cls-12" x1="91.23" y1="116.94" x2="91.23" y2=".25"/>
  <line class="cls-12" x1="66.13" y1="23.36" x2="66.13" y2=".25"/>
  <line class="cls-12" x1="116.61" y1="23.36" x2="116.61" y2=".25"/>
  <line class="cls-12" x1="141.42" y1="44.49" x2="141.42" y2=".25"/>
  <line class="cls-12" x1="167.36" y1="72.5" x2="167.36" y2=".25"/>
  <line class="cls-12" x1="15.38" y1="72.5" x2="15.38" y2=".25"/>
  <line class="cls-12" x1="41.04" y1="44.49" x2="41.04" y2=".25"/>
  <g class="cls-19">
    <path d="M25.2,6.2c-.49,0-.88-.36-.88-1.07,0-.3.12-1.11.47-1.7.42-.68,1.01-.82,1.35-.82.83,0,.91.65.91.96,0,.47-.2,1.28-.54,1.79-.39.59-.92.84-1.31.84M28.47,2.6c.13,0,.49,0,.49-.34,0-.24-.21-.24-.39-.24h-2.27c-1.5,0-2.6,1.64-2.6,2.82,0,.88.59,1.57,1.49,1.57,1.17,0,2.49-1.2,2.49-2.73,0-.17,0-.65-.31-1.08h1.09Z"/>
  </g>
  <g class="cls-18">
    <path d="M53.04,6.2c-.49,0-.88-.36-.88-1.07,0-.3.12-1.11.47-1.7.42-.68,1.01-.82,1.35-.82.83,0,.91.65.91.96,0,.47-.2,1.28-.54,1.79-.39.59-.92.84-1.31.84M56.3,2.6c.13,0,.49,0,.49-.34,0-.24-.21-.24-.39-.24h-2.27c-1.5,0-2.6,1.64-2.6,2.82,0,.88.59,1.57,1.49,1.57,1.17,0,2.49-1.2,2.49-2.73,0-.17,0-.65-.31-1.08h1.09Z"/>
  </g>
  <g class="cls-3">
    <path d="M77.22,6.2c-.49,0-.88-.36-.88-1.07,0-.3.12-1.11.47-1.7.42-.68,1.01-.82,1.35-.82.83,0,.91.65.91.96,0,.47-.2,1.28-.54,1.79-.39.59-.92.84-1.31.84M80.49,2.6c.13,0,.49,0,.49-.34,0-.24-.21-.24-.39-.24h-2.27c-1.5,0-2.6,1.64-2.6,2.82,0,.88.59,1.57,1.49,1.57,1.17,0,2.49-1.2,2.49-2.73,0-.17,0-.65-.31-1.08h1.09Z"/>
  </g>
  <g class="cls-16">
    <path d="M102.98,6.2c-.49,0-.88-.36-.88-1.07,0-.3.12-1.11.47-1.7.42-.68,1.01-.82,1.35-.82.83,0,.91.65.91.96,0,.47-.2,1.28-.54,1.79-.39.59-.92.84-1.31.84M106.24,2.6c.13,0,.49,0,.49-.34,0-.24-.21-.24-.39-.24h-2.27c-1.5,0-2.6,1.64-2.6,2.82,0,.88.59,1.57,1.49,1.57,1.17,0,2.49-1.2,2.49-2.73,0-.17,0-.65-.31-1.08h1.09Z"/>
  </g>
  <g class="cls-1">
    <path d="M130.81,6.2c-.49,0-.88-.36-.88-1.07,0-.3.12-1.11.47-1.7.42-.68,1.01-.82,1.35-.82.83,0,.91.65.91.96,0,.47-.2,1.28-.54,1.79-.39.59-.92.84-1.31.84M134.08,2.6c.13,0,.49,0,.49-.34,0-.24-.21-.24-.39-.24h-2.27c-1.5,0-2.6,1.64-2.6,2.82,0,.88.59,1.57,1.49,1.57,1.17,0,2.49-1.2,2.49-2.73,0-.17,0-.65-.31-1.08h1.09Z"/>
  </g>
  <g class="cls-2">
    <path d="M155,6.2c-.49,0-.88-.36-.88-1.07,0-.3.12-1.11.47-1.7.42-.68,1.01-.82,1.35-.82.83,0,.91.65.91.96,0,.47-.2,1.28-.54,1.79-.39.59-.92.84-1.31.84M158.26,2.6c.13,0,.49,0,.49-.34,0-.24-.21-.24-.39-.24h-2.27c-1.5,0-2.6,1.64-2.6,2.82,0,.88.59,1.57,1.49,1.57,1.17,0,2.49-1.2,2.49-2.73,0-.17,0-.65-.31-1.08h1.09Z"/>
  </g>
  <g>
    <line class="cls-13" x1="67.49" y1="30.64" x2="115.2" y2="30.64"/>
    <polygon class="cls-7" points="70.44 32.24 70.61 31.77 67.54 30.64 70.61 29.52 70.44 29.06 66.07 30.64 70.44 32.24"/>
    <polygon class="cls-7" points="112.24 32.24 112.07 31.77 115.15 30.64 112.07 29.52 112.24 29.06 116.61 30.64 112.24 32.24"/>
  </g>
  <g>
    <line class="cls-13" x1="42.74" y1="51.78" x2="139.94" y2="51.78"/>
    <polygon class="cls-7" points="45.7 53.37 45.87 52.9 42.79 51.78 45.87 50.66 45.7 50.19 41.33 51.78 45.7 53.37"/>
    <polygon class="cls-7" points="136.99 53.37 136.82 52.9 139.89 51.78 136.82 50.66 136.99 50.19 141.35 51.78 136.99 53.37"/>
  </g>
  <g>
    <line class="cls-13" x1="16.73" y1="72.5" x2="165.95" y2="72.5"/>
    <polygon class="cls-7" points="19.69 74.09 19.86 73.62 16.78 72.5 19.86 71.38 19.69 70.91 15.32 72.5 19.69 74.09"/>
    <polygon class="cls-7" points="163 74.09 162.83 73.62 165.9 72.5 162.83 71.38 163 70.91 167.36 72.5 163 74.09"/>
  </g>
  <line class="cls-14" x1="66.07" y1="23.36" x2="66.07" y2="37.93"/>
  <line class="cls-14" x1="116.61" y1="23.36" x2="116.61" y2="37.93"/>
  <line class="cls-14" x1="141.42" y1="44.49" x2="141.42" y2="59.07"/>
  <line class="cls-14" x1="41.04" y1="44.49" x2="41.04" y2="59.07"/>
  <line class="cls-14" x1="15.38" y1="65.22" x2="15.38" y2="79.79"/>
  <line class="cls-14" x1="167.36" y1="65.22" x2="167.36" y2="79.79"/>
  <g class="cls-17">
    <path d="M121.54,33.39c-.63,0-.92-.6-.98-.75-.18-.47-.18-1.26-.18-1.44,0-.78.32-1.77,1.21-1.77.16,0,.62,0,.92.62.18.37.18.87.18,1.36s0,.97-.17,1.33c-.3.6-.75.65-.98.65M120.36,30.19v-.24c0-2.51,1.23-2.87,1.74-2.87.24,0,.65.06.87.4-.15,0-.55,0-.55.45,0,.31.24.46.46.46.16,0,.46-.09.46-.48,0-.6-.44-1.07-1.26-1.07-1.27,0-2.61,1.28-2.61,3.48,0,2.65,1.15,3.36,2.08,3.36,1.1,0,2.05-.93,2.05-2.25s-.88-2.22-1.99-2.22c-.67,0-1.04.51-1.24.98Z"/>
    <path d="M126.03,30.27l1.22.77c.28.19.75.49.75,1.09,0,.73-.75,1.25-1.56,1.25s-1.57-.62-1.57-1.44c0-.58.32-1.21,1.16-1.68M127.02,29.85c.72-.37,1.2-.88,1.2-1.54,0-.91-.88-1.48-1.79-1.48-.99,0-1.8.73-1.8,1.66,0,.18.02.62.44,1.09.11.12.48.37.73.54-.58.29-1.43.85-1.43,1.83,0,1.05,1.01,1.72,2.06,1.72,1.12,0,2.07-.83,2.07-1.89,0-.36-.11-.8-.49-1.22-.19-.21-.35-.31-.98-.7ZM125.57,28.91c-.46-.3-.5-.64-.5-.8,0-.61.65-1.02,1.35-1.02s1.36.52,1.36,1.23c0,.57-.39,1.04-.98,1.39l-1.23-.79Z"/>
    <path d="M138.36,32.01c0-1.14-.59-2.01-1.29-2.01-.75,0-1.46.83-1.46,2s.72,2.01,1.46,2.01,1.29-.88,1.29-2M137.08,33.79c-.2,0-.85-.13-.85-1.78s.65-1.79.85-1.79c.53,0,1.03.73,1.03,1.78s-.52,1.79-1.03,1.79ZM132.68,29.78c-.2,0-.85-.13-.85-1.78s.65-1.79.85-1.79c.53,0,1.03.73,1.03,1.78s-.52,1.79-1.03,1.79ZM137.45,26.38c.06-.09.08-.12.08-.18,0-.11-.09-.2-.2-.2-.1,0-.15.07-.21.14-.5.68-1.16.94-1.89.94s-1.31-.25-1.86-.77c-.19-.17-.4-.32-.71-.32-.76,0-1.46.83-1.46,2s.72,2.01,1.46,2.01,1.29-.88,1.29-2c0-.14,0-.61-.21-1.12.65.37,1.14.42,1.5.42.75,0,1.26-.31,1.32-.35h0s-4.46,6.66-4.46,6.66c-.09.13-.09.18-.09.2,0,.11.1.2.2.2s.12-.04.2-.15l5.03-7.48Z"/>
  </g>
  <g class="cls-8">
    <path d="M146.03,52.69c-.16,0-.62,0-.92-.63-.18-.37-.18-.86-.18-1.35,0-.54,0-1,.21-1.37.27-.5.65-.62.99-.62.46,0,.79.34.95.78.12.32.16.94.16,1.4,0,.83-.34,1.79-1.21,1.79M147.26,51.92v.32c0,2.32-1.03,2.78-1.61,2.78-.17,0-.7-.02-.97-.36.44,0,.52-.29.52-.46,0-.31-.24-.46-.46-.46-.16,0-.46.09-.46.48,0,.67.54,1.07,1.38,1.07,1.28,0,2.49-1.35,2.49-3.49,0-2.67-1.14-3.35-2.03-3.35-.55,0-1.03.18-1.46.63-.41.45-.64.86-.64,1.61,0,1.24.87,2.22,1.99,2.22.6,0,1.01-.42,1.24-.99Z"/>
    <path d="M152.98,53.08c0-1.18-.82-2.17-1.89-2.17-.48,0-.9.16-1.26.51v-1.94c.2.06.53.13.85.13,1.22,0,1.92-.9,1.92-1.03,0-.06-.03-.11-.1-.11,0,0-.03,0-.08.03-.2.09-.69.29-1.35.29-.4,0-.85-.07-1.32-.28-.08-.03-.1-.03-.12-.03-.1,0-.1.08-.1.24v2.94c0,.18,0,.26.14.26.07,0,.09-.03.13-.09.11-.16.48-.7,1.28-.7.52,0,.76.46.84.64.16.37.18.75.18,1.25,0,.35,0,.94-.24,1.36-.24.39-.61.65-1.06.65-.72,0-1.29-.53-1.46-1.11.03,0,.06.02.17.02.33,0,.5-.25.5-.49s-.17-.49-.5-.49c-.14,0-.49.07-.49.53,0,.85.69,1.82,1.8,1.82s2.17-.95,2.17-2.22"/>
    <path d="M162.93,53.64c0-1.14-.59-2.01-1.29-2.01-.75,0-1.46.83-1.46,2s.72,2.01,1.46,2.01,1.29-.88,1.29-2M161.65,55.42c-.2,0-.85-.13-.85-1.78s.65-1.79.85-1.79c.53,0,1.03.73,1.03,1.78s-.52,1.79-1.03,1.79ZM157.25,51.41c-.2,0-.85-.13-.85-1.78s.65-1.79.85-1.79c.53,0,1.03.73,1.03,1.78s-.52,1.79-1.03,1.79ZM162.02,48.01c.06-.09.08-.12.08-.18,0-.11-.09-.2-.2-.2-.1,0-.15.07-.21.14-.5.68-1.16.94-1.89.94s-1.31-.25-1.86-.77c-.19-.17-.4-.32-.71-.32-.76,0-1.46.83-1.46,2s.72,2.01,1.46,2.01,1.29-.88,1.29-2c0-.14,0-.61-.21-1.12.65.37,1.14.42,1.5.42.75,0,1.26-.31,1.32-.35h0s-4.46,6.66-4.46,6.66c-.09.13-.09.18-.09.2,0,.11.1.2.2.2s.12-.04.2-.15l5.03-7.48Z"/>
  </g>
  <g class="cls-9">
    <path d="M172.91,73.34c-.16,0-.62,0-.92-.63-.18-.37-.18-.86-.18-1.35,0-.54,0-1,.21-1.37.27-.5.65-.62.99-.62.46,0,.79.34.95.78.12.32.16.94.16,1.4,0,.83-.34,1.79-1.21,1.79M174.14,72.57v.32c0,2.32-1.03,2.78-1.61,2.78-.17,0-.7-.02-.97-.36.44,0,.52-.29.52-.46,0-.31-.24-.46-.46-.46-.16,0-.46.09-.46.48,0,.67.54,1.07,1.38,1.07,1.28,0,2.49-1.35,2.49-3.49,0-2.67-1.14-3.35-2.03-3.35-.55,0-1.03.18-1.46.63-.41.45-.64.86-.64,1.61,0,1.24.87,2.22,1.99,2.22.6,0,1.01-.42,1.24-.99Z"/>
    <path d="M177.81,73.34c-.16,0-.62,0-.92-.63-.18-.37-.18-.86-.18-1.35,0-.54,0-1,.21-1.37.27-.5.65-.62.99-.62.46,0,.79.34.95.78.12.32.16.94.16,1.4,0,.83-.34,1.79-1.21,1.79M179.04,72.57v.32c0,2.32-1.03,2.78-1.61,2.78-.17,0-.7-.02-.97-.36.44,0,.52-.29.52-.46,0-.31-.24-.46-.46-.46-.16,0-.46.09-.46.48,0,.67.54,1.07,1.38,1.07,1.28,0,2.49-1.35,2.49-3.49,0-2.67-1.14-3.35-2.03-3.35-.55,0-1.03.18-1.46.63-.41.45-.64.86-.64,1.61,0,1.24.87,2.22,1.99,2.22.6,0,1.01-.42,1.24-.99Z"/>
    <path d="M182.3,75.21c0-.29-.24-.53-.53-.53s-.53.24-.53.53.24.53.53.53.53-.24.53-.53"/>
    <path d="M187.92,69.68c.09-.12.09-.14.09-.35h-2.41c-1.21,0-1.23-.13-1.27-.32h-.25l-.33,2.05h.25c.03-.16.12-.78.25-.9.07-.06.84-.06.97-.06h2.06c-.11.16-.89,1.24-1.11,1.57-.89,1.34-1.22,2.72-1.22,3.73,0,.1,0,.55.46.55s.46-.45.46-.55v-.51c0-.55.03-1.09.11-1.63.04-.23.18-1.08.62-1.7l1.34-1.89"/>
    <path d="M197.5,74.29c0-1.14-.59-2.01-1.29-2.01-.75,0-1.46.83-1.46,2s.72,2.01,1.46,2.01,1.29-.88,1.29-2M196.22,76.07c-.2,0-.85-.13-.85-1.78s.65-1.79.85-1.79c.53,0,1.03.73,1.03,1.78s-.52,1.79-1.03,1.79ZM191.82,72.07c-.2,0-.85-.13-.85-1.78s.65-1.79.85-1.79c.53,0,1.03.73,1.03,1.78s-.52,1.79-1.03,1.79ZM196.6,68.66c.06-.09.08-.12.08-.18,0-.11-.09-.2-.2-.2-.1,0-.15.07-.21.14-.5.68-1.16.94-1.89.94s-1.31-.25-1.86-.77c-.19-.17-.4-.32-.71-.32-.76,0-1.46.83-1.46,2s.72,2.01,1.46,2.01,1.29-.88,1.29-2c0-.14,0-.61-.21-1.12.65.37,1.14.42,1.5.42.75,0,1.26-.31,1.32-.35h0s-4.46,6.66-4.46,6.66c-.09.13-.09.18-.09.2,0,.11.1.2.2.2s.12-.04.2-.15l5.03-7.48Z"/>
  </g>
</svg>