<?xml version="1.0" encoding="UTF-8"?>
<svg id="Ebene_1" data-name="Ebene 1" xmlns="http://www.w3.org/2000/svg" xmlns:xlink="http://www.w3.org/1999/xlink" viewBox="0 0 437.85 289.07">
  <defs>
    <style>
      .cls-1 {
        fill: #4d4d4d;
      }

      .cls-1, .cls-2 {
        font-size: 9px;
      }

      .cls-1, .cls-2, .cls-3 {
        font-family: ArialMT, Arial;
      }

      .cls-4 {
        clip-path: url(#clippath-6);
      }

      .cls-5 {
        clip-path: url(#clippath-18);
      }

      .cls-6 {
        clip-path: url(#clippath-4);
      }

      .cls-7 {
        letter-spacing: -.02em;
      }

      .cls-8 {
        clip-path: url(#clippath-10);
      }

      .cls-9 {
        fill: #c77cff;
      }

      .cls-10 {
        fill: #fff;
      }

      .cls-11, .cls-12, .cls-13, .cls-14, .cls-15, .cls-16, .cls-17 {
        fill: none;
      }

      .cls-12 {
        stroke: #fff;
      }

      .cls-12, .cls-13, .cls-14, .cls-15, .cls-16, .cls-17 {
        stroke-linejoin: round;
      }

      .cls-12, .cls-14, .cls-15, .cls-16, .cls-17 {
        stroke-width: 1.07px;
      }

      .cls-12, .cls-16 {
        stroke-linecap: round;
      }

      .cls-18 {
        fill: #f8766d;
      }

      .cls-19 {
        clip-path: url(#clippath-1);
      }

      .cls-13 {
        stroke-width: .53px;
      }

      .cls-13, .cls-17 {
        stroke: #ebebeb;
      }

      .cls-20 {
        fill: #7cae00;
      }

      .cls-21 {
        clip-path: url(#clippath-3);
      }

      .cls-14, .cls-16 {
        stroke: #333;
      }

      .cls-22 {
        letter-spacing: .04em;
      }

      .cls-23 {
        clip-path: url(#clippath-14);
      }

      .cls-24 {
        letter-spacing: .02em;
      }

      .cls-25 {
        letter-spacing: -.02em;
      }

      .cls-26 {
        clip-path: url(#clippath-2);
      }

      .cls-15 {
        stroke: #000;
      }

      .cls-2 {
        fill: #1a1a1a;
      }

      .cls-3 {
        font-size: 11px;
      }

      .cls-27 {
        letter-spacing: .04em;
      }

      .cls-28 {
        clip-path: url(#clippath);
      }

      .cls-29 {
        fill: #d9d9d9;
      }

      .cls-30 {
        fill: #00bfc4;
      }

      .cls-31 {
        letter-spacing: -.02em;
      }

      .cls-32 {
        letter-spacing: -.02em;
      }
    </style>
    <clipPath id="clippath">
      <rect class="cls-11" x=".54" y=".54" width="432" height="288"/>
    </clipPath>
    <clipPath id="clippath-1">
      <rect class="cls-11" x="41.74" y="23.87" width="189.92" height="104.26"/>
    </clipPath>
    <clipPath id="clippath-2">
      <rect class="cls-11" x="41.74" y="151.48" width="189.92" height="104.26"/>
    </clipPath>
    <clipPath id="clippath-3">
      <rect class="cls-11" x="237.14" y="23.87" width="189.92" height="104.26"/>
    </clipPath>
    <clipPath id="clippath-4">
      <rect class="cls-11" x="237.14" y="151.48" width="189.92" height="104.26"/>
    </clipPath>
    <clipPath id="clippath-6">
      <rect class="cls-11" x="41.74" y="133.62" width="189.92" height="17.87"/>
    </clipPath>
    <clipPath id="clippath-10">
      <rect class="cls-11" x="237.14" y="133.62" width="189.92" height="17.87"/>
    </clipPath>
    <clipPath id="clippath-14">
      <rect class="cls-11" x="41.74" y="6.02" width="189.92" height="17.87"/>
    </clipPath>
    <clipPath id="clippath-18">
      <rect class="cls-11" x="237.14" y="6.02" width="189.92" height="17.87"/>
    </clipPath>
  </defs>
  <g class="cls-28">
    <rect class="cls-10" x=".54" y=".54" width="432" height="288"/>
    <rect class="cls-12" x=".54" y=".54" width="432" height="288"/>
  </g>
  <g class="cls-19">
    <rect class="cls-10" x="41.74" y="23.87" width="189.92" height="104.26"/>
    <line class="cls-13" x1="41.74" y1="110.7" x2="231.65" y2="110.7"/>
    <line class="cls-13" x1="41.74" y1="85.32" x2="231.65" y2="85.32"/>
    <line class="cls-13" x1="41.74" y1="59.93" x2="231.65" y2="59.93"/>
    <line class="cls-13" x1="41.74" y1="34.54" x2="231.65" y2="34.54"/>
    <line class="cls-13" x1="46.78" y1="128.14" x2="46.78" y2="23.89"/>
    <line class="cls-13" x1="82.74" y1="128.14" x2="82.74" y2="23.89"/>
    <line class="cls-13" x1="118.72" y1="128.14" x2="118.72" y2="23.89"/>
    <line class="cls-13" x1="154.68" y1="128.14" x2="154.68" y2="23.89"/>
    <line class="cls-13" x1="190.65" y1="128.14" x2="190.65" y2="23.89"/>
    <line class="cls-13" x1="226.62" y1="128.14" x2="226.62" y2="23.89"/>
    <line class="cls-17" x1="41.74" y1="123.4" x2="231.65" y2="123.4"/>
    <line class="cls-17" x1="41.74" y1="98.01" x2="231.65" y2="98.01"/>
    <line class="cls-17" x1="41.74" y1="72.62" x2="231.65" y2="72.62"/>
    <line class="cls-17" x1="41.74" y1="47.23" x2="231.65" y2="47.23"/>
    <line class="cls-17" x1="64.76" y1="128.14" x2="64.76" y2="23.89"/>
    <line class="cls-17" x1="100.73" y1="128.14" x2="100.73" y2="23.89"/>
    <line class="cls-17" x1="136.7" y1="128.14" x2="136.7" y2="23.89"/>
    <line class="cls-17" x1="172.67" y1="128.14" x2="172.67" y2="23.89"/>
    <line class="cls-17" x1="208.64" y1="128.14" x2="208.64" y2="23.89"/>
    <path class="cls-15" d="M42.28,123.4h5.4-5.4Z"/>
    <path class="cls-15" d="M47.67,123.4h5.4-5.4Z"/>
    <path class="cls-15" d="M53.06,123.4h5.4-5.4Z"/>
    <path class="cls-15" d="M58.47,123.4h5.4-5.4Z"/>
    <path class="cls-15" d="M63.85,123.4h5.4-5.4Z"/>
    <path class="cls-15" d="M69.26,123.4h5.4-5.4Z"/>
    <path class="cls-15" d="M74.65,123.4h5.4-5.4Z"/>
    <rect class="cls-18" x="80.05" y="116.63" width="5.4" height="6.77"/>
    <rect class="cls-15" x="80.05" y="116.63" width="5.4" height="6.77"/>
    <rect class="cls-18" x="85.45" y="116.63" width="5.4" height="6.77"/>
    <rect class="cls-15" x="85.45" y="116.63" width="5.4" height="6.77"/>
    <rect class="cls-18" x="90.84" y="109.87" width="5.4" height="13.54"/>
    <rect class="cls-15" x="90.84" y="109.87" width="5.4" height="13.54"/>
    <rect class="cls-18" x="96.23" y="96.32" width="5.4" height="27.08"/>
    <rect class="cls-15" x="96.23" y="96.32" width="5.4" height="27.08"/>
    <rect class="cls-18" x="101.62" y="103.09" width="5.4" height="20.31"/>
    <rect class="cls-15" x="101.62" y="103.09" width="5.4" height="20.31"/>
    <rect class="cls-18" x="107.02" y="103.09" width="5.4" height="20.31"/>
    <rect class="cls-15" x="107.02" y="103.09" width="5.4" height="20.31"/>
    <rect class="cls-18" x="112.41" y="76.01" width="5.4" height="47.39"/>
    <rect class="cls-15" x="112.41" y="76.01" width="5.4" height="47.39"/>
    <rect class="cls-18" x="117.81" y="69.24" width="5.4" height="54.16"/>
    <rect class="cls-15" x="117.81" y="69.24" width="5.4" height="54.16"/>
    <rect class="cls-18" x="123.2" y="76.01" width="5.4" height="47.39"/>
    <rect class="cls-15" x="123.2" y="76.01" width="5.4" height="47.39"/>
    <rect class="cls-18" x="128.61" y="62.48" width="5.4" height="60.93"/>
    <rect class="cls-15" x="128.61" y="62.48" width="5.4" height="60.93"/>
    <rect class="cls-18" x="134" y="76.01" width="5.4" height="47.39"/>
    <rect class="cls-15" x="134" y="76.01" width="5.4" height="47.39"/>
    <rect class="cls-18" x="139.4" y="48.93" width="5.4" height="74.47"/>
    <rect class="cls-15" x="139.4" y="48.93" width="5.4" height="74.47"/>
    <rect class="cls-18" x="144.79" y="103.09" width="5.4" height="20.31"/>
    <rect class="cls-15" x="144.79" y="103.09" width="5.4" height="20.31"/>
    <rect class="cls-18" x="150.18" y="89.55" width="5.4" height="33.85"/>
    <rect class="cls-15" x="150.18" y="89.55" width="5.4" height="33.85"/>
    <rect class="cls-18" x="155.59" y="89.55" width="5.4" height="33.85"/>
    <rect class="cls-15" x="155.59" y="89.55" width="5.4" height="33.85"/>
    <rect class="cls-18" x="160.98" y="82.79" width="5.4" height="40.62"/>
    <rect class="cls-15" x="160.98" y="82.79" width="5.4" height="40.62"/>
    <rect class="cls-18" x="166.37" y="103.09" width="5.4" height="20.31"/>
    <rect class="cls-15" x="166.37" y="103.09" width="5.4" height="20.31"/>
    <rect class="cls-18" x="171.76" y="69.24" width="5.4" height="54.16"/>
    <rect class="cls-15" x="171.76" y="69.24" width="5.4" height="54.16"/>
    <rect class="cls-18" x="177.17" y="116.63" width="5.4" height="6.77"/>
    <rect class="cls-15" x="177.17" y="116.63" width="5.4" height="6.77"/>
    <rect class="cls-18" x="182.56" y="109.87" width="5.4" height="13.54"/>
    <rect class="cls-15" x="182.56" y="109.87" width="5.4" height="13.54"/>
    <rect class="cls-18" x="187.95" y="116.63" width="5.4" height="6.77"/>
    <rect class="cls-15" x="187.95" y="116.63" width="5.4" height="6.77"/>
    <rect class="cls-18" x="193.34" y="109.87" width="5.4" height="13.54"/>
    <rect class="cls-15" x="193.34" y="109.87" width="5.4" height="13.54"/>
    <rect class="cls-18" x="198.75" y="116.63" width="5.4" height="6.77"/>
    <rect class="cls-15" x="198.75" y="116.63" width="5.4" height="6.77"/>
    <path class="cls-15" d="M204.15,123.4h5.4-5.4Z"/>
    <path class="cls-15" d="M209.54,123.4h5.4-5.4Z"/>
    <path class="cls-15" d="M214.93,123.4h5.4-5.4Z"/>
    <path class="cls-15" d="M220.32,123.4h5.4-5.4Z"/>
    <path class="cls-15" d="M225.73,123.4h5.4-5.4Z"/>
    <path class="cls-15" d="M231.12,123.4h5.4-5.4Z"/>
    <path class="cls-15" d="M236.51,123.4h5.4-5.4Z"/>
    <path class="cls-15" d="M241.9,123.4h5.4-5.4Z"/>
    <path class="cls-15" d="M247.31,123.4h5.4-5.4Z"/>
    <path class="cls-15" d="M252.7,123.4h5.4-5.4Z"/>
    <path class="cls-15" d="M258.09,123.4h5.4-5.4Z"/>
    <path class="cls-15" d="M263.49,123.4h5.4-5.4Z"/>
    <rect class="cls-16" x="41.74" y="23.87" width="189.92" height="104.26"/>
  </g>
  <g class="cls-26">
    <rect class="cls-10" x="41.74" y="151.48" width="189.92" height="104.26"/>
    <line class="cls-13" x1="41.74" y1="238.31" x2="231.65" y2="238.31"/>
    <line class="cls-13" x1="41.74" y1="212.92" x2="231.65" y2="212.92"/>
    <line class="cls-13" x1="41.74" y1="187.54" x2="231.65" y2="187.54"/>
    <line class="cls-13" x1="41.74" y1="162.16" x2="231.65" y2="162.16"/>
    <line class="cls-13" x1="46.78" y1="255.74" x2="46.78" y2="151.48"/>
    <line class="cls-13" x1="82.74" y1="255.74" x2="82.74" y2="151.48"/>
    <line class="cls-13" x1="118.72" y1="255.74" x2="118.72" y2="151.48"/>
    <line class="cls-13" x1="154.68" y1="255.74" x2="154.68" y2="151.48"/>
    <line class="cls-13" x1="190.65" y1="255.74" x2="190.65" y2="151.48"/>
    <line class="cls-13" x1="226.62" y1="255.74" x2="226.62" y2="151.48"/>
    <line class="cls-17" x1="41.74" y1="251.01" x2="231.65" y2="251.01"/>
    <line class="cls-17" x1="41.74" y1="225.62" x2="231.65" y2="225.62"/>
    <line class="cls-17" x1="41.74" y1="200.23" x2="231.65" y2="200.23"/>
    <line class="cls-17" x1="41.74" y1="174.84" x2="231.65" y2="174.84"/>
    <line class="cls-17" x1="64.76" y1="255.74" x2="64.76" y2="151.48"/>
    <line class="cls-17" x1="100.73" y1="255.74" x2="100.73" y2="151.48"/>
    <line class="cls-17" x1="136.7" y1="255.74" x2="136.7" y2="151.48"/>
    <line class="cls-17" x1="172.67" y1="255.74" x2="172.67" y2="151.48"/>
    <line class="cls-17" x1="208.64" y1="255.74" x2="208.64" y2="151.48"/>
    <path class="cls-15" d="M42.28,251.01h5.4-5.4Z"/>
    <path class="cls-15" d="M47.67,251.01h5.4-5.4Z"/>
    <path class="cls-15" d="M53.06,251.01h5.4-5.4Z"/>
    <path class="cls-15" d="M58.47,251.01h5.4-5.4Z"/>
    <path class="cls-15" d="M63.85,251.01h5.4-5.4Z"/>
    <rect class="cls-30" x="69.26" y="203.62" width="5.4" height="47.39"/>
    <rect class="cls-15" x="69.26" y="203.62" width="5.4" height="47.39"/>
    <rect class="cls-30" x="74.65" y="156.23" width="5.4" height="94.78"/>
    <rect class="cls-15" x="74.65" y="156.23" width="5.4" height="94.78"/>
    <rect class="cls-30" x="80.05" y="183.31" width="5.4" height="67.7"/>
    <rect class="cls-15" x="80.05" y="183.31" width="5.4" height="67.7"/>
    <rect class="cls-30" x="85.45" y="176.54" width="5.4" height="74.47"/>
    <rect class="cls-15" x="85.45" y="176.54" width="5.4" height="74.47"/>
    <rect class="cls-30" x="90.84" y="217.16" width="5.4" height="33.85"/>
    <rect class="cls-15" x="90.84" y="217.16" width="5.4" height="33.85"/>
    <rect class="cls-30" x="96.23" y="190.08" width="5.4" height="60.93"/>
    <rect class="cls-15" x="96.23" y="190.08" width="5.4" height="60.93"/>
    <rect class="cls-30" x="101.62" y="237.47" width="5.4" height="13.54"/>
    <rect class="cls-15" x="101.62" y="237.47" width="5.4" height="13.54"/>
    <rect class="cls-30" x="107.02" y="217.16" width="5.4" height="33.85"/>
    <rect class="cls-15" x="107.02" y="217.16" width="5.4" height="33.85"/>
    <rect class="cls-30" x="112.41" y="230.7" width="5.4" height="20.31"/>
    <rect class="cls-15" x="112.41" y="230.7" width="5.4" height="20.31"/>
    <rect class="cls-30" x="117.81" y="210.39" width="5.4" height="40.62"/>
    <rect class="cls-15" x="117.81" y="210.39" width="5.4" height="40.62"/>
    <rect class="cls-30" x="123.2" y="230.7" width="5.4" height="20.31"/>
    <rect class="cls-15" x="123.2" y="230.7" width="5.4" height="20.31"/>
    <rect class="cls-30" x="128.61" y="237.47" width="5.4" height="13.54"/>
    <rect class="cls-15" x="128.61" y="237.47" width="5.4" height="13.54"/>
    <rect class="cls-30" x="134" y="217.16" width="5.4" height="33.85"/>
    <rect class="cls-15" x="134" y="217.16" width="5.4" height="33.85"/>
    <rect class="cls-30" x="139.4" y="244.24" width="5.4" height="6.77"/>
    <rect class="cls-15" x="139.4" y="244.24" width="5.4" height="6.77"/>
    <rect class="cls-30" x="144.79" y="237.47" width="5.4" height="13.54"/>
    <rect class="cls-15" x="144.79" y="237.47" width="5.4" height="13.54"/>
    <rect class="cls-30" x="150.18" y="230.7" width="5.4" height="20.31"/>
    <rect class="cls-15" x="150.18" y="230.7" width="5.4" height="20.31"/>
    <rect class="cls-30" x="155.59" y="244.24" width="5.4" height="6.77"/>
    <rect class="cls-15" x="155.59" y="244.24" width="5.4" height="6.77"/>
    <path class="cls-15" d="M160.98,251.01h5.4-5.4Z"/>
    <path class="cls-15" d="M166.37,251.01h5.4-5.4Z"/>
    <rect class="cls-30" x="171.76" y="244.24" width="5.4" height="6.77"/>
    <rect class="cls-15" x="171.76" y="244.24" width="5.4" height="6.77"/>
    <rect class="cls-30" x="177.17" y="237.47" width="5.4" height="13.54"/>
    <rect class="cls-15" x="177.17" y="237.47" width="5.4" height="13.54"/>
    <rect class="cls-30" x="182.56" y="237.47" width="5.4" height="13.54"/>
    <rect class="cls-15" x="182.56" y="237.47" width="5.4" height="13.54"/>
    <rect class="cls-30" x="187.95" y="244.24" width="5.4" height="6.77"/>
    <rect class="cls-15" x="187.95" y="244.24" width="5.4" height="6.77"/>
    <path class="cls-15" d="M193.34,251.01h5.4-5.4Z"/>
    <path class="cls-15" d="M198.75,251.01h5.4-5.4Z"/>
    <rect class="cls-30" x="204.15" y="244.24" width="5.4" height="6.77"/>
    <rect class="cls-15" x="204.15" y="244.24" width="5.4" height="6.77"/>
    <path class="cls-15" d="M209.54,251.01h5.4-5.4Z"/>
    <path class="cls-15" d="M214.93,251.01h5.4-5.4Z"/>
    <path class="cls-15" d="M220.32,251.01h5.4-5.4Z"/>
    <rect class="cls-30" x="225.73" y="244.24" width="5.4" height="6.77"/>
    <rect class="cls-15" x="225.73" y="244.24" width="5.4" height="6.77"/>
    <path class="cls-15" d="M231.12,251.01h5.4-5.4Z"/>
    <rect class="cls-30" x="236.51" y="244.24" width="5.4" height="6.77"/>
    <rect class="cls-15" x="236.51" y="244.24" width="5.4" height="6.77"/>
    <rect class="cls-30" x="241.9" y="244.24" width="5.4" height="6.77"/>
    <rect class="cls-15" x="241.9" y="244.24" width="5.4" height="6.77"/>
    <path class="cls-15" d="M247.31,251.01h5.4-5.4Z"/>
    <path class="cls-15" d="M252.7,251.01h5.4-5.4Z"/>
    <path class="cls-15" d="M258.09,251.01h5.4-5.4Z"/>
    <rect class="cls-30" x="263.49" y="244.24" width="5.4" height="6.77"/>
    <rect class="cls-15" x="263.49" y="244.24" width="5.4" height="6.77"/>
    <rect class="cls-16" x="41.74" y="151.48" width="189.92" height="104.26"/>
  </g>
  <g class="cls-21">
    <rect class="cls-10" x="237.14" y="23.87" width="189.92" height="104.26"/>
    <line class="cls-13" x1="237.14" y1="110.7" x2="427.05" y2="110.7"/>
    <line class="cls-13" x1="237.14" y1="85.32" x2="427.05" y2="85.32"/>
    <line class="cls-13" x1="237.14" y1="59.93" x2="427.05" y2="59.93"/>
    <line class="cls-13" x1="237.14" y1="34.54" x2="427.05" y2="34.54"/>
    <line class="cls-13" x1="242.17" y1="128.14" x2="242.17" y2="23.89"/>
    <line class="cls-13" x1="278.14" y1="128.14" x2="278.14" y2="23.89"/>
    <line class="cls-13" x1="314.11" y1="128.14" x2="314.11" y2="23.89"/>
    <line class="cls-13" x1="350.08" y1="128.14" x2="350.08" y2="23.89"/>
    <line class="cls-13" x1="386.05" y1="128.14" x2="386.05" y2="23.89"/>
    <line class="cls-13" x1="422.02" y1="128.14" x2="422.02" y2="23.89"/>
    <line class="cls-17" x1="237.14" y1="123.4" x2="427.05" y2="123.4"/>
    <line class="cls-17" x1="237.14" y1="98.01" x2="427.05" y2="98.01"/>
    <line class="cls-17" x1="237.14" y1="72.62" x2="427.05" y2="72.62"/>
    <line class="cls-17" x1="237.14" y1="47.23" x2="427.05" y2="47.23"/>
    <line class="cls-17" x1="260.15" y1="128.14" x2="260.15" y2="23.89"/>
    <line class="cls-17" x1="296.12" y1="128.14" x2="296.12" y2="23.89"/>
    <line class="cls-17" x1="332.09" y1="128.14" x2="332.09" y2="23.89"/>
    <line class="cls-17" x1="368.06" y1="128.14" x2="368.06" y2="23.89"/>
    <line class="cls-17" x1="404.04" y1="128.14" x2="404.04" y2="23.89"/>
    <path class="cls-15" d="M237.67,123.4h5.4-5.4Z"/>
    <path class="cls-15" d="M243.07,123.4h5.4-5.4Z"/>
    <path class="cls-15" d="M248.46,123.4h5.4-5.4Z"/>
    <path class="cls-15" d="M253.87,123.4h5.4-5.4Z"/>
    <path class="cls-15" d="M259.26,123.4h5.4-5.4Z"/>
    <rect class="cls-20" x="264.65" y="103.09" width="5.4" height="20.31"/>
    <rect class="cls-15" x="264.65" y="103.09" width="5.4" height="20.31"/>
    <rect class="cls-20" x="270.05" y="103.09" width="5.4" height="20.31"/>
    <rect class="cls-15" x="270.05" y="103.09" width="5.4" height="20.31"/>
    <rect class="cls-20" x="275.45" y="103.09" width="5.4" height="20.31"/>
    <rect class="cls-15" x="275.45" y="103.09" width="5.4" height="20.31"/>
    <rect class="cls-20" x="280.83" y="89.55" width="5.4" height="33.85"/>
    <rect class="cls-15" x="280.83" y="89.55" width="5.4" height="33.85"/>
    <rect class="cls-20" x="286.24" y="89.55" width="5.4" height="33.85"/>
    <rect class="cls-15" x="286.24" y="89.55" width="5.4" height="33.85"/>
    <rect class="cls-20" x="291.64" y="96.32" width="5.4" height="27.08"/>
    <rect class="cls-15" x="291.64" y="96.32" width="5.4" height="27.08"/>
    <rect class="cls-20" x="297.02" y="109.87" width="5.4" height="13.54"/>
    <rect class="cls-15" x="297.02" y="109.87" width="5.4" height="13.54"/>
    <rect class="cls-20" x="302.43" y="109.87" width="5.4" height="13.54"/>
    <rect class="cls-15" x="302.43" y="109.87" width="5.4" height="13.54"/>
    <rect class="cls-20" x="307.81" y="109.87" width="5.4" height="13.54"/>
    <rect class="cls-15" x="307.81" y="109.87" width="5.4" height="13.54"/>
    <rect class="cls-20" x="313.21" y="76.01" width="5.4" height="47.39"/>
    <rect class="cls-15" x="313.21" y="76.01" width="5.4" height="47.39"/>
    <rect class="cls-20" x="318.61" y="89.55" width="5.4" height="33.85"/>
    <rect class="cls-15" x="318.61" y="89.55" width="5.4" height="33.85"/>
    <rect class="cls-20" x="324.01" y="96.32" width="5.4" height="27.08"/>
    <rect class="cls-15" x="324.01" y="96.32" width="5.4" height="27.08"/>
    <rect class="cls-20" x="329.39" y="62.48" width="5.4" height="60.93"/>
    <rect class="cls-15" x="329.39" y="62.48" width="5.4" height="60.93"/>
    <rect class="cls-20" x="334.8" y="89.55" width="5.4" height="33.85"/>
    <rect class="cls-15" x="334.8" y="89.55" width="5.4" height="33.85"/>
    <rect class="cls-20" x="340.18" y="103.09" width="5.4" height="20.31"/>
    <rect class="cls-15" x="340.18" y="103.09" width="5.4" height="20.31"/>
    <rect class="cls-20" x="345.58" y="103.09" width="5.4" height="20.31"/>
    <rect class="cls-15" x="345.58" y="103.09" width="5.4" height="20.31"/>
    <rect class="cls-20" x="350.98" y="96.32" width="5.4" height="27.08"/>
    <rect class="cls-15" x="350.98" y="96.32" width="5.4" height="27.08"/>
    <rect class="cls-20" x="356.37" y="103.09" width="5.4" height="20.31"/>
    <rect class="cls-15" x="356.37" y="103.09" width="5.4" height="20.31"/>
    <rect class="cls-20" x="361.77" y="96.32" width="5.4" height="27.08"/>
    <rect class="cls-15" x="361.77" y="96.32" width="5.4" height="27.08"/>
    <rect class="cls-20" x="367.17" y="109.87" width="5.4" height="13.54"/>
    <rect class="cls-15" x="367.17" y="109.87" width="5.4" height="13.54"/>
    <rect class="cls-20" x="372.56" y="89.55" width="5.4" height="33.85"/>
    <rect class="cls-15" x="372.56" y="89.55" width="5.4" height="33.85"/>
    <rect class="cls-20" x="377.96" y="62.48" width="5.4" height="60.93"/>
    <rect class="cls-15" x="377.96" y="62.48" width="5.4" height="60.93"/>
    <rect class="cls-20" x="383.36" y="89.55" width="5.4" height="33.85"/>
    <rect class="cls-15" x="383.36" y="89.55" width="5.4" height="33.85"/>
    <rect class="cls-20" x="388.74" y="109.87" width="5.4" height="13.54"/>
    <rect class="cls-15" x="388.74" y="109.87" width="5.4" height="13.54"/>
    <rect class="cls-20" x="394.14" y="116.63" width="5.4" height="6.77"/>
    <rect class="cls-15" x="394.14" y="116.63" width="5.4" height="6.77"/>
    <path class="cls-15" d="M399.54,123.4h5.4-5.4Z"/>
    <path class="cls-15" d="M404.93,123.4h5.4-5.4Z"/>
    <path class="cls-15" d="M410.33,123.4h5.4-5.4Z"/>
    <path class="cls-15" d="M415.73,123.4h5.4-5.4Z"/>
    <path class="cls-15" d="M421.12,123.4h5.4-5.4Z"/>
    <path class="cls-15" d="M426.52,123.4h5.4-5.4Z"/>
    <path class="cls-15" d="M431.92,123.4h5.4-5.4Z"/>
    <rect class="cls-16" x="237.14" y="23.87" width="189.92" height="104.26"/>
  </g>
  <g class="cls-6">
    <rect class="cls-10" x="237.14" y="151.48" width="189.92" height="104.26"/>
    <line class="cls-13" x1="237.14" y1="238.31" x2="427.05" y2="238.31"/>
    <line class="cls-13" x1="237.14" y1="212.92" x2="427.05" y2="212.92"/>
    <line class="cls-13" x1="237.14" y1="187.54" x2="427.05" y2="187.54"/>
    <line class="cls-13" x1="237.14" y1="162.16" x2="427.05" y2="162.16"/>
    <line class="cls-13" x1="242.17" y1="255.74" x2="242.17" y2="151.48"/>
    <line class="cls-13" x1="278.14" y1="255.74" x2="278.14" y2="151.48"/>
    <line class="cls-13" x1="314.11" y1="255.74" x2="314.11" y2="151.48"/>
    <line class="cls-13" x1="350.08" y1="255.74" x2="350.08" y2="151.48"/>
    <line class="cls-13" x1="386.05" y1="255.74" x2="386.05" y2="151.48"/>
    <line class="cls-13" x1="422.02" y1="255.74" x2="422.02" y2="151.48"/>
    <line class="cls-17" x1="237.14" y1="251.01" x2="427.05" y2="251.01"/>
    <line class="cls-17" x1="237.14" y1="225.62" x2="427.05" y2="225.62"/>
    <line class="cls-17" x1="237.14" y1="200.23" x2="427.05" y2="200.23"/>
    <line class="cls-17" x1="237.14" y1="174.84" x2="427.05" y2="174.84"/>
    <line class="cls-17" x1="260.15" y1="255.74" x2="260.15" y2="151.48"/>
    <line class="cls-17" x1="296.12" y1="255.74" x2="296.12" y2="151.48"/>
    <line class="cls-17" x1="332.09" y1="255.74" x2="332.09" y2="151.48"/>
    <line class="cls-17" x1="368.06" y1="255.74" x2="368.06" y2="151.48"/>
    <line class="cls-17" x1="404.04" y1="255.74" x2="404.04" y2="151.48"/>
    <rect class="cls-9" x="237.67" y="244.24" width="5.4" height="6.77"/>
    <rect class="cls-15" x="237.67" y="244.24" width="5.4" height="6.77"/>
    <path class="cls-15" d="M243.07,251.01h5.4-5.4Z"/>
    <rect class="cls-9" x="248.46" y="237.47" width="5.4" height="13.54"/>
    <rect class="cls-15" x="248.46" y="237.47" width="5.4" height="13.54"/>
    <path class="cls-15" d="M253.87,251.01h5.4-5.4Z"/>
    <path class="cls-15" d="M259.26,251.01h5.4-5.4Z"/>
    <path class="cls-15" d="M264.65,251.01h5.4-5.4Z"/>
    <path class="cls-15" d="M270.05,251.01h5.4-5.4Z"/>
    <rect class="cls-9" x="275.45" y="237.47" width="5.4" height="13.54"/>
    <rect class="cls-15" x="275.45" y="237.47" width="5.4" height="13.54"/>
    <path class="cls-15" d="M280.83,251.01h5.4-5.4Z"/>
    <rect class="cls-9" x="286.24" y="237.47" width="5.4" height="13.54"/>
    <rect class="cls-15" x="286.24" y="237.47" width="5.4" height="13.54"/>
    <rect class="cls-9" x="291.64" y="244.24" width="5.4" height="6.77"/>
    <rect class="cls-15" x="291.64" y="244.24" width="5.4" height="6.77"/>
    <path class="cls-15" d="M297.02,251.01h5.4-5.4Z"/>
    <rect class="cls-9" x="302.43" y="237.47" width="5.4" height="13.54"/>
    <rect class="cls-15" x="302.43" y="237.47" width="5.4" height="13.54"/>
    <path class="cls-15" d="M307.81,251.01h5.4-5.4Z"/>
    <rect class="cls-9" x="313.21" y="237.47" width="5.4" height="13.54"/>
    <rect class="cls-15" x="313.21" y="237.47" width="5.4" height="13.54"/>
    <rect class="cls-9" x="318.61" y="237.47" width="5.4" height="13.54"/>
    <rect class="cls-15" x="318.61" y="237.47" width="5.4" height="13.54"/>
    <rect class="cls-9" x="324.01" y="237.47" width="5.4" height="13.54"/>
    <rect class="cls-15" x="324.01" y="237.47" width="5.4" height="13.54"/>
    <rect class="cls-9" x="329.39" y="230.7" width="5.4" height="20.31"/>
    <rect class="cls-15" x="329.39" y="230.7" width="5.4" height="20.31"/>
    <rect class="cls-9" x="334.8" y="230.7" width="5.4" height="20.31"/>
    <rect class="cls-15" x="334.8" y="230.7" width="5.4" height="20.31"/>
    <rect class="cls-9" x="340.18" y="190.08" width="5.4" height="60.93"/>
    <rect class="cls-15" x="340.18" y="190.08" width="5.4" height="60.93"/>
    <rect class="cls-9" x="345.58" y="223.92" width="5.4" height="27.08"/>
    <rect class="cls-15" x="345.58" y="223.92" width="5.4" height="27.08"/>
    <rect class="cls-9" x="350.98" y="217.16" width="5.4" height="33.85"/>
    <rect class="cls-15" x="350.98" y="217.16" width="5.4" height="33.85"/>
    <rect class="cls-9" x="356.37" y="203.62" width="5.4" height="47.39"/>
    <rect class="cls-15" x="356.37" y="203.62" width="5.4" height="47.39"/>
    <rect class="cls-9" x="361.77" y="217.16" width="5.4" height="33.85"/>
    <rect class="cls-15" x="361.77" y="217.16" width="5.4" height="33.85"/>
    <rect class="cls-9" x="367.17" y="217.16" width="5.4" height="33.85"/>
    <rect class="cls-15" x="367.17" y="217.16" width="5.4" height="33.85"/>
    <rect class="cls-9" x="372.56" y="203.62" width="5.4" height="47.39"/>
    <rect class="cls-15" x="372.56" y="203.62" width="5.4" height="47.39"/>
    <rect class="cls-9" x="377.96" y="203.62" width="5.4" height="47.39"/>
    <rect class="cls-15" x="377.96" y="203.62" width="5.4" height="47.39"/>
    <rect class="cls-9" x="383.36" y="183.31" width="5.4" height="67.7"/>
    <rect class="cls-15" x="383.36" y="183.31" width="5.4" height="67.7"/>
    <rect class="cls-9" x="388.74" y="203.62" width="5.4" height="47.39"/>
    <rect class="cls-15" x="388.74" y="203.62" width="5.4" height="47.39"/>
    <rect class="cls-9" x="394.14" y="169.77" width="5.4" height="81.24"/>
    <rect class="cls-15" x="394.14" y="169.77" width="5.4" height="81.24"/>
    <path class="cls-15" d="M399.54,251.01h5.4-5.4Z"/>
    <path class="cls-15" d="M404.93,251.01h5.4-5.4Z"/>
    <path class="cls-15" d="M410.33,251.01h5.4-5.4Z"/>
    <path class="cls-15" d="M415.73,251.01h5.4-5.4Z"/>
    <path class="cls-15" d="M421.12,251.01h5.4-5.4Z"/>
    <path class="cls-15" d="M426.52,251.01h5.4-5.4Z"/>
    <path class="cls-15" d="M431.92,251.01h5.4-5.4Z"/>
    <rect class="cls-16" x="237.14" y="151.48" width="189.92" height="104.26"/>
  </g>
  <g class="cls-4">
    <rect class="cls-29" x="41.74" y="133.62" width="189.92" height="17.87"/>
    <rect class="cls-16" x="41.74" y="133.62" width="189.92" height="17.87"/>
    <text class="cls-2" transform="translate(118.2 145.79)"><tspan x="0" y="0">Linkssteil</tspan></text>
  </g>
  <g class="cls-8">
    <rect class="cls-29" x="237.14" y="133.62" width="189.92" height="17.87"/>
    <rect class="cls-16" x="237.14" y="133.62" width="189.92" height="17.87"/>
    <text class="cls-2" transform="translate(310.09 145.79)"><tspan x="0" y="0">Rechtssteil</tspan></text>
  </g>
  <g class="cls-23">
    <rect class="cls-29" x="41.74" y="6.02" width="189.92" height="17.87"/>
    <rect class="cls-16" x="41.74" y="6.02" width="189.92" height="17.87"/>
    <text class="cls-2" transform="translate(108.76 18.18)"><tspan x="0" y="0">No</tspan><tspan class="cls-24" x="11.5" y="0">r</tspan><tspan x="14.72" y="0">mal</tspan><tspan class="cls-31" x="29.22" y="0">v</tspan><tspan x="33.5" y="0">e</tspan><tspan class="cls-22" x="38.51" y="0">r</tspan><tspan x="41.86" y="0">teilt</tspan></text>
  </g>
  <g class="cls-5">
    <rect class="cls-29" x="237.14" y="6.02" width="189.92" height="17.87"/>
    <rect class="cls-16" x="237.14" y="6.02" width="189.92" height="17.87"/>
    <text class="cls-2" transform="translate(306.03 18.18)"><tspan x="0" y="0">Gleich</tspan><tspan class="cls-32" x="25.51" y="0">v</tspan><tspan x="29.79" y="0">e</tspan><tspan class="cls-27" x="34.79" y="0">r</tspan><tspan x="38.14" y="0">teilt</tspan></text>
  </g>
  <line class="cls-14" x1="64.76" y1="258.49" x2="64.76" y2="255.74"/>
  <line class="cls-14" x1="100.73" y1="258.49" x2="100.73" y2="255.74"/>
  <line class="cls-14" x1="136.7" y1="258.49" x2="136.7" y2="255.74"/>
  <line class="cls-14" x1="172.67" y1="258.49" x2="172.67" y2="255.74"/>
  <line class="cls-14" x1="208.64" y1="258.49" x2="208.64" y2="255.74"/>
  <text class="cls-1" transform="translate(57.12 267.13)"><tspan x="0" y="0">−10</tspan></text>
  <text class="cls-1" transform="translate(95.6 267.13)"><tspan x="0" y="0">−5</tspan></text>
  <text class="cls-1" transform="translate(134.2 267.13)"><tspan x="0" y="0">0</tspan></text>
  <text class="cls-1" transform="translate(170.16 267.13)"><tspan x="0" y="0">5</tspan></text>
  <text class="cls-1" transform="translate(203.64 267.13)"><tspan x="0" y="0">10</tspan></text>
  <line class="cls-14" x1="260.15" y1="258.49" x2="260.15" y2="255.74"/>
  <line class="cls-14" x1="296.12" y1="258.49" x2="296.12" y2="255.74"/>
  <line class="cls-14" x1="332.09" y1="258.49" x2="332.09" y2="255.74"/>
  <line class="cls-14" x1="368.06" y1="258.49" x2="368.06" y2="255.74"/>
  <line class="cls-14" x1="404.04" y1="258.49" x2="404.04" y2="255.74"/>
  <text class="cls-1" transform="translate(252.53 267.13)"><tspan x="0" y="0">−10</tspan></text>
  <text class="cls-1" transform="translate(290.99 267.13)"><tspan x="0" y="0">−5</tspan></text>
  <text class="cls-1" transform="translate(329.59 267.13)"><tspan x="0" y="0">0</tspan></text>
  <text class="cls-1" transform="translate(365.57 267.13)"><tspan x="0" y="0">5</tspan></text>
  <text class="cls-1" transform="translate(399.04 267.13)"><tspan x="0" y="0">10</tspan></text>
  <text class="cls-1" transform="translate(19.29 126.64)"><tspan x="0" y="0">0.00</tspan></text>
  <text class="cls-1" transform="translate(19.29 101.24)"><tspan x="0" y="0">0.05</tspan></text>
  <text class="cls-1" transform="translate(19.29 75.85)"><tspan x="0" y="0">0.10</tspan></text>
  <text class="cls-1" transform="translate(19.29 50.47)"><tspan x="0" y="0">0.15</tspan></text>
  <line class="cls-14" x1="38.99" y1="123.4" x2="41.74" y2="123.4"/>
  <line class="cls-14" x1="38.99" y1="98.01" x2="41.74" y2="98.01"/>
  <line class="cls-14" x1="38.99" y1="72.62" x2="41.74" y2="72.62"/>
  <line class="cls-14" x1="38.99" y1="47.23" x2="41.74" y2="47.23"/>
  <text class="cls-1" transform="translate(19.29 254.24)"><tspan x="0" y="0">0.00</tspan></text>
  <text class="cls-1" transform="translate(19.29 228.84)"><tspan x="0" y="0">0.05</tspan></text>
  <text class="cls-1" transform="translate(19.29 203.46)"><tspan x="0" y="0">0.10</tspan></text>
  <text class="cls-1" transform="translate(19.29 178.08)"><tspan x="0" y="0">0.15</tspan></text>
  <line class="cls-14" x1="38.99" y1="251.01" x2="41.74" y2="251.01"/>
  <line class="cls-14" x1="38.99" y1="225.62" x2="41.74" y2="225.62"/>
  <line class="cls-14" x1="38.99" y1="200.23" x2="41.74" y2="200.23"/>
  <line class="cls-14" x1="38.99" y1="174.84" x2="41.74" y2="174.84"/>
  <text class="cls-3" transform="translate(201.99 280.41)"><tspan x="0" y="0">Beobachtung</tspan></text>
  <text class="cls-3" transform="translate(13.91 185.41) rotate(-90)"><tspan x="0" y="0">Relati</tspan><tspan class="cls-7" x="28.12" y="0">v</tspan><tspan x="33.35" y="0">e Häufig</tspan><tspan class="cls-25" x="74.32" y="0">k</tspan><tspan x="79.6" y="0">eit</tspan></text>
</svg>