<?xml version="1.0" encoding="UTF-8"?>
<svg xmlns="http://www.w3.org/2000/svg" xmlns:xlink="http://www.w3.org/1999/xlink" viewBox="0 0 496.14 493.81">
  <defs>
    <style>
      .cls-1 {
        letter-spacing: -.03em;
      }

      .cls-2 {
        clip-path: url(#clippath-6);
      }

      .cls-3 {
        clip-path: url(#clippath-7);
      }

      .cls-4, .cls-5, .cls-6, .cls-7, .cls-8, .cls-9, .cls-10, .cls-11, .cls-12, .cls-13, .cls-14 {
        stroke-linejoin: round;
      }

      .cls-4, .cls-5, .cls-6, .cls-8, .cls-15, .cls-9, .cls-10, .cls-12, .cls-13, .cls-14 {
        fill: none;
      }

      .cls-4, .cls-5, .cls-11 {
        stroke: #000;
      }

      .cls-4, .cls-7, .cls-8, .cls-9, .cls-12 {
        stroke-width: 1.07px;
      }

      .cls-5, .cls-6 {
        stroke-width: .75px;
      }

      .cls-16 {
        letter-spacing: 7.57em;
      }

      .cls-16, .cls-17 {
        fill: #4d4d4d;
        font-size: 9px;
      }

      .cls-16, .cls-17, .cls-18, .cls-19 {
        font-family: Helvetica, Helvetica;
      }

      .cls-20 {
        clip-path: url(#clippath-4);
      }

      .cls-21 {
        letter-spacing: 0em;
      }

      .cls-22, .cls-23 {
        fill: #231f20;
      }

      .cls-6, .cls-7, .cls-9, .cls-10, .cls-11 {
        stroke-linecap: round;
      }

      .cls-6, .cls-24, .cls-25 {
        stroke: #231f20;
      }

      .cls-26, .cls-7 {
        fill: #fff;
      }

      .cls-7 {
        stroke: #fff;
      }

      .cls-27 {
        letter-spacing: .02em;
      }

      .cls-8, .cls-9 {
        stroke: #323232;
      }

      .cls-24 {
        fill: #ec008c;
      }

      .cls-24, .cls-10, .cls-25, .cls-13 {
        stroke-width: .25px;
      }

      .cls-24, .cls-25 {
        stroke-miterlimit: 3.25;
      }

      .cls-28 {
        clip-path: url(#clippath-1);
      }

      .cls-10, .cls-13 {
        stroke: #ef4136;
      }

      .cls-11 {
        stroke-width: .71px;
      }

      .cls-29 {
        clip-path: url(#clippath-5);
      }

      .cls-12, .cls-14 {
        stroke: #eaeaea;
      }

      .cls-30 {
        clip-path: url(#clippath-3);
      }

      .cls-18 {
        letter-spacing: -.03em;
      }

      .cls-18, .cls-19 {
        font-size: 11px;
      }

      .cls-31 {
        letter-spacing: 0em;
      }

      .cls-25 {
        fill: #27aae1;
      }

      .cls-32 {
        letter-spacing: 0em;
      }

      .cls-33 {
        letter-spacing: 0em;
      }

      .cls-34 {
        clip-path: url(#clippath-2);
      }

      .cls-14 {
        stroke-width: .53px;
      }

      .cls-23 {
        font-family: HelveticaNeue, HelveticaNeue;
        font-size: 10px;
      }

      .cls-35 {
        clip-path: url(#clippath);
      }
    </style>
    <clipPath id="clippath">
      <rect class="cls-15" x="39.48" y="138.75" width="315.57" height="321.73"/>
    </clipPath>
    <clipPath id="clippath-1">
      <rect class="cls-15" x="39.48" y="138.75" width="315.57" height="321.73"/>
    </clipPath>
    <clipPath id="clippath-2">
      <rect class="cls-15" x="262.98" y="10.69" width="19" height="10"/>
    </clipPath>
    <clipPath id="clippath-3">
      <rect class="cls-15" x="452.25" y="261.22" width="17" height="9"/>
    </clipPath>
    <clipPath id="clippath-4">
      <rect class="cls-15" x="113.63" y="112.23" width="10" height="6"/>
    </clipPath>
    <clipPath id="clippath-5">
      <rect class="cls-15" x="38.78" y="112.23" width="10" height="6"/>
    </clipPath>
    <clipPath id="clippath-6">
      <rect class="cls-15" x="491.14" y="467.58" width="5" height="6"/>
    </clipPath>
    <clipPath id="clippath-7">
      <rect class="cls-15" x="184.82" width="5" height="6"/>
    </clipPath>
  </defs>
  <g id="Layer_3" data-name="Layer 3">
    <g>
      <rect class="cls-7" x=".54" y="133.27" width="360" height="360"/>
      <g class="cls-35">
        <rect class="cls-26" x="39.48" y="138.75" width="315.57" height="321.73"/>
        <path class="cls-14" d="M39.48,436.33h315.57M39.48,370.54h315.57M39.48,304.74h315.57M39.48,238.94h315.57M39.48,173.15h315.57M87.49,460.48V138.75M160.67,460.48V138.75M233.86,460.48V138.75M307.05,460.48V138.75"/>
        <path class="cls-12" d="M39.48,403.43h315.57M39.48,337.64h315.57M39.48,271.84h315.57M39.48,206.05h315.57M39.48,140.25h315.57M50.9,460.48V138.75M124.09,460.48V138.75M197.27,460.48V138.75M270.45,460.48V138.75M343.64,460.48V138.75"/>
      </g>
      <path class="cls-11" d="M55.76,427.39c0-1.08-.87-1.95-1.95-1.95s-1.95.87-1.95,1.95.87,1.95,1.95,1.95,1.95-.87,1.95-1.95"/>
      <path class="cls-11" d="M93.8,412.99c0-1.08-.87-1.95-1.95-1.95s-1.95.87-1.95,1.95.87,1.95,1.95,1.95,1.95-.87,1.95-1.95"/>
      <path class="cls-11" d="M115.04,384.07c0-1.08-.87-1.95-1.95-1.95s-1.95.87-1.95,1.95.87,1.95,1.95,1.95,1.95-.87,1.95-1.95"/>
      <path class="cls-11" d="M130.76,366.91c0-1.08-.87-1.95-1.95-1.95s-1.95.87-1.95,1.95.87,1.95,1.95,1.95,1.95-.87,1.95-1.95"/>
      <path class="cls-11" d="M143.96,353.59c0-1.08-.87-1.95-1.95-1.95s-1.95.87-1.95,1.95.87,1.95,1.95,1.95,1.95-.87,1.95-1.95"/>
      <path class="cls-11" d="M155.48,348.67c0-1.08-.87-1.95-1.95-1.95s-1.95.87-1.95,1.95.87,1.95,1.95,1.95,1.95-.87,1.95-1.95"/>
      <path class="cls-11" d="M166.04,326.11c0-1.08-.87-1.95-1.95-1.95s-1.95.87-1.95,1.95.87,1.95,1.95,1.95,1.95-.87,1.95-1.95"/>
      <path class="cls-11" d="M175.88,313.63c0-1.08-.87-1.95-1.95-1.95s-1.95.87-1.95,1.95.87,1.95,1.95,1.95,1.95-.87,1.95-1.95"/>
      <path class="cls-11" d="M185.36,310.51c0-1.08-.87-1.95-1.95-1.95s-1.95.87-1.95,1.95.87,1.95,1.95,1.95,1.95-.87,1.95-1.95"/>
      <path class="cls-11" d="M194.6,286.75c0-1.08-.87-1.95-1.95-1.95s-1.95.87-1.95,1.95.87,1.95,1.95,1.95,1.95-.87,1.95-1.95"/>
      <path class="cls-11" d="M203.73,286.51c0-1.08-.87-1.95-1.95-1.95s-1.95.87-1.95,1.95.87,1.95,1.95,1.95,1.95-.87,1.95-1.95"/>
      <path class="cls-11" d="M213.08,280.27c0-1.08-.87-1.95-1.95-1.95s-1.95.87-1.95,1.95.87,1.95,1.95,1.95,1.95-.87,1.95-1.95"/>
      <path class="cls-11" d="M222.56,280.03c0-1.08-.87-1.95-1.95-1.95s-1.95.87-1.95,1.95.87,1.95,1.95,1.95,1.95-.87,1.95-1.95"/>
      <path class="cls-11" d="M232.4,270.43c0-1.08-.87-1.95-1.95-1.95s-1.95.87-1.95,1.95.87,1.95,1.95,1.95,1.95-.87,1.95-1.95"/>
      <path class="cls-11" d="M242.96,250.51c0-1.08-.87-1.95-1.95-1.95s-1.95.87-1.95,1.95.87,1.95,1.95,1.95,1.95-.87,1.95-1.95"/>
      <path class="cls-11" d="M254.48,245.71c0-1.08-.87-1.95-1.95-1.95s-1.95.87-1.95,1.95.87,1.95,1.95,1.95,1.95-.87,1.95-1.95"/>
      <path class="cls-11" d="M267.56,243.79c0-1.08-.87-1.95-1.95-1.95s-1.95.87-1.95,1.95.87,1.95,1.95,1.95,1.95-.87,1.95-1.95"/>
      <path class="cls-11" d="M283.4,242.35c0-1.08-.87-1.95-1.95-1.95s-1.95.87-1.95,1.95.87,1.95,1.95,1.95,1.95-.87,1.95-1.95"/>
      <path class="cls-11" d="M304.52,208.75c0-1.08-.87-1.95-1.95-1.95s-1.95.87-1.95,1.95.87,1.95,1.95,1.95,1.95-.87,1.95-1.95"/>
      <path class="cls-11" d="M342.68,196.27c0-1.08-.87-1.95-1.95-1.95s-1.95.87-1.95,1.95.87,1.95,1.95,1.95,1.95-.87,1.95-1.95"/>
      <g class="cls-28">
        <line class="cls-4" x1="53.84" y1="445.86" x2="340.71" y2="153.37"/>
        <rect class="cls-9" x="39.48" y="138.75" width="315.57" height="321.73"/>
      </g>
      <text class="cls-17" transform="translate(19.29 406.66)"><tspan x="0" y="0">−10</tspan></text>
      <text class="cls-17" transform="translate(29.55 340.88)"><tspan x="0" y="0">0</tspan></text>
      <text class="cls-17" transform="translate(24.55 275.07)"><tspan x="0" y="0">10</tspan></text>
      <text class="cls-17" transform="translate(24.55 209.28)"><tspan x="0" y="0">20</tspan></text>
      <text class="cls-17" transform="translate(24.55 143.48)"><tspan x="0" y="0">30</tspan></text>
      <path class="cls-8" d="M36.74,403.43h2.74M36.74,337.64h2.74M36.74,271.84h2.74M36.74,206.05h2.74M36.74,140.25h2.74M50.9,463.22v-2.74M124.09,463.22v-2.74M197.27,463.22v-2.74M270.45,463.22v-2.74M343.64,463.22v-2.74"/>
      <text class="cls-17" transform="translate(45.77 471.87)"><tspan x="0" y="0">−2</tspan></text>
      <text class="cls-17" transform="translate(118.96 471.87)"><tspan x="0" y="0">−1</tspan></text>
      <text class="cls-16" transform="translate(194.77 471.87)"><tspan x="0" y="0">01</tspan></text>
      <text class="cls-17" transform="translate(341.15 471.87)"><tspan x="0" y="0">2</tspan></text>
      <text class="cls-19" transform="translate(168.54 485.16)"><tspan x="0" y="0">Theoretisch</tspan></text>
      <text class="cls-18" transform="translate(13.92 346.89) rotate(-90)"><tspan x="0" y="0">We</tspan></text>
      <text class="cls-19" transform="translate(13.92 332.5) rotate(-90)"><tspan x="0" y="0">r</tspan></text>
      <text class="cls-19" transform="translate(13.92 328.88) rotate(-90)"><tspan x="0" y="0">te der Erheb</tspan></text>
      <text class="cls-19" transform="translate(13.92 273.28) rotate(-90)"><tspan x="0" y="0">ung</tspan></text>
    </g>
  </g>
  <g id="Layer_2" data-name="Layer 2">
    <line class="cls-13" x1="342.56" y1="196.98" x2="474.2" y2="196.98"/>
    <line class="cls-13" x1="302.58" y1="209.25" x2="470.96" y2="209.25"/>
    <line class="cls-13" x1="254.77" y1="246.49" x2="457" y2="246.49"/>
    <line class="cls-13" x1="243.12" y1="251.08" x2="452.29" y2="251.08"/>
    <line class="cls-13" x1="232.44" y1="270.71" x2="447.69" y2="270.71"/>
    <line class="cls-13" x1="212.9" y1="280.74" x2="443.03" y2="280.74"/>
    <line class="cls-13" x1="196.18" y1="287.48" x2="433.72" y2="287.48"/>
    <line class="cls-13" x1="182.89" y1="311.41" x2="424.41" y2="311.41"/>
    <line class="cls-13" x1="177.25" y1="314.42" x2="419.75" y2="314.42"/>
    <line class="cls-13" x1="167.3" y1="326.89" x2="415.1" y2="326.89"/>
    <line class="cls-13" x1="156.62" y1="349.43" x2="410.44" y2="349.43"/>
    <line class="cls-13" x1="144.97" y1="354.27" x2="405.79" y2="354.27"/>
    <line class="cls-13" x1="129.65" y1="367.74" x2="401.13" y2="367.74"/>
    <line class="cls-13" x1="115.72" y1="384.93" x2="396.48" y2="384.93"/>
    <line class="cls-13" x1="94.24" y1="414.03" x2="391.82" y2="414.03"/>
    <line class="cls-13" x1="55.76" y1="428.21" x2="387.17" y2="428.21"/>
    <line class="cls-13" x1="268" y1="244.2" x2="461.65" y2="244.2"/>
    <line class="cls-13" x1="284.02" y1="242.91" x2="466.31" y2="242.9"/>
    <line class="cls-13" x1="53.81" y1="427.39" x2="53.81" y2="106.51"/>
    <line class="cls-10" x1="382.29" y1="106.88" x2="51.68" y2="106.88"/>
    <line class="cls-10" x1="382.29" y1="102.22" x2="91.85" y2="102.22"/>
    <line class="cls-10" x1="382.29" y1="97.55" x2="112.76" y2="97.55"/>
    <line class="cls-10" x1="382.29" y1="92.89" x2="128.68" y2="92.89"/>
    <line class="cls-10" x1="382.29" y1="88.23" x2="142.01" y2="88.23"/>
    <line class="cls-10" x1="382.29" y1="83.56" x2="153.53" y2="83.56"/>
    <line class="cls-10" x1="382.29" y1="78.9" x2="163.42" y2="78.9"/>
    <line class="cls-10" x1="382.29" y1="74.23" x2="172.95" y2="74.23"/>
    <line class="cls-10" x1="382.29" y1="69.57" x2="182.95" y2="69.57"/>
    <line class="cls-10" x1="382.29" y1="64.91" x2="191.28" y2="64.91"/>
    <line class="cls-10" x1="382.29" y1="60.24" x2="201.44" y2="60.24"/>
    <line class="cls-10" x1="382.29" y1="55.58" x2="210.71" y2="55.58"/>
    <line class="cls-10" x1="382.29" y1="50.91" x2="219.36" y2="50.91"/>
    <line class="cls-10" x1="382.29" y1="46.25" x2="228.74" y2="46.25"/>
    <line class="cls-10" x1="382.29" y1="41.59" x2="240.8" y2="41.59"/>
    <line class="cls-10" x1="382.29" y1="36.92" x2="252.39" y2="36.92"/>
    <line class="cls-10" x1="382.29" y1="32.26" x2="264.54" y2="32.26"/>
    <line class="cls-10" x1="382.29" y1="27.59" x2="282.3" y2="27.59"/>
    <line class="cls-10" x1="382.29" y1="22.93" x2="302.46" y2="22.93"/>
    <line class="cls-10" x1="382.29" y1="18.27" x2="340.22" y2="18.27"/>
    <line class="cls-10" x1="387" y1="428.23" x2="387" y2="111.55"/>
    <line class="cls-10" x1="391.66" y1="413.8" x2="391.66" y2="111.55"/>
    <line class="cls-10" x1="396.33" y1="384.9" x2="396.33" y2="111.55"/>
    <line class="cls-10" x1="400.99" y1="367.77" x2="400.99" y2="111.55"/>
    <line class="cls-10" x1="405.65" y1="354.36" x2="405.65" y2="111.55"/>
    <line class="cls-10" x1="410.32" y1="349.46" x2="410.32" y2="111.55"/>
    <line class="cls-10" x1="414.98" y1="326.85" x2="414.98" y2="111.55"/>
    <line class="cls-10" x1="419.65" y1="314.39" x2="419.65" y2="111.55"/>
    <line class="cls-10" x1="424.31" y1="311.2" x2="424.31" y2="111.55"/>
    <line class="cls-10" x1="428.97" y1="287.41" x2="428.97" y2="111.55"/>
    <line class="cls-10" x1="433.64" y1="287.48" x2="433.64" y2="111.55"/>
    <line class="cls-10" x1="438.3" y1="280.61" x2="438.3" y2="111.55"/>
    <line class="cls-10" x1="442.97" y1="280.61" x2="442.97" y2="111.55"/>
    <line class="cls-10" x1="447.63" y1="270.99" x2="447.63" y2="111.55"/>
    <line class="cls-10" x1="452.29" y1="251" x2="452.29" y2="111.55"/>
    <line class="cls-10" x1="456.96" y1="246.3" x2="456.96" y2="111.55"/>
    <line class="cls-10" x1="461.62" y1="244.23" x2="461.62" y2="111.55"/>
    <line class="cls-10" x1="466.29" y1="242.9" x2="466.29" y2="111.55"/>
    <line class="cls-10" x1="470.95" y1="209.25" x2="470.95" y2="111.55"/>
    <line class="cls-10" x1="475.62" y1="196.79" x2="475.62" y2="111.55"/>
    <path class="cls-10" d="M387,111.35c0-2.48-2.01-4.49-4.49-4.49"/>
    <path class="cls-10" d="M391.66,111.35c0-5.05-4.1-9.15-9.15-9.15"/>
    <path class="cls-10" d="M396.33,111.35c0-7.63-6.18-13.81-13.81-13.81"/>
    <path class="cls-10" d="M400.99,111.35c0-10.2-8.27-18.48-18.48-18.48"/>
    <path class="cls-10" d="M405.65,111.35c0-12.78-10.36-23.14-23.14-23.14"/>
    <path class="cls-10" d="M410.32,111.35c0-15.36-12.45-27.81-27.81-27.81"/>
    <path class="cls-10" d="M414.98,111.35c0-17.93-14.54-32.47-32.47-32.47"/>
    <path class="cls-10" d="M419.65,111.35c0-20.51-16.63-37.13-37.13-37.13"/>
    <path class="cls-10" d="M424.31,111.35c0-23.08-18.71-41.8-41.8-41.8"/>
    <path class="cls-10" d="M428.97,111.35c0-25.66-20.8-46.46-46.46-46.46"/>
    <path class="cls-10" d="M433.64,111.35c0-28.24-22.89-51.13-51.13-51.13"/>
    <path class="cls-10" d="M438.3,111.35c0-30.81-24.98-55.79-55.79-55.79"/>
    <path class="cls-10" d="M442.97,111.35c0-33.39-27.07-60.45-60.45-60.45"/>
    <path class="cls-10" d="M447.63,111.35c0-35.96-29.15-65.12-65.12-65.12"/>
    <path class="cls-10" d="M452.29,111.35c0-38.54-31.24-69.78-69.78-69.78"/>
    <path class="cls-10" d="M456.96,111.35c0-41.12-33.33-74.45-74.45-74.45"/>
    <path class="cls-10" d="M461.6,111.35c0-43.68-35.41-79.09-79.09-79.09"/>
    <path class="cls-10" d="M466.29,111.35c0-46.27-37.51-83.77-83.77-83.77"/>
    <path class="cls-10" d="M470.95,111.35c0-48.84-39.6-88.44-88.44-88.44"/>
    <path class="cls-10" d="M475.62,111.35c0-51.42-41.68-93.1-93.1-93.1"/>
    <line class="cls-13" x1="340.74" y1="196.98" x2="340.74" y2="17.85"/>
    <line class="cls-13" x1="302.57" y1="210.7" x2="302.57" y2="22.89"/>
    <line class="cls-13" x1="281.45" y1="242.35" x2="281.45" y2="27.42"/>
    <line class="cls-13" x1="265.86" y1="243.79" x2="265.86" y2="32.26"/>
    <line class="cls-13" x1="252.56" y1="243.79" x2="252.56" y2="36.11"/>
    <line class="cls-13" x1="241.01" y1="248.56" x2="241.01" y2="41.59"/>
    <line class="cls-13" x1="230.46" y1="270.71" x2="230.46" y2="46.25"/>
    <line class="cls-13" x1="220.62" y1="281.98" x2="220.62" y2="50.75"/>
    <line class="cls-13" x1="211.14" y1="280.27" x2="211.14" y2="55.39"/>
    <line class="cls-13" x1="201.77" y1="286.51" x2="201.77" y2="60.77"/>
    <line class="cls-13" x1="192.65" y1="287.48" x2="192.65" y2="64.71"/>
    <line class="cls-13" x1="184.42" y1="310.51" x2="184.42" y2="68.85"/>
    <line class="cls-13" x1="173.93" y1="314.42" x2="173.93" y2="73.98"/>
    <line class="cls-13" x1="164.09" y1="326.89" x2="164.09" y2="78.9"/>
    <line class="cls-13" x1="153.53" y1="350.62" x2="153.53" y2="83.24"/>
    <line class="cls-13" x1="142.01" y1="353.59" x2="142.01" y2="87.88"/>
    <line class="cls-13" x1="129.1" y1="366.91" x2="129.1" y2="92.73"/>
    <line class="cls-13" x1="112.76" y1="384.93" x2="112.76" y2="97.28"/>
    <line class="cls-13" x1="91.85" y1="412.99" x2="91.85" y2="102.22"/>
    <g class="cls-34">
      <path d="M266.64,12.96c1.37.16,1.65,1.07,1.65,1.83,0,.6-.15,1.66-1.65,1.84v-3.67M265.82,16.62c-1.41-.19-1.59-1.2-1.59-1.82,0-.52.1-1.63,1.59-1.83v3.65ZM266.64,16.85c1.54-.12,2.64-1.04,2.64-2.05s-1.13-1.94-2.64-2.06v-.56c0-.34,0-.48.94-.48h.33v-.31c-.36.03-1.27.03-1.68.03s-1.33,0-1.69-.03v.31h.33c.94,0,.94.13.94.48v.56c-1.52.15-2.58,1.06-2.58,2.05s1.1,1.91,2.58,2.06v.56c0,.34,0,.48-.94.48h-.33v.31c.36-.03,1.27-.03,1.68-.03s1.33,0,1.69.03v-.31h-.33c-.94,0-.94-.13-.94-.48v-.56Z"/>
      <path d="M273.06,20.57s0-.05-.17-.22c-1.24-1.25-1.56-3.13-1.56-4.65,0-1.73.38-3.46,1.6-4.7.13-.12.13-.14.13-.17,0-.07-.04-.1-.1-.1-.1,0-.99.68-1.58,1.94-.51,1.09-.63,2.2-.63,3.03,0,.77.11,1.98.66,3.1.6,1.22,1.45,1.87,1.55,1.87.06,0,.1-.03.1-.1"/>
      <path d="M275,17.36c.54-.58.82-.82,1.18-1.13,0-.01.62-.54.97-.9.94-.92,1.16-1.4,1.16-1.44,0-.1-.09-.1-.11-.1-.07,0-.1.02-.15.11-.3.48-.51.64-.75.64s-.36-.15-.51-.32c-.19-.23-.36-.43-.69-.43-.75,0-1.2.92-1.2,1.13,0,.05.03.11.12.11s.11-.05.13-.11c.19-.46.76-.47.84-.47.21,0,.4.07.63.15.4.15.51.15.76.15-.36.43-1.19,1.14-1.38,1.3l-.89.84c-.68.66-1.02,1.23-1.02,1.3,0,.1.1.1.12.1.08,0,.1-.02.16-.13.23-.35.53-.62.85-.62.23,0,.33.09.58.38.17.21.35.37.63.37.98,0,1.56-1.26,1.56-1.53,0-.05-.04-.1-.12-.1-.09,0-.11.06-.14.13-.23.65-.86.83-1.19.83-.2,0-.38-.06-.59-.13-.34-.13-.49-.17-.7-.17-.02,0-.18,0-.27.03"/>
      <path d="M281.65,15.7c0-.78-.11-1.98-.65-3.1-.6-1.22-1.45-1.87-1.55-1.87-.06,0-.1.04-.1.1,0,.03,0,.05.19.23.97.98,1.54,2.56,1.54,4.64,0,1.7-.37,3.45-1.6,4.7-.13.12-.13.14-.13.17,0,.06.04.1.1.1.1,0,.99-.68,1.58-1.94.51-1.09.62-2.2.62-3.03"/>
    </g>
    <g class="cls-30">
      <path d="M455.36,265.13h.77c.6,0,.66.13.66.36,0,.06,0,.15-.06.39-.02.04-.02.07-.02.09,0,.06.05.1.1.1.08,0,.08-.02.12-.17l.44-1.72c.02-.09.02-.1.02-.13,0-.02-.02-.09-.1-.09s-.09.04-.12.17c-.17.62-.35.76-1.02.76h-.72l.51-2.02c.07-.28.08-.31.43-.31h1.05c.98,0,1.16.26,1.16.88,0,.18,0,.21-.02.43-.02.1-.02.12-.02.14,0,.04.03.1.1.1.09,0,.1-.05.11-.2l.16-1.38c.03-.22-.02-.22-.21-.22h-3.89c-.16,0-.24,0-.24.16,0,.09.07.09.22.09.29,0,.52,0,.52.14,0,.03,0,.05-.04.19l-1.05,4.2c-.08.31-.1.37-.72.37-.14,0-.22,0-.22.15,0,.1.1.1.12.1.23,0,.82-.02,1.05-.02.26,0,.92.02,1.18.02.07,0,.17,0,.17-.15,0-.06-.05-.08-.05-.09-.02,0-.04,0-.22,0s-.22,0-.41-.02c-.23-.02-.25-.05-.25-.16,0-.02,0-.06.03-.18l.49-1.98"/>
      <path d="M461.78,269.62s0-.04-.13-.18c-.99-1-1.25-2.5-1.25-3.72,0-1.38.3-2.76,1.28-3.76.1-.1.1-.11.1-.14,0-.05-.03-.08-.08-.08-.08,0-.8.54-1.26,1.55-.4.88-.5,1.76-.5,2.42,0,.62.09,1.58.52,2.48.48.98,1.16,1.5,1.24,1.5.05,0,.08-.02.08-.08"/>
      <path d="M464.91,265.32c.05-.21.23-.94.79-.94.04,0,.23,0,.4.1-.22.04-.38.24-.38.43,0,.13.09.28.3.28.18,0,.43-.14.43-.46,0-.41-.47-.53-.74-.53-.46,0-.74.42-.83.6-.2-.53-.63-.6-.86-.6-.83,0-1.28,1.03-1.28,1.22,0,.08.08.08.1.08.06,0,.09-.02.1-.09.27-.84.8-1.04,1.07-1.04.15,0,.43.07.43.53,0,.25-.13.78-.43,1.89-.13.49-.41.83-.75.83-.05,0-.23,0-.4-.1.2-.04.37-.21.37-.43s-.17-.28-.29-.28c-.24,0-.44.21-.44.46,0,.37.4.53.75.53.52,0,.81-.56.83-.6.1.3.38.6.86.6.82,0,1.27-1.03,1.27-1.22,0-.08-.07-.08-.1-.08-.07,0-.09.03-.1.09-.26.85-.8,1.04-1.06,1.04-.31,0-.44-.25-.44-.53,0-.17.05-.35.14-.7l.27-1.09"/>
      <path d="M469.15,265.73c0-.62-.09-1.58-.52-2.48-.48-.98-1.16-1.5-1.24-1.5-.05,0-.08.03-.08.08,0,.02,0,.04.15.18.78.79,1.23,2.05,1.23,3.71,0,1.36-.29,2.76-1.28,3.76-.1.1-.1.11-.1.14,0,.05.03.08.08.08.08,0,.79-.54,1.26-1.55.41-.88.5-1.76.5-2.42"/>
    </g>
    <text class="cls-23" transform="translate(410.96 422.56)"><tspan x="0" y="0">Empi</tspan><tspan class="cls-31" x="21.29" y="0">r</tspan><tspan x="24.6" y="0">ische </tspan><tspan class="cls-1" x="0" y="12">V</tspan><tspan x="5.25" y="12">e</tspan><tspan class="cls-27" x="10.26" y="12">r</tspan><tspan class="cls-21" x="13.77" y="12">t</tspan><tspan x="17.02" y="12">eilungsfunktion</tspan></text>
    <text class="cls-23" transform="translate(40.95 26.33)"><tspan class="cls-33" x="0" y="0">T</tspan><tspan x="4.9" y="0">heo</tspan><tspan class="cls-32" x="20.95" y="0">r</tspan><tspan x="24.12" y="0">etische</tspan><tspan class="cls-1" x="0" y="12">V</tspan><tspan x="5.25" y="12">e</tspan><tspan class="cls-27" x="10.26" y="12">r</tspan><tspan class="cls-21" x="13.77" y="12">t</tspan><tspan x="17.02" y="12">eilungsfunktion</tspan></text>
  </g>
  <g id="Layer_1" data-name="Layer 1">
    <polyline class="cls-5" points="382.51 439.8 382.51 428.23 387.17 428.23 387.17 413.8 391.82 413.8 391.82 384.9 396.48 384.9 396.48 367.77 401.13 367.77 401.13 354.36 405.79 354.36 405.79 349.46 410.44 349.46 410.44 326.85 415.1 326.85 415.1 314.39 419.75 314.39 419.75 311.2 424.41 311.2 424.41 287.41 429.06 287.41 429.06 287.17 433.72 287.17 433.72 280.79 438.37 280.79 438.37 280.61 443.03 280.61 443.03 270.99 447.69 270.99 447.69 251 452.34 251 452.34 246.3 457 246.3 457 244.23 461.65 244.23 461.65 242.9 466.31 242.9 466.31 209.25 470.96 209.25 470.96 196.79 475.62 196.79 475.62 138.75 475.62 185.22"/>
    <g>
      <line class="cls-6" x1="382.51" y1="460.48" x2="492.61" y2="460.48"/>
      <polygon class="cls-22" points="488.17 462.87 487.92 462.16 492.53 460.48 487.92 458.8 488.17 458.1 494.72 460.48 488.17 462.87"/>
    </g>
    <line class="cls-6" x1="475.62" y1="457.1" x2="475.62" y2="464.25"/>
    <g>
      <line class="cls-6" x1="382.51" y1="460.48" x2="382.51" y2="135.39"/>
      <polygon class="cls-22" points="384.9 139.83 384.19 140.08 382.51 135.47 380.83 140.08 380.13 139.83 382.51 133.27 384.9 139.83"/>
    </g>
    <polyline class="cls-4" points="40.26 107.35 40.83 107.32 41.41 107.29 42.56 107.23 44.87 107.1 45.01 107.09 45.15 107.08 45.44 107.07 46.02 107.03 47.17 106.96 49.47 106.82 49.74 106.8 50.01 106.78 50.55 106.74 51.62 106.67 53.77 106.51 58.07 106.18 58.22 106.16 58.65 106.13 59.23 106.08 60.4 105.98 62.73 105.77 67.39 105.3 67.66 105.27 67.93 105.25 68.47 105.19 69.57 105.07 71.74 104.82 76.09 104.29 76.22 104.27 76.35 104.25 76.62 104.22 77.16 104.15 78.22 104.01 80.35 103.71 84.62 103.08 84.77 103.06 84.91 103.04 85.78 102.9 86.93 102.71 89.25 102.33 93.88 101.5 102.51 99.75 111.87 97.53 121.06 95 129.63 92.32 138.93 89.07 147.6 85.72 157 81.78 166.24 77.63 174.84 73.55 184.18 68.96 192.9 64.58 201.44 60.26 210.71 55.6 219.36 51.35 228.74 46.91 237.95 42.78 246.53 39.18 255.84 35.59 264.54 32.54 273.05 29.87 282.3 27.31 290.93 25.23 300.28 23.31 300.41 23.28 300.55 23.26 301.37 23.11 302.46 22.91 304.64 22.52 309.01 21.8 309.15 21.78 309.28 21.76 310.08 21.63 311.15 21.47 313.29 21.15 317.57 20.57 317.72 20.55 317.86 20.53 318.15 20.49 318.73 20.41 319.89 20.27 322.21 19.99 326.86 19.47 327.13 19.44 327.4 19.41 327.94 19.36 329.02 19.24 331.19 19.03 331.46 19.01 331.73 18.98 332.28 18.93 333.36 18.83 335.52 18.64 335.67 18.63 335.82 18.62 336.11 18.59 336.7 18.55 337.87 18.45 340.22 18.27 340.36 18.26 340.51 18.25 341.39 18.18 342.57 18.1 344.92 17.93 345.2 17.92 345.49 17.9 346.07 17.86 347.22 17.79 349.53 17.65 349.67 17.64 349.81 17.63 350.68 17.58 351.83 17.52 354.13 17.4 354.27 17.39 354.4 17.38"/>
    <g>
      <line class="cls-6" x1="50.88" y1="111.31" x2="50.88" y2="105.64"/>
      <line class="cls-6" x1="124.08" y1="111.31" x2="124.08" y2="105.64"/>
      <line class="cls-6" x1="270.46" y1="111.31" x2="270.46" y2="105.64"/>
      <line class="cls-6" x1="343.66" y1="111.31" x2="343.66" y2="105.64"/>
    </g>
    <g>
      <line class="cls-6" x1="40.26" y1="108.83" x2="362.65" y2="108.83"/>
      <polygon class="cls-22" points="358.22 111.22 357.96 110.51 362.58 108.83 357.96 107.15 358.22 106.45 364.77 108.83 358.22 111.22"/>
    </g>
    <g>
      <line class="cls-6" x1="197.27" y1="113.99" x2="197.27" y2="2.12"/>
      <polygon class="cls-22" points="199.66 6.55 198.95 6.81 197.27 2.19 195.59 6.81 194.89 6.55 197.27 0 199.66 6.55"/>
    </g>
    <line class="cls-6" x1="194.73" y1="15.97" x2="200.4" y2="15.97"/>
    <line class="cls-6" x1="194.73" y1="62.37" x2="200.4" y2="62.37"/>
    <g class="cls-20">
      <path d="M118.56,116.31c.13,0,.28,0,.28-.16s-.14-.16-.28-.16h-4.3c-.13,0-.28,0-.28.16s.14.16.28.16h4.3"/>
      <path d="M121.86,113.05c0-.19,0-.21-.18-.21-.49.51-1.19.51-1.45.51v.25c.16,0,.63,0,1.04-.21v4.12c0,.29-.02.38-.74.38h-.25v.25c.28-.02.97-.02,1.29-.02s1.01,0,1.29.02v-.25h-.25c-.71,0-.74-.09-.74-.38v-4.46"/>
    </g>
    <g class="cls-29">
      <path d="M43.72,116.31c.13,0,.28,0,.28-.16s-.14-.16-.28-.16h-4.3c-.13,0-.28,0-.28.16s.14.16.28.16h4.3"/>
      <path d="M45.69,117.52l.84-.82c1.24-1.1,1.72-1.53,1.72-2.32,0-.9-.72-1.54-1.69-1.54-.9,0-1.49.73-1.49,1.44,0,.45.4.45.42.45.13,0,.41-.1.41-.42,0-.21-.14-.41-.42-.41-.06,0-.08,0-.1,0,.18-.52.61-.81,1.07-.81.72,0,1.07.64,1.07,1.3s-.4,1.26-.83,1.76l-1.53,1.7c-.09.09-.09.1-.09.29h2.95l.22-1.38h-.2c-.04.24-.1.59-.17.71-.06.06-.58.06-.76.06h-1.43"/>
    </g>
    <path d="M480.78,464.74c0-.19,0-.21-.18-.21-.49.51-1.19.51-1.45.51v.25c.16,0,.63,0,1.04-.21v4.12c0,.29-.02.38-.74.38h-.25v.25c.28-.02.97-.02,1.29-.02s1.01,0,1.29.02v-.25h-.25c-.71,0-.74-.09-.74-.38v-4.46"/>
    <path d="M274.1,113.15c0-.19,0-.21-.18-.21-.49.51-1.19.51-1.45.51v.25c.16,0,.63,0,1.04-.21v4.12c0,.29-.02.38-.74.38h-.25v.25c.28-.02.97-.02,1.29-.02s1.01,0,1.29.02v-.25h-.25c-.71,0-.74-.09-.74-.38v-4.46"/>
    <path d="M190.81,13.25c0-.19,0-.21-.18-.21-.49.51-1.19.51-1.45.51v.25c.16,0,.63,0,1.04-.21v4.12c0,.29-.02.38-.74.38h-.25v.25c.28-.02.97-.02,1.29-.02s1.01,0,1.29.02v-.25h-.25c-.71,0-.74-.09-.74-.38v-4.46"/>
    <path d="M346.08,117.62l.84-.82c1.24-1.1,1.72-1.53,1.72-2.32,0-.9-.72-1.54-1.69-1.54-.9,0-1.49.73-1.49,1.44,0,.45.4.45.42.45.13,0,.41-.1.41-.42,0-.21-.14-.41-.42-.41-.06,0-.08,0-.1,0,.18-.52.61-.81,1.07-.81.72,0,1.07.64,1.07,1.3s-.4,1.26-.83,1.76l-1.53,1.7c-.09.09-.09.1-.09.29h2.95l.22-1.38h-.2c-.04.24-.1.59-.17.71-.06.06-.58.06-.76.06h-1.43"/>
    <path d="M374.8,135.06c.05-.21.23-.94.79-.94.04,0,.23,0,.4.1-.22.04-.38.24-.38.43,0,.13.09.28.3.28.17,0,.43-.14.43-.46,0-.41-.47-.53-.74-.53-.46,0-.74.42-.83.6-.2-.53-.63-.6-.86-.6-.83,0-1.28,1.03-1.28,1.22,0,.08.08.08.1.08.06,0,.09-.02.1-.09.27-.84.8-1.04,1.07-1.04.15,0,.43.07.43.53,0,.25-.13.78-.43,1.89-.13.49-.41.83-.75.83-.05,0-.23,0-.4-.1.2-.04.37-.21.37-.43s-.17-.28-.29-.28c-.24,0-.44.21-.44.46,0,.37.4.52.75.52.52,0,.81-.56.83-.6.1.3.38.6.86.6.82,0,1.27-1.02,1.27-1.22,0-.08-.07-.08-.1-.08-.07,0-.09.03-.1.09-.26.85-.8,1.04-1.06,1.04-.31,0-.44-.25-.44-.52,0-.17.05-.35.14-.7l.27-1.09"/>
    <path d="M360.17,116.81c.43-.46.66-.66.95-.91,0,0,.49-.43.78-.72.75-.74.93-1.12.93-1.15,0-.08-.07-.08-.09-.08-.05,0-.08.02-.12.09-.24.38-.4.51-.6.51s-.29-.12-.4-.25c-.15-.18-.29-.34-.55-.34-.6,0-.96.74-.96.91,0,.04.02.09.1.09s.09-.04.1-.09c.15-.37.61-.37.68-.37.17,0,.32.05.5.12.32.12.4.12.61.12-.29.34-.95.91-1.1,1.04l-.71.67c-.54.53-.82.98-.82,1.04,0,.08.08.08.1.08.06,0,.08-.02.13-.1.18-.28.42-.49.67-.49.18,0,.26.07.46.3.14.17.28.29.51.29.79,0,1.25-1.01,1.25-1.22,0-.04-.03-.08-.1-.08-.07,0-.09.05-.11.1-.18.52-.69.67-.95.67-.16,0-.3-.05-.47-.1-.27-.1-.39-.13-.56-.13-.02,0-.14,0-.22.02"/>
    <g>
      <path d="M187.15,59.88c-.31,0-.78-.2-.92-.96-.09-.48-.09-1.21-.09-1.68,0-.51,0-1.03.06-1.46.15-.95.75-1.02.95-1.02.26,0,.79.14.94.93.08.44.08,1.05.08,1.55,0,.6,0,1.14-.09,1.65-.12.75-.57.99-.93.99M188.83,57.34c0-.63-.04-1.27-.32-1.86-.37-.76-1.02-.89-1.35-.89-.48,0-1.06.21-1.38.95-.25.55-.3,1.17-.3,1.8,0,.6.03,1.31.36,1.92.34.64.92.8,1.31.8.43,0,1.03-.17,1.38-.92.25-.55.3-1.17.3-1.8Z"/>
      <path d="M190.7,59.46c0-.23-.19-.42-.42-.42s-.42.19-.42.42.19.42.42.42.42-.19.42-.42"/>
      <path d="M194.94,58.29c0-.95-.65-1.74-1.51-1.74-.38,0-.72.13-1.01.4v-1.55c.16.05.42.1.68.1.98,0,1.53-.72,1.53-.83,0-.05-.02-.09-.08-.09,0,0-.02,0-.06.02-.16.07-.55.23-1.08.23-.32,0-.68-.05-1.06-.22-.06-.02-.08-.02-.1-.02-.08,0-.08.06-.08.19v2.35c0,.14,0,.21.11.21.05,0,.07-.02.1-.07.09-.13.38-.56,1.02-.56.41,0,.61.37.67.51.13.29.14.6.14,1,0,.28,0,.75-.19,1.09-.19.31-.48.52-.85.52-.58,0-1.03-.42-1.17-.89.02,0,.05.02.14.02.26,0,.4-.2.4-.39s-.14-.39-.4-.39c-.11,0-.39.05-.39.42,0,.68.55,1.45,1.44,1.45s1.73-.76,1.73-1.77"/>
    </g>
    <circle class="cls-24" cx="382.51" cy="196.98" r="2.55"/>
    <circle class="cls-25" cx="340.79" cy="108.82" r="2.55"/>
    <circle class="cls-25" cx="302.57" cy="108.82" r="2.55"/>
    <circle class="cls-25" cx="281.45" cy="108.82" r="2.55"/>
    <circle class="cls-25" cx="265.86" cy="108.82" r="2.55"/>
    <circle class="cls-25" cx="252.73" cy="108.82" r="2.55"/>
    <circle class="cls-25" cx="241.01" cy="108.82" r="2.55"/>
    <circle class="cls-25" cx="230.46" cy="108.82" r="2.55"/>
    <circle class="cls-25" cx="220.62" cy="108.82" r="2.55"/>
    <circle class="cls-25" cx="211.14" cy="108.82" r="2.55"/>
    <circle class="cls-25" cx="201.77" cy="108.82" r="2.55"/>
    <circle class="cls-25" cx="192.65" cy="108.82" r="2.55"/>
    <circle class="cls-25" cx="184.42" cy="108.82" r="2.55"/>
    <circle class="cls-25" cx="173.93" cy="108.82" r="2.55"/>
    <circle class="cls-25" cx="164.09" cy="108.82" r="2.55"/>
    <circle class="cls-25" cx="153.53" cy="108.82" r="2.55"/>
    <circle class="cls-25" cx="142.01" cy="108.82" r="2.55"/>
    <circle class="cls-25" cx="129.1" cy="108.82" r="2.55"/>
    <circle class="cls-25" cx="112.76" cy="108.82" r="2.55"/>
    <circle class="cls-25" cx="91.85" cy="108.82" r="2.55"/>
    <circle class="cls-25" cx="53.81" cy="108.82" r="2.55"/>
    <circle class="cls-24" cx="382.51" cy="209.25" r="2.55"/>
    <circle class="cls-24" cx="382.51" cy="242.9" r="2.55"/>
    <circle class="cls-24" cx="382.51" cy="244.2" r="2.55"/>
    <circle class="cls-24" cx="382.51" cy="246.49" r="2.55"/>
    <circle class="cls-24" cx="382.51" cy="251.08" r="2.55"/>
    <circle class="cls-24" cx="382.51" cy="270.71" r="2.55"/>
    <circle class="cls-24" cx="382.51" cy="280.74" r="2.55"/>
    <circle class="cls-24" cx="382.51" cy="287.48" r="2.55"/>
    <circle class="cls-24" cx="382.51" cy="311.41" r="2.55"/>
    <circle class="cls-24" cx="382.51" cy="314.42" r="2.55"/>
    <circle class="cls-24" cx="382.51" cy="326.85" r="2.55"/>
    <circle class="cls-24" cx="382.51" cy="349.46" r="2.55"/>
    <circle class="cls-24" cx="382.51" cy="354.27" r="2.55"/>
    <circle class="cls-24" cx="382.51" cy="367.77" r="2.55"/>
    <circle class="cls-24" cx="382.51" cy="384.93" r="2.55"/>
    <circle class="cls-24" cx="382.51" cy="414.03" r="2.55"/>
    <circle class="cls-24" cx="382.51" cy="428.21" r="2.55"/>
    <g class="cls-2">
      <path d="M493.39,469.4c.06-.21.27-.44.41-.56.28-.25.51-.3.64-.3.32,0,.51.28.51.75s-.26,1.38-.4,1.68c-.27.56-.65.82-.95.82-.52,0-.63-.66-.63-.71,0-.02,0-.03.02-.13l.39-1.56M491.99,472.84c-.06.27-.08.33-.43.33-.1,0-.18,0-.18.15,0,.06.04.1.1.1.22,0,.45-.03.67-.03.26,0,.53.03.79.03.04,0,.14,0,.14-.16,0-.09-.08-.09-.19-.09-.4,0-.4-.06-.4-.13,0-.1.33-1.39.39-1.59.1.23.32.51.73.51.92,0,1.92-1.16,1.92-2.33,0-.75-.45-1.27-1.06-1.27-.4,0-.78.29-1.04.6-.08-.43-.42-.6-.71-.6-.37,0-.52.31-.59.45-.14.27-.25.75-.25.77,0,.08.08.08.1.08.08,0,.09,0,.13-.18.14-.56.29-.95.58-.95.14,0,.25.06.25.37,0,.18-.02.27-.05.4l-.89,3.54Z"/>
    </g>
    <g class="cls-3">
      <path d="M187.07,1.82c.06-.21.27-.44.41-.56.28-.25.51-.3.64-.3.32,0,.51.28.51.75s-.26,1.38-.4,1.68c-.27.56-.65.82-.95.82-.52,0-.63-.66-.63-.71,0-.02,0-.03.02-.13l.39-1.56M185.67,5.27c-.06.27-.08.33-.43.33-.1,0-.18,0-.18.15,0,.06.04.1.1.1.22,0,.45-.03.67-.03.26,0,.53.03.79.03.04,0,.14,0,.14-.16,0-.09-.08-.09-.19-.09-.4,0-.4-.06-.4-.13,0-.1.33-1.39.39-1.59.1.23.32.51.73.51.92,0,1.92-1.16,1.92-2.33,0-.75-.45-1.27-1.06-1.27-.4,0-.78.29-1.04.6-.08-.43-.42-.6-.71-.6-.37,0-.52.31-.59.45-.14.27-.25.75-.25.77,0,.08.08.08.1.08.08,0,.09,0,.13-.18.14-.56.29-.95.58-.95.14,0,.25.06.25.37,0,.18-.02.27-.05.4l-.89,3.54Z"/>
    </g>
  </g>
</svg>