<?xml version="1.0" encoding="UTF-8"?>
<svg xmlns="http://www.w3.org/2000/svg" xmlns:xlink="http://www.w3.org/1999/xlink" viewBox="0 0 361.45 121.63">
  <defs>
    <style>
      .cls-1 {
        clip-path: url(#clippath-6);
      }

      .cls-2 {
        clip-path: url(#clippath-7);
      }

      .cls-3 {
        clip-path: url(#clippath-15);
      }

      .cls-4 {
        clip-path: url(#clippath-4);
      }

      .cls-5 {
        fill: #231f20;
      }

      .cls-6 {
        clip-path: url(#clippath-9);
      }

      .cls-7 {
        stroke-width: .75px;
      }

      .cls-7, .cls-8, .cls-9, .cls-10, .cls-11 {
        fill: none;
      }

      .cls-7, .cls-9, .cls-10, .cls-11 {
        stroke: #231f20;
        stroke-linecap: round;
        stroke-linejoin: round;
      }

      .cls-12 {
        clip-path: url(#clippath-10);
      }

      .cls-13 {
        clip-path: url(#clippath-11);
      }

      .cls-14 {
        fill: #00a3d4;
        opacity: .37;
      }

      .cls-15 {
        clip-path: url(#clippath-1);
      }

      .cls-10 {
        stroke-width: .25px;
      }

      .cls-11 {
        stroke-width: .5px;
      }

      .cls-16 {
        clip-path: url(#clippath-5);
      }

      .cls-17 {
        clip-path: url(#clippath-8);
      }

      .cls-18 {
        clip-path: url(#clippath-3);
      }

      .cls-19 {
        clip-path: url(#clippath-12);
      }

      .cls-20 {
        clip-path: url(#clippath-14);
      }

      .cls-21 {
        clip-path: url(#clippath-16);
      }

      .cls-22 {
        clip-path: url(#clippath-2);
      }

      .cls-23 {
        clip-path: url(#clippath-13);
      }

      .cls-24 {
        clip-path: url(#clippath);
      }
    </style>
    <clipPath id="clippath">
      <rect class="cls-8" x="170.79" y="112.9" width="5" height="5"/>
    </clipPath>
    <clipPath id="clippath-1">
      <rect class="cls-8" x="356.45" y="112.9" width="5" height="5"/>
    </clipPath>
    <clipPath id="clippath-2">
      <rect class="cls-8" x="124.08" y="60.84" width="18" height="10"/>
    </clipPath>
    <clipPath id="clippath-3">
      <rect class="cls-8" x="66.79" y="113.63" width="9" height="8"/>
    </clipPath>
    <clipPath id="clippath-4">
      <rect class="cls-8" x="258.06" y="113.63" width="9" height="8"/>
    </clipPath>
    <clipPath id="clippath-5">
      <rect class="cls-8" x="257.14" y="56.15" width="12" height="8"/>
    </clipPath>
    <clipPath id="clippath-6">
      <rect class="cls-8" x="335.98" y="1.3" width="19" height="10"/>
    </clipPath>
    <clipPath id="clippath-7">
      <rect class="cls-8" x=".04" y="27.95" width="43" height="11"/>
    </clipPath>
    <clipPath id="clippath-8">
      <rect class="cls-8" x="281.49" y="75.47" width="6" height="7"/>
    </clipPath>
    <clipPath id="clippath-9">
      <rect class="cls-8" x="334.99" y="109.37" width="5" height="7"/>
    </clipPath>
    <clipPath id="clippath-10">
      <rect class="cls-8" x="64.04" y="4" width="13" height="8"/>
    </clipPath>
    <clipPath id="clippath-11">
      <rect class="cls-8" x="263.84" y="10.66" width="4" height="7"/>
    </clipPath>
    <clipPath id="clippath-12">
      <rect class="cls-8" x="307.47" y="109.37" width="4" height="7"/>
    </clipPath>
    <clipPath id="clippath-13">
      <rect class="cls-8" x="114.07" y="109.65" width="4" height="7"/>
    </clipPath>
    <clipPath id="clippath-14">
      <rect class="cls-8" x="41.96" y="109.94" width="12" height="7"/>
    </clipPath>
    <clipPath id="clippath-15">
      <rect class="cls-8" x="235.63" y="109.37" width="12" height="7"/>
    </clipPath>
    <clipPath id="clippath-16">
      <rect class="cls-8" x="208.69" y="109.37" width="12" height="7"/>
    </clipPath>
  </defs>
  <g id="Layer_1" data-name="Layer 1">
    <polyline class="cls-14" points="70.54 107.05 70.54 24.48 70.85 24.56 70.01 25.85 69.59 26.53 69.27 27.04 69.22 27.12 69.17 27.21 65.74 33.27 62.57 39.45 59.18 46.45 56.05 53.03 52.69 60.03 49.28 66.87 46.13 72.8 42.75 78.63 39.63 83.46 36.46 87.81 33.05 91.83 31.49 93.46 30.7 94.22 30.31 94.6 30.11 94.78 30.02 94.87 29.92 94.96 28.24 96.42 27.4 97.1 26.98 97.43 26.66 97.67 26.61 97.71 26.55 97.75 24.84 98.96 23.98 99.51 23.56 99.78 23.34 99.91 23.24 99.98 23.18 100.01 23.13 100.04 21.55 100.93 20.76 101.34 20.36 101.54 20.17 101.64 20.07 101.69 19.97 101.73 19.12 102.12 18.7 102.31 18.38 102.45 18.33 102.47 18.27 102.49 17.43 102.83 17 103 16.79 103.08 16.69 103.12 16.63 103.13 16.58 103.15 15.8 103.43 15.41 103.57 15.21 103.63 15.11 103.66 15.07 103.68 15.02 103.69 14.24 103.94 13.85 104.05 13.65 104.11 13.56 104.14 13.51 104.15 13.46 104.17 12.66 104.39 12.26 104.49 12.06 104.54 11.96 104.57 11.91 104.58 11.86 104.59 11.07 104.78 10.67 104.87 10.47 104.92 10.37 104.94 10.32 104.95 10.27 104.96 9.42 105.14 8.99 105.22 8.78 105.26 8.67 105.28 8.62 105.29 8.57 105.3 7.71 105.45 7.29 105.52 7.07 105.56 6.97 105.58 6.91 105.58 6.86 105.59 6.07 105.71 5.68 105.77 5.48 105.79 5.34 105.82 5.29 105.82 4.5 105.93 3.91 106 3.81 106.01 3.76 106.01 3.71 106.02 3.76 106.01 3.76 107.2"/>
    <polyline class="cls-9" points="3.71 106.02 3.76 106.01 3.81 106.01 3.91 106 4.5 105.93 5.29 105.82 5.34 105.82 5.48 105.79 5.68 105.77 6.07 105.71 6.86 105.59 6.91 105.58 6.97 105.58 7.07 105.56 7.29 105.52 7.71 105.45 8.57 105.3 8.62 105.29 8.67 105.28 8.78 105.26 8.99 105.22 9.42 105.14 10.27 104.96 10.32 104.95 10.37 104.94 10.47 104.92 10.67 104.87 11.07 104.78 11.86 104.59 11.91 104.58 11.96 104.57 12.06 104.54 12.26 104.49 12.66 104.39 13.46 104.17 13.51 104.15 13.56 104.14 13.65 104.11 13.85 104.05 14.24 103.94 15.02 103.69 15.07 103.68 15.11 103.66 15.21 103.63 15.41 103.57 15.8 103.43 16.58 103.15 16.63 103.13 16.69 103.12 16.79 103.08 17 103 17.43 102.83 18.27 102.49 18.33 102.47 18.38 102.45 18.7 102.31 19.12 102.12 19.97 101.73 20.07 101.69 20.17 101.64 20.36 101.54 20.76 101.34 21.55 100.93 23.13 100.04 23.18 100.01 23.24 99.98 23.34 99.91 23.56 99.78 23.98 99.51 24.84 98.96 26.55 97.75 26.61 97.71 26.66 97.67 26.98 97.43 27.4 97.1 28.24 96.42 29.92 94.96 30.02 94.87 30.11 94.78 30.31 94.6 30.7 94.22 31.49 93.46 33.05 91.83 36.46 87.81 39.63 83.46 42.75 78.63 46.13 72.8 49.28 66.87 52.69 60.03 56.05 53.03 59.18 46.45 62.57 39.45 65.74 33.27 69.17 27.21 69.22 27.12 69.27 27.04 69.59 26.53 70.01 25.85 70.85 24.56 70.91 24.48 71.06 24.24 71.28 23.93 71.7 23.32 72.54 22.15 72.74 21.89 72.93 21.63 73.32 21.13 74.11 20.16 74.21 20.04 74.31 19.93 74.5 19.7 74.9 19.26 75.68 18.43 75.74 18.37 75.79 18.32 75.9 18.21 76.11 18 76.53 17.6 76.59 17.55 76.64 17.5 76.75 17.41 76.96 17.22 77.39 16.86 77.49 16.78 77.6 16.69 77.81 16.52 78.24 16.21 79.09 15.64 79.14 15.61 79.19 15.58 79.29 15.52 79.49 15.41 79.88 15.19 79.94 15.17 79.98 15.14 80.08 15.1 80.28 15 80.68 14.83 80.73 14.81 80.78 14.79 80.88 14.75 81.08 14.67 81.18 14.64 81.48 14.54 81.57 14.51 81.67 14.48 81.87 14.43 81.92 14.41 81.97 14.4 82.07 14.38 82.27 14.33 82.32 14.32 82.37 14.31 82.47 14.3 82.51 14.29 82.56 14.28 82.66 14.26 82.71 14.26 82.76 14.25 82.86 14.24 82.91 14.23 82.95 14.22 83.15 14.2 83.2 14.2 83.39 14.18 83.44 14.18 83.49 14.18 83.69 14.17 83.73 14.17 83.78 14.17 83.98 14.17 84.07 14.17 84.12 14.17 84.17 14.17 84.22 14.18 84.27 14.18 84.32 14.18 84.42 14.19 84.46 14.19 84.51 14.2 84.61 14.2 84.66 14.21 84.71 14.21 84.81 14.23 84.9 14.24 85 14.25 85.1 14.27 85.2 14.28 85.39 14.32 85.5 14.34 85.6 14.36 85.81 14.41 85.87 14.43 85.92 14.44 86.03 14.47 86.24 14.53 86.29 14.55 86.34 14.57 86.45 14.6 86.66 14.67 87.08 14.84 87.19 14.88 87.29 14.93 87.5 15.02 87.93 15.24 87.98 15.26 88.03 15.29 88.14 15.35 88.35 15.47 88.77 15.72 88.82 15.75 88.87 15.78 88.97 15.85 89.17 15.98 89.56 16.26 90.35 16.87 90.45 16.95 90.55 17.03 90.75 17.2 91.14 17.55 91.93 18.3 91.99 18.36 92.04 18.41 92.15 18.52 92.36 18.74 92.79 19.2 93.64 20.18 95.36 22.37 95.41 22.44 95.46 22.51 95.56 22.66 95.78 22.95 96.19 23.55 97.03 24.79 98.71 27.46 101.85 32.99 105.25 39.62 108.42 46.16 111.53 52.71 114.91 59.75 118.05 66.09 121.47 72.55 124.66 78.09 127.78 82.99 131.17 87.67 134.33 91.45 134.39 91.51 134.44 91.56 134.55 91.68 134.76 91.92 135.19 92.37 136.05 93.26 137.76 94.91 137.81 94.95 137.87 95 137.97 95.1 138.18 95.29 138.6 95.66 139.44 96.38 141.13 97.71 141.52 98 141.91 98.28 142.7 98.83 144.27 99.84 144.32 99.87 144.37 99.9 144.48 99.97 144.69 100.09 145.12 100.34 145.97 100.82 146.02 100.85 146.07 100.87 146.18 100.93 146.39 101.04 146.82 101.26 147.67 101.69 147.77 101.73 147.87 101.78 148.07 101.87 148.47 102.06 149.26 102.4 149.31 102.43 149.36 102.45 149.46 102.49 149.66 102.57 150.05 102.73 150.85 103.04 150.95 103.08 151.04 103.11 151.24 103.19 151.63 103.33 152.41 103.59 152.46 103.61 152.5 103.62 152.6 103.66 152.8 103.72 153.18 103.84 153.96 104.08 154.02 104.09 154.07 104.11 154.18 104.14 154.39 104.2 154.81 104.32 155.66 104.54 155.76 104.56 155.87 104.59 156.5 104.74 157.34 104.93 157.39 104.95 157.44 104.96 157.54 104.98 157.74 105.02 158.13 105.1 158.92 105.25 158.97 105.26 159.02 105.27 159.12 105.29 159.32 105.33 159.71 105.4 160.5 105.53 160.55 105.54 160.61 105.55 160.72 105.57 160.94 105.6 161.38 105.67 162.26 105.8 162.31 105.8 162.37 105.81 162.48 105.83 162.7 105.86 163.14 105.91 163.19 105.92 163.25 105.93 163.36 105.94 163.58 105.97 163.63 105.97 163.69 105.98 163.8 105.99 163.86 106 163.91 106.01 163.97 106.01 164.02 106.02"/>
    <g>
      <line class="cls-7" x1=".38" y1="107.05" x2="174.69" y2="107.05"/>
      <polygon class="cls-5" points="170.25 109.44 170 108.73 174.61 107.05 170 105.37 170.25 104.67 176.81 107.05 170.25 109.44"/>
    </g>
    <g>
      <line class="cls-7" x1="83.93" y1="112.21" x2="83.93" y2="2.12"/>
      <polygon class="cls-5" points="86.32 6.55 85.61 6.81 83.93 2.19 82.25 6.81 81.55 6.55 83.93 0 86.32 6.55"/>
    </g>
    <polyline class="cls-9" points="195.3 106.93 195.35 106.93 195.4 106.92 195.5 106.92 196.09 106.91 196.88 106.9 196.93 106.9 196.98 106.9 197.27 106.89 197.66 106.88 198.45 106.87 198.5 106.87 198.56 106.87 198.66 106.86 198.88 106.86 199.3 106.85 200.16 106.83 200.26 106.82 200.37 106.82 200.58 106.82 201.01 106.8 201.86 106.78 201.91 106.78 201.96 106.77 202.06 106.77 202.26 106.77 202.66 106.75 203.45 106.72 203.5 106.72 203.55 106.72 203.65 106.72 203.85 106.71 205.05 106.66 205.15 106.66 205.24 106.65 205.44 106.64 205.83 106.63 206.61 106.59 206.66 106.59 206.71 106.58 207 106.57 207.39 106.55 208.17 106.5 208.28 106.5 208.38 106.49 208.59 106.48 209.02 106.45 209.86 106.4 209.92 106.39 209.97 106.39 210.29 106.37 210.71 106.34 211.56 106.27 211.66 106.26 211.76 106.26 211.95 106.24 212.35 106.21 213.14 106.14 213.19 106.13 213.24 106.13 213.34 106.12 213.53 106.1 213.93 106.06 214.72 105.98 214.77 105.98 214.83 105.97 214.93 105.96 215.15 105.94 215.58 105.89 216.43 105.79 216.49 105.78 216.54 105.77 216.86 105.74 217.29 105.68 218.14 105.57 218.36 105.54 218.57 105.51 218.99 105.45 219.83 105.32 219.88 105.31 219.93 105.3 220.04 105.28 220.25 105.25 220.67 105.18 221.51 105.03 221.61 105.01 221.7 104.99 221.9 104.96 222.29 104.88 223.08 104.73 224.64 104.39 224.7 104.38 224.86 104.34 225.07 104.29 225.5 104.19 226.35 103.98 228.05 103.52 228.15 103.49 228.25 103.46 228.44 103.4 228.84 103.28 229.64 103.04 231.22 102.5 231.27 102.49 231.32 102.47 231.42 102.43 231.61 102.36 232 102.22 232.78 101.93 234.34 101.3 234.39 101.27 234.44 101.25 234.76 101.11 235.18 100.93 236.03 100.54 237.72 99.71 240.87 97.96 244.28 95.74 247.64 93.2 250.77 90.52 254.16 87.27 257.33 83.92 260.76 79.98 264.13 75.82 267.27 71.74 270.68 67.15 273.86 62.76 276.98 58.43 280.36 53.77 283.52 49.51 286.95 45.07 290.3 40.94 293.44 37.34 296.84 33.74 300.01 30.7 303.12 28.02 306.5 25.45 309.64 23.38 313.06 21.45 313.11 21.43 313.16 21.4 313.46 21.25 313.86 21.05 314.65 20.66 316.25 19.94 316.29 19.92 316.34 19.9 316.64 19.77 317.03 19.61 317.81 19.29 319.37 18.71 319.42 18.69 319.48 18.67 319.58 18.63 319.79 18.55 320.22 18.41 321.07 18.13 322.76 17.61 322.86 17.58 322.96 17.55 323.16 17.5 323.55 17.38 324.34 17.17 324.44 17.15 324.54 17.12 324.74 17.07 325.13 16.97 325.92 16.78 325.98 16.77 326.03 16.76 326.14 16.73 326.35 16.68 326.78 16.59 327.64 16.41 327.69 16.4 327.74 16.38 328.07 16.32 328.49 16.24 329.35 16.07 329.46 16.06 329.56 16.04 329.77 16 330.19 15.93 331.03 15.79 331.09 15.78 331.14 15.77 331.45 15.72 331.88 15.66 332.72 15.54 332.77 15.53 332.81 15.52 332.91 15.51 333.11 15.48 333.5 15.43 334.29 15.33 334.34 15.32 334.39 15.32 334.48 15.31 334.68 15.28 335.07 15.24 335.86 15.15 335.91 15.14 335.96 15.14 336.07 15.13 336.71 15.06 337.56 14.98 337.61 14.97 337.67 14.97 337.77 14.96 337.99 14.94 338.41 14.9 339.26 14.83 339.36 14.82 339.46 14.82 339.66 14.8 340.06 14.77 340.85 14.71 340.9 14.71 340.95 14.7 341.05 14.7 341.25 14.68 341.64 14.66 342.44 14.61 342.49 14.61 342.54 14.6 342.63 14.6 343.22 14.56 344 14.52 344.05 14.52 344.09 14.52 344.19 14.51 344.39 14.5 344.78 14.48 345.56 14.45 345.66 14.44 345.77 14.44 345.98 14.43 346.4 14.41 347.25 14.38 348.09 14.35 348.93 14.32 348.98 14.32 349.03 14.32 349.13 14.31 349.33 14.31 349.72 14.3 350.51 14.27 350.56 14.27 350.61 14.27 350.71 14.27 350.91 14.26 351.3 14.25 352.09 14.24 352.15 14.23 352.2 14.23 352.31 14.23 352.53 14.22 352.97 14.22 353.85 14.2 353.96 14.2 354.07 14.19 354.73 14.18 354.78 14.18 354.84 14.18 354.95 14.18 355.17 14.18 355.23 14.17 355.28 14.17 355.39 14.17 355.45 14.17 355.5 14.17 355.56 14.17 355.61 14.17"/>
    <g>
      <line class="cls-7" x1="191.97" y1="107.05" x2="356.83" y2="107.05"/>
      <polygon class="cls-5" points="352.4 109.44 352.14 108.73 356.76 107.05 352.14 105.37 352.4 104.67 358.95 107.05 352.4 109.44"/>
    </g>
    <g>
      <line class="cls-7" x1="275.46" y1="112.21" x2="275.46" y2="2.12"/>
      <polygon class="cls-5" points="277.84 6.55 277.14 6.81 275.46 2.19 273.78 6.81 273.07 6.55 275.46 0 277.84 6.55"/>
    </g>
    <line class="cls-7" x1="80.34" y1="13.45" x2="87.5" y2="13.45"/>
    <line class="cls-7" x1="271.88" y1="14.24" x2="279.03" y2="14.24"/>
    <line class="cls-7" x1="271.88" y1="60.64" x2="279.03" y2="60.64"/>
    <line class="cls-7" x1="271.88" y1="78.68" x2="279.03" y2="78.68"/>
    <line class="cls-7" x1="57.15" y1="103.35" x2="57.15" y2="110.5"/>
    <line class="cls-7" x1="70.54" y1="103.35" x2="70.54" y2="110.5"/>
    <g class="cls-24">
      <path d="M171.81,116.88c.54-.58.82-.82,1.18-1.13,0-.01.62-.54.97-.9.94-.92,1.16-1.4,1.16-1.44,0-.1-.09-.1-.11-.1-.07,0-.1.02-.15.11-.3.48-.51.64-.75.64s-.36-.15-.51-.32c-.19-.23-.36-.43-.69-.43-.75,0-1.2.92-1.2,1.13,0,.05.03.11.12.11s.11-.05.13-.11c.19-.46.76-.47.84-.47.21,0,.4.07.63.15.4.15.51.15.76.15-.36.43-1.19,1.14-1.38,1.3l-.89.84c-.68.66-1.02,1.23-1.02,1.3,0,.1.1.1.12.1.08,0,.1-.02.16-.13.23-.35.53-.62.85-.62.23,0,.33.09.58.38.17.21.35.37.63.37.98,0,1.56-1.26,1.56-1.53,0-.05-.04-.1-.12-.1-.09,0-.11.06-.14.13-.23.65-.86.83-1.19.83-.2,0-.38-.06-.59-.13-.34-.13-.49-.17-.7-.17-.02,0-.18,0-.27.03"/>
    </g>
    <g class="cls-15">
      <path d="M357.47,116.88c.54-.58.82-.82,1.18-1.13,0-.01.62-.54.97-.9.94-.92,1.16-1.4,1.16-1.44,0-.1-.09-.1-.11-.1-.07,0-.1.02-.15.11-.3.48-.51.64-.75.64s-.36-.15-.51-.32c-.19-.23-.36-.43-.69-.43-.75,0-1.2.92-1.2,1.13,0,.05.03.11.12.11s.11-.05.13-.11c.19-.46.76-.47.84-.47.21,0,.4.07.63.15.4.15.51.15.76.15-.36.43-1.19,1.14-1.38,1.3l-.89.84c-.68.66-1.02,1.23-1.02,1.3,0,.1.1.1.12.1.08,0,.1-.02.16-.13.23-.35.53-.62.85-.62.23,0,.33.09.58.38.17.21.35.37.63.37.98,0,1.56-1.26,1.56-1.53,0-.05-.04-.1-.12-.1-.09,0-.11.06-.14.13-.23.65-.86.83-1.19.83-.2,0-.38-.06-.59-.13-.34-.13-.49-.17-.7-.17-.02,0-.18,0-.27.03"/>
    </g>
    <g class="cls-22">
      <path d="M127.5,64.16c.75.04,1.32.5,1.32,1.37,0,1.17-.85,2.59-2.35,2.71l1.02-4.08M126.22,68.24c-.6-.03-1.31-.38-1.31-1.37,0-1.19.85-2.58,2.33-2.71l-1.02,4.08ZM128.12,61.68s.03-.13.03-.14c0,0,0-.1-.12-.1-.1,0-.11.03-.15.2l-.58,2.3c-1.58.05-3.04,1.37-3.04,2.72,0,.94.7,1.73,1.91,1.8-.08.31-.15.63-.23.93-.12.47-.22.84-.22.87,0,.1.07.11.12.11s.07,0,.1-.04c.02-.02.08-.26.11-.4l.38-1.48c1.6-.05,3.04-1.39,3.04-2.72,0-.78-.53-1.7-1.91-1.8l.56-2.26Z"/>
      <path d="M132.97,70.72s0-.05-.17-.22c-1.24-1.25-1.56-3.13-1.56-4.65,0-1.73.38-3.46,1.6-4.7.13-.12.13-.14.13-.17,0-.07-.04-.1-.1-.1-.1,0-.99.68-1.58,1.94-.51,1.09-.63,2.2-.63,3.03,0,.77.11,1.98.66,3.1.6,1.22,1.45,1.87,1.55,1.87.06,0,.1-.03.1-.1"/>
      <path d="M134.9,67.51c.54-.58.82-.82,1.18-1.13,0-.01.62-.54.97-.9.94-.92,1.16-1.4,1.16-1.44,0-.1-.09-.1-.11-.1-.07,0-.1.02-.15.11-.3.48-.51.64-.75.64s-.36-.15-.51-.32c-.19-.23-.36-.43-.69-.43-.75,0-1.2.92-1.2,1.13,0,.05.03.11.12.11s.11-.05.13-.11c.19-.46.76-.47.84-.47.21,0,.4.07.63.15.4.15.51.15.76.15-.36.43-1.19,1.14-1.38,1.3l-.89.84c-.68.66-1.02,1.23-1.02,1.3,0,.1.1.1.12.1.08,0,.1-.02.16-.13.23-.35.53-.62.85-.62.23,0,.33.09.58.38.17.21.35.37.63.37.98,0,1.56-1.26,1.56-1.53,0-.05-.04-.1-.12-.1-.09,0-.11.06-.14.13-.23.65-.86.83-1.19.83-.2,0-.38-.06-.59-.13-.34-.13-.49-.17-.7-.17-.02,0-.18,0-.27.03"/>
      <path d="M141.45,65.86c0-.78-.11-1.98-.65-3.1-.6-1.22-1.45-1.87-1.55-1.87-.06,0-.1.04-.1.1,0,.03,0,.05.19.23.97.98,1.54,2.56,1.54,4.64,0,1.7-.37,3.45-1.6,4.7-.13.12-.13.14-.13.17,0,.06.04.1.1.1.1,0,.99-.68,1.58-1.94.51-1.09.62-2.2.62-3.03"/>
    </g>
    <g class="cls-18">
      <path d="M67.81,117.61c.54-.57.82-.82,1.18-1.13,0-.01.62-.54.97-.9.94-.92,1.16-1.4,1.16-1.44,0-.1-.09-.1-.11-.1-.07,0-.1.02-.15.11-.3.48-.51.64-.75.64s-.36-.15-.51-.32c-.19-.23-.36-.43-.69-.43-.75,0-1.2.92-1.2,1.13,0,.05.03.11.12.11s.11-.05.13-.11c.19-.46.76-.47.84-.47.21,0,.4.07.63.15.4.15.51.15.76.15-.36.43-1.19,1.14-1.38,1.3l-.89.84c-.68.66-1.02,1.23-1.02,1.3,0,.1.1.1.12.1.08,0,.1-.02.16-.13.23-.35.53-.62.85-.62.23,0,.33.09.58.38.17.21.35.37.63.37.98,0,1.56-1.26,1.56-1.53,0-.05-.04-.1-.12-.1-.09,0-.11.06-.14.13-.23.65-.86.83-1.19.83-.2,0-.38-.06-.59-.13-.34-.13-.49-.17-.7-.17-.02,0-.18,0-.27.03"/>
      <path d="M72.95,117.67c.41-.54.76-.65.98-.65.27,0,.51.2.51.68,0,.29-.15,1.01-.37,1.41-.18.34-.52.68-.88.68-.5,0-.63-.54-.63-.61,0-.03.01-.08.02-.11l.35-1.41M71.62,120.79c-.05.2-.06.25-.34.25-.09,0-.19,0-.19.15,0,.08.06.11.1.11.18,0,.42-.03.6-.03.24,0,.51.03.74.03.06,0,.14-.02.14-.15,0-.1-.1-.1-.18-.1-.15,0-.35,0-.35-.08,0-.04.05-.22.08-.32.08-.37.18-.75.26-1.05.08.14.3.41.73.41.86,0,1.81-.95,1.81-2,0-.82-.57-1.17-1.05-1.17-.44,0-.81.3-1,.49-.12-.4-.51-.49-.72-.49-.28,0-.44.18-.56.37-.14.24-.25.66-.25.7,0,.09.1.09.12.09.1,0,.1-.02.15-.21.1-.41.24-.76.51-.76.18,0,.23.15.23.34,0,.08-.01.17-.02.21l-.8,3.21Z"/>
    </g>
    <line class="cls-7" x1="261.81" y1="103.35" x2="261.81" y2="110.5"/>
    <line class="cls-7" x1="249.59" y1="103.35" x2="249.59" y2="110.5"/>
    <line class="cls-7" x1="223.72" y1="103.35" x2="223.72" y2="110.5"/>
    <line class="cls-7" x1="303.82" y1="103.35" x2="303.82" y2="110.5"/>
    <line class="cls-7" x1="110.43" y1="103.35" x2="110.43" y2="110.5"/>
    <line class="cls-7" x1="332.19" y1="103.35" x2="332.19" y2="110.5"/>
    <g class="cls-4">
      <path d="M259.08,117.61c.54-.57.82-.82,1.18-1.13,0-.01.62-.54.97-.9.94-.92,1.16-1.4,1.16-1.44,0-.1-.09-.1-.11-.1-.07,0-.1.02-.15.11-.3.48-.51.64-.75.64s-.36-.15-.51-.32c-.19-.23-.36-.43-.69-.43-.75,0-1.2.92-1.2,1.13,0,.05.03.11.12.11s.11-.05.13-.11c.19-.46.76-.47.84-.47.21,0,.4.07.63.15.4.15.51.15.76.15-.36.43-1.19,1.14-1.38,1.3l-.89.84c-.68.66-1.02,1.23-1.02,1.3,0,.1.1.1.12.1.08,0,.1-.02.16-.13.23-.35.53-.62.85-.62.23,0,.33.09.58.38.17.21.35.37.63.37.98,0,1.56-1.26,1.56-1.53,0-.05-.04-.1-.12-.1-.09,0-.11.06-.14.13-.23.65-.86.83-1.19.83-.2,0-.38-.06-.59-.13-.34-.13-.49-.17-.7-.17-.02,0-.18,0-.27.03"/>
      <path d="M264.21,117.67c.41-.54.76-.65.98-.65.27,0,.51.2.51.68,0,.29-.15,1.01-.37,1.41-.18.34-.52.68-.88.68-.5,0-.63-.54-.63-.61,0-.03.01-.08.02-.11l.35-1.41M262.88,120.79c-.05.2-.06.25-.34.25-.09,0-.19,0-.19.15,0,.08.06.11.1.11.18,0,.42-.03.6-.03.24,0,.51.03.74.03.06,0,.14-.02.14-.15,0-.1-.1-.1-.18-.1-.15,0-.35,0-.35-.08,0-.04.05-.22.08-.32.08-.37.18-.75.26-1.05.08.14.3.41.73.41.86,0,1.81-.95,1.81-2,0-.82-.57-1.17-1.05-1.17-.44,0-.81.3-1,.49-.12-.4-.51-.49-.72-.49-.28,0-.44.18-.56.37-.14.24-.25.66-.25.7,0,.09.1.09.12.09.1,0,.1-.02.15-.21.1-.41.24-.76.51-.76.18,0,.23.15.23.34,0,.08-.01.17-.02.21l-.8,3.21Z"/>
    </g>
    <line class="cls-7" x1="70.54" y1="107.05" x2="70.54" y2="24.48"/>
    <g class="cls-16">
      <path d="M259.31,62.95c-.39,0-.97-.25-1.15-1.2-.11-.6-.11-1.51-.11-2.1,0-.64,0-1.29.08-1.83.19-1.18.93-1.27,1.18-1.27.33,0,.98.18,1.17,1.16.1.56.1,1.31.1,1.94,0,.75,0,1.42-.11,2.06-.15.94-.72,1.24-1.16,1.24M261.41,59.77c0-.8-.05-1.59-.4-2.32-.46-.95-1.27-1.11-1.69-1.11-.6,0-1.32.26-1.73,1.18-.32.69-.37,1.46-.37,2.26,0,.74.04,1.64.45,2.39.43.8,1.15,1,1.64,1,.54,0,1.29-.21,1.73-1.15.32-.68.37-1.46.37-2.24Z"/>
      <path d="M263.65,62.42c0-.29-.24-.53-.53-.53s-.53.24-.53.53.24.53.53.53.53-.24.53-.53"/>
      <path d="M269,60.95c0-1.18-.82-2.18-1.89-2.18-.48,0-.9.16-1.26.51v-1.94c.2.06.53.13.85.13,1.22,0,1.92-.9,1.92-1.03,0-.06-.03-.11-.1-.11,0,0-.03,0-.08.03-.2.09-.69.29-1.35.29-.4,0-.85-.07-1.32-.28-.08-.03-.1-.03-.12-.03-.1,0-.1.08-.1.24v2.94c0,.18,0,.26.14.26.07,0,.09-.03.13-.09.11-.16.48-.7,1.28-.7.52,0,.76.46.84.64.16.37.18.75.18,1.25,0,.35,0,.94-.24,1.36-.24.39-.61.65-1.06.65-.73,0-1.29-.53-1.46-1.11.03,0,.06.02.17.02.33,0,.5-.25.5-.49s-.17-.49-.5-.49c-.14,0-.49.07-.49.53,0,.85.69,1.82,1.8,1.82s2.17-.95,2.17-2.22"/>
    </g>
    <g class="cls-1">
      <path d="M339.64,3.57c1.37.16,1.65,1.07,1.65,1.83,0,.6-.15,1.66-1.65,1.84v-3.67M338.82,7.23c-1.41-.19-1.59-1.2-1.59-1.82,0-.52.1-1.63,1.59-1.83v3.65ZM339.64,7.46c1.54-.12,2.64-1.04,2.64-2.05s-1.13-1.94-2.64-2.06v-.56c0-.34,0-.48.94-.48h.33v-.31c-.36.03-1.27.03-1.68.03s-1.33,0-1.69-.03v.31h.33c.94,0,.94.13.94.48v.56c-1.52.15-2.58,1.06-2.58,2.05s1.1,1.91,2.58,2.06v.56c0,.34,0,.48-.94.48h-.33v.31c.36-.03,1.27-.03,1.68-.03s1.33,0,1.69.03v-.31h-.33c-.94,0-.94-.13-.94-.48v-.56Z"/>
      <path d="M346.06,11.18s0-.05-.17-.22c-1.24-1.25-1.56-3.13-1.56-4.65,0-1.73.38-3.46,1.6-4.7.13-.12.13-.14.13-.17,0-.07-.04-.1-.1-.1-.1,0-.99.68-1.58,1.94-.51,1.09-.63,2.2-.63,3.03,0,.77.11,1.98.66,3.1.6,1.22,1.45,1.87,1.55,1.87.06,0,.1-.03.1-.1"/>
      <path d="M348,7.97c.54-.58.82-.82,1.18-1.13,0-.01.62-.54.97-.9.94-.92,1.16-1.4,1.16-1.44,0-.1-.09-.1-.11-.1-.07,0-.1.02-.15.11-.3.48-.51.64-.75.64s-.36-.15-.51-.32c-.19-.23-.36-.43-.69-.43-.75,0-1.2.92-1.2,1.13,0,.05.03.11.12.11s.11-.05.13-.11c.19-.46.76-.47.84-.47.21,0,.4.07.63.15.4.15.51.15.76.15-.36.43-1.19,1.14-1.38,1.3l-.89.84c-.68.66-1.02,1.23-1.02,1.3,0,.1.1.1.12.1.08,0,.1-.02.16-.13.23-.35.53-.62.85-.62.23,0,.33.09.58.38.17.21.35.37.63.37.98,0,1.56-1.26,1.56-1.53,0-.05-.04-.1-.12-.1-.09,0-.11.06-.14.13-.23.65-.86.83-1.19.83-.2,0-.38-.06-.59-.13-.34-.13-.49-.17-.7-.17-.02,0-.18,0-.27.03"/>
      <path d="M354.65,6.32c0-.78-.11-1.98-.65-3.1-.6-1.22-1.45-1.87-1.55-1.87-.06,0-.1.04-.1.1,0,.03,0,.05.19.23.97.98,1.54,2.56,1.54,4.64,0,1.7-.37,3.45-1.6,4.7-.13.12-.13.14-.13.17,0,.06.04.1.1.1.1,0,.99-.68,1.58-1.94.51-1.09.62-2.2.62-3.03"/>
    </g>
    <g class="cls-2">
      <path d="M2.94,32.95c.07-.27.34-.55.52-.7.35-.31.64-.38.8-.38.4,0,.63.35.63.93s-.33,1.73-.51,2.11c-.34.7-.81,1.02-1.18,1.02-.66,0-.79-.82-.79-.88,0-.02,0-.04.03-.16l.49-1.95M1.19,37.27c-.08.34-.1.41-.54.41-.12,0-.23,0-.23.19,0,.08.05.12.13.12.27,0,.56-.03.83-.03.33,0,.67.03.98.03.05,0,.18,0,.18-.2,0-.11-.1-.11-.24-.11-.5,0-.5-.07-.5-.16,0-.12.42-1.74.49-1.99.13.29.41.64.91.64,1.15,0,2.39-1.45,2.39-2.91,0-.93-.57-1.59-1.32-1.59-.5,0-.97.36-1.3.75-.1-.54-.53-.75-.89-.75-.46,0-.65.39-.74.57-.18.34-.31.93-.31.96,0,.1.1.1.12.1.1,0,.11-.01.17-.23.17-.7.37-1.18.73-1.18.17,0,.31.08.31.46,0,.23-.03.34-.07.51l-1.11,4.42Z"/>
      <path d="M15.28,34.73c.14,0,.33,0,.33-.2s-.19-.2-.34-.2h-5.93c-.15,0-.34,0-.34.2s.19.2.33.2h5.95M15.27,32.81c.15,0,.34,0,.34-.2s-.19-.2-.33-.2h-5.95c-.14,0-.33,0-.33.2s.19.2.34.2h5.93Z"/>
      <path d="M22.91,30.83c1.37.16,1.65,1.07,1.65,1.83,0,.6-.15,1.66-1.65,1.84v-3.67M22.08,34.49c-1.41-.19-1.59-1.2-1.59-1.82,0-.52.1-1.63,1.59-1.83v3.65ZM22.91,34.71c1.54-.12,2.64-1.04,2.64-2.05s-1.13-1.94-2.64-2.06v-.56c0-.34,0-.48.94-.48h.33v-.31c-.36.03-1.27.03-1.68.03s-1.33,0-1.69-.03v.31h.33c.94,0,.94.13.94.48v.56c-1.52.15-2.58,1.06-2.58,2.05s1.1,1.91,2.58,2.06v.56c0,.34,0,.48-.94.48h-.33v.31c.36-.03,1.27-.03,1.68-.03s1.33,0,1.69.03v-.31h-.33c-.94,0-.94-.13-.94-.48v-.56Z"/>
      <path d="M29.43,38.44s0-.05-.17-.22c-1.24-1.25-1.56-3.13-1.56-4.65,0-1.73.38-3.46,1.6-4.7.13-.12.13-.14.13-.17,0-.07-.04-.1-.1-.1-.1,0-.99.68-1.58,1.94-.51,1.09-.63,2.2-.63,3.03,0,.77.11,1.98.66,3.1.6,1.22,1.45,1.87,1.55,1.87.06,0,.1-.03.1-.1"/>
      <path d="M31.37,35.23c.54-.58.82-.82,1.18-1.13,0-.01.62-.54.97-.9.94-.92,1.16-1.4,1.16-1.44,0-.1-.09-.1-.11-.1-.07,0-.1.02-.15.11-.3.48-.51.64-.75.64s-.36-.15-.51-.32c-.19-.23-.36-.43-.69-.43-.75,0-1.2.92-1.2,1.13,0,.05.03.11.12.11s.11-.05.13-.11c.19-.46.76-.47.84-.47.21,0,.4.07.63.15.4.15.51.15.76.15-.36.43-1.19,1.14-1.38,1.3l-.89.84c-.68.66-1.02,1.23-1.02,1.3,0,.1.1.1.12.1.08,0,.1-.02.16-.13.23-.35.53-.62.85-.62.23,0,.33.09.58.38.17.21.35.37.63.37.98,0,1.56-1.26,1.56-1.53,0-.05-.04-.1-.12-.1-.09,0-.11.06-.14.13-.23.65-.86.83-1.19.83-.2,0-.38-.06-.59-.13-.34-.13-.49-.17-.7-.17-.02,0-.18,0-.27.03"/>
      <path d="M36.6,35.3c.41-.54.76-.65.98-.65.27,0,.51.2.51.68,0,.29-.15,1.01-.37,1.41-.17.34-.52.68-.88.68-.5,0-.63-.54-.63-.61,0-.03.01-.08.02-.11l.35-1.41M35.27,38.41c-.05.2-.06.25-.34.25-.09,0-.19,0-.19.15,0,.08.06.11.1.11.18,0,.42-.03.6-.03.24,0,.51.03.74.03.06,0,.14-.02.14-.15,0-.1-.1-.1-.18-.1-.15,0-.35,0-.35-.08,0-.04.05-.22.08-.32.08-.37.18-.75.26-1.05.08.14.3.41.72.41.86,0,1.81-.95,1.81-2,0-.82-.57-1.17-1.05-1.17-.44,0-.81.3-1,.49-.12-.4-.51-.49-.72-.49-.28,0-.44.18-.56.37-.14.24-.25.66-.25.7,0,.09.1.09.12.09.1,0,.1-.02.15-.21.1-.41.24-.76.51-.76.18,0,.23.15.23.34,0,.08-.01.17-.02.21l-.8,3.21Z"/>
      <path d="M42.21,33.57c0-.78-.11-1.98-.65-3.1-.6-1.22-1.45-1.87-1.55-1.87-.06,0-.1.04-.1.1,0,.03,0,.05.19.23.97.98,1.54,2.56,1.54,4.64,0,1.7-.37,3.45-1.6,4.7-.13.12-.13.14-.13.17,0,.06.04.1.1.1.1,0,.99-.68,1.58-1.94.51-1.09.62-2.2.62-3.03"/>
    </g>
    <polyline class="cls-10" points="44.53 33.45 62.62 33.45 66.79 39.12"/>
    <line class="cls-11" x1="261.81" y1="107.2" x2="261.81" y2="78.68"/>
    <line class="cls-11" x1="261.81" y1="78.68" x2="275.46" y2="78.68"/>
    <g class="cls-17">
      <path d="M284.39,77.17c.07-.27.34-.55.52-.7.35-.31.64-.38.8-.38.4,0,.63.35.63.93s-.33,1.73-.51,2.11c-.34.7-.81,1.02-1.18,1.02-.66,0-.79-.83-.79-.88,0-.02,0-.04.03-.16l.49-1.95M282.64,81.48c-.08.34-.1.41-.54.41-.12,0-.23,0-.23.19,0,.08.05.12.13.12.27,0,.56-.03.83-.03.33,0,.67.03.98.03.05,0,.18,0,.18-.2,0-.11-.1-.11-.24-.11-.5,0-.5-.07-.5-.16,0-.12.42-1.74.49-1.99.13.29.41.64.91.64,1.15,0,2.39-1.45,2.39-2.91,0-.93-.57-1.59-1.32-1.59-.5,0-.97.36-1.3.75-.1-.54-.53-.75-.89-.75-.46,0-.65.39-.74.57-.18.34-.31.93-.31.96,0,.1.1.1.12.1.1,0,.11-.01.17-.23.17-.7.37-1.18.73-1.18.17,0,.31.08.31.46,0,.23-.03.34-.07.51l-1.11,4.42Z"/>
    </g>
    <g class="cls-6">
      <path d="M335.95,115.41l1.05-1.02c1.55-1.37,2.15-1.91,2.15-2.9,0-1.13-.9-1.93-2.11-1.93-1.12,0-1.86.91-1.86,1.8,0,.56.5.56.53.56.17,0,.52-.12.52-.53,0-.26-.18-.52-.53-.52-.08,0-.1,0-.13,0,.23-.65.76-1.01,1.34-1.01.9,0,1.33.8,1.33,1.62s-.5,1.58-1.04,2.2l-1.91,2.13c-.11.11-.11.13-.11.37h3.69l.28-1.73h-.25c-.05.3-.12.73-.22.88-.07.08-.73.08-.94.08h-1.79"/>
    </g>
  </g>
  <g id="Layer_2" data-name="Layer 2">
    <g class="cls-12">
      <path d="M66.21,10.8c-.39,0-.97-.25-1.15-1.2-.11-.6-.11-1.51-.11-2.1,0-.64,0-1.29.08-1.83.19-1.18.93-1.27,1.18-1.27.33,0,.98.18,1.17,1.16.1.56.1,1.31.1,1.94,0,.75,0,1.42-.11,2.06-.15.94-.72,1.24-1.16,1.24M68.31,7.62c0-.8-.05-1.59-.4-2.32-.46-.95-1.27-1.11-1.69-1.11-.6,0-1.32.26-1.73,1.18-.32.69-.37,1.46-.37,2.26,0,.74.04,1.64.45,2.39.43.8,1.15,1,1.64,1,.54,0,1.29-.21,1.73-1.15.32-.68.37-1.46.37-2.24Z"/>
      <path d="M70.55,10.27c0-.29-.24-.53-.53-.53s-.53.24-.53.53.24.53.53.53.53-.24.53-.53"/>
      <path d="M74.42,8.85h-2.42l2.42-3.7v3.7ZM74.36,9.16v.86c0,.36-.02.47-.75.47h-.21v.31c.41-.03.93-.03,1.34-.03s.94,0,1.35.03v-.31h-.21c-.74,0-.75-.11-.75-.47v-.86h.99v-.31h-.99v-4.52c0-.2,0-.26-.16-.26-.09,0-.12,0-.2.12l-3.05,4.66v.31h2.64Z"/>
    </g>
    <g class="cls-13">
      <path d="M266.46,11.1c0-.24,0-.26-.23-.26-.62.64-1.49.64-1.81.64v.31c.2,0,.78,0,1.3-.26v5.15c0,.36-.03.48-.93.48h-.32v.31c.35-.03,1.21-.03,1.61-.03s1.26,0,1.61.03v-.31h-.32c-.89,0-.92-.11-.92-.48v-5.57"/>
    </g>
    <g class="cls-19">
      <path d="M310.09,109.82c0-.24,0-.26-.23-.26-.62.64-1.49.64-1.81.64v.31c.2,0,.78,0,1.3-.26v5.15c0,.36-.03.48-.93.48h-.32v.31c.35-.03,1.21-.03,1.61-.03s1.26,0,1.61.03v-.31h-.32c-.89,0-.92-.11-.92-.48v-5.57"/>
    </g>
    <g class="cls-23">
      <path d="M116.69,110.09c0-.24,0-.26-.23-.26-.62.64-1.49.64-1.81.64v.31c.2,0,.78,0,1.3-.26v5.15c0,.36-.03.48-.93.48h-.32v.31c.35-.03,1.21-.03,1.61-.03s1.26,0,1.61.03v-.31h-.32c-.89,0-.92-.11-.92-.48v-5.57"/>
    </g>
    <g class="cls-20">
      <path d="M48.2,114.46c.17,0,.35,0,.35-.2s-.18-.2-.35-.2h-5.38c-.17,0-.35,0-.35.2s.18.2.35.2h5.38"/>
      <path d="M52.28,110.38c0-.24,0-.26-.23-.26-.62.64-1.49.64-1.81.64v.31c.2,0,.78,0,1.3-.26v5.15c0,.36-.03.48-.93.48h-.32v.31c.35-.03,1.21-.03,1.61-.03s1.26,0,1.61.03v-.31h-.32c-.89,0-.92-.11-.92-.48v-5.57"/>
    </g>
    <g class="cls-3">
      <path d="M241.87,113.89c.17,0,.35,0,.35-.2s-.18-.2-.35-.2h-5.38c-.17,0-.35,0-.35.2s.18.2.35.2h5.38"/>
      <path d="M245.95,109.82c0-.24,0-.26-.23-.26-.62.64-1.49.64-1.81.64v.31c.2,0,.78,0,1.3-.26v5.15c0,.36-.03.48-.93.48h-.32v.31c.35-.03,1.21-.03,1.61-.03s1.26,0,1.61.03v-.31h-.32c-.89,0-.92-.11-.92-.48v-5.57"/>
    </g>
    <circle class="cls-5" cx="57.29" cy="50.93" r="2.13"/>
    <circle class="cls-5" cx="110.58" cy="50.93" r="2.13"/>
    <g class="cls-21">
      <path d="M214.94,113.89c.17,0,.35,0,.35-.2s-.18-.2-.35-.2h-5.38c-.17,0-.35,0-.35.2s.18.2.35.2h5.38"/>
      <path d="M217.35,115.41l1.05-1.02c1.55-1.37,2.15-1.91,2.15-2.9,0-1.13-.9-1.93-2.11-1.93-1.12,0-1.86.91-1.86,1.8,0,.56.5.56.53.56.17,0,.52-.12.52-.53,0-.26-.18-.52-.53-.52-.08,0-.1,0-.13,0,.23-.65.76-1.01,1.34-1.01.9,0,1.33.8,1.33,1.62s-.5,1.58-1.04,2.2l-1.91,2.13c-.11.11-.11.13-.11.37h3.69l.28-1.73h-.25c-.05.3-.12.73-.22.88-.07.08-.72.08-.94.08h-1.79"/>
    </g>
  </g>
</svg>