<?xml version="1.0" encoding="UTF-8"?>
<svg xmlns="http://www.w3.org/2000/svg" xmlns:xlink="http://www.w3.org/1999/xlink" width="189pt" height="133pt" viewBox="0 0 189 133">
<defs>
<clipPath id="clip-0">
<path clip-rule="nonzero" d="M 181 101 L 188.695312 101 L 188.695312 107 L 181 107 Z M 181 101 "/>
</clipPath>
<clipPath id="clip-1">
<path clip-rule="nonzero" d="M 28 0.078125 L 33 0.078125 L 33 8 L 28 8 Z M 28 0.078125 "/>
</clipPath>
<clipPath id="clip-2">
<path clip-rule="nonzero" d="M 182 109.023438 L 187.5625 109.023438 L 187.5625 114 L 182 114 Z M 182 109.023438 "/>
</clipPath>
<clipPath id="clip-3">
<path clip-rule="nonzero" d="M 36.589844 0.078125 L 44 0.078125 L 44 8 L 36.589844 8 Z M 36.589844 0.078125 "/>
</clipPath>
<clipPath id="clip-4">
<path clip-rule="nonzero" d="M 44 0.078125 L 48 0.078125 L 48 10.078125 L 44 10.078125 Z M 44 0.078125 "/>
</clipPath>
<clipPath id="clip-5">
<path clip-rule="nonzero" d="M 54 0.078125 L 56.589844 0.078125 L 56.589844 10.078125 L 54 10.078125 Z M 54 0.078125 "/>
</clipPath>
<clipPath id="clip-6">
<path clip-rule="nonzero" d="M 19 13 L 22.695312 13 L 22.695312 19.839844 L 19 19.839844 Z M 19 13 "/>
</clipPath>
<clipPath id="clip-7">
<path clip-rule="nonzero" d="M 162 111.378906 L 166 111.378906 L 166 119 L 162 119 Z M 162 111.378906 "/>
</clipPath>
<clipPath id="clip-8">
<path clip-rule="nonzero" d="M 166 111.378906 L 171 111.378906 L 171 119 L 166 119 Z M 166 111.378906 "/>
</clipPath>
<clipPath id="clip-9">
<path clip-rule="nonzero" d="M 171 111.378906 L 176 111.378906 L 176 119 L 171 119 Z M 171 111.378906 "/>
</clipPath>
<clipPath id="clip-10">
<path clip-rule="nonzero" d="M 28.28125 111.378906 L 33 111.378906 L 33 119 L 28.28125 119 Z M 28.28125 111.378906 "/>
</clipPath>
</defs>
<path fill-rule="nonzero" fill="rgb(87.773132%, 88.235474%, 86.659241%)" fill-opacity="1" d="M 182.53125 104.367188 L 31.0625 104.367188 L 31.277344 104.367188 L 31.359375 104.363281 L 31.871094 104.363281 L 31.914062 104.359375 L 32.039062 104.359375 L 32.210938 104.355469 L 32.378906 104.355469 L 32.550781 104.351562 L 32.636719 104.351562 L 32.71875 104.347656 L 32.890625 104.34375 L 33.230469 104.335938 L 33.320312 104.335938 L 33.414062 104.332031 L 33.597656 104.328125 L 33.964844 104.316406 L 34.011719 104.3125 L 34.058594 104.3125 L 34.335938 104.300781 L 34.703125 104.289062 L 34.746094 104.285156 L 34.792969 104.285156 L 34.886719 104.28125 L 35.4375 104.257812 L 36.175781 104.222656 L 36.21875 104.222656 L 36.261719 104.21875 L 36.519531 104.207031 L 36.863281 104.183594 L 37.550781 104.144531 L 37.636719 104.136719 L 37.722656 104.132812 L 38.238281 104.097656 L 38.925781 104.042969 L 38.96875 104.039062 L 39.011719 104.039062 L 39.097656 104.03125 L 39.265625 104.019531 L 39.601562 103.992188 L 40.277344 103.933594 L 40.316406 103.929688 L 40.359375 103.921875 L 40.445312 103.917969 L 40.613281 103.902344 L 40.949219 103.867188 L 41.625 103.800781 L 41.671875 103.796875 L 41.714844 103.792969 L 41.808594 103.785156 L 41.992188 103.765625 L 42.355469 103.726562 L 43.085938 103.644531 L 44.550781 103.464844 L 44.59375 103.460938 L 44.636719 103.453125 L 44.71875 103.445312 L 45.230469 103.375 L 45.914062 103.28125 L 47.28125 103.078125 L 50.238281 102.582031 L 53.144531 102.019531 L 55.855469 101.417969 L 58.792969 100.695312 L 61.535156 99.949219 L 64.226562 99.148438 L 67.144531 98.207031 L 69.867188 97.257812 L 72.816406 96.152344 L 75.714844 94.988281 L 78.417969 93.832031 L 81.347656 92.503906 L 84.085938 91.191406 L 87.046875 89.695312 L 89.957031 88.144531 L 92.671875 86.628906 L 95.617188 84.90625 L 98.363281 83.230469 L 101.058594 81.519531 L 103.980469 79.585938 L 106.710938 77.710938 L 109.664062 75.601562 L 112.566406 73.453125 L 115.273438 71.382812 L 118.210938 69.054688 L 120.949219 66.8125 L 123.636719 64.550781 L 126.550781 62.019531 L 129.273438 59.585938 L 132.21875 56.871094 L 134.972656 54.265625 L 137.671875 51.644531 L 140.597656 48.722656 L 143.332031 45.925781 L 146.292969 42.820312 L 149.199219 39.6875 L 151.910156 36.699219 L 154.851562 33.382812 L 157.597656 30.210938 L 160.289062 27.039062 L 163.207031 23.519531 L 165.933594 20.164062 L 166.027344 20.046875 L 166.691406 19.21875 L 167.453125 18.265625 L 167.550781 18.144531 L 167.644531 18.027344 L 168.214844 17.304688 L 168.261719 17.242188 L 168.308594 17.183594 L 168.59375 16.824219 L 168.640625 16.765625 L 168.6875 16.703125 L 168.78125 16.582031 L 168.828125 16.523438 L 168.878906 16.460938 L 168.925781 16.402344 L 168.972656 16.339844 L 182.53125 16.339844 L 182.53125 104.367188 M 31.0625 104.367188 L 30.511719 104.367188 L 31.0625 104.367188 "/>
<path fill-rule="nonzero" fill="rgb(13.729858%, 12.159729%, 12.548828%)" fill-opacity="1" d="M 30.511719 104.742188 L 186.574219 104.742188 C 186.78125 104.742188 186.949219 104.578125 186.949219 104.367188 C 186.949219 104.160156 186.78125 103.992188 186.574219 103.992188 L 30.511719 103.992188 C 30.304688 103.992188 30.136719 104.160156 30.136719 104.367188 C 30.136719 104.578125 30.304688 104.742188 30.511719 104.742188 "/>
<g clip-path="url(#clip-0)">
<path fill-rule="nonzero" fill="rgb(13.729858%, 12.159729%, 12.548828%)" fill-opacity="1" d="M 182.144531 106.753906 L 181.886719 106.046875 L 186.503906 104.367188 L 181.886719 102.6875 L 182.144531 101.984375 L 188.695312 104.367188 L 182.144531 106.753906 "/>
</g>
<path fill-rule="nonzero" fill="rgb(13.729858%, 12.159729%, 12.548828%)" fill-opacity="1" d="M 30.886719 108.710938 L 30.886719 2.53125 C 30.886719 2.324219 30.71875 2.15625 30.511719 2.15625 C 30.304688 2.15625 30.136719 2.324219 30.136719 2.53125 L 30.136719 108.710938 C 30.136719 108.917969 30.304688 109.085938 30.511719 109.085938 C 30.71875 109.085938 30.886719 108.917969 30.886719 108.710938 "/>
<g clip-path="url(#clip-1)">
<path fill-rule="nonzero" fill="rgb(13.729858%, 12.159729%, 12.548828%)" fill-opacity="1" d="M 32.898438 6.964844 L 32.191406 7.21875 L 30.511719 2.601562 L 28.832031 7.21875 L 28.128906 6.964844 L 30.511719 0.410156 L 32.898438 6.964844 "/>
</g>
<g clip-path="url(#clip-2)">
<path fill-rule="nonzero" fill="rgb(13.729858%, 12.159729%, 12.548828%)" fill-opacity="1" d="M 185.578125 110.820312 C 185.640625 110.566406 185.867188 109.652344 186.5625 109.652344 C 186.613281 109.652344 186.851562 109.652344 187.058594 109.777344 C 186.78125 109.828125 186.582031 110.078125 186.582031 110.316406 C 186.582031 110.472656 186.691406 110.664062 186.960938 110.664062 C 187.179688 110.664062 187.496094 110.484375 187.496094 110.089844 C 187.496094 109.570312 186.910156 109.433594 186.570312 109.433594 C 185.996094 109.433594 185.648438 109.957031 185.53125 110.1875 C 185.28125 109.53125 184.742188 109.433594 184.457031 109.433594 C 183.425781 109.433594 182.855469 110.714844 182.855469 110.960938 C 182.855469 111.0625 182.957031 111.0625 182.976562 111.0625 L 183.105469 110.953125 C 183.445312 109.898438 184.097656 109.652344 184.4375 109.652344 C 184.625 109.652344 184.972656 109.738281 184.972656 110.316406 C 184.972656 110.625 184.804688 111.289062 184.4375 112.679688 C 184.277344 113.296875 183.929688 113.714844 183.492188 113.714844 C 183.433594 113.714844 183.203125 113.714844 182.996094 113.582031 C 183.242188 113.535156 183.464844 113.324219 183.464844 113.046875 C 183.464844 112.777344 183.242188 112.699219 183.097656 112.699219 C 182.796875 112.699219 182.550781 112.957031 182.550781 113.277344 C 182.550781 113.734375 183.046875 113.933594 183.484375 113.933594 C 184.140625 113.933594 184.496094 113.238281 184.527344 113.175781 C 184.644531 113.542969 185.003906 113.933594 185.597656 113.933594 C 186.621094 113.933594 187.1875 112.652344 187.1875 112.402344 C 187.1875 112.300781 187.097656 112.300781 187.070312 112.300781 L 186.941406 112.410156 C 186.613281 113.472656 185.9375 113.714844 185.617188 113.714844 C 185.230469 113.714844 185.070312 113.394531 185.070312 113.058594 C 185.070312 112.839844 185.132812 112.621094 185.242188 112.183594 L 185.578125 110.820312 "/>
</g>
<g clip-path="url(#clip-3)">
<path fill-rule="nonzero" fill="rgb(13.729858%, 12.159729%, 12.548828%)" fill-opacity="1" d="M 39.300781 4.351562 L 40.265625 4.351562 C 41.011719 4.351562 41.089844 4.507812 41.089844 4.796875 C 41.089844 4.863281 41.089844 4.984375 41.019531 5.28125 L 40.988281 5.390625 L 41.109375 5.511719 C 41.207031 5.511719 41.207031 5.480469 41.257812 5.304688 L 41.804688 3.148438 C 41.835938 3.039062 41.835938 3.019531 41.835938 2.988281 C 41.835938 2.96875 41.816406 2.878906 41.714844 2.878906 C 41.617188 2.878906 41.605469 2.929688 41.566406 3.085938 C 41.355469 3.863281 41.128906 4.042969 40.285156 4.042969 L 39.378906 4.042969 L 40.015625 1.519531 C 40.105469 1.171875 40.117188 1.132812 40.550781 1.132812 L 41.863281 1.132812 C 43.085938 1.132812 43.316406 1.460938 43.316406 2.222656 C 43.316406 2.449219 43.316406 2.492188 43.285156 2.761719 C 43.265625 2.890625 43.265625 2.910156 43.265625 2.9375 L 43.382812 3.058594 C 43.492188 3.058594 43.503906 2.996094 43.523438 2.808594 L 43.722656 1.09375 C 43.753906 0.824219 43.703125 0.824219 43.453125 0.824219 L 38.585938 0.824219 C 38.386719 0.824219 38.289062 0.824219 38.289062 1.019531 C 38.289062 1.132812 38.378906 1.132812 38.566406 1.132812 C 38.933594 1.132812 39.210938 1.132812 39.210938 1.308594 C 39.210938 1.351562 39.210938 1.371094 39.160156 1.546875 L 37.851562 6.804688 C 37.753906 7.191406 37.730469 7.269531 36.949219 7.269531 C 36.777344 7.269531 36.667969 7.269531 36.667969 7.460938 C 36.667969 7.578125 36.789062 7.578125 36.816406 7.578125 C 37.105469 7.578125 37.839844 7.546875 38.128906 7.546875 C 38.457031 7.546875 39.28125 7.578125 39.609375 7.578125 C 39.699219 7.578125 39.816406 7.578125 39.816406 7.390625 L 39.757812 7.277344 C 39.726562 7.269531 39.707031 7.269531 39.480469 7.269531 C 39.261719 7.269531 39.210938 7.269531 38.964844 7.25 C 38.675781 7.21875 38.644531 7.179688 38.644531 7.050781 C 38.644531 7.03125 38.644531 6.972656 38.683594 6.824219 L 39.300781 4.351562 "/>
</g>
<g clip-path="url(#clip-4)">
<path fill-rule="nonzero" fill="rgb(13.729858%, 12.159729%, 12.548828%)" fill-opacity="1" d="M 47.277344 9.960938 C 47.277344 9.933594 47.277344 9.910156 47.109375 9.742188 C 45.867188 8.492188 45.550781 6.613281 45.550781 5.09375 C 45.550781 3.363281 45.929688 1.636719 47.152344 0.394531 C 47.277344 0.277344 47.277344 0.257812 47.277344 0.226562 L 47.179688 0.128906 C 47.082031 0.128906 46.1875 0.804688 45.601562 2.066406 C 45.09375 3.15625 44.972656 4.261719 44.972656 5.09375 C 44.972656 5.867188 45.082031 7.070312 45.628906 8.195312 C 46.226562 9.414062 47.082031 10.0625 47.179688 10.0625 L 47.277344 9.960938 "/>
</g>
<path fill-rule="nonzero" fill="rgb(13.729858%, 12.159729%, 12.548828%)" fill-opacity="1" d="M 51.207031 4.578125 C 51.269531 4.320312 51.496094 3.40625 52.191406 3.40625 C 52.242188 3.40625 52.480469 3.40625 52.691406 3.535156 C 52.410156 3.585938 52.214844 3.832031 52.214844 4.070312 C 52.214844 4.230469 52.320312 4.417969 52.589844 4.417969 C 52.808594 4.417969 53.125 4.238281 53.125 3.84375 C 53.125 3.324219 52.539062 3.1875 52.203125 3.1875 C 51.625 3.1875 51.277344 3.714844 51.160156 3.941406 C 50.910156 3.285156 50.375 3.1875 50.085938 3.1875 C 49.054688 3.1875 48.484375 4.46875 48.484375 4.71875 C 48.484375 4.816406 48.585938 4.816406 48.605469 4.816406 L 48.734375 4.707031 C 49.074219 3.652344 49.726562 3.40625 50.066406 3.40625 C 50.253906 3.40625 50.601562 3.496094 50.601562 4.070312 C 50.601562 4.378906 50.433594 5.046875 50.066406 6.4375 C 49.910156 7.050781 49.558594 7.46875 49.121094 7.46875 C 49.0625 7.46875 48.835938 7.46875 48.625 7.339844 C 48.875 7.289062 49.09375 7.082031 49.09375 6.804688 C 49.09375 6.535156 48.875 6.457031 48.726562 6.457031 C 48.425781 6.457031 48.179688 6.714844 48.179688 7.03125 C 48.179688 7.488281 48.675781 7.6875 49.113281 7.6875 C 49.769531 7.6875 50.125 6.992188 50.15625 6.933594 C 50.277344 7.300781 50.632812 7.6875 51.226562 7.6875 C 52.253906 7.6875 52.816406 6.40625 52.816406 6.15625 C 52.816406 6.058594 52.726562 6.058594 52.699219 6.058594 L 52.570312 6.167969 C 52.242188 7.230469 51.566406 7.46875 51.25 7.46875 C 50.859375 7.46875 50.703125 7.152344 50.703125 6.8125 C 50.703125 6.59375 50.761719 6.378906 50.871094 5.9375 L 51.207031 4.578125 "/>
<g clip-path="url(#clip-5)">
<path fill-rule="nonzero" fill="rgb(13.729858%, 12.159729%, 12.548828%)" fill-opacity="1" d="M 56.460938 5.09375 C 56.460938 4.320312 56.351562 3.117188 55.804688 1.996094 C 55.210938 0.773438 54.355469 0.128906 54.257812 0.128906 L 54.15625 0.226562 C 54.15625 0.257812 54.15625 0.277344 54.347656 0.457031 C 55.320312 1.4375 55.886719 3.019531 55.886719 5.09375 C 55.886719 6.792969 55.519531 8.542969 54.285156 9.792969 C 54.15625 9.910156 54.15625 9.933594 54.15625 9.960938 L 54.257812 10.0625 C 54.355469 10.0625 55.25 9.386719 55.835938 8.125 C 56.34375 7.03125 56.460938 5.929688 56.460938 5.09375 "/>
</g>
<g clip-path="url(#clip-6)">
<path fill-rule="nonzero" fill="rgb(13.729858%, 12.159729%, 12.548828%)" fill-opacity="1" d="M 21.316406 13.285156 C 21.316406 13.046875 21.316406 13.027344 21.085938 13.027344 C 20.472656 13.660156 19.597656 13.660156 19.28125 13.660156 L 19.28125 13.96875 C 19.476562 13.96875 20.0625 13.96875 20.582031 13.710938 L 20.582031 18.855469 C 20.582031 19.214844 20.550781 19.335938 19.65625 19.335938 L 19.339844 19.335938 L 19.339844 19.640625 C 19.683594 19.613281 20.550781 19.613281 20.949219 19.613281 C 21.34375 19.613281 22.210938 19.613281 22.558594 19.640625 L 22.558594 19.335938 L 22.238281 19.335938 C 21.34375 19.335938 21.316406 19.222656 21.316406 18.855469 L 21.316406 13.285156 "/>
</g>
<g clip-path="url(#clip-7)">
<path fill-rule="nonzero" fill="rgb(13.729858%, 12.159729%, 12.548828%)" fill-opacity="1" d="M 164.09375 111.820312 C 164.09375 111.582031 164.09375 111.5625 163.863281 111.5625 C 163.25 112.199219 162.375 112.199219 162.058594 112.199219 L 162.058594 112.507812 C 162.257812 112.507812 162.84375 112.507812 163.359375 112.25 L 163.359375 117.394531 C 163.359375 117.753906 163.328125 117.871094 162.433594 117.871094 L 162.117188 117.871094 L 162.117188 118.179688 C 162.464844 118.148438 163.328125 118.148438 163.726562 118.148438 C 164.121094 118.148438 164.988281 118.148438 165.335938 118.179688 L 165.335938 117.871094 L 165.019531 117.871094 C 164.121094 117.871094 164.09375 117.761719 164.09375 117.394531 L 164.09375 111.820312 "/>
</g>
<g clip-path="url(#clip-8)">
<path fill-rule="nonzero" fill="rgb(13.729858%, 12.159729%, 12.548828%)" fill-opacity="1" d="M 170.800781 112.128906 C 170.890625 112.011719 170.890625 111.988281 170.890625 111.78125 L 168.480469 111.78125 C 167.265625 111.78125 167.246094 111.652344 167.207031 111.464844 L 166.957031 111.464844 L 166.628906 113.511719 L 166.878906 113.511719 C 166.90625 113.351562 166.996094 112.726562 167.128906 112.605469 C 167.195312 112.546875 167.972656 112.546875 168.101562 112.546875 L 170.15625 112.546875 C 170.046875 112.707031 169.261719 113.789062 169.042969 114.117188 C 168.152344 115.457031 167.820312 116.839844 167.820312 117.851562 C 167.820312 117.949219 167.820312 118.398438 168.277344 118.398438 C 168.738281 118.398438 168.738281 117.949219 168.738281 117.851562 L 168.738281 117.34375 C 168.738281 116.796875 168.765625 116.253906 168.847656 115.714844 C 168.886719 115.488281 169.023438 114.632812 169.460938 114.015625 L 170.800781 112.128906 "/>
</g>
<g clip-path="url(#clip-9)">
<path fill-rule="nonzero" fill="rgb(13.729858%, 12.159729%, 12.548828%)" fill-opacity="1" d="M 175.644531 115 C 175.644531 114.207031 175.59375 113.410156 175.246094 112.675781 C 174.789062 111.722656 173.972656 111.5625 173.558594 111.5625 C 172.960938 111.5625 172.238281 111.820312 171.828125 112.742188 C 171.511719 113.429688 171.460938 114.207031 171.460938 115 C 171.460938 115.742188 171.5 116.640625 171.90625 117.394531 C 172.335938 118.199219 173.0625 118.398438 173.546875 118.398438 C 174.082031 118.398438 174.839844 118.1875 175.277344 117.242188 C 175.59375 116.558594 175.644531 115.785156 175.644531 115 Z M 173.546875 118.179688 C 173.160156 118.179688 172.574219 117.929688 172.394531 116.976562 C 172.285156 116.378906 172.285156 115.464844 172.285156 114.878906 C 172.285156 114.242188 172.285156 113.589844 172.363281 113.050781 C 172.554688 111.871094 173.300781 111.78125 173.546875 111.78125 C 173.875 111.78125 174.53125 111.960938 174.71875 112.945312 C 174.820312 113.5 174.820312 114.253906 174.820312 114.878906 C 174.820312 115.625 174.820312 116.300781 174.710938 116.9375 C 174.5625 117.878906 173.992188 118.179688 173.546875 118.179688 "/>
</g>
<path fill-rule="nonzero" fill="rgb(13.729858%, 12.159729%, 12.548828%)" fill-opacity="1" d="M 26.167969 16.714844 L 34.855469 16.714844 C 35.0625 16.714844 35.230469 16.546875 35.230469 16.339844 C 35.230469 16.132812 35.0625 15.964844 34.855469 15.964844 L 26.167969 15.964844 C 25.960938 15.964844 25.792969 16.132812 25.792969 16.339844 C 25.792969 16.546875 25.960938 16.714844 26.167969 16.714844 "/>
<path fill-rule="nonzero" fill="rgb(13.729858%, 12.159729%, 12.548828%)" fill-opacity="1" d="M 168.597656 100.027344 L 168.597656 108.710938 C 168.597656 108.917969 168.765625 109.085938 168.972656 109.085938 C 169.179688 109.085938 169.347656 108.917969 169.347656 108.710938 L 169.347656 100.027344 C 169.347656 99.820312 169.179688 99.652344 168.972656 99.652344 C 168.765625 99.652344 168.597656 99.820312 168.597656 100.027344 "/>
<path fill-rule="nonzero" fill="rgb(0%, 67.83905%, 93.728638%)" fill-opacity="1" d="M 0.5 104.867188 L 31.0625 104.867188 C 31.339844 104.867188 31.5625 104.644531 31.5625 104.367188 C 31.5625 104.09375 31.339844 103.867188 31.0625 103.867188 L 0.5 103.867188 C 0.222656 103.867188 0 104.09375 0 104.367188 C 0 104.644531 0.222656 104.867188 0.5 104.867188 "/>
<path fill-rule="nonzero" fill="rgb(0%, 67.83905%, 93.728638%)" fill-opacity="1" d="M 168.972656 16.839844 L 182.53125 16.839844 C 182.808594 16.839844 183.03125 16.617188 183.03125 16.339844 C 183.03125 16.066406 182.808594 15.839844 182.53125 15.839844 L 168.972656 15.839844 C 168.699219 15.839844 168.472656 16.066406 168.472656 16.339844 C 168.472656 16.617188 168.699219 16.839844 168.972656 16.839844 "/>
<path fill-rule="nonzero" fill="rgb(0%, 67.83905%, 93.728638%)" fill-opacity="1" d="M 30.511719 104.867188 L 31.289062 104.867188 L 31.367188 104.863281 L 31.894531 104.863281 L 31.925781 104.859375 L 32.050781 104.859375 L 32.214844 104.855469 L 32.386719 104.855469 L 32.554688 104.851562 L 32.648438 104.851562 L 32.730469 104.847656 L 32.902344 104.84375 L 33.242188 104.835938 L 33.34375 104.835938 L 33.429688 104.832031 L 33.609375 104.828125 L 33.613281 104.828125 L 33.980469 104.8125 L 34.078125 104.8125 L 34.351562 104.800781 L 34.71875 104.789062 L 34.726562 104.789062 L 34.765625 104.785156 L 34.816406 104.785156 L 34.90625 104.78125 L 34.910156 104.78125 L 35.460938 104.757812 L 35.464844 104.757812 L 36.199219 104.722656 L 36.242188 104.71875 L 36.261719 104.71875 L 36.296875 104.714844 L 36.371094 104.714844 L 36.542969 104.707031 L 36.550781 104.703125 L 36.894531 104.683594 L 37.582031 104.640625 L 37.59375 104.640625 L 37.636719 104.636719 L 37.667969 104.636719 L 37.753906 104.628906 L 37.925781 104.617188 L 37.929688 104.617188 L 38.273438 104.59375 L 38.277344 104.59375 L 38.964844 104.542969 L 38.972656 104.542969 L 39 104.539062 L 39.023438 104.539062 L 39.058594 104.535156 L 39.140625 104.53125 L 39.304688 104.515625 L 39.640625 104.488281 L 39.644531 104.488281 L 40.320312 104.429688 L 40.335938 104.429688 L 40.371094 104.425781 L 40.402344 104.421875 L 40.484375 104.414062 L 40.496094 104.414062 L 40.660156 104.398438 L 40.996094 104.367188 L 41 104.367188 L 41.667969 104.300781 L 41.710938 104.296875 L 41.722656 104.292969 L 41.765625 104.289062 L 41.855469 104.28125 L 41.859375 104.28125 L 42.410156 104.222656 L 42.414062 104.222656 L 43.144531 104.140625 L 43.148438 104.140625 L 44.609375 103.960938 L 44.605469 103.960938 L 44.648438 103.957031 L 44.652344 103.957031 L 44.691406 103.953125 L 44.699219 103.949219 L 44.78125 103.941406 L 44.789062 103.9375 L 45.300781 103.871094 L 45.984375 103.777344 L 45.988281 103.773438 L 47.351562 103.574219 L 47.363281 103.570312 L 50.324219 103.078125 L 50.335938 103.074219 L 53.238281 102.507812 L 53.253906 102.507812 L 55.960938 101.90625 L 55.972656 101.90625 L 58.914062 101.183594 L 58.925781 101.179688 L 61.667969 100.433594 L 61.679688 100.429688 L 64.367188 99.628906 L 64.378906 99.625 L 67.296875 98.683594 L 67.308594 98.679688 L 70.03125 97.730469 L 70.042969 97.726562 L 72.992188 96.621094 L 73.003906 96.617188 L 75.902344 95.453125 L 75.914062 95.449219 L 78.613281 94.292969 L 78.625 94.289062 L 81.554688 92.957031 L 81.566406 92.953125 L 84.300781 91.644531 L 84.308594 91.640625 L 87.273438 90.140625 L 87.28125 90.136719 L 90.195312 88.585938 L 90.203125 88.582031 L 92.917969 87.066406 L 92.925781 87.058594 L 95.867188 85.339844 L 95.878906 85.335938 L 98.625 83.65625 L 98.632812 83.652344 L 101.328125 81.941406 L 101.335938 81.933594 L 104.257812 80.003906 L 104.265625 79.996094 L 106.992188 78.125 L 107 78.117188 L 109.957031 76.007812 L 109.964844 76.003906 L 112.863281 73.855469 L 112.871094 73.851562 L 115.578125 71.777344 L 115.585938 71.773438 L 118.519531 69.449219 L 118.527344 69.441406 L 121.265625 67.199219 L 121.273438 67.195312 L 123.957031 64.933594 L 123.964844 64.929688 L 126.878906 62.398438 L 126.886719 62.390625 L 129.605469 59.957031 L 129.609375 59.953125 L 132.558594 57.238281 L 132.5625 57.234375 L 135.316406 54.628906 L 135.320312 54.625 L 138.019531 52.003906 L 138.023438 51.996094 L 140.953125 49.078125 L 140.957031 49.074219 L 143.6875 46.277344 L 143.691406 46.273438 L 146.65625 43.164062 L 146.660156 43.160156 L 149.566406 40.027344 L 149.570312 40.023438 L 152.28125 37.035156 L 152.285156 37.03125 L 155.226562 33.714844 L 155.230469 33.710938 L 157.972656 30.539062 L 157.976562 30.535156 L 160.671875 27.359375 L 160.671875 27.355469 L 163.59375 23.839844 L 163.597656 23.835938 L 166.316406 20.484375 L 166.363281 20.429688 L 166.375 20.414062 L 166.417969 20.355469 L 167.082031 19.53125 L 167.085938 19.527344 L 167.84375 18.574219 L 167.84375 18.578125 L 167.9375 18.457031 L 168.035156 18.339844 L 168.035156 18.335938 L 168.605469 17.613281 L 168.609375 17.613281 L 168.652344 17.554688 L 168.699219 17.496094 L 168.984375 17.132812 L 168.988281 17.132812 L 169.03125 17.074219 L 169.078125 17.015625 L 169.085938 17.011719 L 169.179688 16.886719 L 169.179688 16.890625 L 169.222656 16.835938 L 169.265625 16.777344 L 169.277344 16.765625 L 169.316406 16.710938 L 169.363281 16.65625 C 169.535156 16.441406 169.503906 16.128906 169.289062 15.953125 C 169.074219 15.777344 168.761719 15.8125 168.585938 16.027344 L 168.535156 16.085938 L 168.527344 16.101562 L 168.488281 16.152344 L 168.445312 16.203125 L 168.4375 16.214844 L 168.390625 16.273438 L 168.386719 16.273438 L 168.296875 16.394531 L 168.25 16.453125 L 168.246094 16.457031 L 168.199219 16.515625 L 168.203125 16.515625 L 167.917969 16.875 L 167.917969 16.871094 L 167.871094 16.933594 L 167.867188 16.9375 L 167.820312 16.996094 L 167.820312 16.992188 L 167.253906 17.714844 L 167.160156 17.832031 L 167.160156 17.828125 L 167.0625 17.949219 L 167.0625 17.953125 L 166.300781 18.90625 L 166.304688 18.90625 L 165.636719 19.734375 L 165.632812 19.738281 L 165.59375 19.792969 L 165.550781 19.84375 L 165.542969 19.851562 L 162.820312 23.203125 L 159.90625 26.714844 L 157.214844 29.886719 L 154.472656 33.054688 L 151.539062 36.363281 L 148.832031 39.351562 L 145.929688 42.476562 L 142.972656 45.578125 L 140.242188 48.371094 L 137.320312 51.289062 L 134.625 53.90625 L 131.878906 56.507812 L 128.933594 59.214844 L 126.222656 61.644531 L 123.3125 64.171875 L 120.628906 66.429688 L 117.894531 68.667969 L 114.96875 70.984375 L 112.265625 73.054688 L 109.371094 75.199219 L 106.421875 77.300781 L 103.703125 79.171875 L 100.785156 81.097656 L 98.097656 82.804688 L 95.359375 84.476562 L 92.425781 86.195312 L 89.71875 87.707031 L 86.816406 89.25 L 83.863281 90.742188 L 81.136719 92.050781 L 78.21875 93.375 L 75.523438 94.527344 L 72.636719 95.683594 L 69.699219 96.789062 L 66.984375 97.734375 L 64.078125 98.671875 L 61.402344 99.46875 L 58.667969 100.214844 L 55.742188 100.933594 L 53.042969 101.527344 L 50.152344 102.089844 L 47.203125 102.585938 L 45.84375 102.785156 L 45.847656 102.785156 L 45.164062 102.878906 L 44.652344 102.949219 L 44.65625 102.945312 L 44.574219 102.957031 L 44.578125 102.957031 L 44.535156 102.964844 L 44.535156 102.960938 L 44.492188 102.96875 L 44.488281 102.96875 L 43.027344 103.144531 L 43.03125 103.144531 L 42.300781 103.230469 L 42.304688 103.230469 L 41.9375 103.269531 L 41.667969 103.292969 L 41.664062 103.296875 L 41.621094 103.300781 L 41.582031 103.304688 L 41.574219 103.304688 L 40.902344 103.371094 L 40.90625 103.371094 L 40.566406 103.402344 L 40.5625 103.402344 L 40.402344 103.417969 L 40.320312 103.425781 L 40.3125 103.425781 L 40.273438 103.429688 L 40.261719 103.429688 L 40.226562 103.433594 L 39.558594 103.492188 L 39.5625 103.492188 L 39.226562 103.519531 L 39.222656 103.519531 L 39.054688 103.53125 L 39.050781 103.535156 L 38.984375 103.539062 L 38.957031 103.539062 L 38.925781 103.542969 L 38.886719 103.546875 L 38.203125 103.597656 L 37.859375 103.621094 L 37.863281 103.621094 L 37.691406 103.632812 L 37.695312 103.632812 L 37.609375 103.636719 L 37.601562 103.636719 L 37.558594 103.640625 L 37.550781 103.640625 L 37.515625 103.644531 L 36.835938 103.683594 L 36.832031 103.683594 L 36.492188 103.707031 L 36.324219 103.714844 L 36.328125 103.714844 L 36.238281 103.71875 L 36.21875 103.71875 L 36.183594 103.722656 L 36.152344 103.722656 L 35.414062 103.757812 L 35.417969 103.757812 L 35.050781 103.773438 L 35.046875 103.773438 L 34.863281 103.78125 L 34.867188 103.78125 L 34.777344 103.785156 L 34.738281 103.785156 L 34.726562 103.789062 L 34.679688 103.789062 L 34.6875 103.789062 L 34.316406 103.800781 L 34.046875 103.8125 L 33.992188 103.8125 L 33.945312 103.816406 L 33.585938 103.828125 L 33.402344 103.832031 L 33.390625 103.832031 L 33.308594 103.835938 L 33.21875 103.835938 L 32.878906 103.84375 L 32.707031 103.847656 L 32.628906 103.851562 L 32.535156 103.851562 L 32.375 103.855469 L 32.195312 103.855469 L 32.035156 103.859375 L 31.890625 103.859375 L 31.855469 103.863281 L 31.359375 103.863281 L 31.347656 103.867188 L 30.511719 103.867188 C 30.234375 103.867188 30.011719 104.09375 30.011719 104.367188 C 30.011719 104.644531 30.234375 104.867188 30.511719 104.867188 "/>
<g clip-path="url(#clip-10)">
<path fill-rule="nonzero" fill="rgb(13.729858%, 12.159729%, 12.548828%)" fill-opacity="1" d="M 32.550781 115 C 32.550781 114.207031 32.5 113.410156 32.152344 112.675781 C 31.695312 111.722656 30.882812 111.5625 30.464844 111.5625 C 29.867188 111.5625 29.144531 111.820312 28.734375 112.742188 C 28.417969 113.429688 28.367188 114.207031 28.367188 115 C 28.367188 115.742188 28.40625 116.640625 28.816406 117.394531 C 29.242188 118.199219 29.96875 118.398438 30.453125 118.398438 C 30.988281 118.398438 31.746094 118.1875 32.183594 117.242188 C 32.5 116.558594 32.550781 115.785156 32.550781 115 Z M 30.453125 118.179688 C 30.066406 118.179688 29.480469 117.929688 29.300781 116.976562 C 29.195312 116.378906 29.195312 115.464844 29.195312 114.878906 C 29.195312 114.242188 29.195312 113.589844 29.273438 113.050781 C 29.460938 111.871094 30.207031 111.78125 30.453125 111.78125 C 30.78125 111.78125 31.4375 111.960938 31.625 112.945312 C 31.726562 113.5 31.726562 114.253906 31.726562 114.878906 C 31.726562 115.625 31.726562 116.300781 31.617188 116.9375 C 31.46875 117.878906 30.902344 118.179688 30.453125 118.179688 "/>
</g>
<path fill-rule="nonzero" fill="rgb(13.729858%, 12.159729%, 12.548828%)" fill-opacity="1" d="M 52.042969 125.089844 C 52.179688 124.722656 52.449219 124.433594 53.125 124.421875 L 53.125 124.113281 C 52.816406 124.132812 52.421875 124.144531 52.160156 124.144531 C 51.863281 124.144531 51.289062 124.125 51.03125 124.113281 L 51.03125 124.421875 C 51.546875 124.433594 51.753906 124.691406 51.753906 124.917969 L 51.703125 125.117188 L 49.886719 129.90625 L 47.988281 124.890625 C 47.929688 124.75 47.929688 124.730469 47.929688 124.710938 C 47.929688 124.421875 48.496094 124.421875 48.742188 124.421875 L 48.742188 124.113281 C 48.386719 124.144531 47.703125 124.144531 47.324219 124.144531 C 46.847656 124.144531 46.421875 124.125 46.0625 124.113281 L 46.0625 124.421875 C 46.707031 124.421875 46.898438 124.421875 47.035156 124.800781 L 49.339844 130.898438 C 49.410156 131.089844 49.460938 131.117188 49.589844 131.117188 C 49.757812 131.117188 49.777344 131.070312 49.828125 130.929688 L 52.042969 125.089844 "/>
<path fill-rule="nonzero" fill="rgb(13.729858%, 12.159729%, 12.548828%)" fill-opacity="1" d="M 53.585938 128.398438 C 53.644531 126.917969 54.480469 126.667969 54.816406 126.667969 C 55.839844 126.667969 55.941406 128.007812 55.941406 128.398438 Z M 53.578125 128.605469 L 56.347656 128.605469 C 56.566406 128.605469 56.59375 128.605469 56.59375 128.398438 C 56.59375 127.414062 56.058594 126.449219 54.816406 126.449219 C 53.664062 126.449219 52.75 127.472656 52.75 128.714844 C 52.75 130.042969 53.796875 131.007812 54.9375 131.007812 C 56.148438 131.007812 56.59375 129.90625 56.59375 129.71875 C 56.59375 129.617188 56.515625 129.597656 56.46875 129.597656 L 56.335938 129.738281 C 55.992188 130.761719 55.09375 130.761719 54.996094 130.761719 C 54.5 130.761719 54.101562 130.460938 53.875 130.09375 C 53.578125 129.617188 53.578125 128.960938 53.578125 128.605469 "/>
<path fill-rule="nonzero" fill="rgb(13.729858%, 12.159729%, 12.548828%)" fill-opacity="1" d="M 58.53125 127.601562 L 58.53125 126.507812 L 57.152344 126.617188 L 57.152344 126.925781 C 57.847656 126.925781 57.925781 126.996094 57.925781 127.484375 L 57.925781 130.144531 C 57.925781 130.59375 57.816406 130.59375 57.152344 130.59375 L 57.152344 130.898438 C 57.539062 130.890625 58.007812 130.871094 58.285156 130.871094 C 58.679688 130.871094 59.148438 130.871094 59.546875 130.898438 L 59.546875 130.59375 L 59.335938 130.59375 C 58.601562 130.59375 58.582031 130.484375 58.582031 130.125 L 58.582031 128.59375 C 58.582031 127.613281 59 126.726562 59.753906 126.726562 L 59.863281 126.738281 C 59.835938 126.75 59.632812 126.867188 59.632812 127.125 C 59.632812 127.402344 59.84375 127.550781 60.0625 127.550781 C 60.242188 127.550781 60.488281 127.433594 60.488281 127.113281 C 60.488281 126.796875 60.179688 126.507812 59.753906 126.507812 C 59.03125 126.507812 58.671875 127.175781 58.53125 127.601562 "/>
<path fill-rule="nonzero" fill="rgb(13.729858%, 12.159729%, 12.548828%)" fill-opacity="1" d="M 62.492188 126.925781 L 63.914062 126.925781 L 63.914062 126.617188 L 62.492188 126.617188 L 62.492188 124.789062 L 62.242188 124.789062 C 62.234375 125.605469 61.9375 126.667969 60.960938 126.707031 L 60.960938 126.925781 L 61.804688 126.925781 L 61.804688 129.667969 C 61.804688 130.890625 62.730469 131.007812 63.085938 131.007812 C 63.792969 131.007812 64.070312 130.304688 64.070312 129.667969 L 64.070312 129.101562 L 63.824219 129.101562 L 63.824219 129.648438 C 63.824219 130.382812 63.523438 130.761719 63.15625 130.761719 C 62.492188 130.761719 62.492188 129.855469 62.492188 129.6875 L 62.492188 126.925781 "/>
<path fill-rule="nonzero" fill="rgb(13.729858%, 12.159729%, 12.548828%)" fill-opacity="1" d="M 65.785156 128.398438 C 65.84375 126.917969 66.679688 126.667969 67.015625 126.667969 C 68.039062 126.667969 68.140625 128.007812 68.140625 128.398438 Z M 65.777344 128.605469 L 68.546875 128.605469 C 68.765625 128.605469 68.796875 128.605469 68.796875 128.398438 C 68.796875 127.414062 68.257812 126.449219 67.015625 126.449219 C 65.867188 126.449219 64.953125 127.472656 64.953125 128.714844 C 64.953125 130.042969 65.996094 131.007812 67.136719 131.007812 C 68.347656 131.007812 68.796875 129.90625 68.796875 129.71875 C 68.796875 129.617188 68.71875 129.597656 68.667969 129.597656 L 68.539062 129.738281 C 68.191406 130.761719 67.296875 130.761719 67.195312 130.761719 C 66.699219 130.761719 66.304688 130.460938 66.074219 130.09375 C 65.777344 129.617188 65.777344 128.960938 65.777344 128.605469 "/>
<path fill-rule="nonzero" fill="rgb(13.729858%, 12.159729%, 12.548828%)" fill-opacity="1" d="M 70.832031 126.507812 L 69.441406 126.617188 L 69.441406 126.925781 C 70.085938 126.925781 70.175781 126.984375 70.175781 127.472656 L 70.175781 130.144531 C 70.175781 130.59375 70.066406 130.59375 69.402344 130.59375 L 69.402344 130.898438 C 69.71875 130.890625 70.257812 130.871094 70.492188 130.871094 C 70.84375 130.871094 71.1875 130.890625 71.527344 130.898438 L 71.527344 130.59375 C 70.871094 130.59375 70.832031 130.542969 70.832031 130.152344 Z M 70.871094 124.78125 C 70.871094 124.460938 70.625 124.253906 70.34375 124.253906 C 70.039062 124.253906 69.820312 124.523438 69.820312 124.78125 C 69.820312 125.046875 70.039062 125.308594 70.34375 125.308594 C 70.625 125.308594 70.871094 125.097656 70.871094 124.78125 "/>
<path fill-rule="nonzero" fill="rgb(13.729858%, 12.159729%, 12.548828%)" fill-opacity="1" d="M 73.632812 124.007812 L 72.203125 124.113281 L 72.203125 124.421875 C 72.898438 124.421875 72.976562 124.492188 72.976562 124.980469 L 72.976562 130.144531 C 72.976562 130.59375 72.867188 130.59375 72.203125 130.59375 L 72.203125 130.898438 C 72.53125 130.890625 73.054688 130.871094 73.304688 130.871094 C 73.550781 130.871094 74.039062 130.890625 74.40625 130.898438 L 74.40625 130.59375 C 73.742188 130.59375 73.632812 130.59375 73.632812 130.144531 L 73.632812 124.007812 "/>
<path fill-rule="nonzero" fill="rgb(13.729858%, 12.159729%, 12.548828%)" fill-opacity="1" d="M 78.558594 130.113281 L 78.558594 131.007812 L 79.988281 130.898438 L 79.988281 130.59375 C 79.292969 130.59375 79.210938 130.523438 79.210938 130.035156 L 79.210938 126.507812 L 77.753906 126.617188 L 77.753906 126.925781 C 78.449219 126.925781 78.527344 126.996094 78.527344 127.484375 L 78.527344 129.25 C 78.527344 130.113281 78.050781 130.789062 77.324219 130.789062 C 76.492188 130.789062 76.453125 130.324219 76.453125 129.808594 L 76.453125 126.507812 L 74.992188 126.617188 L 74.992188 126.925781 C 75.765625 126.925781 75.765625 126.957031 75.765625 127.839844 L 75.765625 129.332031 C 75.765625 130.105469 75.765625 131.007812 77.277344 131.007812 C 77.832031 131.007812 78.269531 130.730469 78.558594 130.113281 "/>
<path fill-rule="nonzero" fill="rgb(13.729858%, 12.159729%, 12.548828%)" fill-opacity="1" d="M 81.265625 127.484375 L 81.265625 130.144531 C 81.265625 130.59375 81.15625 130.59375 80.492188 130.59375 L 80.492188 130.898438 C 80.839844 130.890625 81.34375 130.871094 81.613281 130.871094 C 81.871094 130.871094 82.390625 130.890625 82.726562 130.898438 L 82.726562 130.59375 C 82.0625 130.59375 81.953125 130.59375 81.953125 130.144531 L 81.953125 128.316406 C 81.953125 127.285156 82.65625 126.726562 83.292969 126.726562 C 83.917969 126.726562 84.027344 127.265625 84.027344 127.832031 L 84.027344 130.144531 C 84.027344 130.59375 83.917969 130.59375 83.253906 130.59375 L 83.253906 130.898438 C 83.601562 130.890625 84.109375 130.871094 84.375 130.871094 C 84.632812 130.871094 85.148438 130.890625 85.488281 130.898438 L 85.488281 130.59375 C 84.972656 130.59375 84.722656 130.59375 84.710938 130.292969 L 84.710938 128.398438 C 84.710938 127.542969 84.710938 127.234375 84.40625 126.875 C 84.265625 126.707031 83.9375 126.507812 83.363281 126.507812 C 82.636719 126.507812 82.171875 126.9375 81.890625 127.550781 L 81.890625 126.507812 L 80.492188 126.617188 L 80.492188 126.925781 C 81.1875 126.925781 81.265625 126.996094 81.265625 127.484375 "/>
<path fill-rule="nonzero" fill="rgb(13.729858%, 12.159729%, 12.548828%)" fill-opacity="1" d="M 87.878906 129.191406 C 87.015625 129.191406 87.015625 128.199219 87.015625 127.96875 C 87.015625 127.699219 87.023438 127.382812 87.171875 127.132812 C 87.253906 127.015625 87.480469 126.738281 87.878906 126.738281 C 88.742188 126.738281 88.742188 127.730469 88.742188 127.957031 C 88.742188 128.226562 88.734375 128.542969 88.585938 128.792969 C 88.503906 128.914062 88.277344 129.191406 87.878906 129.191406 Z M 86.726562 129.578125 C 86.726562 129.539062 86.726562 129.3125 86.894531 129.113281 C 87.28125 129.390625 87.691406 129.417969 87.878906 129.417969 C 88.804688 129.417969 89.488281 128.734375 89.488281 127.96875 C 89.488281 127.601562 89.328125 127.234375 89.082031 127.007812 C 89.4375 126.667969 89.796875 126.617188 89.976562 126.617188 L 90.074219 126.628906 C 89.964844 126.667969 89.914062 126.777344 89.914062 126.898438 C 89.914062 127.066406 90.042969 127.183594 90.203125 127.183594 C 90.304688 127.183594 90.492188 127.113281 90.492188 126.886719 C 90.492188 126.71875 90.371094 126.398438 89.984375 126.398438 C 89.785156 126.398438 89.347656 126.457031 88.929688 126.867188 C 88.515625 126.539062 88.097656 126.507812 87.878906 126.507812 C 86.953125 126.507812 86.269531 127.195312 86.269531 127.957031 C 86.269531 128.398438 86.488281 128.773438 86.734375 128.984375 C 86.609375 129.132812 86.429688 129.457031 86.429688 129.808594 C 86.429688 130.113281 86.558594 130.492188 86.867188 130.691406 C 86.269531 130.859375 85.953125 131.289062 85.953125 131.683594 C 85.953125 132.398438 86.933594 132.945312 88.148438 132.945312 C 89.320312 132.945312 90.351562 132.4375 90.351562 131.664062 C 90.351562 131.316406 90.210938 130.8125 89.707031 130.53125 C 89.179688 130.253906 88.601562 130.253906 88 130.253906 C 87.75 130.253906 87.320312 130.253906 87.253906 130.242188 C 86.933594 130.203125 86.726562 129.898438 86.726562 129.578125 Z M 88.15625 132.71875 C 87.152344 132.71875 86.46875 132.210938 86.46875 131.683594 C 86.46875 131.226562 86.84375 130.859375 87.28125 130.828125 L 87.867188 130.828125 C 88.722656 130.828125 89.835938 130.828125 89.835938 131.683594 C 89.835938 132.222656 89.128906 132.71875 88.15625 132.71875 "/>
<path fill-rule="nonzero" fill="rgb(13.729858%, 12.159729%, 12.548828%)" fill-opacity="1" d="M 92.738281 128.972656 C 92.957031 129.011719 93.773438 129.171875 93.773438 129.886719 C 93.773438 130.394531 93.425781 130.789062 92.648438 130.789062 C 91.816406 130.789062 91.457031 130.226562 91.269531 129.378906 C 91.238281 129.25 91.230469 129.210938 91.128906 129.210938 C 91 129.210938 91 129.28125 91 129.457031 L 91 130.769531 C 91 130.9375 91 131.007812 91.109375 131.007812 C 91.160156 131.007812 91.171875 131 91.359375 130.8125 C 91.378906 130.789062 91.378906 130.769531 91.558594 130.582031 C 91.996094 131 92.441406 131.007812 92.648438 131.007812 C 93.792969 131.007812 94.25 130.34375 94.25 129.628906 C 94.25 129.101562 93.953125 128.804688 93.832031 128.683594 C 93.503906 128.367188 93.117188 128.289062 92.699219 128.207031 C 92.144531 128.097656 91.476562 127.96875 91.476562 127.394531 C 91.476562 127.042969 91.734375 126.640625 92.589844 126.640625 C 93.683594 126.640625 93.734375 127.53125 93.753906 127.839844 L 93.871094 127.929688 C 94 127.929688 94 127.878906 94 127.691406 L 94 126.6875 C 94 126.519531 94 126.449219 93.890625 126.449219 C 93.84375 126.449219 93.820312 126.449219 93.695312 126.570312 L 93.523438 126.726562 C 93.148438 126.449219 92.738281 126.449219 92.589844 126.449219 C 91.378906 126.449219 91 127.113281 91 127.671875 C 91 128.019531 91.160156 128.296875 91.429688 128.515625 C 91.746094 128.773438 92.023438 128.832031 92.738281 128.972656 "/>
<path fill-rule="nonzero" fill="rgb(13.729858%, 12.159729%, 12.548828%)" fill-opacity="1" d="M 96.3125 126.617188 L 96.3125 125.464844 C 96.3125 124.59375 96.789062 124.113281 97.226562 124.113281 C 97.257812 124.113281 97.40625 124.113281 97.554688 124.183594 C 97.433594 124.226562 97.257812 124.351562 97.257812 124.601562 C 97.257812 124.832031 97.414062 125.027344 97.683594 125.027344 C 97.96875 125.027344 98.121094 124.832031 98.121094 124.59375 C 98.121094 124.226562 97.75 123.898438 97.226562 123.898438 C 96.53125 123.898438 95.6875 124.421875 95.6875 125.476562 L 95.6875 126.617188 L 94.902344 126.617188 L 94.902344 126.925781 L 95.6875 126.925781 L 95.6875 130.144531 C 95.6875 130.59375 95.578125 130.59375 94.910156 130.59375 L 94.910156 130.898438 C 95.296875 130.890625 95.765625 130.871094 96.042969 130.871094 C 96.441406 130.871094 96.90625 130.871094 97.304688 130.898438 L 97.304688 130.59375 L 97.097656 130.59375 C 96.359375 130.59375 96.34375 130.484375 96.34375 130.125 L 96.34375 126.925781 L 97.472656 126.925781 L 97.472656 126.617188 L 96.3125 126.617188 "/>
<path fill-rule="nonzero" fill="rgb(13.729858%, 12.159729%, 12.548828%)" fill-opacity="1" d="M 101.558594 130.113281 L 101.558594 131.007812 L 102.988281 130.898438 L 102.988281 130.59375 C 102.292969 130.59375 102.214844 130.523438 102.214844 130.035156 L 102.214844 126.507812 L 100.753906 126.617188 L 100.753906 126.925781 C 101.449219 126.925781 101.527344 126.996094 101.527344 127.484375 L 101.527344 129.25 C 101.527344 130.113281 101.050781 130.789062 100.324219 130.789062 C 99.492188 130.789062 99.453125 130.324219 99.453125 129.808594 L 99.453125 126.507812 L 97.992188 126.617188 L 97.992188 126.925781 C 98.765625 126.925781 98.765625 126.957031 98.765625 127.839844 L 98.765625 129.332031 C 98.765625 130.105469 98.765625 131.007812 100.277344 131.007812 C 100.832031 131.007812 101.269531 130.730469 101.558594 130.113281 "/>
<path fill-rule="nonzero" fill="rgb(13.729858%, 12.159729%, 12.548828%)" fill-opacity="1" d="M 104.265625 127.484375 L 104.265625 130.144531 C 104.265625 130.59375 104.15625 130.59375 103.492188 130.59375 L 103.492188 130.898438 C 103.839844 130.890625 104.34375 130.871094 104.613281 130.871094 C 104.871094 130.871094 105.390625 130.890625 105.726562 130.898438 L 105.726562 130.59375 C 105.0625 130.59375 104.953125 130.59375 104.953125 130.144531 L 104.953125 128.316406 C 104.953125 127.285156 105.65625 126.726562 106.292969 126.726562 C 106.917969 126.726562 107.027344 127.265625 107.027344 127.832031 L 107.027344 130.144531 C 107.027344 130.59375 106.917969 130.59375 106.253906 130.59375 L 106.253906 130.898438 C 106.601562 130.890625 107.109375 130.871094 107.375 130.871094 C 107.636719 130.871094 108.152344 130.890625 108.488281 130.898438 L 108.488281 130.59375 C 107.972656 130.59375 107.722656 130.59375 107.714844 130.292969 L 107.714844 128.398438 C 107.714844 127.542969 107.714844 127.234375 107.40625 126.875 C 107.265625 126.707031 106.941406 126.507812 106.363281 126.507812 C 105.636719 126.507812 105.171875 126.9375 104.890625 127.550781 L 104.890625 126.507812 L 103.492188 126.617188 L 103.492188 126.925781 C 104.1875 126.925781 104.265625 126.996094 104.265625 127.484375 "/>
<path fill-rule="nonzero" fill="rgb(13.729858%, 12.159729%, 12.548828%)" fill-opacity="1" d="M 109.824219 130.144531 C 109.824219 130.59375 109.71875 130.59375 109.050781 130.59375 L 109.050781 130.898438 C 109.378906 130.890625 109.847656 130.871094 110.136719 130.871094 C 110.433594 130.871094 110.828125 130.878906 111.226562 130.898438 L 111.226562 130.59375 C 110.5625 130.59375 110.449219 130.59375 110.449219 130.144531 L 110.449219 129.121094 L 111.089844 128.574219 C 111.855469 129.628906 112.269531 130.183594 112.269531 130.363281 C 112.269531 130.550781 112.101562 130.59375 111.910156 130.59375 L 111.910156 130.898438 C 112.191406 130.890625 112.777344 130.871094 112.988281 130.871094 C 113.273438 130.871094 113.5625 130.878906 113.851562 130.898438 L 113.851562 130.59375 C 113.480469 130.59375 113.265625 130.59375 112.886719 130.066406 L 111.625 128.289062 L 111.566406 128.179688 C 111.566406 128.140625 112.269531 127.542969 112.367188 127.460938 C 112.996094 126.957031 113.410156 126.9375 113.621094 126.925781 L 113.621094 126.617188 C 113.332031 126.648438 113.203125 126.648438 112.925781 126.648438 C 112.570312 126.648438 111.949219 126.628906 111.8125 126.617188 L 111.8125 126.925781 C 112.003906 126.9375 112.101562 127.042969 112.101562 127.175781 C 112.101562 127.375 111.964844 127.492188 111.882812 127.5625 L 110.484375 128.773438 L 110.484375 124.007812 L 109.050781 124.113281 L 109.050781 124.421875 C 109.746094 124.421875 109.824219 124.492188 109.824219 124.980469 L 109.824219 130.144531 "/>
<path fill-rule="nonzero" fill="rgb(13.729858%, 12.159729%, 12.548828%)" fill-opacity="1" d="M 115.691406 126.925781 L 117.113281 126.925781 L 117.113281 126.617188 L 115.691406 126.617188 L 115.691406 124.789062 L 115.445312 124.789062 C 115.433594 125.605469 115.136719 126.667969 114.160156 126.707031 L 114.160156 126.925781 L 115.007812 126.925781 L 115.007812 129.667969 C 115.007812 130.890625 115.929688 131.007812 116.285156 131.007812 C 116.992188 131.007812 117.273438 130.304688 117.273438 129.667969 L 117.273438 129.101562 L 117.023438 129.101562 L 117.023438 129.648438 C 117.023438 130.382812 116.726562 130.761719 116.359375 130.761719 C 115.691406 130.761719 115.691406 129.855469 115.691406 129.6875 L 115.691406 126.925781 "/>
<path fill-rule="nonzero" fill="rgb(13.729858%, 12.159729%, 12.548828%)" fill-opacity="1" d="M 119.632812 126.507812 L 118.238281 126.617188 L 118.238281 126.925781 C 118.886719 126.925781 118.976562 126.984375 118.976562 127.472656 L 118.976562 130.144531 C 118.976562 130.59375 118.867188 130.59375 118.199219 130.59375 L 118.199219 130.898438 C 118.519531 130.890625 119.058594 130.871094 119.292969 130.871094 C 119.644531 130.871094 119.988281 130.890625 120.324219 130.898438 L 120.324219 130.59375 C 119.671875 130.59375 119.632812 130.542969 119.632812 130.152344 Z M 119.671875 124.78125 C 119.671875 124.460938 119.425781 124.253906 119.144531 124.253906 C 118.839844 124.253906 118.617188 124.523438 118.617188 124.78125 C 118.617188 125.046875 118.839844 125.308594 119.144531 125.308594 C 119.425781 125.308594 119.671875 125.097656 119.671875 124.78125 "/>
<path fill-rule="nonzero" fill="rgb(13.729858%, 12.159729%, 12.548828%)" fill-opacity="1" d="M 125.351562 128.773438 C 125.351562 127.503906 124.359375 126.449219 123.15625 126.449219 C 121.914062 126.449219 120.949219 127.53125 120.949219 128.773438 C 120.949219 130.054688 121.984375 131.007812 123.148438 131.007812 C 124.347656 131.007812 125.351562 130.035156 125.351562 128.773438 Z M 123.15625 130.761719 C 122.730469 130.761719 122.292969 130.550781 122.027344 130.09375 C 121.777344 129.65625 121.777344 129.050781 121.777344 128.695312 C 121.777344 128.308594 121.777344 127.769531 122.015625 127.332031 C 122.28125 126.875 122.75 126.667969 123.148438 126.667969 C 123.585938 126.667969 124.011719 126.886719 124.269531 127.3125 C 124.527344 127.738281 124.527344 128.316406 124.527344 128.695312 C 124.527344 129.050781 124.527344 129.589844 124.308594 130.027344 C 124.089844 130.472656 123.652344 130.761719 123.15625 130.761719 "/>
<path fill-rule="nonzero" fill="rgb(13.729858%, 12.159729%, 12.548828%)" fill-opacity="1" d="M 126.664062 127.484375 L 126.664062 130.144531 C 126.664062 130.59375 126.558594 130.59375 125.890625 130.59375 L 125.890625 130.898438 C 126.238281 130.890625 126.746094 130.871094 127.015625 130.871094 C 127.273438 130.871094 127.789062 130.890625 128.128906 130.898438 L 128.128906 130.59375 C 127.460938 130.59375 127.351562 130.59375 127.351562 130.144531 L 127.351562 128.316406 C 127.351562 127.285156 128.058594 126.726562 128.691406 126.726562 C 129.320312 126.726562 129.429688 127.265625 129.429688 127.832031 L 129.429688 130.144531 C 129.429688 130.59375 129.320312 130.59375 128.652344 130.59375 L 128.652344 130.898438 C 129 130.890625 129.507812 130.871094 129.777344 130.871094 C 130.035156 130.871094 130.550781 130.890625 130.886719 130.898438 L 130.886719 130.59375 C 130.371094 130.59375 130.121094 130.59375 130.113281 130.292969 L 130.113281 128.398438 C 130.113281 127.542969 130.113281 127.234375 129.804688 126.875 C 129.664062 126.707031 129.339844 126.507812 128.761719 126.507812 C 128.035156 126.507812 127.570312 126.9375 127.292969 127.550781 L 127.292969 126.507812 L 125.890625 126.617188 L 125.890625 126.925781 C 126.585938 126.925781 126.664062 126.996094 126.664062 127.484375 "/>
<path fill-rule="nonzero" fill="rgb(13.729858%, 12.159729%, 12.548828%)" fill-opacity="1" d="M 138.605469 127.59375 C 138.695312 127.363281 138.863281 126.9375 139.519531 126.925781 L 139.519531 126.617188 C 139.289062 126.640625 139.003906 126.648438 138.777344 126.648438 C 138.535156 126.648438 138.078125 126.628906 137.910156 126.617188 L 137.910156 126.925781 C 138.277344 126.9375 138.386719 127.164062 138.386719 127.351562 C 138.386719 127.445312 138.367188 127.484375 138.328125 127.59375 L 137.316406 130.125 L 136.199219 127.351562 C 136.144531 127.226562 136.144531 127.203125 136.144531 127.183594 C 136.144531 126.925781 136.53125 126.925781 136.707031 126.925781 L 136.707031 126.617188 C 136.410156 126.628906 135.855469 126.648438 135.625 126.648438 C 135.359375 126.648438 134.960938 126.640625 134.660156 126.617188 L 134.660156 126.925781 C 135.285156 126.925781 135.328125 126.984375 135.457031 127.292969 L 136.886719 130.820312 C 136.945312 130.957031 136.96875 131.007812 137.097656 131.007812 C 137.226562 131.007812 137.265625 130.917969 137.304688 130.820312 L 138.605469 127.59375 "/>
<path fill-rule="nonzero" fill="rgb(13.729858%, 12.159729%, 12.548828%)" fill-opacity="1" d="M 144.152344 128.773438 C 144.152344 127.503906 143.160156 126.449219 141.957031 126.449219 C 140.714844 126.449219 139.753906 127.53125 139.753906 128.773438 C 139.753906 130.054688 140.785156 131.007812 141.945312 131.007812 C 143.148438 131.007812 144.152344 130.035156 144.152344 128.773438 Z M 141.957031 130.761719 C 141.53125 130.761719 141.09375 130.550781 140.824219 130.09375 C 140.574219 129.65625 140.574219 129.050781 140.574219 128.695312 C 140.574219 128.308594 140.574219 127.769531 140.816406 127.332031 C 141.082031 126.875 141.550781 126.667969 141.945312 126.667969 C 142.386719 126.667969 142.8125 126.886719 143.070312 127.3125 C 143.328125 127.738281 143.328125 128.316406 143.328125 128.695312 C 143.328125 129.050781 143.328125 129.589844 143.109375 130.027344 C 142.890625 130.472656 142.453125 130.761719 141.957031 130.761719 "/>
<path fill-rule="nonzero" fill="rgb(13.729858%, 12.159729%, 12.548828%)" fill-opacity="1" d="M 145.566406 127.484375 L 145.566406 130.144531 C 145.566406 130.59375 145.457031 130.59375 144.789062 130.59375 L 144.789062 130.898438 C 145.140625 130.890625 145.644531 130.871094 145.914062 130.871094 C 146.171875 130.871094 146.691406 130.890625 147.027344 130.898438 L 147.027344 130.59375 C 146.363281 130.59375 146.253906 130.59375 146.253906 130.144531 L 146.253906 128.316406 C 146.253906 127.285156 146.957031 126.726562 147.59375 126.726562 C 148.21875 126.726562 148.328125 127.265625 148.328125 127.832031 L 148.328125 130.144531 C 148.328125 130.59375 148.21875 130.59375 147.554688 130.59375 L 147.554688 130.898438 C 147.902344 130.890625 148.40625 130.871094 148.675781 130.871094 C 148.933594 130.871094 149.449219 130.890625 149.785156 130.898438 L 149.785156 130.59375 C 149.273438 130.59375 149.023438 130.59375 149.011719 130.292969 L 149.011719 128.398438 C 149.011719 127.542969 149.011719 127.234375 148.703125 126.875 C 148.566406 126.707031 148.238281 126.507812 147.660156 126.507812 C 146.9375 126.507812 146.472656 126.9375 146.191406 127.550781 L 146.191406 126.507812 L 144.789062 126.617188 L 144.789062 126.925781 C 145.488281 126.925781 145.566406 126.996094 145.566406 127.484375 "/>
<path fill-rule="nonzero" fill="rgb(13.729858%, 12.159729%, 12.548828%)" fill-opacity="1" d="M 158.089844 126.816406 L 157.257812 124.839844 L 157.207031 124.710938 C 157.207031 124.652344 157.378906 124.460938 157.792969 124.421875 C 157.894531 124.414062 157.992188 124.402344 157.992188 124.234375 C 157.992188 124.113281 157.871094 124.113281 157.84375 124.113281 C 157.4375 124.113281 157.007812 124.144531 156.589844 124.144531 C 156.34375 124.144531 155.726562 124.113281 155.480469 124.113281 C 155.417969 124.113281 155.300781 124.113281 155.300781 124.3125 C 155.300781 124.421875 155.402344 124.421875 155.527344 124.421875 C 156.125 124.421875 156.183594 124.523438 156.273438 124.738281 L 157.445312 127.511719 L 155.351562 129.765625 L 155.222656 129.875 C 154.734375 130.402344 154.269531 130.5625 153.761719 130.59375 C 153.632812 130.601562 153.542969 130.601562 153.542969 130.789062 C 153.542969 130.800781 153.542969 130.898438 153.671875 130.898438 C 153.96875 130.898438 154.296875 130.871094 154.605469 130.871094 C 154.972656 130.871094 155.359375 130.898438 155.71875 130.898438 C 155.777344 130.898438 155.894531 130.898438 155.894531 130.699219 C 155.894531 130.601562 155.796875 130.59375 155.777344 130.59375 C 155.6875 130.582031 155.378906 130.5625 155.378906 130.285156 C 155.378906 130.125 155.527344 129.964844 155.648438 129.835938 L 156.660156 128.765625 L 157.554688 127.789062 L 158.558594 130.164062 C 158.597656 130.273438 158.609375 130.285156 158.609375 130.304688 C 158.609375 130.382812 158.417969 130.550781 158.03125 130.59375 C 157.921875 130.601562 157.832031 130.613281 157.832031 130.78125 C 157.832031 130.898438 157.941406 130.898438 157.980469 130.898438 C 158.261719 130.898438 158.957031 130.871094 159.234375 130.871094 C 159.480469 130.871094 160.089844 130.898438 160.335938 130.898438 C 160.40625 130.898438 160.527344 130.898438 160.527344 130.710938 C 160.527344 130.59375 160.425781 130.59375 160.347656 130.59375 C 159.683594 130.582031 159.660156 130.550781 159.492188 130.152344 C 159.105469 129.230469 158.441406 127.679688 158.210938 127.085938 C 158.886719 126.390625 159.929688 125.207031 160.246094 124.929688 C 160.535156 124.691406 160.910156 124.453125 161.507812 124.421875 C 161.636719 124.414062 161.726562 124.414062 161.726562 124.226562 C 161.726562 124.214844 161.726562 124.113281 161.597656 124.113281 C 161.300781 124.113281 160.972656 124.144531 160.664062 124.144531 C 160.296875 124.144531 159.917969 124.113281 159.5625 124.113281 C 159.503906 124.113281 159.371094 124.113281 159.371094 124.3125 L 159.492188 124.421875 C 159.582031 124.433594 159.890625 124.453125 159.890625 124.730469 C 159.890625 124.871094 159.777344 125 159.699219 125.089844 L 158.089844 126.816406 "/>
<path fill-rule="nonzero" fill="rgb(13.729858%, 12.159729%, 12.548828%)" fill-opacity="1" d="M 169.097656 98.027344 L 168.847656 98.027344 L 168.847656 100.027344 L 169.097656 100.027344 Z M 169.097656 95.027344 L 168.847656 95.027344 L 168.847656 97.027344 L 169.097656 97.027344 Z M 169.097656 92.027344 L 168.847656 92.027344 L 168.847656 94.027344 L 169.097656 94.027344 Z M 169.097656 89.027344 L 168.847656 89.027344 L 168.847656 91.027344 L 169.097656 91.027344 Z M 169.097656 86.027344 L 168.847656 86.027344 L 168.847656 88.027344 L 169.097656 88.027344 Z M 169.097656 83.027344 L 168.847656 83.027344 L 168.847656 85.027344 L 169.097656 85.027344 Z M 169.097656 80.027344 L 168.847656 80.027344 L 168.847656 82.027344 L 169.097656 82.027344 Z M 169.097656 77.027344 L 168.847656 77.027344 L 168.847656 79.027344 L 169.097656 79.027344 Z M 169.097656 74.027344 L 168.847656 74.027344 L 168.847656 76.027344 L 169.097656 76.027344 Z M 169.097656 71.027344 L 168.847656 71.027344 L 168.847656 73.027344 L 169.097656 73.027344 Z M 169.097656 68.027344 L 168.847656 68.027344 L 168.847656 70.027344 L 169.097656 70.027344 Z M 169.097656 65.027344 L 168.847656 65.027344 L 168.847656 67.027344 L 169.097656 67.027344 Z M 169.097656 62.027344 L 168.847656 62.027344 L 168.847656 64.027344 L 169.097656 64.027344 Z M 169.097656 59.027344 L 168.847656 59.027344 L 168.847656 61.027344 L 169.097656 61.027344 Z M 169.097656 56.027344 L 168.847656 56.027344 L 168.847656 58.027344 L 169.097656 58.027344 Z M 169.097656 53.027344 L 168.847656 53.027344 L 168.847656 55.027344 L 169.097656 55.027344 Z M 169.097656 50.027344 L 168.847656 50.027344 L 168.847656 52.027344 L 169.097656 52.027344 Z M 169.097656 47.027344 L 168.847656 47.027344 L 168.847656 49.027344 L 169.097656 49.027344 Z M 169.097656 44.027344 L 168.847656 44.027344 L 168.847656 46.027344 L 169.097656 46.027344 Z M 169.097656 41.027344 L 168.847656 41.027344 L 168.847656 43.027344 L 169.097656 43.027344 Z M 169.097656 38.027344 L 168.847656 38.027344 L 168.847656 40.027344 L 169.097656 40.027344 Z M 169.097656 35.027344 L 168.847656 35.027344 L 168.847656 37.027344 L 169.097656 37.027344 Z M 169.097656 32.027344 L 168.847656 32.027344 L 168.847656 34.027344 L 169.097656 34.027344 Z M 169.097656 29.027344 L 168.847656 29.027344 L 168.847656 31.027344 L 169.097656 31.027344 Z M 169.097656 26.027344 L 168.847656 26.027344 L 168.847656 28.027344 L 169.097656 28.027344 Z M 169.097656 23.027344 L 168.847656 23.027344 L 168.847656 25.027344 L 169.097656 25.027344 Z M 169.097656 20.027344 L 168.847656 20.027344 L 168.847656 22.027344 L 169.097656 22.027344 Z M 169.097656 18.183594 L 168.847656 18.183594 L 168.847656 19.027344 L 169.097656 19.027344 Z M 169.097656 18.183594 "/>
</svg>
