<?xml version="1.0" encoding="UTF-8"?>
<svg xmlns="http://www.w3.org/2000/svg" xmlns:xlink="http://www.w3.org/1999/xlink" width="192pt" height="133pt" viewBox="0 0 192 133">
<defs>
<clipPath id="clip-0">
<path clip-rule="nonzero" d="M 184 101 L 191.53125 101 L 191.53125 107 L 184 107 Z M 184 101 "/>
</clipPath>
<clipPath id="clip-1">
<path clip-rule="nonzero" d="M 28 0.410156 L 33 0.410156 L 33 8 L 28 8 Z M 28 0.410156 "/>
</clipPath>
<clipPath id="clip-2">
<path clip-rule="nonzero" d="M 185 109.023438 L 190.398438 109.023438 L 190.398438 114 L 185 114 Z M 185 109.023438 "/>
</clipPath>
<clipPath id="clip-3">
<path clip-rule="nonzero" d="M 162 111.378906 L 166 111.378906 L 166 119 L 162 119 Z M 162 111.378906 "/>
</clipPath>
<clipPath id="clip-4">
<path clip-rule="nonzero" d="M 166 111.378906 L 171 111.378906 L 171 119 L 166 119 Z M 166 111.378906 "/>
</clipPath>
<clipPath id="clip-5">
<path clip-rule="nonzero" d="M 171 111.378906 L 176 111.378906 L 176 119 L 171 119 Z M 171 111.378906 "/>
</clipPath>
<clipPath id="clip-6">
<path clip-rule="nonzero" d="M 28.28125 111.378906 L 33 111.378906 L 33 119 L 28.28125 119 Z M 28.28125 111.378906 "/>
</clipPath>
<clipPath id="clip-7">
<path clip-rule="nonzero" d="M 38 0.410156 L 44 0.410156 L 44 10 L 38 10 Z M 38 0.410156 "/>
</clipPath>
<clipPath id="clip-8">
<path clip-rule="nonzero" d="M 44 0.410156 L 47 0.410156 L 47 10.410156 L 44 10.410156 Z M 44 0.410156 "/>
</clipPath>
<clipPath id="clip-9">
<path clip-rule="nonzero" d="M 53 0.410156 L 56.972656 0.410156 L 56.972656 10.410156 L 53 10.410156 Z M 53 0.410156 "/>
</clipPath>
<clipPath id="clip-10">
<path clip-rule="nonzero" d="M 0.390625 12.261719 L 5 12.261719 L 5 20 L 0.390625 20 Z M 0.390625 12.261719 "/>
</clipPath>
<clipPath id="clip-11">
<path clip-rule="nonzero" d="M 8 12.261719 L 13 12.261719 L 13 20 L 8 20 Z M 8 12.261719 "/>
</clipPath>
<clipPath id="clip-12">
<path clip-rule="nonzero" d="M 13 12.261719 L 17 12.261719 L 17 20 L 13 20 Z M 13 12.261719 "/>
</clipPath>
<clipPath id="clip-13">
<path clip-rule="nonzero" d="M 18 12.261719 L 22.390625 12.261719 L 22.390625 20 L 18 20 Z M 18 12.261719 "/>
</clipPath>
</defs>
<path fill-rule="nonzero" fill="rgb(87.773132%, 88.235474%, 86.659241%)" fill-opacity="1" d="M 168.972656 104.371094 L 30.511719 104.371094 L 168.972656 16.34375 L 168.972656 104.371094 "/>
<path fill-rule="nonzero" fill="rgb(13.729858%, 12.159729%, 12.548828%)" fill-opacity="1" d="M 30.511719 104.746094 L 189.410156 104.746094 C 189.617188 104.746094 189.785156 104.578125 189.785156 104.371094 C 189.785156 104.164062 189.617188 103.996094 189.410156 103.996094 L 30.511719 103.996094 C 30.304688 103.996094 30.136719 104.164062 30.136719 104.371094 C 30.136719 104.578125 30.304688 104.746094 30.511719 104.746094 "/>
<g clip-path="url(#clip-0)">
<path fill-rule="nonzero" fill="rgb(13.729858%, 12.159729%, 12.548828%)" fill-opacity="1" d="M 184.976562 106.753906 L 184.722656 106.046875 L 189.339844 104.371094 L 184.722656 102.6875 L 184.976562 101.984375 L 191.53125 104.371094 L 184.976562 106.753906 "/>
</g>
<path fill-rule="nonzero" fill="rgb(13.729858%, 12.159729%, 12.548828%)" fill-opacity="1" d="M 30.886719 108.710938 L 30.886719 2.53125 C 30.886719 2.324219 30.71875 2.15625 30.511719 2.15625 C 30.304688 2.15625 30.136719 2.324219 30.136719 2.53125 L 30.136719 108.710938 C 30.136719 108.917969 30.304688 109.085938 30.511719 109.085938 C 30.71875 109.085938 30.886719 108.917969 30.886719 108.710938 "/>
<g clip-path="url(#clip-1)">
<path fill-rule="nonzero" fill="rgb(13.729858%, 12.159729%, 12.548828%)" fill-opacity="1" d="M 32.898438 6.964844 L 32.191406 7.21875 L 30.511719 2.605469 L 28.832031 7.21875 L 28.128906 6.964844 L 30.511719 0.410156 L 32.898438 6.964844 "/>
</g>
<g clip-path="url(#clip-2)">
<path fill-rule="nonzero" fill="rgb(13.729858%, 12.159729%, 12.548828%)" fill-opacity="1" d="M 188.414062 110.824219 C 188.476562 110.566406 188.703125 109.652344 189.398438 109.652344 C 189.449219 109.652344 189.6875 109.652344 189.894531 109.777344 C 189.617188 109.828125 189.417969 110.078125 189.417969 110.316406 C 189.417969 110.472656 189.527344 110.664062 189.796875 110.664062 C 190.015625 110.664062 190.332031 110.484375 190.332031 110.089844 C 190.332031 109.570312 189.746094 109.433594 189.40625 109.433594 C 188.832031 109.433594 188.484375 109.960938 188.363281 110.1875 C 188.117188 109.53125 187.578125 109.433594 187.292969 109.433594 C 186.257812 109.433594 185.691406 110.714844 185.691406 110.960938 C 185.691406 111.0625 185.792969 111.0625 185.8125 111.0625 L 185.941406 110.953125 C 186.277344 109.898438 186.933594 109.652344 187.273438 109.652344 C 187.460938 109.652344 187.808594 109.738281 187.808594 110.316406 C 187.808594 110.625 187.640625 111.289062 187.273438 112.679688 C 187.113281 113.296875 186.765625 113.714844 186.328125 113.714844 C 186.269531 113.714844 186.039062 113.714844 185.832031 113.585938 C 186.078125 113.535156 186.296875 113.328125 186.296875 113.046875 C 186.296875 112.777344 186.078125 112.703125 185.929688 112.703125 C 185.632812 112.703125 185.382812 112.960938 185.382812 113.277344 C 185.382812 113.734375 185.882812 113.933594 186.316406 113.933594 C 186.976562 113.933594 187.332031 113.238281 187.363281 113.175781 C 187.480469 113.542969 187.839844 113.933594 188.433594 113.933594 C 189.457031 113.933594 190.023438 112.652344 190.023438 112.402344 C 190.023438 112.300781 189.933594 112.300781 189.902344 112.300781 L 189.773438 112.410156 C 189.449219 113.472656 188.773438 113.714844 188.453125 113.714844 C 188.066406 113.714844 187.90625 113.394531 187.90625 113.058594 C 187.90625 112.839844 187.96875 112.621094 188.074219 112.183594 L 188.414062 110.824219 "/>
</g>
<g clip-path="url(#clip-3)">
<path fill-rule="nonzero" fill="rgb(13.729858%, 12.159729%, 12.548828%)" fill-opacity="1" d="M 164.09375 111.820312 C 164.09375 111.585938 164.09375 111.5625 163.867188 111.5625 C 163.25 112.199219 162.375 112.199219 162.058594 112.199219 L 162.058594 112.507812 C 162.257812 112.507812 162.84375 112.507812 163.359375 112.25 L 163.359375 117.394531 C 163.359375 117.753906 163.328125 117.871094 162.433594 117.871094 L 162.117188 117.871094 L 162.117188 118.179688 C 162.464844 118.148438 163.328125 118.148438 163.726562 118.148438 C 164.125 118.148438 164.988281 118.148438 165.335938 118.179688 L 165.335938 117.871094 L 165.019531 117.871094 C 164.125 117.871094 164.09375 117.761719 164.09375 117.394531 L 164.09375 111.820312 "/>
</g>
<g clip-path="url(#clip-4)">
<path fill-rule="nonzero" fill="rgb(13.729858%, 12.159729%, 12.548828%)" fill-opacity="1" d="M 170.800781 112.128906 C 170.890625 112.011719 170.890625 111.988281 170.890625 111.78125 L 168.480469 111.78125 C 167.265625 111.78125 167.246094 111.652344 167.207031 111.464844 L 166.957031 111.464844 L 166.628906 113.511719 L 166.878906 113.511719 C 166.90625 113.351562 166.996094 112.726562 167.128906 112.605469 C 167.195312 112.546875 167.972656 112.546875 168.101562 112.546875 L 170.15625 112.546875 C 170.046875 112.707031 169.261719 113.789062 169.042969 114.117188 C 168.148438 115.457031 167.820312 116.839844 167.820312 117.851562 C 167.820312 117.953125 167.820312 118.398438 168.277344 118.398438 C 168.734375 118.398438 168.734375 117.953125 168.734375 117.851562 L 168.734375 117.34375 C 168.734375 116.796875 168.765625 116.253906 168.847656 115.714844 C 168.886719 115.488281 169.023438 114.632812 169.460938 114.015625 L 170.800781 112.128906 "/>
</g>
<g clip-path="url(#clip-5)">
<path fill-rule="nonzero" fill="rgb(13.729858%, 12.159729%, 12.548828%)" fill-opacity="1" d="M 175.644531 115 C 175.644531 114.207031 175.59375 113.410156 175.246094 112.675781 C 174.789062 111.722656 173.972656 111.5625 173.558594 111.5625 C 172.960938 111.5625 172.234375 111.820312 171.828125 112.746094 C 171.511719 113.429688 171.460938 114.207031 171.460938 115 C 171.460938 115.746094 171.5 116.640625 171.90625 117.394531 C 172.335938 118.199219 173.0625 118.398438 173.546875 118.398438 C 174.082031 118.398438 174.839844 118.1875 175.273438 117.246094 C 175.59375 116.558594 175.644531 115.785156 175.644531 115 Z M 173.546875 118.179688 C 173.160156 118.179688 172.574219 117.929688 172.394531 116.976562 C 172.285156 116.378906 172.285156 115.464844 172.285156 114.878906 C 172.285156 114.246094 172.285156 113.589844 172.363281 113.050781 C 172.554688 111.871094 173.300781 111.78125 173.546875 111.78125 C 173.875 111.78125 174.53125 111.960938 174.71875 112.945312 C 174.820312 113.5 174.820312 114.253906 174.820312 114.878906 C 174.820312 115.625 174.820312 116.300781 174.710938 116.9375 C 174.5625 117.878906 173.992188 118.179688 173.546875 118.179688 "/>
</g>
<path fill-rule="nonzero" fill="rgb(13.729858%, 12.159729%, 12.548828%)" fill-opacity="1" d="M 26.167969 16.71875 L 34.855469 16.71875 C 35.0625 16.71875 35.230469 16.550781 35.230469 16.34375 C 35.230469 16.136719 35.0625 15.96875 34.855469 15.96875 L 26.167969 15.96875 C 25.964844 15.96875 25.792969 16.136719 25.792969 16.34375 C 25.792969 16.550781 25.964844 16.71875 26.167969 16.71875 "/>
<path fill-rule="nonzero" fill="rgb(13.729858%, 12.159729%, 12.548828%)" fill-opacity="1" d="M 168.597656 100.027344 L 168.597656 108.710938 C 168.597656 108.917969 168.765625 109.085938 168.972656 109.085938 C 169.179688 109.085938 169.347656 108.917969 169.347656 108.710938 L 169.347656 100.027344 C 169.347656 99.820312 169.179688 99.652344 168.972656 99.652344 C 168.765625 99.652344 168.597656 99.820312 168.597656 100.027344 "/>
<path fill-rule="nonzero" fill="rgb(0%, 67.83905%, 93.728638%)" fill-opacity="1" d="M 0.5 104.871094 L 31.066406 104.871094 C 31.339844 104.871094 31.566406 104.644531 31.566406 104.371094 C 31.566406 104.09375 31.339844 103.871094 31.066406 103.871094 L 0.5 103.871094 C 0.222656 103.871094 0 104.09375 0 104.371094 C 0 104.644531 0.222656 104.871094 0.5 104.871094 "/>
<path fill-rule="nonzero" fill="rgb(0%, 67.83905%, 93.728638%)" fill-opacity="1" d="M 168.972656 104.871094 L 185.363281 104.871094 C 185.640625 104.871094 185.863281 104.644531 185.863281 104.371094 C 185.863281 104.09375 185.640625 103.871094 185.363281 103.871094 L 168.972656 103.871094 C 168.699219 103.871094 168.472656 104.09375 168.472656 104.371094 C 168.472656 104.644531 168.699219 104.871094 168.972656 104.871094 "/>
<g clip-path="url(#clip-6)">
<path fill-rule="nonzero" fill="rgb(13.729858%, 12.159729%, 12.548828%)" fill-opacity="1" d="M 32.550781 115 C 32.550781 114.207031 32.5 113.410156 32.152344 112.675781 C 31.695312 111.722656 30.882812 111.5625 30.464844 111.5625 C 29.867188 111.5625 29.144531 111.820312 28.734375 112.746094 C 28.417969 113.429688 28.367188 114.207031 28.367188 115 C 28.367188 115.746094 28.40625 116.640625 28.816406 117.394531 C 29.242188 118.199219 29.96875 118.398438 30.453125 118.398438 C 30.988281 118.398438 31.746094 118.1875 32.183594 117.246094 C 32.5 116.558594 32.550781 115.785156 32.550781 115 Z M 30.453125 118.179688 C 30.066406 118.179688 29.480469 117.929688 29.300781 116.976562 C 29.195312 116.378906 29.195312 115.464844 29.195312 114.878906 C 29.195312 114.246094 29.195312 113.589844 29.273438 113.050781 C 29.460938 111.871094 30.207031 111.78125 30.453125 111.78125 C 30.78125 111.78125 31.4375 111.960938 31.625 112.945312 C 31.726562 113.5 31.726562 114.253906 31.726562 114.878906 C 31.726562 115.625 31.726562 116.300781 31.617188 116.9375 C 31.46875 117.878906 30.902344 118.179688 30.453125 118.179688 "/>
</g>
<g clip-path="url(#clip-7)">
<path fill-rule="nonzero" fill="rgb(13.729858%, 12.159729%, 12.548828%)" fill-opacity="1" d="M 41.320312 3.9375 L 42.171875 3.9375 C 42.371094 3.9375 42.472656 3.9375 42.472656 3.738281 C 42.472656 3.628906 42.371094 3.628906 42.203125 3.628906 L 41.378906 3.628906 L 41.585938 2.496094 C 41.625 2.289062 41.765625 1.582031 41.824219 1.464844 C 41.914062 1.273438 42.085938 1.128906 42.292969 1.128906 C 42.332031 1.128906 42.589844 1.128906 42.78125 1.304688 C 42.34375 1.34375 42.242188 1.691406 42.242188 1.84375 C 42.242188 2.070312 42.421875 2.1875 42.609375 2.1875 C 42.867188 2.1875 43.15625 1.96875 43.15625 1.59375 C 43.15625 1.136719 42.699219 0.90625 42.292969 0.90625 C 41.953125 0.90625 41.328125 1.085938 41.03125 2.070312 C 40.972656 2.277344 40.941406 2.378906 40.703125 3.628906 L 40.015625 3.628906 C 39.828125 3.628906 39.71875 3.628906 39.71875 3.820312 C 39.71875 3.9375 39.808594 3.9375 39.996094 3.9375 L 40.652344 3.9375 L 39.90625 7.859375 C 39.730469 8.824219 39.558594 9.726562 39.042969 9.726562 C 39.003906 9.726562 38.757812 9.726562 38.566406 9.550781 C 39.023438 9.519531 39.113281 9.160156 39.113281 9.015625 C 39.113281 8.785156 38.933594 8.664062 38.746094 8.664062 C 38.488281 8.664062 38.199219 8.882812 38.199219 9.261719 C 38.199219 9.710938 38.636719 9.945312 39.042969 9.945312 C 39.589844 9.945312 39.988281 9.359375 40.167969 8.984375 C 40.484375 8.359375 40.710938 7.15625 40.722656 7.085938 L 41.320312 3.9375 "/>
</g>
<g clip-path="url(#clip-8)">
<path fill-rule="nonzero" fill="rgb(13.729858%, 12.159729%, 12.548828%)" fill-opacity="1" d="M 46.859375 10.296875 C 46.859375 10.265625 46.859375 10.246094 46.691406 10.078125 C 45.453125 8.824219 45.132812 6.945312 45.132812 5.429688 C 45.132812 3.699219 45.511719 1.96875 46.730469 0.726562 C 46.859375 0.609375 46.859375 0.589844 46.859375 0.558594 L 46.761719 0.460938 C 46.660156 0.460938 45.769531 1.136719 45.183594 2.398438 C 44.675781 3.492188 44.554688 4.59375 44.554688 5.429688 C 44.554688 6.203125 44.664062 7.40625 45.210938 8.527344 C 45.808594 9.746094 46.660156 10.394531 46.761719 10.394531 L 46.859375 10.296875 "/>
</g>
<path fill-rule="nonzero" fill="rgb(13.729858%, 12.159729%, 12.548828%)" fill-opacity="1" d="M 50.789062 4.910156 C 50.851562 4.652344 51.078125 3.738281 51.773438 3.738281 C 51.824219 3.738281 52.0625 3.738281 52.273438 3.867188 C 51.992188 3.917969 51.792969 4.164062 51.792969 4.40625 C 51.792969 4.5625 51.902344 4.753906 52.171875 4.753906 C 52.390625 4.753906 52.707031 4.574219 52.707031 4.175781 C 52.707031 3.660156 52.121094 3.519531 51.785156 3.519531 C 51.207031 3.519531 50.859375 4.046875 50.742188 4.273438 C 50.492188 3.621094 49.957031 3.519531 49.667969 3.519531 C 48.636719 3.519531 48.070312 4.800781 48.070312 5.050781 C 48.070312 5.148438 48.167969 5.148438 48.1875 5.148438 L 48.316406 5.039062 C 48.65625 3.988281 49.308594 3.738281 49.648438 3.738281 C 49.835938 3.738281 50.183594 3.828125 50.183594 4.40625 C 50.183594 4.710938 50.015625 5.378906 49.648438 6.769531 C 49.488281 7.382812 49.140625 7.800781 48.703125 7.800781 C 48.644531 7.800781 48.417969 7.800781 48.207031 7.671875 C 48.457031 7.621094 48.675781 7.414062 48.675781 7.136719 C 48.675781 6.867188 48.457031 6.789062 48.308594 6.789062 C 48.007812 6.789062 47.761719 7.046875 47.761719 7.363281 C 47.761719 7.820312 48.257812 8.019531 48.695312 8.019531 C 49.351562 8.019531 49.707031 7.324219 49.738281 7.265625 C 49.855469 7.632812 50.214844 8.019531 50.808594 8.019531 C 51.835938 8.019531 52.398438 6.738281 52.398438 6.492188 C 52.398438 6.390625 52.308594 6.390625 52.28125 6.390625 L 52.152344 6.5 C 51.824219 7.5625 51.148438 7.800781 50.832031 7.800781 C 50.445312 7.800781 50.285156 7.484375 50.285156 7.144531 C 50.285156 6.929688 50.34375 6.710938 50.453125 6.273438 L 50.789062 4.910156 "/>
<g clip-path="url(#clip-9)">
<path fill-rule="nonzero" fill="rgb(13.729858%, 12.159729%, 12.548828%)" fill-opacity="1" d="M 56.042969 5.429688 C 56.042969 4.652344 55.933594 3.449219 55.390625 2.328125 C 54.792969 1.105469 53.9375 0.460938 53.839844 0.460938 L 53.738281 0.558594 C 53.738281 0.589844 53.738281 0.609375 53.925781 0.789062 C 54.902344 1.773438 55.46875 3.351562 55.46875 5.429688 C 55.46875 7.128906 55.097656 8.875 53.867188 10.128906 C 53.738281 10.246094 53.738281 10.265625 53.738281 10.296875 L 53.839844 10.394531 C 53.9375 10.394531 54.832031 9.71875 55.417969 8.457031 C 55.925781 7.363281 56.042969 6.261719 56.042969 5.429688 "/>
</g>
<g clip-path="url(#clip-10)">
<path fill-rule="nonzero" fill="rgb(13.729858%, 12.159729%, 12.548828%)" fill-opacity="1" d="M 4.660156 15.882812 C 4.660156 15.085938 4.609375 14.289062 4.261719 13.558594 C 3.804688 12.605469 2.988281 12.445312 2.574219 12.445312 C 1.976562 12.445312 1.253906 12.703125 0.84375 13.625 C 0.527344 14.3125 0.476562 15.085938 0.476562 15.882812 C 0.476562 16.625 0.515625 17.519531 0.925781 18.277344 C 1.351562 19.078125 2.078125 19.277344 2.5625 19.277344 C 3.101562 19.277344 3.855469 19.070312 4.292969 18.125 C 4.609375 17.441406 4.660156 16.664062 4.660156 15.882812 Z M 2.5625 19.058594 C 2.175781 19.058594 1.589844 18.8125 1.414062 17.859375 C 1.300781 17.261719 1.300781 16.347656 1.300781 15.761719 C 1.300781 15.125 1.300781 14.472656 1.382812 13.933594 C 1.570312 12.753906 2.316406 12.664062 2.5625 12.664062 C 2.890625 12.664062 3.546875 12.839844 3.734375 13.824219 C 3.835938 14.382812 3.835938 15.136719 3.835938 15.761719 C 3.835938 16.507812 3.835938 17.183594 3.726562 17.816406 C 3.578125 18.761719 3.011719 19.058594 2.5625 19.058594 "/>
</g>
<path fill-rule="nonzero" fill="rgb(13.729858%, 12.159729%, 12.548828%)" fill-opacity="1" d="M 6.898438 18.535156 C 6.898438 18.246094 6.660156 18.007812 6.371094 18.007812 C 6.082031 18.007812 5.84375 18.246094 5.84375 18.535156 C 5.84375 18.820312 6.082031 19.058594 6.371094 19.058594 C 6.660156 19.058594 6.898438 18.820312 6.898438 18.535156 "/>
<g clip-path="url(#clip-11)">
<path fill-rule="nonzero" fill="rgb(13.729858%, 12.159729%, 12.548828%)" fill-opacity="1" d="M 12.359375 15.882812 C 12.359375 15.085938 12.308594 14.289062 11.960938 13.558594 C 11.507812 12.605469 10.691406 12.445312 10.273438 12.445312 C 9.675781 12.445312 8.953125 12.703125 8.542969 13.625 C 8.226562 14.3125 8.175781 15.085938 8.175781 15.882812 C 8.175781 16.625 8.21875 17.519531 8.625 18.277344 C 9.050781 19.078125 9.777344 19.277344 10.265625 19.277344 C 10.800781 19.277344 11.554688 19.070312 11.992188 18.125 C 12.308594 17.441406 12.359375 16.664062 12.359375 15.882812 Z M 10.265625 19.058594 C 9.875 19.058594 9.289062 18.8125 9.113281 17.859375 C 9.003906 17.261719 9.003906 16.347656 9.003906 15.761719 C 9.003906 15.125 9.003906 14.472656 9.082031 13.933594 C 9.269531 12.753906 10.015625 12.664062 10.265625 12.664062 C 10.59375 12.664062 11.246094 12.839844 11.433594 13.824219 C 11.535156 14.382812 11.535156 15.136719 11.535156 15.761719 C 11.535156 16.507812 11.535156 17.183594 11.425781 17.816406 C 11.277344 18.761719 10.710938 19.058594 10.265625 19.058594 "/>
</g>
<g clip-path="url(#clip-12)">
<path fill-rule="nonzero" fill="rgb(13.729858%, 12.159729%, 12.548828%)" fill-opacity="1" d="M 15.710938 12.703125 C 15.710938 12.464844 15.710938 12.445312 15.480469 12.445312 C 14.867188 13.078125 13.992188 13.078125 13.675781 13.078125 L 13.675781 13.386719 C 13.871094 13.386719 14.460938 13.386719 14.976562 13.128906 L 14.976562 18.277344 C 14.976562 18.632812 14.945312 18.753906 14.050781 18.753906 L 13.734375 18.753906 L 13.734375 19.058594 C 14.082031 19.03125 14.945312 19.03125 15.34375 19.03125 C 15.738281 19.03125 16.605469 19.03125 16.953125 19.058594 L 16.953125 18.753906 L 16.632812 18.753906 C 15.738281 18.753906 15.710938 18.644531 15.710938 18.277344 L 15.710938 12.703125 "/>
</g>
<g clip-path="url(#clip-13)">
<path fill-rule="nonzero" fill="rgb(13.729858%, 12.159729%, 12.548828%)" fill-opacity="1" d="M 19.050781 18.296875 L 20.105469 17.273438 C 21.65625 15.902344 22.25 15.363281 22.25 14.371094 C 22.25 13.238281 21.355469 12.445312 20.144531 12.445312 C 19.023438 12.445312 18.285156 13.359375 18.285156 14.242188 C 18.285156 14.800781 18.785156 14.800781 18.8125 14.800781 C 18.980469 14.800781 19.328125 14.679688 19.328125 14.273438 C 19.328125 14.011719 19.152344 13.753906 18.800781 13.753906 L 18.675781 13.765625 C 18.902344 13.121094 19.4375 12.753906 20.015625 12.753906 C 20.917969 12.753906 21.347656 13.558594 21.347656 14.371094 C 21.347656 15.164062 20.847656 15.949219 20.300781 16.566406 L 18.398438 18.691406 C 18.285156 18.800781 18.285156 18.820312 18.285156 19.058594 L 21.972656 19.058594 L 22.25 17.332031 L 22.003906 17.332031 C 21.953125 17.628906 21.882812 18.066406 21.785156 18.214844 C 21.714844 18.296875 21.058594 18.296875 20.839844 18.296875 L 19.050781 18.296875 "/>
</g>
<path fill-rule="nonzero" fill="rgb(0%, 67.83905%, 93.728638%)" fill-opacity="1" d="M 30.78125 104.792969 L 169.242188 16.765625 C 169.476562 16.617188 169.542969 16.308594 169.394531 16.074219 C 169.246094 15.839844 168.9375 15.773438 168.703125 15.921875 L 30.242188 103.949219 C 30.011719 104.097656 29.941406 104.40625 30.089844 104.636719 C 30.238281 104.871094 30.546875 104.941406 30.78125 104.792969 "/>
<path fill-rule="nonzero" fill="rgb(100%, 100%, 100%)" fill-opacity="1" d="M 32.355469 104.371094 C 32.355469 105.386719 31.53125 106.210938 30.511719 106.210938 C 29.492188 106.210938 28.667969 105.386719 28.667969 104.371094 C 28.667969 103.351562 29.492188 102.527344 30.511719 102.527344 C 31.53125 102.527344 32.355469 103.351562 32.355469 104.371094 "/>
<path fill-rule="nonzero" fill="rgb(0%, 67.83905%, 93.728638%)" fill-opacity="1" d="M 32.355469 104.371094 L 31.855469 104.371094 C 31.851562 105.109375 31.253906 105.710938 30.511719 105.710938 C 29.769531 105.710938 29.171875 105.109375 29.167969 104.371094 C 29.171875 103.628906 29.769531 103.027344 30.511719 103.027344 C 31.253906 103.027344 31.851562 103.628906 31.855469 104.371094 L 32.855469 104.371094 C 32.855469 103.078125 31.804688 102.027344 30.511719 102.027344 C 29.21875 102.027344 28.167969 103.078125 28.167969 104.371094 C 28.167969 105.664062 29.21875 106.710938 30.511719 106.710938 C 31.804688 106.710938 32.855469 105.664062 32.855469 104.371094 L 32.355469 104.371094 "/>
<path fill-rule="nonzero" fill="rgb(100%, 100%, 100%)" fill-opacity="1" d="M 170.816406 16.34375 C 170.816406 17.359375 169.992188 18.183594 168.972656 18.183594 C 167.957031 18.183594 167.132812 17.359375 167.132812 16.34375 C 167.132812 15.324219 167.957031 14.5 168.972656 14.5 C 169.992188 14.5 170.816406 15.324219 170.816406 16.34375 "/>
<path fill-rule="nonzero" fill="rgb(0%, 67.83905%, 93.728638%)" fill-opacity="1" d="M 170.816406 16.34375 L 170.316406 16.34375 C 170.316406 17.082031 169.714844 17.683594 168.972656 17.683594 C 168.234375 17.683594 167.632812 17.082031 167.632812 16.34375 C 167.632812 15.601562 168.230469 15 168.972656 15 C 169.714844 15 170.316406 15.601562 170.316406 16.34375 L 171.316406 16.34375 C 171.316406 15.046875 170.265625 14 168.972656 14 C 167.679688 14 166.632812 15.046875 166.632812 16.34375 C 166.632812 17.636719 167.679688 18.683594 168.972656 18.683594 C 170.269531 18.683594 171.316406 17.636719 171.316406 16.34375 L 170.816406 16.34375 "/>
<path fill-rule="nonzero" fill="rgb(100%, 100%, 100%)" fill-opacity="1" d="M 170.816406 104.371094 C 170.816406 105.386719 169.992188 106.210938 168.972656 106.210938 C 167.957031 106.210938 167.132812 105.386719 167.132812 104.371094 C 167.132812 103.351562 167.957031 102.527344 168.972656 102.527344 C 169.992188 102.527344 170.816406 103.351562 170.816406 104.371094 "/>
<path fill-rule="nonzero" fill="rgb(0%, 67.83905%, 93.728638%)" fill-opacity="1" d="M 170.816406 104.371094 L 170.316406 104.371094 C 170.316406 105.109375 169.714844 105.710938 168.972656 105.710938 C 168.230469 105.710938 167.632812 105.109375 167.632812 104.371094 C 167.632812 103.628906 168.234375 103.027344 168.972656 103.027344 C 169.714844 103.027344 170.316406 103.628906 170.316406 104.371094 L 171.316406 104.371094 C 171.316406 103.078125 170.269531 102.027344 168.972656 102.027344 C 167.679688 102.027344 166.632812 103.078125 166.632812 104.371094 C 166.632812 105.664062 167.679688 106.710938 168.972656 106.710938 C 170.265625 106.710938 171.316406 105.664062 171.316406 104.371094 L 170.816406 104.371094 "/>
<path fill-rule="nonzero" fill="rgb(13.729858%, 12.159729%, 12.548828%)" fill-opacity="1" d="M 38.800781 125.988281 C 38.980469 125.421875 39.410156 125.324219 39.796875 125.324219 L 39.796875 125.015625 C 39.496094 125.035156 39.191406 125.042969 38.890625 125.042969 C 38.605469 125.042969 37.96875 125.023438 37.710938 125.015625 L 37.710938 125.324219 C 38.375 125.332031 38.574219 125.664062 38.574219 125.851562 L 38.523438 126.046875 L 37.035156 130.636719 L 35.445312 125.769531 L 35.414062 125.625 C 35.414062 125.324219 35.992188 125.324219 36.25 125.324219 L 36.25 125.015625 C 35.890625 125.042969 35.21875 125.042969 34.839844 125.042969 C 34.460938 125.042969 34.035156 125.023438 33.628906 125.015625 L 33.628906 125.324219 C 34.195312 125.324219 34.402344 125.324219 34.523438 125.679688 L 34.738281 126.375 L 33.359375 130.636719 L 31.761719 125.75 L 31.738281 125.625 C 31.738281 125.324219 32.316406 125.324219 32.574219 125.324219 L 32.574219 125.015625 C 32.21875 125.042969 31.542969 125.042969 31.164062 125.042969 C 30.785156 125.042969 30.359375 125.023438 29.953125 125.015625 L 29.953125 125.324219 C 30.695312 125.324219 30.738281 125.375 30.855469 125.742188 L 32.84375 131.832031 C 32.871094 131.917969 32.902344 132.019531 33.03125 132.019531 C 33.167969 132.019531 33.191406 131.949219 33.230469 131.820312 L 34.867188 126.773438 L 36.519531 131.832031 C 36.546875 131.917969 36.578125 132.019531 36.707031 132.019531 C 36.847656 132.019531 36.863281 131.949219 36.90625 131.820312 L 38.800781 125.988281 "/>
<path fill-rule="nonzero" fill="rgb(13.729858%, 12.159729%, 12.548828%)" fill-opacity="1" d="M 42.480469 131.042969 C 42.523438 131.441406 42.789062 131.859375 43.257812 131.859375 C 43.464844 131.859375 44.070312 131.71875 44.070312 130.917969 L 44.070312 130.359375 L 43.820312 130.359375 L 43.820312 130.917969 C 43.820312 131.492188 43.574219 131.550781 43.464844 131.550781 C 43.136719 131.550781 43.097656 131.105469 43.097656 131.054688 L 43.097656 129.070312 C 43.097656 128.652344 43.097656 128.265625 42.738281 127.894531 C 42.351562 127.507812 41.855469 127.351562 41.378906 127.351562 C 40.5625 127.351562 39.878906 127.816406 39.878906 128.472656 C 39.878906 128.769531 40.078125 128.9375 40.335938 128.9375 C 40.613281 128.9375 40.792969 128.742188 40.792969 128.484375 C 40.792969 128.363281 40.742188 128.035156 40.285156 128.023438 C 40.554688 127.679688 41.039062 127.570312 41.359375 127.570312 C 41.84375 127.570312 42.410156 127.957031 42.410156 128.839844 L 42.410156 129.207031 C 41.90625 129.238281 41.210938 129.265625 40.585938 129.566406 C 39.839844 129.902344 39.589844 130.417969 39.589844 130.855469 C 39.589844 131.664062 40.554688 131.910156 41.179688 131.910156 C 41.835938 131.910156 42.292969 131.511719 42.480469 131.042969 Z M 42.410156 129.417969 L 42.410156 130.410156 C 42.410156 131.351562 41.695312 131.691406 41.25 131.691406 C 40.761719 131.691406 40.355469 131.34375 40.355469 130.847656 C 40.355469 130.300781 40.773438 129.476562 42.410156 129.417969 "/>
<path fill-rule="nonzero" fill="rgb(13.729858%, 12.159729%, 12.548828%)" fill-opacity="1" d="M 45.164062 131.042969 C 45.164062 131.492188 45.054688 131.492188 44.390625 131.492188 L 44.390625 131.800781 C 44.738281 131.792969 45.246094 131.769531 45.515625 131.769531 C 45.773438 131.769531 46.289062 131.792969 46.625 131.800781 L 46.625 131.492188 C 45.960938 131.492188 45.851562 131.492188 45.851562 131.042969 L 45.851562 129.21875 C 45.851562 128.183594 46.554688 127.628906 47.191406 127.628906 C 47.820312 127.628906 47.925781 128.164062 47.925781 128.730469 L 47.925781 131.042969 C 47.925781 131.492188 47.820312 131.492188 47.152344 131.492188 L 47.152344 131.800781 C 47.5 131.792969 48.007812 131.769531 48.273438 131.769531 C 48.535156 131.769531 49.050781 131.792969 49.386719 131.800781 L 49.386719 131.492188 C 48.871094 131.492188 48.621094 131.492188 48.613281 131.195312 L 48.613281 129.296875 C 48.613281 128.441406 48.613281 128.132812 48.304688 127.777344 C 48.164062 127.609375 47.839844 127.410156 47.261719 127.410156 C 46.425781 127.410156 45.988281 128.003906 45.820312 128.382812 L 45.820312 124.90625 L 44.390625 125.015625 L 44.390625 125.324219 C 45.085938 125.324219 45.164062 125.390625 45.164062 125.878906 L 45.164062 131.042969 "/>
<path fill-rule="nonzero" fill="rgb(13.729858%, 12.159729%, 12.548828%)" fill-opacity="1" d="M 51.332031 128.5 L 51.332031 127.410156 L 49.953125 127.519531 L 49.953125 127.828125 C 50.648438 127.828125 50.726562 127.894531 50.726562 128.382812 L 50.726562 131.042969 C 50.726562 131.492188 50.617188 131.492188 49.953125 131.492188 L 49.953125 131.800781 C 50.339844 131.792969 50.804688 131.769531 51.085938 131.769531 C 51.480469 131.769531 51.949219 131.769531 52.34375 131.800781 L 52.34375 131.492188 L 52.136719 131.492188 C 51.402344 131.492188 51.382812 131.382812 51.382812 131.023438 L 51.382812 129.496094 C 51.382812 128.511719 51.800781 127.628906 52.554688 127.628906 L 52.664062 127.636719 C 52.632812 127.648438 52.433594 127.765625 52.433594 128.023438 C 52.433594 128.304688 52.644531 128.453125 52.863281 128.453125 C 53.039062 128.453125 53.289062 128.332031 53.289062 128.015625 C 53.289062 127.695312 52.980469 127.410156 52.554688 127.410156 C 51.828125 127.410156 51.472656 128.074219 51.332031 128.5 "/>
<path fill-rule="nonzero" fill="rgb(13.729858%, 12.159729%, 12.548828%)" fill-opacity="1" d="M 55.640625 129.875 C 55.855469 129.914062 56.671875 130.070312 56.671875 130.789062 C 56.671875 131.292969 56.324219 131.691406 55.550781 131.691406 C 54.714844 131.691406 54.355469 131.125 54.167969 130.28125 C 54.140625 130.152344 54.128906 130.109375 54.03125 130.109375 C 53.902344 130.109375 53.902344 130.179688 53.902344 130.359375 L 53.902344 131.667969 C 53.902344 131.839844 53.902344 131.910156 54.011719 131.910156 C 54.058594 131.910156 54.070312 131.898438 54.257812 131.710938 C 54.277344 131.691406 54.277344 131.667969 54.457031 131.484375 C 54.894531 131.898438 55.34375 131.910156 55.550781 131.910156 C 56.691406 131.910156 57.148438 131.242188 57.148438 130.527344 C 57.148438 130 56.851562 129.707031 56.730469 129.585938 C 56.40625 129.265625 56.015625 129.1875 55.597656 129.109375 C 55.042969 129 54.378906 128.871094 54.378906 128.292969 C 54.378906 127.945312 54.636719 127.539062 55.488281 127.539062 C 56.582031 127.539062 56.632812 128.433594 56.652344 128.742188 L 56.773438 128.832031 C 56.902344 128.832031 56.902344 128.78125 56.902344 128.59375 L 56.902344 127.585938 C 56.902344 127.417969 56.902344 127.351562 56.792969 127.351562 C 56.742188 127.351562 56.722656 127.351562 56.59375 127.46875 L 56.425781 127.628906 C 56.046875 127.351562 55.640625 127.351562 55.488281 127.351562 C 54.277344 127.351562 53.902344 128.015625 53.902344 128.570312 C 53.902344 128.917969 54.058594 129.195312 54.328125 129.417969 C 54.648438 129.671875 54.925781 129.734375 55.640625 129.875 "/>
<path fill-rule="nonzero" fill="rgb(13.729858%, 12.159729%, 12.548828%)" fill-opacity="1" d="M 58.636719 129.632812 C 58.636719 128.015625 59.449219 127.597656 59.976562 127.597656 C 60.066406 127.597656 60.691406 127.609375 61.039062 127.964844 C 60.632812 127.996094 60.574219 128.292969 60.574219 128.421875 C 60.574219 128.679688 60.75 128.878906 61.03125 128.878906 C 61.285156 128.878906 61.484375 128.710938 61.484375 128.414062 C 61.484375 127.738281 60.730469 127.351562 59.96875 127.351562 C 58.722656 127.351562 57.808594 128.421875 57.808594 129.65625 C 57.808594 130.925781 58.792969 131.910156 59.945312 131.910156 C 61.277344 131.910156 61.59375 130.71875 61.59375 130.617188 C 61.59375 130.519531 61.496094 130.519531 61.46875 130.519531 L 61.335938 130.617188 C 61.050781 131.542969 60.402344 131.664062 60.035156 131.664062 C 59.507812 131.664062 58.636719 131.234375 58.636719 129.632812 "/>
<path fill-rule="nonzero" fill="rgb(13.729858%, 12.159729%, 12.548828%)" fill-opacity="1" d="M 62.765625 131.042969 C 62.765625 131.492188 62.65625 131.492188 61.988281 131.492188 L 61.988281 131.800781 C 62.339844 131.792969 62.84375 131.769531 63.113281 131.769531 C 63.371094 131.769531 63.890625 131.792969 64.226562 131.800781 L 64.226562 131.492188 C 63.558594 131.492188 63.453125 131.492188 63.453125 131.042969 L 63.453125 129.21875 C 63.453125 128.183594 64.15625 127.628906 64.792969 127.628906 C 65.417969 127.628906 65.527344 128.164062 65.527344 128.730469 L 65.527344 131.042969 C 65.527344 131.492188 65.417969 131.492188 64.753906 131.492188 L 64.753906 131.800781 C 65.097656 131.792969 65.605469 131.769531 65.875 131.769531 C 66.132812 131.769531 66.648438 131.792969 66.988281 131.800781 L 66.988281 131.492188 C 66.472656 131.492188 66.222656 131.492188 66.210938 131.195312 L 66.210938 129.296875 C 66.210938 128.441406 66.210938 128.132812 65.90625 127.777344 C 65.765625 127.609375 65.4375 127.410156 64.863281 127.410156 C 64.027344 127.410156 63.589844 128.003906 63.421875 128.382812 L 63.421875 124.90625 L 61.988281 125.015625 L 61.988281 125.324219 C 62.683594 125.324219 62.765625 125.390625 62.765625 125.878906 L 62.765625 131.042969 "/>
<path fill-rule="nonzero" fill="rgb(13.729858%, 12.159729%, 12.548828%)" fill-opacity="1" d="M 68.285156 129.296875 C 68.34375 127.816406 69.179688 127.570312 69.515625 127.570312 C 70.539062 127.570312 70.640625 128.910156 70.640625 129.296875 Z M 68.277344 129.503906 L 71.046875 129.503906 C 71.265625 129.503906 71.292969 129.503906 71.292969 129.296875 C 71.292969 128.3125 70.757812 127.351562 69.515625 127.351562 C 68.363281 127.351562 67.453125 128.375 67.453125 129.613281 C 67.453125 130.945312 68.496094 131.910156 69.636719 131.910156 C 70.847656 131.910156 71.292969 130.804688 71.292969 130.617188 C 71.292969 130.519531 71.21875 130.5 71.167969 130.5 L 71.035156 130.636719 C 70.691406 131.664062 69.792969 131.664062 69.695312 131.664062 C 69.199219 131.664062 68.800781 131.363281 68.574219 130.996094 C 68.277344 130.519531 68.277344 129.863281 68.277344 129.503906 "/>
<path fill-rule="nonzero" fill="rgb(13.729858%, 12.159729%, 12.548828%)" fill-opacity="1" d="M 73.332031 127.410156 L 71.941406 127.519531 L 71.941406 127.828125 C 72.585938 127.828125 72.675781 127.886719 72.675781 128.375 L 72.675781 131.042969 C 72.675781 131.492188 72.566406 131.492188 71.902344 131.492188 L 71.902344 131.800781 C 72.21875 131.792969 72.757812 131.769531 72.992188 131.769531 C 73.34375 131.769531 73.6875 131.792969 74.027344 131.800781 L 74.027344 131.492188 C 73.371094 131.492188 73.332031 131.441406 73.332031 131.054688 Z M 73.371094 125.679688 C 73.371094 125.363281 73.121094 125.15625 72.84375 125.15625 C 72.535156 125.15625 72.320312 125.421875 72.320312 125.679688 C 72.320312 125.949219 72.535156 126.207031 72.84375 126.207031 C 73.121094 126.207031 73.371094 126 73.371094 125.679688 "/>
<path fill-rule="nonzero" fill="rgb(13.729858%, 12.159729%, 12.548828%)" fill-opacity="1" d="M 75.464844 128.382812 L 75.464844 131.042969 C 75.464844 131.492188 75.355469 131.492188 74.691406 131.492188 L 74.691406 131.800781 C 75.039062 131.792969 75.542969 131.769531 75.8125 131.769531 C 76.070312 131.769531 76.589844 131.792969 76.925781 131.800781 L 76.925781 131.492188 C 76.261719 131.492188 76.152344 131.492188 76.152344 131.042969 L 76.152344 129.21875 C 76.152344 128.183594 76.855469 127.628906 77.492188 127.628906 C 78.117188 127.628906 78.226562 128.164062 78.226562 128.730469 L 78.226562 131.042969 C 78.226562 131.492188 78.117188 131.492188 77.453125 131.492188 L 77.453125 131.800781 C 77.800781 131.792969 78.308594 131.769531 78.574219 131.769531 C 78.835938 131.769531 79.347656 131.792969 79.6875 131.800781 L 79.6875 131.492188 C 79.171875 131.492188 78.921875 131.492188 78.910156 131.195312 L 78.910156 129.296875 C 78.910156 128.441406 78.910156 128.132812 78.605469 127.777344 C 78.464844 127.609375 78.140625 127.410156 77.5625 127.410156 C 76.835938 127.410156 76.371094 127.835938 76.09375 128.453125 L 76.09375 127.410156 L 74.691406 127.519531 L 74.691406 127.828125 C 75.386719 127.828125 75.464844 127.894531 75.464844 128.382812 "/>
<path fill-rule="nonzero" fill="rgb(13.729858%, 12.159729%, 12.548828%)" fill-opacity="1" d="M 81.632812 124.90625 L 80.203125 125.015625 L 80.203125 125.324219 C 80.898438 125.324219 80.976562 125.390625 80.976562 125.878906 L 80.976562 131.042969 C 80.976562 131.492188 80.867188 131.492188 80.203125 131.492188 L 80.203125 131.800781 C 80.53125 131.792969 81.054688 131.769531 81.300781 131.769531 C 81.550781 131.769531 82.039062 131.792969 82.40625 131.800781 L 82.40625 131.492188 C 81.738281 131.492188 81.632812 131.492188 81.632812 131.042969 L 81.632812 124.90625 "/>
<path fill-rule="nonzero" fill="rgb(13.729858%, 12.159729%, 12.548828%)" fill-opacity="1" d="M 84.429688 127.410156 L 83.039062 127.519531 L 83.039062 127.828125 C 83.683594 127.828125 83.777344 127.886719 83.777344 128.375 L 83.777344 131.042969 C 83.777344 131.492188 83.667969 131.492188 83 131.492188 L 83 131.800781 C 83.320312 131.792969 83.855469 131.769531 84.09375 131.769531 C 84.441406 131.769531 84.789062 131.792969 85.125 131.800781 L 85.125 131.492188 C 84.472656 131.492188 84.429688 131.441406 84.429688 131.054688 Z M 84.472656 125.679688 C 84.472656 125.363281 84.222656 125.15625 83.945312 125.15625 C 83.636719 125.15625 83.417969 125.421875 83.417969 125.679688 C 83.417969 125.949219 83.636719 126.207031 83.945312 126.207031 C 84.222656 126.207031 84.472656 126 84.472656 125.679688 "/>
<path fill-rule="nonzero" fill="rgb(13.729858%, 12.159729%, 12.548828%)" fill-opacity="1" d="M 86.636719 129.632812 C 86.636719 128.015625 87.449219 127.597656 87.976562 127.597656 C 88.066406 127.597656 88.691406 127.609375 89.039062 127.964844 C 88.632812 127.996094 88.574219 128.292969 88.574219 128.421875 C 88.574219 128.679688 88.75 128.878906 89.03125 128.878906 C 89.285156 128.878906 89.484375 128.710938 89.484375 128.414062 C 89.484375 127.738281 88.730469 127.351562 87.96875 127.351562 C 86.722656 127.351562 85.808594 128.421875 85.808594 129.65625 C 85.808594 130.925781 86.792969 131.910156 87.945312 131.910156 C 89.277344 131.910156 89.59375 130.71875 89.59375 130.617188 C 89.59375 130.519531 89.496094 130.519531 89.46875 130.519531 L 89.335938 130.617188 C 89.050781 131.542969 88.402344 131.664062 88.035156 131.664062 C 87.507812 131.664062 86.636719 131.234375 86.636719 129.632812 "/>
<path fill-rule="nonzero" fill="rgb(13.729858%, 12.159729%, 12.548828%)" fill-opacity="1" d="M 90.664062 131.042969 C 90.664062 131.492188 90.554688 131.492188 89.890625 131.492188 L 89.890625 131.800781 C 90.238281 131.792969 90.746094 131.769531 91.015625 131.769531 C 91.273438 131.769531 91.789062 131.792969 92.125 131.800781 L 92.125 131.492188 C 91.460938 131.492188 91.351562 131.492188 91.351562 131.042969 L 91.351562 129.21875 C 91.351562 128.183594 92.054688 127.628906 92.691406 127.628906 C 93.320312 127.628906 93.425781 128.164062 93.425781 128.730469 L 93.425781 131.042969 C 93.425781 131.492188 93.320312 131.492188 92.652344 131.492188 L 92.652344 131.800781 C 93 131.792969 93.507812 131.769531 93.773438 131.769531 C 94.035156 131.769531 94.550781 131.792969 94.886719 131.800781 L 94.886719 131.492188 C 94.371094 131.492188 94.121094 131.492188 94.113281 131.195312 L 94.113281 129.296875 C 94.113281 128.441406 94.113281 128.132812 93.804688 127.777344 C 93.664062 127.609375 93.339844 127.410156 92.761719 127.410156 C 91.925781 127.410156 91.488281 128.003906 91.320312 128.382812 L 91.320312 124.90625 L 89.890625 125.015625 L 89.890625 125.324219 C 90.585938 125.324219 90.664062 125.390625 90.664062 125.878906 L 90.664062 131.042969 "/>
<path fill-rule="nonzero" fill="rgb(13.729858%, 12.159729%, 12.548828%)" fill-opacity="1" d="M 96.226562 131.042969 C 96.226562 131.492188 96.117188 131.492188 95.453125 131.492188 L 95.453125 131.800781 C 95.78125 131.792969 96.246094 131.769531 96.535156 131.769531 C 96.832031 131.769531 97.230469 131.78125 97.625 131.800781 L 97.625 131.492188 C 96.960938 131.492188 96.851562 131.492188 96.851562 131.042969 L 96.851562 130.023438 L 97.488281 129.476562 C 98.253906 130.527344 98.667969 131.085938 98.667969 131.265625 C 98.667969 131.453125 98.5 131.492188 98.3125 131.492188 L 98.3125 131.800781 C 98.589844 131.792969 99.175781 131.769531 99.386719 131.769531 C 99.671875 131.769531 99.960938 131.78125 100.25 131.800781 L 100.25 131.492188 C 99.882812 131.492188 99.664062 131.492188 99.285156 130.964844 L 98.023438 129.1875 L 97.964844 129.078125 C 97.964844 129.039062 98.667969 128.441406 98.769531 128.363281 C 99.394531 127.855469 99.8125 127.835938 100.019531 127.828125 L 100.019531 127.519531 C 99.730469 127.546875 99.601562 127.546875 99.324219 127.546875 C 98.96875 127.546875 98.351562 127.527344 98.210938 127.519531 L 98.210938 127.828125 C 98.402344 127.835938 98.5 127.945312 98.5 128.074219 C 98.5 128.273438 98.363281 128.390625 98.28125 128.460938 L 96.882812 129.671875 L 96.882812 124.90625 L 95.453125 125.015625 L 95.453125 125.324219 C 96.148438 125.324219 96.226562 125.390625 96.226562 125.878906 L 96.226562 131.042969 "/>
<path fill-rule="nonzero" fill="rgb(13.729858%, 12.159729%, 12.548828%)" fill-opacity="1" d="M 101.1875 129.296875 C 101.246094 127.816406 102.078125 127.570312 102.417969 127.570312 C 103.441406 127.570312 103.539062 128.910156 103.539062 129.296875 Z M 101.175781 129.503906 L 103.945312 129.503906 C 104.164062 129.503906 104.195312 129.503906 104.195312 129.296875 C 104.195312 128.3125 103.660156 127.351562 102.417969 127.351562 C 101.265625 127.351562 100.351562 128.375 100.351562 129.613281 C 100.351562 130.945312 101.394531 131.910156 102.535156 131.910156 C 103.746094 131.910156 104.195312 130.804688 104.195312 130.617188 C 104.195312 130.519531 104.117188 130.5 104.066406 130.5 L 103.9375 130.636719 C 103.589844 131.664062 102.695312 131.664062 102.597656 131.664062 C 102.101562 131.664062 101.703125 131.363281 101.472656 130.996094 C 101.175781 130.519531 101.175781 129.863281 101.175781 129.503906 "/>
<path fill-rule="nonzero" fill="rgb(13.729858%, 12.159729%, 12.548828%)" fill-opacity="1" d="M 106.332031 127.410156 L 104.941406 127.519531 L 104.941406 127.828125 C 105.585938 127.828125 105.675781 127.886719 105.675781 128.375 L 105.675781 131.042969 C 105.675781 131.492188 105.566406 131.492188 104.902344 131.492188 L 104.902344 131.800781 C 105.21875 131.792969 105.757812 131.769531 105.992188 131.769531 C 106.34375 131.769531 106.6875 131.792969 107.027344 131.800781 L 107.027344 131.492188 C 106.371094 131.492188 106.332031 131.441406 106.332031 131.054688 Z M 106.371094 125.679688 C 106.371094 125.363281 106.121094 125.15625 105.84375 125.15625 C 105.535156 125.15625 105.316406 125.421875 105.316406 125.679688 C 105.316406 125.949219 105.535156 126.207031 105.84375 126.207031 C 106.121094 126.207031 106.371094 126 106.371094 125.679688 "/>
<path fill-rule="nonzero" fill="rgb(13.729858%, 12.159729%, 12.548828%)" fill-opacity="1" d="M 108.992188 127.828125 L 110.410156 127.828125 L 110.410156 127.519531 L 108.992188 127.519531 L 108.992188 125.691406 L 108.742188 125.691406 C 108.734375 126.503906 108.4375 127.570312 107.460938 127.609375 L 107.460938 127.828125 L 108.304688 127.828125 L 108.304688 130.570312 C 108.304688 131.792969 109.230469 131.910156 109.585938 131.910156 C 110.292969 131.910156 110.570312 131.207031 110.570312 130.570312 L 110.570312 130 L 110.324219 130 L 110.324219 130.546875 C 110.324219 131.28125 110.023438 131.664062 109.65625 131.664062 C 108.992188 131.664062 108.992188 130.757812 108.992188 130.585938 L 108.992188 127.828125 "/>
<path fill-rule="nonzero" fill="rgb(13.729858%, 12.159729%, 12.548828%)" fill-opacity="1" d="M 113.238281 129.875 C 113.457031 129.914062 114.273438 130.070312 114.273438 130.789062 C 114.273438 131.292969 113.925781 131.691406 113.148438 131.691406 C 112.316406 131.691406 111.957031 131.125 111.769531 130.28125 C 111.738281 130.152344 111.730469 130.109375 111.628906 130.109375 C 111.5 130.109375 111.5 130.179688 111.5 130.359375 L 111.5 131.667969 C 111.5 131.839844 111.5 131.910156 111.609375 131.910156 C 111.660156 131.910156 111.671875 131.898438 111.859375 131.710938 C 111.878906 131.691406 111.878906 131.667969 112.058594 131.484375 C 112.496094 131.898438 112.941406 131.910156 113.148438 131.910156 C 114.292969 131.910156 114.75 131.242188 114.75 130.527344 C 114.75 130 114.449219 129.707031 114.332031 129.585938 C 114.003906 129.265625 113.617188 129.1875 113.199219 129.109375 C 112.644531 129 111.976562 128.871094 111.976562 128.292969 C 111.976562 127.945312 112.234375 127.539062 113.089844 127.539062 C 114.183594 127.539062 114.230469 128.433594 114.253906 128.742188 L 114.371094 128.832031 C 114.5 128.832031 114.5 128.78125 114.5 128.59375 L 114.5 127.585938 C 114.5 127.417969 114.5 127.351562 114.390625 127.351562 C 114.34375 127.351562 114.320312 127.351562 114.191406 127.46875 L 114.023438 127.628906 C 113.648438 127.351562 113.238281 127.351562 113.089844 127.351562 C 111.878906 127.351562 111.5 128.015625 111.5 128.570312 C 111.5 128.917969 111.660156 129.195312 111.929688 129.417969 C 112.246094 129.671875 112.523438 129.734375 113.238281 129.875 "/>
<path fill-rule="nonzero" fill="rgb(13.729858%, 12.159729%, 12.548828%)" fill-opacity="1" d="M 118.847656 131.253906 L 118.847656 131.910156 L 120.308594 131.800781 L 120.308594 131.492188 C 119.613281 131.492188 119.535156 131.421875 119.535156 130.9375 L 119.535156 124.90625 L 118.101562 125.015625 L 118.101562 125.324219 C 118.796875 125.324219 118.878906 125.390625 118.878906 125.878906 L 118.878906 128.023438 C 118.589844 127.667969 118.160156 127.410156 117.625 127.410156 C 116.453125 127.410156 115.410156 128.382812 115.410156 129.664062 C 115.410156 130.925781 116.382812 131.910156 117.515625 131.910156 C 118.152344 131.910156 118.601562 131.570312 118.847656 131.253906 Z M 118.847656 128.59375 L 118.847656 130.628906 C 118.847656 130.804688 118.847656 130.828125 118.738281 130.996094 C 118.441406 131.472656 117.992188 131.691406 117.566406 131.691406 C 117.121094 131.691406 116.761719 131.433594 116.523438 131.054688 C 116.265625 130.648438 116.234375 130.082031 116.234375 129.671875 C 116.234375 129.304688 116.257812 128.710938 116.542969 128.265625 C 116.75 127.957031 117.128906 127.628906 117.664062 127.628906 C 118.015625 127.628906 118.429688 127.777344 118.738281 128.222656 C 118.847656 128.390625 118.847656 128.414062 118.847656 128.59375 "/>
<path fill-rule="nonzero" fill="rgb(13.729858%, 12.159729%, 12.548828%)" fill-opacity="1" d="M 122.429688 127.410156 L 121.039062 127.519531 L 121.039062 127.828125 C 121.6875 127.828125 121.777344 127.886719 121.777344 128.375 L 121.777344 131.042969 C 121.777344 131.492188 121.667969 131.492188 121 131.492188 L 121 131.800781 C 121.316406 131.792969 121.855469 131.769531 122.09375 131.769531 C 122.441406 131.769531 122.789062 131.792969 123.125 131.800781 L 123.125 131.492188 C 122.472656 131.492188 122.429688 131.441406 122.429688 131.054688 Z M 122.472656 125.679688 C 122.472656 125.363281 122.222656 125.15625 121.945312 125.15625 C 121.636719 125.15625 121.417969 125.421875 121.417969 125.679688 C 121.417969 125.949219 121.636719 126.207031 121.945312 126.207031 C 122.222656 126.207031 122.472656 126 122.472656 125.679688 "/>
<path fill-rule="nonzero" fill="rgb(13.729858%, 12.159729%, 12.548828%)" fill-opacity="1" d="M 124.535156 129.632812 C 124.535156 128.015625 125.351562 127.597656 125.875 127.597656 C 125.964844 127.597656 126.59375 127.609375 126.9375 127.964844 C 126.53125 127.996094 126.472656 128.292969 126.472656 128.421875 C 126.472656 128.679688 126.652344 128.878906 126.929688 128.878906 C 127.1875 128.878906 127.386719 128.710938 127.386719 128.414062 C 127.386719 127.738281 126.632812 127.351562 125.867188 127.351562 C 124.625 127.351562 123.710938 128.421875 123.710938 129.65625 C 123.710938 130.925781 124.695312 131.910156 125.847656 131.910156 C 127.179688 131.910156 127.496094 130.71875 127.496094 130.617188 C 127.496094 130.519531 127.398438 130.519531 127.367188 130.519531 L 127.238281 130.617188 C 126.949219 131.542969 126.304688 131.664062 125.9375 131.664062 C 125.410156 131.664062 124.535156 131.234375 124.535156 129.632812 "/>
<path fill-rule="nonzero" fill="rgb(13.729858%, 12.159729%, 12.548828%)" fill-opacity="1" d="M 128.664062 131.042969 C 128.664062 131.492188 128.554688 131.492188 127.890625 131.492188 L 127.890625 131.800781 C 128.238281 131.792969 128.746094 131.769531 129.015625 131.769531 C 129.273438 131.769531 129.789062 131.792969 130.125 131.800781 L 130.125 131.492188 C 129.460938 131.492188 129.351562 131.492188 129.351562 131.042969 L 129.351562 129.21875 C 129.351562 128.183594 130.054688 127.628906 130.691406 127.628906 C 131.316406 127.628906 131.429688 128.164062 131.429688 128.730469 L 131.429688 131.042969 C 131.429688 131.492188 131.316406 131.492188 130.652344 131.492188 L 130.652344 131.800781 C 131 131.792969 131.507812 131.769531 131.773438 131.769531 C 132.035156 131.769531 132.550781 131.792969 132.886719 131.800781 L 132.886719 131.492188 C 132.371094 131.492188 132.121094 131.492188 132.113281 131.195312 L 132.113281 129.296875 C 132.113281 128.441406 132.113281 128.132812 131.804688 127.777344 C 131.664062 127.609375 131.339844 127.410156 130.761719 127.410156 C 129.929688 127.410156 129.488281 128.003906 129.320312 128.382812 L 129.320312 124.90625 L 127.890625 125.015625 L 127.890625 125.324219 C 128.585938 125.324219 128.664062 125.390625 128.664062 125.878906 L 128.664062 131.042969 "/>
<path fill-rule="nonzero" fill="rgb(13.729858%, 12.159729%, 12.548828%)" fill-opacity="1" d="M 134.492188 127.828125 L 135.910156 127.828125 L 135.910156 127.519531 L 134.492188 127.519531 L 134.492188 125.691406 L 134.242188 125.691406 C 134.234375 126.503906 133.9375 127.570312 132.960938 127.609375 L 132.960938 127.828125 L 133.804688 127.828125 L 133.804688 130.570312 C 133.804688 131.792969 134.730469 131.910156 135.085938 131.910156 C 135.792969 131.910156 136.070312 131.207031 136.070312 130.570312 L 136.070312 130 L 135.824219 130 L 135.824219 130.546875 C 135.824219 131.28125 135.523438 131.664062 135.15625 131.664062 C 134.492188 131.664062 134.492188 130.757812 134.492188 130.585938 L 134.492188 127.828125 "/>
<path fill-rule="nonzero" fill="rgb(13.729858%, 12.159729%, 12.548828%)" fill-opacity="1" d="M 137.785156 129.296875 C 137.84375 127.816406 138.679688 127.570312 139.015625 127.570312 C 140.039062 127.570312 140.140625 128.910156 140.140625 129.296875 Z M 137.777344 129.503906 L 140.546875 129.503906 C 140.765625 129.503906 140.796875 129.503906 140.796875 129.296875 C 140.796875 128.3125 140.257812 127.351562 139.015625 127.351562 C 137.863281 127.351562 136.949219 128.375 136.949219 129.613281 C 136.949219 130.945312 137.996094 131.910156 139.136719 131.910156 C 140.347656 131.910156 140.796875 130.804688 140.796875 130.617188 C 140.796875 130.519531 140.71875 130.5 140.667969 130.5 L 140.535156 130.636719 C 140.191406 131.664062 139.296875 131.664062 139.195312 131.664062 C 138.699219 131.664062 138.304688 131.363281 138.074219 130.996094 C 137.777344 130.519531 137.777344 129.863281 137.777344 129.503906 "/>
<path fill-rule="nonzero" fill="rgb(13.729858%, 12.159729%, 12.548828%)" fill-opacity="1" d="M 148.605469 128.492188 C 148.695312 128.265625 148.863281 127.835938 149.519531 127.828125 L 149.519531 127.519531 C 149.289062 127.539062 149.003906 127.546875 148.773438 127.546875 C 148.535156 127.546875 148.078125 127.527344 147.910156 127.519531 L 147.910156 127.828125 C 148.277344 127.835938 148.386719 128.066406 148.386719 128.253906 C 148.386719 128.34375 148.367188 128.382812 148.328125 128.492188 L 147.316406 131.023438 L 146.199219 128.253906 C 146.140625 128.125 146.140625 128.105469 146.140625 128.085938 C 146.140625 127.828125 146.527344 127.828125 146.707031 127.828125 L 146.707031 127.519531 C 146.410156 127.527344 145.855469 127.546875 145.625 127.546875 C 145.355469 127.546875 144.960938 127.539062 144.660156 127.519531 L 144.660156 127.828125 C 145.285156 127.828125 145.328125 127.886719 145.457031 128.195312 L 146.886719 131.71875 C 146.945312 131.859375 146.96875 131.910156 147.09375 131.910156 C 147.226562 131.910156 147.265625 131.820312 147.304688 131.71875 L 148.605469 128.492188 "/>
<path fill-rule="nonzero" fill="rgb(13.729858%, 12.159729%, 12.548828%)" fill-opacity="1" d="M 154.050781 129.671875 C 154.050781 128.402344 153.058594 127.351562 151.855469 127.351562 C 150.613281 127.351562 149.652344 128.433594 149.652344 129.671875 C 149.652344 130.957031 150.683594 131.910156 151.847656 131.910156 C 153.046875 131.910156 154.050781 130.9375 154.050781 129.671875 Z M 151.855469 131.664062 C 151.429688 131.664062 150.992188 131.453125 150.726562 130.996094 C 150.476562 130.558594 150.476562 129.953125 150.476562 129.59375 C 150.476562 129.207031 150.476562 128.667969 150.714844 128.234375 C 150.980469 127.777344 151.449219 127.570312 151.847656 127.570312 C 152.285156 127.570312 152.710938 127.789062 152.96875 128.214844 C 153.230469 128.640625 153.230469 129.21875 153.230469 129.59375 C 153.230469 129.953125 153.230469 130.488281 153.007812 130.925781 C 152.789062 131.375 152.355469 131.664062 151.855469 131.664062 "/>
<path fill-rule="nonzero" fill="rgb(13.729858%, 12.159729%, 12.548828%)" fill-opacity="1" d="M 155.464844 128.382812 L 155.464844 131.042969 C 155.464844 131.492188 155.355469 131.492188 154.691406 131.492188 L 154.691406 131.800781 C 155.039062 131.792969 155.546875 131.769531 155.816406 131.769531 C 156.070312 131.769531 156.589844 131.792969 156.925781 131.800781 L 156.925781 131.492188 C 156.261719 131.492188 156.152344 131.492188 156.152344 131.042969 L 156.152344 129.21875 C 156.152344 128.183594 156.855469 127.628906 157.492188 127.628906 C 158.117188 127.628906 158.230469 128.164062 158.230469 128.730469 L 158.230469 131.042969 C 158.230469 131.492188 158.117188 131.492188 157.453125 131.492188 L 157.453125 131.800781 C 157.800781 131.792969 158.308594 131.769531 158.574219 131.769531 C 158.835938 131.769531 159.351562 131.792969 159.6875 131.800781 L 159.6875 131.492188 C 159.171875 131.492188 158.921875 131.492188 158.910156 131.195312 L 158.910156 129.296875 C 158.910156 128.441406 158.910156 128.132812 158.605469 127.777344 C 158.464844 127.609375 158.140625 127.410156 157.5625 127.410156 C 156.835938 127.410156 156.371094 127.835938 156.09375 128.453125 L 156.09375 127.410156 L 154.691406 127.519531 L 154.691406 127.828125 C 155.386719 127.828125 155.464844 127.894531 155.464844 128.382812 "/>
<path fill-rule="nonzero" fill="rgb(13.729858%, 12.159729%, 12.548828%)" fill-opacity="1" d="M 168.089844 127.71875 L 167.257812 125.742188 L 167.207031 125.609375 C 167.207031 125.550781 167.375 125.363281 167.792969 125.324219 C 167.890625 125.3125 167.992188 125.304688 167.992188 125.132812 C 167.992188 125.015625 167.871094 125.015625 167.84375 125.015625 C 167.4375 125.015625 167.007812 125.042969 166.589844 125.042969 C 166.34375 125.042969 165.726562 125.015625 165.480469 125.015625 C 165.417969 125.015625 165.300781 125.015625 165.300781 125.214844 C 165.300781 125.324219 165.398438 125.324219 165.527344 125.324219 C 166.125 125.324219 166.183594 125.421875 166.273438 125.640625 L 167.445312 128.414062 L 165.351562 130.667969 L 165.21875 130.777344 C 164.734375 131.304688 164.265625 131.460938 163.761719 131.492188 C 163.632812 131.5 163.542969 131.5 163.542969 131.691406 C 163.542969 131.699219 163.542969 131.800781 163.671875 131.800781 C 163.96875 131.800781 164.296875 131.769531 164.605469 131.769531 C 164.972656 131.769531 165.359375 131.800781 165.71875 131.800781 C 165.777344 131.800781 165.894531 131.800781 165.894531 131.601562 C 165.894531 131.5 165.796875 131.492188 165.777344 131.492188 C 165.6875 131.484375 165.378906 131.460938 165.378906 131.183594 C 165.378906 131.023438 165.527344 130.867188 165.648438 130.738281 L 166.660156 129.664062 L 167.554688 128.691406 L 168.558594 131.066406 C 168.597656 131.171875 168.605469 131.183594 168.605469 131.207031 C 168.605469 131.28125 168.417969 131.453125 168.03125 131.492188 C 167.921875 131.5 167.832031 131.511719 167.832031 131.679688 C 167.832031 131.800781 167.941406 131.800781 167.980469 131.800781 C 168.261719 131.800781 168.957031 131.769531 169.234375 131.769531 C 169.480469 131.769531 170.085938 131.800781 170.335938 131.800781 C 170.40625 131.800781 170.523438 131.800781 170.523438 131.609375 C 170.523438 131.492188 170.425781 131.492188 170.347656 131.492188 C 169.679688 131.484375 169.660156 131.453125 169.492188 131.054688 C 169.105469 130.132812 168.441406 128.582031 168.210938 127.984375 C 168.886719 127.292969 169.929688 126.109375 170.246094 125.832031 C 170.535156 125.59375 170.910156 125.351562 171.507812 125.324219 C 171.636719 125.3125 171.726562 125.3125 171.726562 125.125 C 171.726562 125.113281 171.726562 125.015625 171.597656 125.015625 C 171.300781 125.015625 170.972656 125.042969 170.664062 125.042969 C 170.296875 125.042969 169.917969 125.015625 169.5625 125.015625 C 169.5 125.015625 169.371094 125.015625 169.371094 125.214844 L 169.492188 125.324219 C 169.582031 125.332031 169.890625 125.351562 169.890625 125.632812 C 169.890625 125.769531 169.777344 125.898438 169.699219 125.988281 L 168.089844 127.71875 "/>
<path fill-rule="nonzero" fill="rgb(13.729858%, 12.159729%, 12.548828%)" fill-opacity="1" d="M 169.097656 98.027344 L 168.847656 98.027344 L 168.847656 100.027344 L 169.097656 100.027344 Z M 169.097656 95.027344 L 168.847656 95.027344 L 168.847656 97.027344 L 169.097656 97.027344 Z M 169.097656 92.027344 L 168.847656 92.027344 L 168.847656 94.027344 L 169.097656 94.027344 Z M 169.097656 89.027344 L 168.847656 89.027344 L 168.847656 91.027344 L 169.097656 91.027344 Z M 169.097656 86.027344 L 168.847656 86.027344 L 168.847656 88.027344 L 169.097656 88.027344 Z M 169.097656 83.027344 L 168.847656 83.027344 L 168.847656 85.027344 L 169.097656 85.027344 Z M 169.097656 80.027344 L 168.847656 80.027344 L 168.847656 82.027344 L 169.097656 82.027344 Z M 169.097656 77.027344 L 168.847656 77.027344 L 168.847656 79.027344 L 169.097656 79.027344 Z M 169.097656 74.027344 L 168.847656 74.027344 L 168.847656 76.027344 L 169.097656 76.027344 Z M 169.097656 71.027344 L 168.847656 71.027344 L 168.847656 73.027344 L 169.097656 73.027344 Z M 169.097656 68.027344 L 168.847656 68.027344 L 168.847656 70.027344 L 169.097656 70.027344 Z M 169.097656 65.027344 L 168.847656 65.027344 L 168.847656 67.027344 L 169.097656 67.027344 Z M 169.097656 62.027344 L 168.847656 62.027344 L 168.847656 64.027344 L 169.097656 64.027344 Z M 169.097656 59.027344 L 168.847656 59.027344 L 168.847656 61.027344 L 169.097656 61.027344 Z M 169.097656 56.027344 L 168.847656 56.027344 L 168.847656 58.027344 L 169.097656 58.027344 Z M 169.097656 53.027344 L 168.847656 53.027344 L 168.847656 55.027344 L 169.097656 55.027344 Z M 169.097656 50.027344 L 168.847656 50.027344 L 168.847656 52.027344 L 169.097656 52.027344 Z M 169.097656 47.027344 L 168.847656 47.027344 L 168.847656 49.027344 L 169.097656 49.027344 Z M 169.097656 44.027344 L 168.847656 44.027344 L 168.847656 46.027344 L 169.097656 46.027344 Z M 169.097656 41.027344 L 168.847656 41.027344 L 168.847656 43.027344 L 169.097656 43.027344 Z M 169.097656 38.027344 L 168.847656 38.027344 L 168.847656 40.027344 L 169.097656 40.027344 Z M 169.097656 35.027344 L 168.847656 35.027344 L 168.847656 37.027344 L 169.097656 37.027344 Z M 169.097656 32.027344 L 168.847656 32.027344 L 168.847656 34.027344 L 169.097656 34.027344 Z M 169.097656 29.027344 L 168.847656 29.027344 L 168.847656 31.027344 L 169.097656 31.027344 Z M 169.097656 26.027344 L 168.847656 26.027344 L 168.847656 28.027344 L 169.097656 28.027344 Z M 169.097656 23.027344 L 168.847656 23.027344 L 168.847656 25.027344 L 169.097656 25.027344 Z M 169.097656 20.027344 L 168.847656 20.027344 L 168.847656 22.027344 L 169.097656 22.027344 Z M 169.097656 18.183594 L 168.847656 18.183594 L 168.847656 19.027344 L 169.097656 19.027344 Z M 169.097656 18.183594 "/>
</svg>
