<?xml version="1.0" encoding="UTF-8" standalone="no"?>
<!DOCTYPE svg PUBLIC "-//W3C//DTD SVG 1.1//EN" "http://www.w3.org/Graphics/SVG/1.1/DTD/svg11.dtd">
<svg width="100%" height="100%" viewBox="0 0 216 216" version="1.1" xmlns="http://www.w3.org/2000/svg" xmlns:xlink="http://www.w3.org/1999/xlink" xml:space="preserve" xmlns:serif="http://www.serif.com/" style="fill-rule:evenodd;clip-rule:evenodd;stroke-linecap:round;stroke-linejoin:round;stroke-miterlimit:10;">
    <g>
        <clipPath id="_clip1">
            <rect x="2.05" y="0" width="211.9" height="216" clip-rule="nonzero"/>
        </clipPath>
        <g clip-path="url(#_clip1)">
            <rect x="2.05" y="0" width="211.9" height="216" style="fill:white;stroke:white;stroke-width:1.07px;"/>
            <g>
                <clipPath id="_clip2">
                    <rect x="17.46" y="5.48" width="191.01" height="191.01" clip-rule="nonzero"/>
                </clipPath>
                <g clip-path="url(#_clip2)">
                    <g transform="matrix(1,0,0,1,0,-14.03)">
                        <rect x="17.46" y="19.51" width="191.01" height="191.01" style="fill:white;"/>
                    </g>
                    <g transform="matrix(1,0,0,1,0,142.24)">
                        <path d="M17.46,36.88L208.47,36.88" style="fill:none;fill-rule:nonzero;stroke:rgb(190,190,190);stroke-width:1.07px;stroke-linecap:butt;"/>
                    </g>
                    <g transform="matrix(1,0,0,1,0,124.88)">
                        <path d="M17.46,45.56L208.47,45.56" style="fill:none;fill-rule:nonzero;stroke:rgb(190,190,190);stroke-width:1.07px;stroke-linecap:butt;"/>
                    </g>
                    <g transform="matrix(1,0,0,1,0,107.52)">
                        <path d="M17.46,54.24L208.47,54.24" style="fill:none;fill-rule:nonzero;stroke:rgb(190,190,190);stroke-width:1.07px;stroke-linecap:butt;"/>
                    </g>
                    <g transform="matrix(1,0,0,1,0,90.16)">
                        <path d="M17.46,62.92L208.47,62.92" style="fill:none;fill-rule:nonzero;stroke:rgb(190,190,190);stroke-width:1.07px;stroke-linecap:butt;"/>
                    </g>
                    <g transform="matrix(1,0,0,1,0,72.78)">
                        <path d="M17.46,71.61L208.47,71.61" style="fill:none;fill-rule:nonzero;stroke:rgb(190,190,190);stroke-width:1.07px;stroke-linecap:butt;"/>
                    </g>
                    <g transform="matrix(1,0,0,1,0,55.42)">
                        <path d="M17.46,80.29L208.47,80.29" style="fill:none;fill-rule:nonzero;stroke:rgb(190,190,190);stroke-width:1.07px;stroke-linecap:butt;"/>
                    </g>
                    <g transform="matrix(1,0,0,1,0,38.06)">
                        <path d="M17.46,88.97L208.47,88.97" style="fill:none;fill-rule:nonzero;stroke:rgb(190,190,190);stroke-width:1.07px;stroke-linecap:butt;"/>
                    </g>
                    <g transform="matrix(1,0,0,1,0,20.7)">
                        <path d="M17.46,97.65L208.47,97.65" style="fill:none;fill-rule:nonzero;stroke:rgb(190,190,190);stroke-width:1.07px;stroke-linecap:butt;"/>
                    </g>
                    <g transform="matrix(1,0,0,1,0,3.34)">
                        <path d="M17.46,106.33L208.47,106.33" style="fill:none;fill-rule:nonzero;stroke:rgb(190,190,190);stroke-width:1.07px;stroke-linecap:butt;"/>
                    </g>
                    <g transform="matrix(1,0,0,1,0,-14.04)">
                        <path d="M17.46,115.02L208.47,115.02" style="fill:none;fill-rule:nonzero;stroke:rgb(190,190,190);stroke-width:1.07px;stroke-linecap:butt;"/>
                    </g>
                    <g transform="matrix(1,0,0,1,0,-31.4)">
                        <path d="M17.46,123.7L208.47,123.7" style="fill:none;fill-rule:nonzero;stroke:rgb(190,190,190);stroke-width:1.07px;stroke-linecap:butt;"/>
                    </g>
                    <g transform="matrix(1,0,0,1,0,-48.76)">
                        <path d="M17.46,132.38L208.47,132.38" style="fill:none;fill-rule:nonzero;stroke:rgb(190,190,190);stroke-width:1.07px;stroke-linecap:butt;"/>
                    </g>
                    <g transform="matrix(1,0,0,1,0,-66.12)">
                        <path d="M17.46,141.06L208.47,141.06" style="fill:none;fill-rule:nonzero;stroke:rgb(190,190,190);stroke-width:1.07px;stroke-linecap:butt;"/>
                    </g>
                    <g transform="matrix(1,0,0,1,0,-83.5)">
                        <path d="M17.46,149.75L208.47,149.75" style="fill:none;fill-rule:nonzero;stroke:rgb(190,190,190);stroke-width:1.07px;stroke-linecap:butt;"/>
                    </g>
                    <g transform="matrix(1,0,0,1,0,-100.86)">
                        <path d="M17.46,158.43L208.47,158.43" style="fill:none;fill-rule:nonzero;stroke:rgb(190,190,190);stroke-width:1.07px;stroke-linecap:butt;"/>
                    </g>
                    <g transform="matrix(1,0,0,1,0,-118.22)">
                        <path d="M17.46,167.11L208.47,167.11" style="fill:none;fill-rule:nonzero;stroke:rgb(190,190,190);stroke-width:1.07px;stroke-linecap:butt;"/>
                    </g>
                    <g transform="matrix(1,0,0,1,0,-135.58)">
                        <path d="M17.46,175.79L208.47,175.79" style="fill:none;fill-rule:nonzero;stroke:rgb(190,190,190);stroke-width:1.07px;stroke-linecap:butt;"/>
                    </g>
                    <g transform="matrix(1,0,0,1,0,-152.94)">
                        <path d="M17.46,184.47L208.47,184.47" style="fill:none;fill-rule:nonzero;stroke:rgb(190,190,190);stroke-width:1.07px;stroke-linecap:butt;"/>
                    </g>
                    <g transform="matrix(1,0,0,1,0,-170.32)">
                        <path d="M17.46,193.16L208.47,193.16" style="fill:none;fill-rule:nonzero;stroke:rgb(190,190,190);stroke-width:1.07px;stroke-linecap:butt;"/>
                    </g>
                    <g transform="matrix(0,-1,-1,0,175.885,161.855)">
                        <path d="M-34.635,115.015L156.375,115.015" style="fill:none;fill-rule:nonzero;stroke:rgb(190,190,190);stroke-width:1.07px;stroke-linecap:butt;"/>
                    </g>
                    <g transform="matrix(0,-1,-1,0,210.615,196.585)">
                        <path d="M0.095,115.015L191.105,115.015" style="fill:none;fill-rule:nonzero;stroke:rgb(190,190,190);stroke-width:1.07px;stroke-linecap:butt;"/>
                    </g>
                    <g transform="matrix(0,-1,-1,0,245.345,231.315)">
                        <path d="M34.825,115.015L225.835,115.015" style="fill:none;fill-rule:nonzero;stroke:rgb(190,190,190);stroke-width:1.07px;stroke-linecap:butt;"/>
                    </g>
                    <g transform="matrix(0,-1,-1,0,280.075,266.045)">
                        <path d="M69.555,115.015L260.565,115.015" style="fill:none;fill-rule:nonzero;stroke:rgb(190,190,190);stroke-width:1.07px;stroke-linecap:butt;"/>
                    </g>
                    <g transform="matrix(1,0,0,1,0,159.6)">
                        <path d="M17.46,28.2L208.47,28.2" style="fill:none;fill-rule:nonzero;stroke:rgb(190,190,190);stroke-width:1.07px;stroke-linecap:butt;"/>
                    </g>
                    <g transform="matrix(1,0,0,1,0,-187.68)">
                        <path d="M17.46,201.84L208.47,201.84" style="fill:none;fill-rule:nonzero;stroke:rgb(190,190,190);stroke-width:1.07px;stroke-linecap:butt;"/>
                    </g>
                    <g transform="matrix(0,-1,-1,0,141.165,127.135)">
                        <path d="M-69.355,115.015L121.655,115.015" style="fill:none;fill-rule:nonzero;stroke:rgb(190,190,190);stroke-width:1.07px;stroke-linecap:butt;"/>
                    </g>
                    <g transform="matrix(0,-1,-1,0,314.805,300.775)">
                        <path d="M104.285,115.015L295.295,115.015" style="fill:none;fill-rule:nonzero;stroke:rgb(190,190,190);stroke-width:1.07px;stroke-linecap:butt;"/>
                    </g>
                    <g transform="matrix(0.707107,-0.707107,-0.707107,-0.707107,114.42,262.193)">
                        <path d="M-9.812,115.02L235.752,115.02" style="fill:none;fill-rule:nonzero;stroke:black;stroke-width:1.07px;stroke-linecap:butt;"/>
                    </g>
                    <g transform="matrix(5.41,0,0,5.41,27.2677,189.68)">
                    </g>
                    <text x="24px" y="189.68px" style="font-family:'Helvetica';font-size:5.41px;stroke:black;stroke-width:0.71px;">●</text>
                    <g transform="matrix(5.41,0,0,5.41,200.918,16.04)">
                    </g>
                    <text x="197.65px" y="16.04px" style="font-family:'Helvetica';font-size:5.41px;stroke:black;stroke-width:0.71px;">●</text>
                    <g transform="matrix(0.707107,-0.707107,-0.707107,-0.707107,114.42,262.193)">
                        <path d="M-9.812,115.02L235.752,115.02" style="fill:none;fill-rule:nonzero;stroke:black;stroke-width:0.53px;stroke-linecap:butt;"/>
                    </g>
                    <g transform="matrix(0.707107,-0.707107,-0.707107,-0.707107,114.42,262.193)">
                        <path d="M-9.812,115.02L235.752,115.02" style="fill:none;fill-rule:nonzero;stroke:black;stroke-width:0.53px;stroke-linecap:butt;"/>
                    </g>
                </g>
            </g>
            <g transform="matrix(9,0,0,9,12.5354,191.04)">
            </g>
            <text x="7.53px" y="191.04px" style="font-family:'Helvetica';font-size:9px;fill:rgb(77,77,77);">0</text>
            <g transform="matrix(9,0,0,9,12.5354,17.39)">
            </g>
            <text x="7.53px" y="17.39px" style="font-family:'Helvetica';font-size:9px;fill:rgb(77,77,77);">1</text>
            <g transform="matrix(9,0,0,9,28.6454,207.88)">
            </g>
            <text x="23.64px" y="207.88px" style="font-family:'Helvetica';font-size:9px;fill:rgb(77,77,77);">0</text>
            <g transform="matrix(9,0,0,9,202.295,207.88)">
            </g>
            <text x="197.29px" y="207.88px" style="font-family:'Helvetica';font-size:9px;fill:rgb(77,77,77);">1</text>
            <g transform="matrix(0,-1,-1,0,132.475,118.445)">
                <path d="M-78.045,115.015L112.965,115.015" style="fill:none;fill-rule:nonzero;stroke:black;stroke-width:1.07px;stroke-linecap:butt;"/>
            </g>
            <g transform="matrix(1,0,0,1,0,159.6)">
                <path d="M14.72,28.2L17.46,28.2" style="fill:none;fill-rule:nonzero;stroke:rgb(51,51,51);stroke-width:1.07px;stroke-linecap:butt;"/>
            </g>
            <g transform="matrix(1,0,0,1,0,-187.68)">
                <path d="M14.72,201.84L17.46,201.84" style="fill:none;fill-rule:nonzero;stroke:rgb(51,51,51);stroke-width:1.07px;stroke-linecap:butt;"/>
            </g>
            <g transform="matrix(1,0,0,1,0,176.98)">
                <path d="M17.46,19.51L208.47,19.51" style="fill:none;fill-rule:nonzero;stroke:black;stroke-width:1.07px;stroke-linecap:butt;"/>
            </g>
            <g transform="matrix(0,-1,-1,0,44.29,224.01)">
                <path d="M24.78,18.14L27.52,18.14" style="fill:none;fill-rule:nonzero;stroke:rgb(51,51,51);stroke-width:1.07px;stroke-linecap:butt;"/>
            </g>
            <g transform="matrix(0,-1,-1,0,217.93,397.65)">
                <path d="M198.42,18.14L201.16,18.14" style="fill:none;fill-rule:nonzero;stroke:rgb(51,51,51);stroke-width:1.07px;stroke-linecap:butt;"/>
            </g>
        </g>
    </g>
</svg>
