<?xml version="1.0" encoding="UTF-8" standalone="no"?>
<!DOCTYPE svg PUBLIC "-//W3C//DTD SVG 1.1//EN" "http://www.w3.org/Graphics/SVG/1.1/DTD/svg11.dtd">
<svg width="100%" height="100%" viewBox="0 0 1084 384" version="1.1" xmlns="http://www.w3.org/2000/svg" xmlns:xlink="http://www.w3.org/1999/xlink" xml:space="preserve" xmlns:serif="http://www.serif.com/" style="fill-rule:evenodd;clip-rule:evenodd;stroke-miterlimit:2;">
    <g transform="matrix(4.16667,0,0,4.16667,0,0)">
        <path d="M80.448,28.158L80.448,40.049" style="fill:none;stroke:rgb(35,31,32);stroke-width:0.25px;"/>
        <path d="M36.021,28.158L36.021,84.403" style="fill:none;stroke:rgb(35,31,32);stroke-width:0.25px;"/>
        <path d="M51.132,28.158L51.132,51.939" style="fill:none;stroke:rgb(35,31,32);stroke-width:0.25px;"/>
        <path d="M66.242,28.158L66.242,51.939" style="fill:none;stroke:rgb(35,31,32);stroke-width:0.25px;"/>
        <path d="M96.465,28.158L96.465,51.939" style="fill:none;stroke:rgb(35,31,32);stroke-width:0.25px;"/>
        <path d="M126.687,28.158L126.687,51.939" style="fill:none;stroke:rgb(35,31,32);stroke-width:0.25px;"/>
        <path d="M187.132,28.158L187.132,51.939" style="fill:none;stroke:rgb(35,31,32);stroke-width:0.25px;"/>
        <path d="M20.909,28.158L20.909,51.939" style="fill:none;stroke:rgb(35,31,32);stroke-width:0.25px;"/>
        <path d="M0,32.643L214.463,32.643" style="fill:none;stroke:rgb(35,31,32);stroke-width:2px;"/>
        <path d="M5.799,28.158L5.799,37.198" style="fill:none;stroke:rgb(35,31,32);stroke-width:0.25px;"/>
        <path d="M27.623,51.939C27.623,55.647 24.617,58.652 20.91,58.652C17.202,58.652 14.197,55.647 14.197,51.939C14.197,48.232 17.202,45.227 20.91,45.227C24.617,45.227 27.623,48.232 27.623,51.939Z" style="fill:rgb(173,217,231);fill-rule:nonzero;"/>
        <path d="M27.623,51.939C27.623,55.647 24.617,58.652 20.91,58.652C17.202,58.652 14.197,55.647 14.197,51.939C14.197,48.232 17.202,45.227 20.91,45.227C24.617,45.227 27.623,48.232 27.623,51.939Z" style="fill:none;stroke:rgb(35,31,32);stroke-width:0.5px;"/>
        <path d="M42.798,51.939C42.798,55.647 39.792,58.652 36.085,58.652C32.377,58.652 29.372,55.647 29.372,51.939C29.372,48.232 32.377,45.227 36.085,45.227C39.792,45.227 42.798,48.232 42.798,51.939Z" style="fill:rgb(173,217,231);fill-rule:nonzero;"/>
        <path d="M42.798,51.939C42.798,55.647 39.792,58.652 36.085,58.652C32.377,58.652 29.372,55.647 29.372,51.939C29.372,48.232 32.377,45.227 36.085,45.227C39.792,45.227 42.798,48.232 42.798,51.939Z" style="fill:none;stroke:rgb(35,31,32);stroke-width:0.5px;"/>
        <path d="M42.798,68.171C42.798,71.878 39.792,74.884 36.085,74.884C32.377,74.884 29.372,71.878 29.372,68.171C29.372,64.464 32.377,61.458 36.085,61.458C39.792,61.458 42.798,64.464 42.798,68.171Z" style="fill:rgb(173,217,231);fill-rule:nonzero;"/>
        <path d="M42.798,68.171C42.798,71.878 39.792,74.884 36.085,74.884C32.377,74.884 29.372,71.878 29.372,68.171C29.372,64.464 32.377,61.458 36.085,61.458C39.792,61.458 42.798,64.464 42.798,68.171Z" style="fill:none;stroke:rgb(35,31,32);stroke-width:0.5px;"/>
        <path d="M42.798,84.403C42.798,88.11 39.792,91.116 36.085,91.116C32.377,91.116 29.372,88.11 29.372,84.403C29.372,80.695 32.377,77.69 36.085,77.69C39.792,77.69 42.798,80.695 42.798,84.403Z" style="fill:rgb(173,217,231);fill-rule:nonzero;"/>
        <path d="M42.798,84.403C42.798,88.11 39.792,91.116 36.085,91.116C32.377,91.116 29.372,88.11 29.372,84.403C29.372,80.695 32.377,77.69 36.085,77.69C39.792,77.69 42.798,80.695 42.798,84.403Z" style="fill:none;stroke:rgb(35,31,32);stroke-width:0.5px;"/>
        <path d="M57.844,51.939C57.844,55.647 54.839,58.652 51.132,58.652C47.425,58.652 44.419,55.647 44.419,51.939C44.419,48.232 47.425,45.227 51.132,45.227C54.839,45.227 57.844,48.232 57.844,51.939Z" style="fill:rgb(173,217,231);fill-rule:nonzero;"/>
        <path d="M57.844,51.939C57.844,55.647 54.839,58.652 51.132,58.652C47.425,58.652 44.419,55.647 44.419,51.939C44.419,48.232 47.425,45.227 51.132,45.227C54.839,45.227 57.844,48.232 57.844,51.939Z" style="fill:none;stroke:rgb(35,31,32);stroke-width:0.5px;"/>
        <path d="M72.956,51.939C72.956,55.647 69.95,58.652 66.243,58.652C62.535,58.652 59.53,55.647 59.53,51.939C59.53,48.232 62.535,45.227 66.243,45.227C69.95,45.227 72.956,48.232 72.956,51.939Z" style="fill:rgb(173,217,231);fill-rule:nonzero;"/>
        <path d="M72.956,51.939C72.956,55.647 69.95,58.652 66.243,58.652C62.535,58.652 59.53,55.647 59.53,51.939C59.53,48.232 62.535,45.227 66.243,45.227C69.95,45.227 72.956,48.232 72.956,51.939Z" style="fill:none;stroke:rgb(35,31,32);stroke-width:0.5px;"/>
        <path d="M103.178,51.939C103.178,55.647 100.173,58.652 96.465,58.652C92.758,58.652 89.752,55.647 89.752,51.939C89.752,48.232 92.758,45.227 96.465,45.227C100.173,45.227 103.178,48.232 103.178,51.939Z" style="fill:rgb(173,217,231);fill-rule:nonzero;"/>
        <path d="M103.178,51.939C103.178,55.647 100.173,58.652 96.465,58.652C92.758,58.652 89.752,55.647 89.752,51.939C89.752,48.232 92.758,45.227 96.465,45.227C100.173,45.227 103.178,48.232 103.178,51.939Z" style="fill:none;stroke:rgb(35,31,32);stroke-width:0.5px;"/>
        <path d="M133.4,51.939C133.4,55.647 130.395,58.652 126.687,58.652C122.98,58.652 119.974,55.647 119.974,51.939C119.974,48.232 122.98,45.227 126.687,45.227C130.395,45.227 133.4,48.232 133.4,51.939Z" style="fill:rgb(173,217,231);fill-rule:nonzero;"/>
        <path d="M133.4,51.939C133.4,55.647 130.395,58.652 126.687,58.652C122.98,58.652 119.974,55.647 119.974,51.939C119.974,48.232 122.98,45.227 126.687,45.227C130.395,45.227 133.4,48.232 133.4,51.939Z" style="fill:none;stroke:rgb(35,31,32);stroke-width:0.5px;"/>
        <path d="M193.844,51.939C193.844,55.647 190.839,58.652 187.132,58.652C183.424,58.652 180.419,55.647 180.419,51.939C180.419,48.232 183.424,45.227 187.132,45.227C190.839,45.227 193.844,48.232 193.844,51.939Z" style="fill:rgb(173,217,231);fill-rule:nonzero;"/>
        <path d="M193.844,51.939C193.844,55.647 190.839,58.652 187.132,58.652C183.424,58.652 180.419,55.647 180.419,51.939C180.419,48.232 183.424,45.227 187.132,45.227C190.839,45.227 193.844,48.232 193.844,51.939Z" style="fill:none;stroke:rgb(35,31,32);stroke-width:0.5px;"/>
        <g>
            <path d="M187.072,22.398C187.133,22.141 187.361,21.227 188.056,21.227C188.107,21.227 188.344,21.227 188.553,21.355C188.275,21.405 188.077,21.653 188.077,21.892C188.077,22.05 188.185,22.239 188.453,22.239C188.672,22.239 188.989,22.061 188.989,21.664C188.989,21.147 188.404,21.008 188.066,21.008C187.489,21.008 187.142,21.534 187.024,21.762C186.775,21.108 186.238,21.008 185.95,21.008C184.918,21.008 184.35,22.289 184.35,22.538C184.35,22.637 184.45,22.637 184.47,22.637C184.551,22.637 184.58,22.617 184.599,22.528C184.938,21.475 185.592,21.227 185.93,21.227C186.119,21.227 186.467,21.315 186.467,21.892C186.467,22.2 186.299,22.866 185.93,24.256C185.772,24.872 185.424,25.289 184.986,25.289C184.927,25.289 184.699,25.289 184.489,25.159C184.738,25.111 184.957,24.901 184.957,24.624C184.957,24.355 184.738,24.276 184.59,24.276C184.291,24.276 184.043,24.534 184.043,24.852C184.043,25.309 184.539,25.508 184.977,25.508C185.633,25.508 185.989,24.813 186.021,24.753C186.139,25.12 186.497,25.508 187.092,25.508C188.116,25.508 188.681,24.227 188.681,23.978C188.681,23.878 188.592,23.878 188.563,23.878C188.474,23.878 188.453,23.918 188.433,23.987C188.107,25.05 187.43,25.289 187.113,25.289C186.725,25.289 186.566,24.972 186.566,24.633C186.566,24.416 186.625,24.197 186.735,23.759L187.072,22.398Z" style="fill:rgb(35,31,32);fill-rule:nonzero;"/>
            <path d="M191.81,22.428C191.81,22.237 191.796,22.231 191.599,22.231C191.149,22.673 190.509,22.68 190.22,22.68L190.22,22.933C190.389,22.933 190.853,22.933 191.241,22.736L191.241,26.322C191.241,26.555 191.241,26.645 190.538,26.645L190.271,26.645L190.271,26.898C190.397,26.892 191.261,26.87 191.522,26.87C191.739,26.87 192.625,26.892 192.78,26.898L192.78,26.645L192.513,26.645C191.81,26.645 191.81,26.555 191.81,26.322L191.81,22.428Z" style="fill:rgb(35,31,32);fill-rule:nonzero;"/>
        </g>
        <path d="M7.86,22.803C7.86,22.008 7.811,21.212 7.463,20.478C7.007,19.525 6.191,19.365 5.774,19.365C5.178,19.365 4.453,19.623 4.046,20.547C3.728,21.232 3.678,22.008 3.678,22.803C3.678,23.547 3.717,24.442 4.125,25.197C4.552,26.001 5.279,26.2 5.764,26.2C6.3,26.2 7.056,25.99 7.492,25.047C7.811,24.362 7.86,23.587 7.86,22.803ZM5.764,25.981C5.377,25.981 4.791,25.732 4.613,24.779C4.504,24.183 4.504,23.269 4.504,22.683C4.504,22.047 4.504,21.392 4.582,20.855C4.771,19.673 5.516,19.584 5.764,19.584C6.092,19.584 6.747,19.762 6.936,20.747C7.036,21.303 7.036,22.058 7.036,22.683C7.036,23.428 7.036,24.103 6.927,24.739C6.779,25.683 6.211,25.981 5.764,25.981Z" style="fill:rgb(35,31,32);fill-rule:nonzero;"/>
        <g>
            <path d="M21.312,22.398C21.373,22.141 21.601,21.227 22.297,21.227C22.346,21.227 22.584,21.227 22.793,21.355C22.515,21.405 22.317,21.653 22.317,21.892C22.317,22.05 22.425,22.239 22.694,22.239C22.912,22.239 23.229,22.061 23.229,21.664C23.229,21.147 22.643,21.008 22.306,21.008C21.729,21.008 21.383,21.534 21.264,21.762C21.015,21.108 20.478,21.008 20.19,21.008C19.157,21.008 18.59,22.289 18.59,22.538C18.59,22.637 18.69,22.637 18.711,22.637C18.79,22.637 18.82,22.617 18.839,22.528C19.178,21.475 19.832,21.227 20.17,21.227C20.359,21.227 20.707,21.315 20.707,21.892C20.707,22.2 20.539,22.866 20.17,24.256C20.012,24.872 19.664,25.289 19.226,25.289C19.167,25.289 18.939,25.289 18.729,25.159C18.978,25.111 19.197,24.901 19.197,24.624C19.197,24.355 18.978,24.276 18.829,24.276C18.531,24.276 18.282,24.534 18.282,24.852C18.282,25.309 18.78,25.508 19.217,25.508C19.873,25.508 20.229,24.813 20.261,24.753C20.379,25.12 20.737,25.508 21.332,25.508C22.356,25.508 22.922,24.227 22.922,23.978C22.922,23.878 22.832,23.878 22.803,23.878C22.714,23.878 22.694,23.918 22.673,23.987C22.346,25.05 21.67,25.289 21.353,25.289C20.965,25.289 20.806,24.972 20.806,24.633C20.806,24.416 20.865,24.197 20.975,23.759L21.312,22.398Z" style="fill:rgb(35,31,32);fill-rule:nonzero;"/>
            <path d="M27.245,25.619L27.006,25.619C26.986,25.773 26.915,26.189 26.823,26.259C26.767,26.301 26.226,26.301 26.128,26.301L24.834,26.301C25.572,25.647 25.819,25.45 26.24,25.12C26.761,24.705 27.245,24.269 27.245,23.602C27.245,22.75 26.5,22.231 25.6,22.231C24.728,22.231 24.137,22.842 24.137,23.489C24.137,23.847 24.44,23.883 24.511,23.883C24.679,23.883 24.883,23.762 24.883,23.509C24.883,23.383 24.834,23.137 24.469,23.137C24.686,22.637 25.164,22.483 25.495,22.483C26.198,22.483 26.564,23.031 26.564,23.602C26.564,24.212 26.128,24.698 25.903,24.952L24.207,26.625C24.137,26.688 24.137,26.702 24.137,26.898L27.034,26.898L27.245,25.619Z" style="fill:rgb(35,31,32);fill-rule:nonzero;"/>
        </g>
        <g>
            <path d="M51.519,22.398C51.58,22.141 51.808,21.227 52.504,21.227C52.554,21.227 52.791,21.227 53.001,21.355C52.722,21.405 52.524,21.653 52.524,21.892C52.524,22.05 52.632,22.239 52.901,22.239C53.119,22.239 53.437,22.061 53.437,21.664C53.437,21.147 52.851,21.008 52.513,21.008C51.937,21.008 51.59,21.534 51.471,21.762C51.222,21.108 50.685,21.008 50.398,21.008C49.365,21.008 48.798,22.289 48.798,22.538C48.798,22.637 48.898,22.637 48.918,22.637C48.998,22.637 49.027,22.617 49.046,22.528C49.385,21.475 50.04,21.227 50.377,21.227C50.566,21.227 50.915,21.315 50.915,21.892C50.915,22.2 50.746,22.866 50.377,24.256C50.219,24.872 49.871,25.289 49.433,25.289C49.374,25.289 49.146,25.289 48.937,25.159C49.185,25.111 49.404,24.901 49.404,24.624C49.404,24.355 49.185,24.276 49.037,24.276C48.738,24.276 48.49,24.534 48.49,24.852C48.49,25.309 48.987,25.508 49.424,25.508C50.08,25.508 50.437,24.813 50.468,24.753C50.587,25.12 50.945,25.508 51.54,25.508C52.563,25.508 53.129,24.227 53.129,23.978C53.129,23.878 53.04,23.878 53.01,23.878C52.921,23.878 52.901,23.918 52.881,23.987C52.554,25.05 51.877,25.289 51.56,25.289C51.173,25.289 51.013,24.972 51.013,24.633C51.013,24.416 51.073,24.197 51.182,23.759L51.519,22.398Z" style="fill:rgb(35,31,32);fill-rule:nonzero;"/>
            <path d="M55.821,24.55C56.369,24.55 56.763,24.93 56.763,25.683C56.763,26.555 56.257,26.814 55.849,26.814C55.568,26.814 54.949,26.737 54.654,26.322C54.985,26.308 55.062,26.077 55.062,25.928C55.062,25.703 54.893,25.542 54.676,25.542C54.479,25.542 54.282,25.661 54.282,25.95C54.282,26.611 55.013,27.039 55.863,27.039C56.842,27.039 57.516,26.386 57.516,25.683C57.516,25.134 57.066,24.586 56.293,24.423C57.031,24.156 57.298,23.629 57.298,23.2C57.298,22.645 56.658,22.231 55.877,22.231C55.097,22.231 54.499,22.609 54.499,23.172C54.499,23.411 54.654,23.545 54.865,23.545C55.084,23.545 55.224,23.383 55.224,23.186C55.224,22.983 55.084,22.834 54.865,22.82C55.112,22.511 55.596,22.434 55.857,22.434C56.173,22.434 56.616,22.589 56.616,23.2C56.616,23.495 56.518,23.819 56.335,24.038C56.102,24.305 55.906,24.319 55.554,24.339C55.379,24.353 55.365,24.353 55.329,24.361C55.315,24.361 55.259,24.375 55.259,24.452C55.259,24.55 55.323,24.55 55.441,24.55L55.821,24.55Z" style="fill:rgb(35,31,32);fill-rule:nonzero;"/>
        </g>
        <g>
            <path d="M36.806,3.672C36.867,3.414 37.095,2.5 37.79,2.5C37.841,2.5 38.078,2.5 38.287,2.628C38.009,2.678 37.811,2.926 37.811,3.166C37.811,3.323 37.919,3.512 38.187,3.512C38.406,3.512 38.723,3.334 38.723,2.938C38.723,2.42 38.137,2.281 37.8,2.281C37.223,2.281 36.876,2.808 36.758,3.036C36.509,2.381 35.972,2.281 35.684,2.281C34.652,2.281 34.084,3.563 34.084,3.811C34.084,3.911 34.184,3.911 34.205,3.911C34.284,3.911 34.314,3.891 34.333,3.801C34.672,2.748 35.326,2.5 35.664,2.5C35.853,2.5 36.201,2.589 36.201,3.166C36.201,3.473 36.032,4.139 35.664,5.529C35.506,6.145 35.157,6.563 34.72,6.563C34.661,6.563 34.433,6.563 34.223,6.433C34.472,6.384 34.691,6.175 34.691,5.897C34.691,5.628 34.472,5.55 34.323,5.55C34.025,5.55 33.777,5.808 33.777,6.125C33.777,6.583 34.273,6.781 34.711,6.781C35.367,6.781 35.723,6.086 35.755,6.026C35.873,6.394 36.231,6.781 36.826,6.781C37.85,6.781 38.415,5.5 38.415,5.252C38.415,5.151 38.326,5.151 38.297,5.151C38.208,5.151 38.187,5.192 38.167,5.261C37.841,6.323 37.164,6.563 36.847,6.563C36.459,6.563 36.3,6.245 36.3,5.906C36.3,5.689 36.359,5.47 36.469,5.033L36.806,3.672Z" style="fill:rgb(35,31,32);fill-rule:nonzero;"/>
            <path d="M42.908,7.019L42.908,6.766L42.128,6.766L42.128,3.631C42.128,3.482 42.128,3.434 41.973,3.434C41.889,3.434 41.861,3.434 41.79,3.533L39.463,6.766L39.463,7.019L41.53,7.019L41.53,7.595C41.53,7.834 41.53,7.919 40.961,7.919L40.77,7.919L40.77,8.172C41.122,8.158 41.572,8.144 41.825,8.144C42.086,8.144 42.536,8.158 42.887,8.172L42.887,7.919L42.697,7.919C42.128,7.919 42.128,7.834 42.128,7.595L42.128,7.019L42.908,7.019ZM41.58,4.192L41.58,6.766L39.723,6.766L41.58,4.192Z" style="fill:rgb(35,31,32);fill-rule:nonzero;"/>
        </g>
        <g>
            <path d="M66.523,22.398C66.584,22.141 66.812,21.227 67.507,21.227C67.557,21.227 67.795,21.227 68.004,21.355C67.726,21.405 67.528,21.653 67.528,21.892C67.528,22.05 67.635,22.239 67.904,22.239C68.123,22.239 68.44,22.061 68.44,21.664C68.44,21.147 67.854,21.008 67.516,21.008C66.94,21.008 66.593,21.534 66.474,21.762C66.226,21.108 65.688,21.008 65.401,21.008C64.368,21.008 63.801,22.289 63.801,22.538C63.801,22.637 63.901,22.637 63.921,22.637C64.001,22.637 64.031,22.617 64.049,22.528C64.388,21.475 65.043,21.227 65.381,21.227C65.57,21.227 65.918,21.315 65.918,21.892C65.918,22.2 65.749,22.866 65.381,24.256C65.223,24.872 64.874,25.289 64.437,25.289C64.377,25.289 64.149,25.289 63.94,25.159C64.188,25.111 64.407,24.901 64.407,24.624C64.407,24.355 64.188,24.276 64.04,24.276C63.741,24.276 63.493,24.534 63.493,24.852C63.493,25.309 63.99,25.508 64.427,25.508C65.084,25.508 65.44,24.813 65.471,24.753C65.59,25.12 65.948,25.508 66.543,25.508C67.567,25.508 68.132,24.227 68.132,23.978C68.132,23.878 68.043,23.878 68.013,23.878C67.924,23.878 67.904,23.918 67.884,23.987C67.557,25.05 66.881,25.289 66.563,25.289C66.176,25.289 66.016,24.972 66.016,24.633C66.016,24.416 66.076,24.197 66.185,23.759L66.523,22.398Z" style="fill:rgb(35,31,32);fill-rule:nonzero;"/>
            <path d="M69.994,22.975C70.354,23.067 70.565,23.067 70.677,23.067C71.606,23.067 72.154,22.434 72.154,22.33C72.154,22.251 72.104,22.231 72.07,22.231C72.055,22.231 72.041,22.231 72.013,22.251C71.844,22.315 71.471,22.456 70.951,22.456C70.754,22.456 70.382,22.442 69.924,22.266C69.854,22.231 69.84,22.231 69.834,22.231C69.741,22.231 69.741,22.308 69.741,22.42L69.741,24.494C69.741,24.614 69.741,24.698 69.854,24.698C69.918,24.698 69.924,24.684 69.994,24.6C70.298,24.212 70.726,24.156 70.973,24.156C71.395,24.156 71.584,24.494 71.619,24.55C71.746,24.783 71.788,25.05 71.788,25.458C71.788,25.668 71.788,26.083 71.577,26.392C71.401,26.645 71.099,26.814 70.754,26.814C70.298,26.814 69.826,26.561 69.651,26.097C69.918,26.119 70.051,25.942 70.051,25.753C70.051,25.45 69.791,25.394 69.699,25.394C69.685,25.394 69.348,25.394 69.348,25.773C69.348,26.406 69.924,27.039 70.768,27.039C71.668,27.039 72.455,26.372 72.455,25.486C72.455,24.69 71.851,23.959 70.979,23.959C70.67,23.959 70.304,24.038 69.994,24.305L69.994,22.975Z" style="fill:rgb(35,31,32);fill-rule:nonzero;"/>
        </g>
        <g>
            <path d="M36.806,12.826C36.867,12.568 37.095,11.654 37.79,11.654C37.841,11.654 38.078,11.654 38.287,11.783C38.009,11.833 37.811,12.081 37.811,12.32C37.811,12.478 37.919,12.667 38.187,12.667C38.406,12.667 38.723,12.489 38.723,12.092C38.723,11.575 38.137,11.436 37.8,11.436C37.223,11.436 36.876,11.962 36.758,12.19C36.509,11.536 35.972,11.436 35.684,11.436C34.652,11.436 34.084,12.717 34.084,12.965C34.084,13.065 34.184,13.065 34.205,13.065C34.284,13.065 34.314,13.045 34.333,12.956C34.672,11.903 35.326,11.654 35.664,11.654C35.853,11.654 36.201,11.744 36.201,12.32C36.201,12.628 36.032,13.293 35.664,14.684C35.506,15.3 35.157,15.717 34.72,15.717C34.661,15.717 34.433,15.717 34.223,15.587C34.472,15.539 34.691,15.33 34.691,15.051C34.691,14.783 34.472,14.705 34.323,14.705C34.025,14.705 33.777,14.962 33.777,15.279C33.777,15.737 34.273,15.936 34.711,15.936C35.367,15.936 35.723,15.24 35.755,15.181C35.873,15.548 36.231,15.936 36.826,15.936C37.85,15.936 38.415,14.654 38.415,14.406C38.415,14.306 38.326,14.306 38.297,14.306C38.208,14.306 38.187,14.347 38.167,14.416C37.841,15.478 37.164,15.717 36.847,15.717C36.459,15.717 36.3,15.4 36.3,15.061C36.3,14.844 36.359,14.625 36.469,14.188L36.806,12.826Z" style="fill:rgb(35,31,32);fill-rule:nonzero;"/>
            <path d="M40.244,15.028C40.244,14.451 40.292,13.931 40.559,13.501C40.799,13.122 41.178,12.862 41.628,12.862C41.839,12.862 42.12,12.918 42.261,13.107C42.086,13.122 41.937,13.242 41.937,13.445C41.937,13.622 42.058,13.776 42.269,13.776C42.48,13.776 42.606,13.636 42.606,13.431C42.606,13.023 42.311,12.659 41.614,12.659C40.601,12.659 39.569,13.586 39.569,15.098C39.569,16.918 40.427,17.467 41.2,17.467C42.058,17.467 42.803,16.814 42.803,15.892C42.803,15 42.092,14.339 41.27,14.339C40.708,14.339 40.398,14.711 40.244,15.028ZM41.2,17.242C40.848,17.242 40.573,17.039 40.427,16.73C40.32,16.519 40.264,16.167 40.264,15.745C40.264,15.063 40.672,14.536 41.234,14.536C41.558,14.536 41.777,14.662 41.951,14.922C42.12,15.189 42.128,15.484 42.128,15.892C42.128,16.293 42.128,16.589 41.937,16.862C41.769,17.109 41.544,17.242 41.2,17.242Z" style="fill:rgb(35,31,32);fill-rule:nonzero;"/>
        </g>
        <g>
            <path d="M126.956,22.398C127.017,22.141 127.245,21.227 127.941,21.227C127.99,21.227 128.228,21.227 128.437,21.355C128.159,21.405 127.961,21.653 127.961,21.892C127.961,22.05 128.069,22.239 128.338,22.239C128.556,22.239 128.873,22.061 128.873,21.664C128.873,21.147 128.287,21.008 127.95,21.008C127.373,21.008 127.027,21.534 126.908,21.762C126.659,21.108 126.122,21.008 125.834,21.008C124.801,21.008 124.234,22.289 124.234,22.538C124.234,22.637 124.334,22.637 124.355,22.637C124.434,22.637 124.464,22.617 124.483,22.528C124.822,21.475 125.476,21.227 125.814,21.227C126.003,21.227 126.351,21.315 126.351,21.892C126.351,22.2 126.183,22.866 125.814,24.256C125.656,24.872 125.308,25.289 124.87,25.289C124.811,25.289 124.583,25.289 124.373,25.159C124.622,25.111 124.841,24.901 124.841,24.624C124.841,24.355 124.622,24.276 124.473,24.276C124.175,24.276 123.926,24.534 123.926,24.852C123.926,25.309 124.424,25.508 124.861,25.508C125.517,25.508 125.873,24.813 125.905,24.753C126.024,25.12 126.381,25.508 126.976,25.508C128,25.508 128.565,24.227 128.565,23.978C128.565,23.878 128.476,23.878 128.447,23.878C128.358,23.878 128.338,23.918 128.317,23.987C127.99,25.05 127.314,25.289 126.997,25.289C126.609,25.289 126.45,24.972 126.45,24.633C126.45,24.416 126.509,24.197 126.619,23.759L126.956,22.398Z" style="fill:rgb(35,31,32);fill-rule:nonzero;"/>
            <path d="M133.1,22.651C133.17,22.567 133.17,22.553 133.17,22.372L131.328,22.372C131.047,22.372 130.97,22.364 130.716,22.344C130.351,22.315 130.338,22.266 130.315,22.147L130.076,22.147L129.83,23.65L130.07,23.65C130.084,23.545 130.155,23.081 130.267,23.011C130.323,22.969 130.892,22.969 130.998,22.969L132.531,22.969C132.306,23.264 131.947,23.7 131.8,23.897C130.878,25.106 130.794,26.223 130.794,26.639C130.794,26.715 130.794,27.039 131.125,27.039C131.463,27.039 131.463,26.723 131.463,26.631L131.463,26.35C131.463,24.986 131.744,24.361 132.045,23.981L133.1,22.651Z" style="fill:rgb(35,31,32);fill-rule:nonzero;"/>
        </g>
        <g>
            <path d="M96.564,22.398C96.625,22.141 96.853,21.227 97.548,21.227C97.598,21.227 97.836,21.227 98.045,21.355C97.767,21.405 97.569,21.653 97.569,21.892C97.569,22.05 97.677,22.239 97.945,22.239C98.164,22.239 98.481,22.061 98.481,21.664C98.481,21.147 97.895,21.008 97.558,21.008C96.981,21.008 96.634,21.534 96.515,21.762C96.267,21.108 95.73,21.008 95.442,21.008C94.409,21.008 93.842,22.289 93.842,22.538C93.842,22.637 93.942,22.637 93.962,22.637C94.042,22.637 94.072,22.617 94.091,22.528C94.429,21.475 95.084,21.227 95.422,21.227C95.611,21.227 95.959,21.315 95.959,21.892C95.959,22.2 95.79,22.866 95.422,24.256C95.264,24.872 94.915,25.289 94.478,25.289C94.419,25.289 94.191,25.289 93.981,25.159C94.23,25.111 94.448,24.901 94.448,24.624C94.448,24.355 94.23,24.276 94.081,24.276C93.782,24.276 93.534,24.534 93.534,24.852C93.534,25.309 94.031,25.508 94.469,25.508C95.125,25.508 95.481,24.813 95.512,24.753C95.631,25.12 95.989,25.508 96.584,25.508C97.608,25.508 98.173,24.227 98.173,23.978C98.173,23.878 98.084,23.878 98.054,23.878C97.966,23.878 97.945,23.918 97.925,23.987C97.598,25.05 96.922,25.289 96.605,25.289C96.217,25.289 96.058,24.972 96.058,24.633C96.058,24.416 96.117,24.197 96.226,23.759L96.564,22.398Z" style="fill:rgb(35,31,32);fill-rule:nonzero;"/>
            <path d="M101.443,24.361C101.991,24.094 102.342,23.762 102.342,23.278C102.342,22.595 101.633,22.231 100.95,22.231C100.177,22.231 99.544,22.736 99.544,23.405C99.544,23.734 99.698,23.973 99.825,24.114C99.951,24.262 100.002,24.291 100.416,24.536C100.022,24.705 99.326,25.084 99.326,25.823C99.326,26.603 100.134,27.039 100.936,27.039C101.83,27.039 102.561,26.47 102.561,25.711C102.561,25.247 102.286,24.853 101.879,24.614C101.788,24.558 101.541,24.417 101.443,24.361ZM100.297,23.692C100.114,23.587 99.917,23.397 99.917,23.137C99.917,22.694 100.43,22.434 100.936,22.434C101.485,22.434 101.97,22.778 101.97,23.278C101.97,23.903 101.239,24.22 101.225,24.22C101.211,24.22 101.197,24.212 101.147,24.184L100.297,23.692ZM100.641,24.67L101.605,25.225C101.788,25.331 102.139,25.542 102.139,25.956C102.139,26.484 101.555,26.814 100.95,26.814C100.303,26.814 99.748,26.4 99.748,25.823C99.748,25.303 100.134,24.901 100.641,24.67Z" style="fill:rgb(35,31,32);fill-rule:nonzero;"/>
        </g>
        <g>
            <path d="M36.733,22.398C36.794,22.141 37.022,21.227 37.717,21.227C37.767,21.227 38.005,21.227 38.214,21.355C37.936,21.405 37.738,21.653 37.738,21.892C37.738,22.05 37.845,22.239 38.114,22.239C38.333,22.239 38.65,22.061 38.65,21.664C38.65,21.147 38.064,21.008 37.726,21.008C37.15,21.008 36.803,21.534 36.684,21.762C36.436,21.108 35.898,21.008 35.611,21.008C34.578,21.008 34.011,22.289 34.011,22.538C34.011,22.637 34.111,22.637 34.131,22.637C34.211,22.637 34.24,22.617 34.26,22.528C34.598,21.475 35.253,21.227 35.591,21.227C35.78,21.227 36.128,21.315 36.128,21.892C36.128,22.2 35.959,22.866 35.591,24.256C35.433,24.872 35.084,25.289 34.647,25.289C34.588,25.289 34.359,25.289 34.15,25.159C34.398,25.111 34.617,24.901 34.617,24.624C34.617,24.355 34.398,24.276 34.25,24.276C33.951,24.276 33.703,24.534 33.703,24.852C33.703,25.309 34.2,25.508 34.637,25.508C35.294,25.508 35.65,24.813 35.681,24.753C35.8,25.12 36.158,25.508 36.753,25.508C37.777,25.508 38.342,24.227 38.342,23.978C38.342,23.878 38.253,23.878 38.223,23.878C38.135,23.878 38.114,23.918 38.094,23.987C37.767,25.05 37.091,25.289 36.773,25.289C36.386,25.289 36.226,24.972 36.226,24.633C36.226,24.416 36.286,24.197 36.395,23.759L36.733,22.398Z" style="fill:rgb(35,31,32);fill-rule:nonzero;"/>
            <path d="M42.054,24.803C42.054,26.547 41.189,26.814 40.767,26.814C40.613,26.814 40.24,26.8 40.05,26.583C40.339,26.555 40.359,26.315 40.359,26.251C40.359,26.077 40.24,25.922 40.03,25.922C39.819,25.922 39.692,26.063 39.692,26.266C39.692,26.744 40.092,27.039 40.775,27.039C41.78,27.039 42.73,26.09 42.73,24.586C42.73,22.842 41.956,22.231 41.133,22.231C40.902,22.231 40.416,22.266 40.015,22.659C39.777,22.891 39.495,23.166 39.495,23.798C39.495,24.69 40.205,25.352 41.028,25.352C41.591,25.352 41.892,24.98 42.054,24.663L42.054,24.803ZM41.062,25.155C40.789,25.155 40.528,25.064 40.331,24.741C40.17,24.48 40.17,24.184 40.17,23.798C40.17,23.391 40.17,23.109 40.373,22.828C40.542,22.581 40.775,22.434 41.14,22.434C41.498,22.434 41.709,22.659 41.822,22.842C42.012,23.137 42.033,23.629 42.033,23.875C42.033,24.789 41.506,25.155 41.062,25.155Z" style="fill:rgb(35,31,32);fill-rule:nonzero;"/>
        </g>
        <path d="M76.423,42.453L74.906,43.97" style="fill:none;stroke:rgb(35,31,32);stroke-width:0.25px;"/>
        <path d="M79.258,42.453L77.74,43.97" style="fill:none;stroke:rgb(35,31,32);stroke-width:0.25px;"/>
        <path d="M82.092,42.453L80.575,43.97" style="fill:none;stroke:rgb(35,31,32);stroke-width:0.25px;"/>
        <path d="M84.927,42.453L83.409,43.97" style="fill:none;stroke:rgb(35,31,32);stroke-width:0.25px;"/>
        <path d="M83.51,42.453L81.992,43.97" style="fill:none;stroke:rgb(35,31,32);stroke-width:0.25px;"/>
        <path d="M80.675,42.453L79.157,43.97" style="fill:none;stroke:rgb(35,31,32);stroke-width:0.25px;"/>
        <path d="M77.84,42.453L76.323,43.97" style="fill:none;stroke:rgb(35,31,32);stroke-width:0.25px;"/>
        <path d="M162.075,32.643L162.075,31.643" style="fill:none;stroke:rgb(35,31,32);stroke-width:0.25px;"/>
        <path d="M162.075,30.615L162.075,28.56M162.075,27.532L162.075,25.477M162.075,24.45L162.075,22.395M162.075,21.367L162.075,19.312M162.075,18.284L162.075,16.229M162.075,15.202L162.075,13.147M162.075,12.119L162.075,10.064M162.075,9.037L162.075,6.982M162.075,5.954L162.075,3.899" style="fill:none;stroke:rgb(35,31,32);stroke-width:0.25px;"/>
        <path d="M162.075,2.872L162.075,1.872" style="fill:none;stroke:rgb(35,31,32);stroke-width:0.25px;"/>
        <path d="M167.761,7.862C168.011,8.232 168.351,8.522 168.791,8.712C169.231,8.902 169.771,8.992 170.421,8.992C170.931,8.992 171.391,8.902 171.791,8.712C172.201,8.522 172.521,8.262 172.731,7.932C172.951,7.592 173.061,7.232 173.061,6.852C173.061,6.472 172.961,6.132 172.761,5.832C172.561,5.542 172.261,5.302 171.841,5.112C171.561,4.982 171.031,4.822 170.261,4.652C169.491,4.482 169.011,4.312 168.831,4.142C168.641,3.972 168.551,3.762 168.551,3.502C168.551,3.212 168.681,2.962 168.941,2.752C169.211,2.542 169.621,2.432 170.201,2.432C170.751,2.432 171.161,2.552 171.441,2.782C171.731,3.012 171.891,3.352 171.941,3.802L172.851,3.732C172.831,3.312 172.721,2.932 172.501,2.602C172.281,2.272 171.971,2.022 171.561,1.852C171.161,1.682 170.691,1.592 170.161,1.592C169.681,1.592 169.241,1.672 168.851,1.832C168.451,2.002 168.151,2.242 167.951,2.552C167.741,2.872 167.641,3.202 167.641,3.572C167.641,3.902 167.721,4.192 167.891,4.462C168.061,4.722 168.311,4.952 168.651,5.132C168.921,5.272 169.381,5.422 170.041,5.572C170.691,5.732 171.121,5.852 171.311,5.922C171.611,6.042 171.821,6.182 171.951,6.342C172.081,6.512 172.151,6.712 172.151,6.932C172.151,7.152 172.081,7.362 171.951,7.542C171.811,7.732 171.611,7.882 171.331,7.992C171.051,8.102 170.731,8.152 170.371,8.152C169.971,8.152 169.601,8.082 169.281,7.942C168.951,7.792 168.711,7.612 168.561,7.382C168.401,7.152 168.301,6.852 168.261,6.492L167.371,6.572C167.381,7.052 167.511,7.482 167.761,7.862Z" style="fill:rgb(35,31,32);fill-rule:nonzero;"/>
        <path d="M175.771,8.122C175.641,8.122 175.541,8.102 175.471,8.062C175.401,8.012 175.351,7.962 175.321,7.882C175.291,7.812 175.271,7.652 175.271,7.402L175.271,4.362L176.151,4.362L176.151,3.682L175.271,3.682L175.271,1.872L174.391,2.402L174.391,3.682L173.741,3.682L173.741,4.362L174.391,4.362L174.391,7.352C174.391,7.882 174.431,8.222 174.501,8.392C174.571,8.552 174.691,8.692 174.871,8.792C175.041,8.892 175.291,8.942 175.611,8.942C175.801,8.942 176.021,8.912 176.271,8.862L176.151,8.092C175.991,8.112 175.861,8.122 175.771,8.122Z" style="fill:rgb(35,31,32);fill-rule:nonzero;"/>
        <path d="M180.581,8.872L181.501,8.872C181.391,8.672 181.321,8.462 181.281,8.242C181.251,8.032 181.231,7.512 181.231,6.702L181.231,5.532C181.231,5.142 181.221,4.872 181.191,4.722C181.131,4.482 181.041,4.282 180.911,4.122C180.781,3.962 180.581,3.832 180.301,3.732C180.021,3.622 179.661,3.572 179.221,3.572C178.771,3.572 178.381,3.632 178.041,3.752C177.701,3.882 177.441,4.052 177.261,4.282C177.081,4.502 176.951,4.802 176.871,5.172L177.731,5.292C177.821,4.922 177.971,4.662 178.171,4.522C178.371,4.372 178.671,4.302 179.091,4.302C179.531,4.302 179.871,4.402 180.091,4.602C180.261,4.742 180.341,4.992 180.341,5.352L180.341,5.582C180.001,5.702 179.481,5.802 178.761,5.882C178.421,5.922 178.161,5.972 177.981,6.012C177.751,6.082 177.541,6.172 177.351,6.302C177.161,6.432 177.011,6.602 176.891,6.812C176.781,7.012 176.721,7.252 176.721,7.502C176.721,7.932 176.871,8.292 177.181,8.562C177.491,8.842 177.931,8.982 178.501,8.982C178.841,8.982 179.171,8.922 179.471,8.812C179.771,8.692 180.081,8.502 180.411,8.222C180.441,8.472 180.491,8.682 180.581,8.872ZM180.341,6.592C180.341,6.982 180.291,7.272 180.191,7.462C180.071,7.722 179.881,7.922 179.611,8.072C179.351,8.222 179.051,8.292 178.711,8.292C178.361,8.292 178.101,8.212 177.931,8.062C177.751,7.902 177.661,7.712 177.661,7.472C177.661,7.322 177.701,7.182 177.781,7.062C177.861,6.932 177.981,6.842 178.131,6.772C178.281,6.712 178.541,6.652 178.901,6.602C179.541,6.512 180.021,6.402 180.341,6.272L180.341,6.592Z" style="fill:rgb(35,31,32);fill-rule:nonzero;"/>
        <path d="M183.461,8.872L183.461,6.042C183.461,5.372 183.601,4.922 183.871,4.692C184.141,4.452 184.461,4.332 184.831,4.332C185.071,4.332 185.271,4.382 185.441,4.492C185.621,4.592 185.741,4.742 185.811,4.912C185.881,5.092 185.911,5.362 185.911,5.722L185.911,8.872L186.791,8.872L186.791,5.682C186.791,5.282 186.771,4.992 186.741,4.832C186.691,4.582 186.601,4.362 186.471,4.182C186.341,4.002 186.141,3.852 185.881,3.742C185.621,3.632 185.331,3.572 185.021,3.572C184.301,3.572 183.751,3.852 183.371,4.422L183.371,3.682L182.581,3.682L182.581,8.872L183.461,8.872Z" style="fill:rgb(35,31,32);fill-rule:nonzero;"/>
        <path d="M188.531,10.552C188.911,10.832 189.411,10.972 190.031,10.972C190.551,10.972 190.991,10.872 191.341,10.682C191.701,10.482 191.961,10.222 192.121,9.882C192.291,9.542 192.371,8.972 192.371,8.162L192.371,3.682L191.561,3.682L191.561,4.322C191.161,3.822 190.661,3.572 190.041,3.572C189.591,3.572 189.191,3.682 188.851,3.912C188.511,4.142 188.251,4.462 188.071,4.882C187.891,5.302 187.801,5.752 187.801,6.252C187.801,6.972 187.991,7.582 188.381,8.102C188.781,8.612 189.331,8.872 190.041,8.872C190.611,8.872 191.091,8.642 191.481,8.192C191.481,8.762 191.461,9.142 191.411,9.312C191.341,9.612 191.191,9.832 190.961,10.002C190.741,10.162 190.431,10.242 190.021,10.242C189.641,10.242 189.341,10.162 189.131,10.002C188.961,9.882 188.861,9.682 188.831,9.422L187.981,9.302C187.971,9.862 188.151,10.282 188.531,10.552ZM189.111,4.782C189.381,4.462 189.711,4.302 190.111,4.302C190.501,4.302 190.841,4.462 191.131,4.782C191.411,5.102 191.551,5.582 191.551,6.222C191.551,6.882 191.411,7.362 191.141,7.672C190.861,7.982 190.521,8.142 190.121,8.142C189.711,8.142 189.371,7.982 189.101,7.672C188.831,7.362 188.701,6.862 188.701,6.192C188.701,5.562 188.841,5.092 189.111,4.782Z" style="fill:rgb(35,31,32);fill-rule:nonzero;"/>
        <path d="M196.701,8.002C196.471,8.172 196.201,8.262 195.881,8.262C195.441,8.262 195.081,8.112 194.791,7.812C194.501,7.502 194.341,7.072 194.311,6.502L198.181,6.502L198.181,6.272C198.181,5.412 197.961,4.752 197.521,4.282C197.081,3.812 196.521,3.572 195.831,3.572C195.111,3.572 194.531,3.812 194.081,4.292C193.631,4.772 193.411,5.452 193.411,6.322C193.411,7.162 193.631,7.812 194.081,8.282C194.521,8.752 195.121,8.982 195.881,8.982C196.481,8.982 196.971,8.832 197.361,8.542C197.741,8.252 198.011,7.842 198.151,7.312L197.241,7.192C197.111,7.562 196.931,7.832 196.701,8.002ZM194.821,4.702C195.091,4.432 195.431,4.292 195.831,4.292C196.281,4.292 196.641,4.462 196.921,4.802C197.101,5.022 197.211,5.342 197.251,5.782L194.361,5.782C194.391,5.332 194.541,4.972 194.821,4.702Z" style="fill:rgb(35,31,32);fill-rule:nonzero;"/>
        <path d="M204.351,10.972C203.381,9.412 202.891,7.842 202.891,6.282C202.891,5.672 202.961,5.052 203.101,4.442C203.211,3.962 203.371,3.492 203.571,3.042C203.701,2.752 203.961,2.272 204.351,1.592L203.721,1.592C203.111,2.412 202.661,3.232 202.371,4.052C202.121,4.762 201.991,5.502 201.991,6.282C201.991,7.152 202.161,8.002 202.491,8.822C202.831,9.642 203.241,10.362 203.721,10.972L204.351,10.972Z" style="fill:rgb(35,31,32);fill-rule:nonzero;"/>
        <path d="M205.761,10.552C206.141,10.832 206.641,10.972 207.261,10.972C207.781,10.972 208.221,10.872 208.571,10.682C208.931,10.482 209.191,10.222 209.351,9.882C209.521,9.542 209.601,8.972 209.601,8.162L209.601,3.682L208.791,3.682L208.791,4.322C208.391,3.822 207.891,3.572 207.271,3.572C206.821,3.572 206.421,3.682 206.081,3.912C205.741,4.142 205.481,4.462 205.301,4.882C205.121,5.302 205.031,5.752 205.031,6.252C205.031,6.972 205.221,7.582 205.611,8.102C206.011,8.612 206.561,8.872 207.271,8.872C207.841,8.872 208.321,8.642 208.711,8.192C208.711,8.762 208.691,9.142 208.641,9.312C208.571,9.612 208.421,9.832 208.191,10.002C207.971,10.162 207.661,10.242 207.251,10.242C206.871,10.242 206.571,10.162 206.361,10.002C206.191,9.882 206.091,9.682 206.061,9.422L205.211,9.302C205.201,9.862 205.381,10.282 205.761,10.552ZM206.341,4.782C206.611,4.462 206.941,4.302 207.341,4.302C207.731,4.302 208.071,4.462 208.361,4.782C208.641,5.102 208.781,5.582 208.781,6.222C208.781,6.882 208.641,7.362 208.371,7.672C208.091,7.982 207.751,8.142 207.351,8.142C206.941,8.142 206.601,7.982 206.331,7.672C206.061,7.362 205.931,6.862 205.931,6.192C205.931,5.562 206.071,5.092 206.341,4.782Z" style="fill:rgb(35,31,32);fill-rule:nonzero;"/>
        <path d="M213.931,8.002C213.701,8.172 213.431,8.262 213.111,8.262C212.671,8.262 212.311,8.112 212.021,7.812C211.731,7.502 211.571,7.072 211.541,6.502L215.411,6.502L215.411,6.272C215.411,5.412 215.191,4.752 214.751,4.282C214.311,3.812 213.751,3.572 213.061,3.572C212.341,3.572 211.761,3.812 211.311,4.292C210.861,4.772 210.641,5.452 210.641,6.322C210.641,7.162 210.861,7.812 211.311,8.282C211.751,8.752 212.351,8.982 213.111,8.982C213.711,8.982 214.201,8.832 214.591,8.542C214.971,8.252 215.241,7.842 215.381,7.312L214.471,7.192C214.341,7.562 214.161,7.832 213.931,8.002ZM212.051,4.702C212.321,4.432 212.661,4.292 213.061,4.292C213.511,4.292 213.871,4.462 214.151,4.802C214.331,5.022 214.441,5.342 214.481,5.782L211.591,5.782C211.621,5.332 211.771,4.972 212.051,4.702Z" style="fill:rgb(35,31,32);fill-rule:nonzero;"/>
        <path d="M218.361,8.872L219.411,4.882L219.611,5.762L220.441,8.872L221.351,8.872L222.981,3.682L222.121,3.682L221.221,6.682L220.931,7.682L220.671,6.692L219.891,3.682L218.991,3.682L218.171,6.722C218.001,7.382 217.911,7.732 217.901,7.792L217.601,6.672L216.771,3.682L215.861,3.682L217.421,8.872L218.361,8.872Z" style="fill:rgb(35,31,32);fill-rule:nonzero;"/>
        <path d="M224.591,2.712L224.591,1.712L223.711,1.712L223.711,2.712L224.591,2.712ZM224.591,8.872L224.591,3.682L223.711,3.682L223.711,8.872L224.591,8.872Z" style="fill:rgb(35,31,32);fill-rule:nonzero;"/>
        <path d="M228.881,7.942C228.651,8.152 228.361,8.262 228.021,8.262C227.591,8.262 227.241,8.102 226.971,7.792C226.701,7.472 226.571,6.972 226.571,6.272C226.571,5.582 226.711,5.082 226.991,4.772C227.261,4.452 227.621,4.292 228.071,4.292C228.361,4.292 228.611,4.382 228.821,4.552C229.021,4.732 229.171,4.992 229.251,5.342L230.101,5.212C230.001,4.692 229.771,4.282 229.411,4.002C229.051,3.712 228.591,3.572 228.031,3.572C227.591,3.572 227.171,3.672 226.791,3.882C226.421,4.092 226.131,4.412 225.951,4.832C225.761,5.252 225.671,5.742 225.671,6.292C225.671,7.162 225.891,7.822 226.321,8.292C226.751,8.752 227.321,8.982 228.031,8.982C228.591,8.982 229.071,8.812 229.461,8.482C229.841,8.142 230.091,7.682 230.181,7.092L229.321,6.972C229.261,7.412 229.111,7.732 228.881,7.942Z" style="fill:rgb(35,31,32);fill-rule:nonzero;"/>
        <path d="M231.811,8.872L231.811,6.042C231.811,5.632 231.861,5.312 231.961,5.082C232.051,4.852 232.221,4.672 232.441,4.532C232.671,4.402 232.911,4.332 233.171,4.332C233.521,4.332 233.791,4.432 233.981,4.632C234.171,4.832 234.261,5.152 234.261,5.592L234.261,8.872L235.141,8.872L235.141,5.592C235.141,5.082 235.081,4.692 234.961,4.422C234.841,4.162 234.631,3.952 234.351,3.802C234.071,3.652 233.741,3.572 233.361,3.572C232.731,3.572 232.221,3.812 231.811,4.292L231.811,1.712L230.931,1.712L230.931,8.872L231.811,8.872Z" style="fill:rgb(35,31,32);fill-rule:nonzero;"/>
        <path d="M238.021,8.122C237.891,8.122 237.791,8.102 237.721,8.062C237.651,8.012 237.601,7.962 237.571,7.882C237.541,7.812 237.521,7.652 237.521,7.402L237.521,4.362L238.401,4.362L238.401,3.682L237.521,3.682L237.521,1.872L236.641,2.402L236.641,3.682L235.991,3.682L235.991,4.362L236.641,4.362L236.641,7.352C236.641,7.882 236.681,8.222 236.751,8.392C236.821,8.552 236.941,8.692 237.121,8.792C237.291,8.892 237.541,8.942 237.861,8.942C238.051,8.942 238.271,8.912 238.521,8.862L238.401,8.092C238.241,8.112 238.111,8.122 238.021,8.122Z" style="fill:rgb(35,31,32);fill-rule:nonzero;"/>
        <path d="M239.601,8.562C239.951,8.842 240.461,8.982 241.141,8.982C241.551,8.982 241.911,8.912 242.231,8.772C242.561,8.632 242.801,8.432 242.971,8.172C243.141,7.912 243.231,7.642 243.231,7.342C243.231,7.042 243.161,6.792 243.021,6.592C242.881,6.392 242.681,6.242 242.441,6.132C242.191,6.032 241.761,5.892 241.141,5.722C240.711,5.612 240.451,5.532 240.361,5.502C240.211,5.442 240.101,5.362 240.031,5.272C239.961,5.172 239.921,5.072 239.921,4.962C239.921,4.782 240.011,4.622 240.181,4.492C240.351,4.362 240.641,4.292 241.041,4.292C241.381,4.292 241.641,4.372 241.831,4.522C242.021,4.672 242.131,4.882 242.171,5.152L243.031,5.032C242.971,4.692 242.871,4.422 242.731,4.222C242.581,4.022 242.351,3.862 242.051,3.752C241.741,3.632 241.381,3.572 240.981,3.572C240.711,3.572 240.451,3.602 240.221,3.672C239.981,3.742 239.801,3.832 239.661,3.932C239.481,4.062 239.331,4.222 239.231,4.422C239.121,4.622 239.071,4.832 239.071,5.062C239.071,5.312 239.131,5.552 239.261,5.762C239.391,5.962 239.581,6.132 239.831,6.252C240.081,6.372 240.521,6.512 241.171,6.672C241.641,6.792 241.941,6.892 242.071,6.972C242.241,7.082 242.331,7.242 242.331,7.442C242.331,7.662 242.231,7.852 242.041,8.012C241.841,8.182 241.541,8.262 241.141,8.262C240.731,8.262 240.421,8.172 240.201,7.982C239.981,7.802 239.841,7.532 239.791,7.182L238.921,7.322C239.021,7.872 239.241,8.282 239.601,8.562Z" style="fill:rgb(35,31,32);fill-rule:nonzero;"/>
        <rect x="244.251" y="1.712" width="0.88" height="7.16" style="fill:rgb(35,31,32);fill-rule:nonzero;"/>
        <path d="M246.831,8.282C247.281,8.752 247.871,8.982 248.591,8.982C249.051,8.982 249.461,8.872 249.851,8.662C250.231,8.452 250.521,8.162 250.721,7.772C250.921,7.392 251.021,6.872 251.021,6.202C251.021,5.382 250.791,4.742 250.341,4.272C249.891,3.802 249.311,3.572 248.591,3.572C247.951,3.572 247.411,3.762 246.961,4.152C246.431,4.612 246.161,5.322 246.161,6.272C246.161,7.152 246.381,7.822 246.831,8.282ZM247.501,4.792C247.791,4.462 248.151,4.302 248.591,4.302C249.031,4.302 249.391,4.462 249.681,4.792C249.971,5.122 250.121,5.612 250.121,6.252C250.121,6.932 249.971,7.432 249.681,7.762C249.391,8.092 249.031,8.262 248.591,8.262C248.151,8.262 247.791,8.102 247.501,7.772C247.211,7.442 247.061,6.942 247.061,6.282C247.061,5.622 247.211,5.122 247.501,4.792Z" style="fill:rgb(35,31,32);fill-rule:nonzero;"/>
        <path d="M252.381,8.562C252.731,8.842 253.241,8.982 253.921,8.982C254.331,8.982 254.691,8.912 255.011,8.772C255.341,8.632 255.581,8.432 255.751,8.172C255.921,7.912 256.011,7.642 256.011,7.342C256.011,7.042 255.941,6.792 255.801,6.592C255.661,6.392 255.461,6.242 255.221,6.132C254.971,6.032 254.541,5.892 253.921,5.722C253.491,5.612 253.231,5.532 253.141,5.502C252.991,5.442 252.881,5.362 252.811,5.272C252.741,5.172 252.701,5.072 252.701,4.962C252.701,4.782 252.791,4.622 252.961,4.492C253.131,4.362 253.421,4.292 253.821,4.292C254.161,4.292 254.421,4.372 254.611,4.522C254.801,4.672 254.911,4.882 254.951,5.152L255.811,5.032C255.751,4.692 255.651,4.422 255.511,4.222C255.361,4.022 255.131,3.862 254.831,3.752C254.521,3.632 254.161,3.572 253.761,3.572C253.491,3.572 253.231,3.602 253.001,3.672C252.761,3.742 252.581,3.832 252.441,3.932C252.261,4.062 252.111,4.222 252.011,4.422C251.901,4.622 251.851,4.832 251.851,5.062C251.851,5.312 251.911,5.552 252.041,5.762C252.171,5.962 252.361,6.132 252.611,6.252C252.861,6.372 253.301,6.512 253.951,6.672C254.421,6.792 254.721,6.892 254.851,6.972C255.021,7.082 255.111,7.242 255.111,7.442C255.111,7.662 255.011,7.852 254.821,8.012C254.621,8.182 254.321,8.262 253.921,8.262C253.511,8.262 253.201,8.172 252.981,7.982C252.761,7.802 252.621,7.532 252.571,7.182L251.701,7.322C251.801,7.872 252.021,8.282 252.381,8.562Z" style="fill:rgb(35,31,32);fill-rule:nonzero;"/>
        <path d="M258.861,8.822C259.191,8.002 259.361,7.152 259.361,6.282C259.361,5.502 259.231,4.762 258.981,4.052C258.691,3.232 258.241,2.412 257.631,1.592L257.001,1.592C257.401,2.272 257.661,2.762 257.791,3.052C257.981,3.502 258.141,3.972 258.251,4.462C258.391,5.062 258.461,5.672 258.461,6.282C258.461,7.842 257.971,9.412 257.001,10.972L257.631,10.972C258.111,10.362 258.521,9.642 258.861,8.822Z" style="fill:rgb(35,31,32);fill-rule:nonzero;"/>
        <path d="M48.616,88.753L48.616,86.273L49.786,85.143L52.336,88.753L53.586,88.753L50.456,84.493L53.456,81.593L52.176,81.593L48.616,85.143L48.616,81.593L47.666,81.593L47.666,88.753L48.616,88.753Z" style="fill:rgb(35,31,32);fill-rule:nonzero;"/>
        <path d="M58.446,88.753L58.446,83.563L57.566,83.563L57.566,86.333C57.566,86.783 57.516,87.113 57.426,87.353C57.326,87.583 57.166,87.763 56.936,87.903C56.706,88.033 56.456,88.103 56.196,88.103C55.926,88.103 55.706,88.033 55.526,87.903C55.356,87.773 55.236,87.593 55.176,87.363C55.146,87.203 55.126,86.893 55.126,86.433L55.126,83.563L54.246,83.563L54.246,86.773C54.246,87.153 54.266,87.423 54.296,87.593C54.356,87.853 54.446,88.073 54.566,88.243C54.696,88.423 54.896,88.573 55.156,88.683C55.426,88.803 55.706,88.863 56.016,88.863C56.706,88.863 57.256,88.573 57.656,87.983L57.656,88.753L58.446,88.753Z" style="fill:rgb(35,31,32);fill-rule:nonzero;"/>
        <path d="M60.216,90.433C60.596,90.713 61.096,90.853 61.716,90.853C62.236,90.853 62.676,90.753 63.026,90.563C63.386,90.363 63.646,90.103 63.806,89.763C63.976,89.423 64.056,88.853 64.056,88.043L64.056,83.563L63.246,83.563L63.246,84.203C62.846,83.703 62.346,83.453 61.726,83.453C61.276,83.453 60.876,83.563 60.536,83.793C60.196,84.023 59.936,84.343 59.756,84.763C59.576,85.183 59.486,85.633 59.486,86.133C59.486,86.853 59.676,87.463 60.066,87.983C60.466,88.493 61.016,88.753 61.726,88.753C62.296,88.753 62.776,88.523 63.166,88.073C63.166,88.643 63.146,89.023 63.096,89.193C63.026,89.493 62.876,89.713 62.646,89.883C62.426,90.043 62.116,90.123 61.706,90.123C61.326,90.123 61.026,90.043 60.816,89.883C60.646,89.763 60.546,89.563 60.516,89.303L59.666,89.183C59.656,89.743 59.836,90.163 60.216,90.433ZM60.796,84.663C61.066,84.343 61.396,84.183 61.796,84.183C62.186,84.183 62.526,84.343 62.816,84.663C63.096,84.983 63.236,85.463 63.236,86.103C63.236,86.763 63.096,87.243 62.826,87.553C62.546,87.863 62.206,88.023 61.806,88.023C61.396,88.023 61.056,87.863 60.786,87.553C60.516,87.243 60.386,86.743 60.386,86.073C60.386,85.443 60.526,84.973 60.796,84.663Z" style="fill:rgb(35,31,32);fill-rule:nonzero;"/>
        <path d="M68.386,87.883C68.156,88.053 67.886,88.143 67.566,88.143C67.126,88.143 66.766,87.993 66.476,87.693C66.186,87.383 66.026,86.953 65.996,86.383L69.866,86.383L69.866,86.153C69.866,85.293 69.646,84.633 69.206,84.163C68.766,83.693 68.206,83.453 67.516,83.453C66.796,83.453 66.216,83.693 65.766,84.173C65.316,84.653 65.096,85.333 65.096,86.203C65.096,87.043 65.316,87.693 65.766,88.163C66.206,88.633 66.806,88.863 67.566,88.863C68.166,88.863 68.656,88.713 69.046,88.423C69.426,88.133 69.696,87.723 69.836,87.193L68.926,87.073C68.796,87.443 68.616,87.713 68.386,87.883ZM66.506,84.583C66.776,84.313 67.116,84.173 67.516,84.173C67.966,84.173 68.326,84.343 68.606,84.683C68.786,84.903 68.896,85.223 68.936,85.663L66.046,85.663C66.076,85.213 66.226,84.853 66.506,84.583Z" style="fill:rgb(35,31,32);fill-rule:nonzero;"/>
        <rect x="70.926" y="81.593" width="0.88" height="7.16" style="fill:rgb(35,31,32);fill-rule:nonzero;"/>
        <path d="M78.256,90.853C77.286,89.293 76.796,87.723 76.796,86.163C76.796,85.553 76.866,84.933 77.006,84.323C77.116,83.843 77.276,83.373 77.476,82.923C77.606,82.633 77.866,82.153 78.256,81.473L77.626,81.473C77.016,82.293 76.566,83.113 76.276,83.933C76.026,84.643 75.896,85.383 75.896,86.163C75.896,87.033 76.066,87.883 76.396,88.703C76.736,89.523 77.146,90.243 77.626,90.853L78.256,90.853Z" style="fill:rgb(35,31,32);fill-rule:nonzero;"/>
        <path d="M82.836,88.753L83.756,88.753C83.646,88.553 83.576,88.343 83.536,88.123C83.506,87.913 83.486,87.393 83.486,86.583L83.486,85.413C83.486,85.023 83.476,84.753 83.446,84.603C83.386,84.363 83.296,84.163 83.166,84.003C83.036,83.843 82.836,83.713 82.556,83.613C82.276,83.503 81.916,83.453 81.476,83.453C81.026,83.453 80.636,83.513 80.296,83.633C79.956,83.763 79.696,83.933 79.516,84.163C79.336,84.383 79.206,84.683 79.126,85.053L79.986,85.173C80.076,84.803 80.226,84.543 80.426,84.403C80.626,84.253 80.926,84.183 81.346,84.183C81.786,84.183 82.126,84.283 82.346,84.483C82.516,84.623 82.596,84.873 82.596,85.233L82.596,85.463C82.256,85.583 81.736,85.683 81.016,85.763C80.676,85.803 80.416,85.853 80.236,85.893C80.006,85.963 79.796,86.053 79.606,86.183C79.416,86.313 79.266,86.483 79.146,86.693C79.036,86.893 78.976,87.133 78.976,87.383C78.976,87.813 79.126,88.173 79.436,88.443C79.746,88.723 80.186,88.863 80.756,88.863C81.096,88.863 81.426,88.803 81.726,88.693C82.026,88.573 82.336,88.383 82.666,88.103C82.696,88.353 82.746,88.563 82.836,88.753ZM82.596,86.473C82.596,86.863 82.546,87.153 82.446,87.343C82.326,87.603 82.136,87.803 81.866,87.953C81.606,88.103 81.306,88.173 80.966,88.173C80.616,88.173 80.356,88.093 80.186,87.943C80.006,87.783 79.916,87.593 79.916,87.353C79.916,87.203 79.956,87.063 80.036,86.943C80.116,86.813 80.236,86.723 80.386,86.653C80.536,86.593 80.796,86.533 81.156,86.483C81.796,86.393 82.276,86.283 82.596,86.153L82.596,86.473Z" style="fill:rgb(35,31,32);fill-rule:nonzero;"/>
        <rect x="84.816" y="81.593" width="0.88" height="7.16" style="fill:rgb(35,31,32);fill-rule:nonzero;"/>
        <rect x="87.036" y="81.593" width="0.88" height="7.16" style="fill:rgb(35,31,32);fill-rule:nonzero;"/>
        <path d="M92.276,87.883C92.046,88.053 91.776,88.143 91.456,88.143C91.016,88.143 90.656,87.993 90.366,87.693C90.076,87.383 89.916,86.953 89.886,86.383L93.756,86.383L93.756,86.153C93.756,85.293 93.536,84.633 93.096,84.163C92.656,83.693 92.096,83.453 91.406,83.453C90.686,83.453 90.106,83.693 89.656,84.173C89.206,84.653 88.986,85.333 88.986,86.203C88.986,87.043 89.206,87.693 89.656,88.163C90.096,88.633 90.696,88.863 91.456,88.863C92.056,88.863 92.546,88.713 92.936,88.423C93.316,88.133 93.586,87.723 93.726,87.193L92.816,87.073C92.686,87.443 92.506,87.713 92.276,87.883ZM90.396,84.583C90.666,84.313 91.006,84.173 91.406,84.173C91.856,84.173 92.216,84.343 92.496,84.683C92.676,84.903 92.786,85.223 92.826,85.663L89.936,85.663C89.966,85.213 90.116,84.853 90.396,84.583Z" style="fill:rgb(35,31,32);fill-rule:nonzero;"/>
        <path d="M98.006,90.433C98.386,90.713 98.886,90.853 99.506,90.853C100.026,90.853 100.466,90.753 100.816,90.563C101.176,90.363 101.436,90.103 101.596,89.763C101.766,89.423 101.846,88.853 101.846,88.043L101.846,83.563L101.036,83.563L101.036,84.203C100.636,83.703 100.136,83.453 99.516,83.453C99.066,83.453 98.666,83.563 98.326,83.793C97.986,84.023 97.726,84.343 97.546,84.763C97.366,85.183 97.276,85.633 97.276,86.133C97.276,86.853 97.466,87.463 97.856,87.983C98.256,88.493 98.806,88.753 99.516,88.753C100.086,88.753 100.566,88.523 100.956,88.073C100.956,88.643 100.936,89.023 100.886,89.193C100.816,89.493 100.666,89.713 100.436,89.883C100.216,90.043 99.906,90.123 99.496,90.123C99.116,90.123 98.816,90.043 98.606,89.883C98.436,89.763 98.336,89.563 98.306,89.303L97.456,89.183C97.446,89.743 97.626,90.163 98.006,90.433ZM98.586,84.663C98.856,84.343 99.186,84.183 99.586,84.183C99.976,84.183 100.316,84.343 100.606,84.663C100.886,84.983 101.026,85.463 101.026,86.103C101.026,86.763 100.886,87.243 100.616,87.553C100.336,87.863 99.996,88.023 99.596,88.023C99.186,88.023 98.846,87.863 98.576,87.553C98.306,87.243 98.176,86.743 98.176,86.073C98.176,85.443 98.316,84.973 98.586,84.663Z" style="fill:rgb(35,31,32);fill-rule:nonzero;"/>
        <rect x="103.156" y="81.593" width="0.88" height="7.16" style="fill:rgb(35,31,32);fill-rule:nonzero;"/>
        <path d="M108.396,87.883C108.166,88.053 107.896,88.143 107.576,88.143C107.136,88.143 106.776,87.993 106.486,87.693C106.196,87.383 106.036,86.953 106.006,86.383L109.876,86.383L109.876,86.153C109.876,85.293 109.656,84.633 109.216,84.163C108.776,83.693 108.216,83.453 107.526,83.453C106.806,83.453 106.226,83.693 105.776,84.173C105.326,84.653 105.106,85.333 105.106,86.203C105.106,87.043 105.326,87.693 105.776,88.163C106.216,88.633 106.816,88.863 107.576,88.863C108.176,88.863 108.666,88.713 109.056,88.423C109.436,88.133 109.706,87.723 109.846,87.193L108.936,87.073C108.806,87.443 108.626,87.713 108.396,87.883ZM106.516,84.583C106.786,84.313 107.126,84.173 107.526,84.173C107.976,84.173 108.336,84.343 108.616,84.683C108.796,84.903 108.906,85.223 108.946,85.663L106.056,85.663C106.086,85.213 106.236,84.853 106.516,84.583Z" style="fill:rgb(35,31,32);fill-rule:nonzero;"/>
        <path d="M111.836,82.593L111.836,81.593L110.956,81.593L110.956,82.593L111.836,82.593ZM111.836,88.753L111.836,83.563L110.956,83.563L110.956,88.753L111.836,88.753Z" style="fill:rgb(35,31,32);fill-rule:nonzero;"/>
        <path d="M116.126,87.823C115.896,88.033 115.606,88.143 115.266,88.143C114.836,88.143 114.486,87.983 114.216,87.673C113.946,87.353 113.816,86.853 113.816,86.153C113.816,85.463 113.956,84.963 114.236,84.653C114.506,84.333 114.866,84.173 115.316,84.173C115.606,84.173 115.856,84.263 116.066,84.433C116.266,84.613 116.416,84.873 116.496,85.223L117.346,85.093C117.246,84.573 117.016,84.163 116.656,83.883C116.296,83.593 115.836,83.453 115.276,83.453C114.836,83.453 114.416,83.553 114.036,83.763C113.666,83.973 113.376,84.293 113.196,84.713C113.006,85.133 112.916,85.623 112.916,86.173C112.916,87.043 113.136,87.703 113.566,88.173C113.996,88.633 114.566,88.863 115.276,88.863C115.836,88.863 116.316,88.693 116.706,88.363C117.086,88.023 117.336,87.563 117.426,86.973L116.566,86.853C116.506,87.293 116.356,87.613 116.126,87.823Z" style="fill:rgb(35,31,32);fill-rule:nonzero;"/>
        <path d="M119.056,88.753L119.056,85.923C119.056,85.513 119.106,85.193 119.206,84.963C119.296,84.733 119.466,84.553 119.686,84.413C119.916,84.283 120.156,84.213 120.416,84.213C120.766,84.213 121.036,84.313 121.226,84.513C121.416,84.713 121.506,85.033 121.506,85.473L121.506,88.753L122.386,88.753L122.386,85.473C122.386,84.963 122.326,84.573 122.206,84.303C122.086,84.043 121.876,83.833 121.596,83.683C121.316,83.533 120.986,83.453 120.606,83.453C119.976,83.453 119.466,83.693 119.056,84.173L119.056,81.593L118.176,81.593L118.176,88.753L119.056,88.753Z" style="fill:rgb(35,31,32);fill-rule:nonzero;"/>
        <path d="M126.846,88.443C127.196,88.723 127.706,88.863 128.386,88.863C128.796,88.863 129.156,88.793 129.476,88.653C129.806,88.513 130.046,88.313 130.216,88.053C130.386,87.793 130.476,87.523 130.476,87.223C130.476,86.923 130.406,86.673 130.266,86.473C130.126,86.273 129.926,86.123 129.686,86.013C129.436,85.913 129.006,85.773 128.386,85.603C127.956,85.493 127.696,85.413 127.606,85.383C127.456,85.323 127.346,85.243 127.276,85.153C127.206,85.053 127.166,84.953 127.166,84.843C127.166,84.663 127.256,84.503 127.426,84.373C127.596,84.243 127.886,84.173 128.286,84.173C128.626,84.173 128.886,84.253 129.076,84.403C129.266,84.553 129.376,84.763 129.416,85.033L130.276,84.913C130.216,84.573 130.116,84.303 129.976,84.103C129.826,83.903 129.596,83.743 129.296,83.633C128.986,83.513 128.626,83.453 128.226,83.453C127.956,83.453 127.696,83.483 127.466,83.553C127.226,83.623 127.046,83.713 126.906,83.813C126.726,83.943 126.576,84.103 126.476,84.303C126.366,84.503 126.316,84.713 126.316,84.943C126.316,85.193 126.376,85.433 126.506,85.643C126.636,85.843 126.826,86.013 127.076,86.133C127.326,86.253 127.766,86.393 128.416,86.553C128.886,86.673 129.186,86.773 129.316,86.853C129.486,86.963 129.576,87.123 129.576,87.323C129.576,87.543 129.476,87.733 129.286,87.893C129.086,88.063 128.786,88.143 128.386,88.143C127.976,88.143 127.666,88.053 127.446,87.863C127.226,87.683 127.086,87.413 127.036,87.063L126.166,87.203C126.266,87.753 126.486,88.163 126.846,88.443Z" style="fill:rgb(35,31,32);fill-rule:nonzero;"/>
        <path d="M134.466,87.823C134.236,88.033 133.946,88.143 133.606,88.143C133.176,88.143 132.826,87.983 132.556,87.673C132.286,87.353 132.156,86.853 132.156,86.153C132.156,85.463 132.296,84.963 132.576,84.653C132.846,84.333 133.206,84.173 133.656,84.173C133.946,84.173 134.196,84.263 134.406,84.433C134.606,84.613 134.756,84.873 134.836,85.223L135.686,85.093C135.586,84.573 135.356,84.163 134.996,83.883C134.636,83.593 134.176,83.453 133.616,83.453C133.176,83.453 132.756,83.553 132.376,83.763C132.006,83.973 131.716,84.293 131.536,84.713C131.346,85.133 131.256,85.623 131.256,86.173C131.256,87.043 131.476,87.703 131.906,88.173C132.336,88.633 132.906,88.863 133.616,88.863C134.176,88.863 134.656,88.693 135.046,88.363C135.426,88.023 135.676,87.563 135.766,86.973L134.906,86.853C134.846,87.293 134.696,87.613 134.466,87.823Z" style="fill:rgb(35,31,32);fill-rule:nonzero;"/>
        <path d="M137.396,88.753L137.396,85.923C137.396,85.513 137.446,85.193 137.546,84.963C137.636,84.733 137.806,84.553 138.026,84.413C138.256,84.283 138.496,84.213 138.756,84.213C139.106,84.213 139.376,84.313 139.566,84.513C139.756,84.713 139.846,85.033 139.846,85.473L139.846,88.753L140.726,88.753L140.726,85.473C140.726,84.963 140.666,84.573 140.546,84.303C140.426,84.043 140.216,83.833 139.936,83.683C139.656,83.533 139.326,83.453 138.946,83.453C138.316,83.453 137.806,83.693 137.396,84.173L137.396,81.593L136.516,81.593L136.516,88.753L137.396,88.753Z" style="fill:rgb(35,31,32);fill-rule:nonzero;"/>
        <path d="M143.946,88.753L144.996,84.763L145.196,85.643L146.026,88.753L146.936,88.753L148.566,83.563L147.706,83.563L146.806,86.563L146.516,87.563L146.256,86.573L145.476,83.563L144.576,83.563L143.756,86.603C143.586,87.263 143.496,87.613 143.486,87.673L143.186,86.553L142.356,83.563L141.446,83.563L143.006,88.753L143.946,88.753Z" style="fill:rgb(35,31,32);fill-rule:nonzero;"/>
        <path d="M152.296,87.883C152.066,88.053 151.796,88.143 151.476,88.143C151.036,88.143 150.676,87.993 150.386,87.693C150.096,87.383 149.936,86.953 149.906,86.383L153.776,86.383L153.776,86.153C153.776,85.293 153.556,84.633 153.116,84.163C152.676,83.693 152.116,83.453 151.426,83.453C150.706,83.453 150.126,83.693 149.676,84.173C149.226,84.653 149.006,85.333 149.006,86.203C149.006,87.043 149.226,87.693 149.676,88.163C150.116,88.633 150.716,88.863 151.476,88.863C152.076,88.863 152.566,88.713 152.956,88.423C153.336,88.133 153.606,87.723 153.746,87.193L152.836,87.073C152.706,87.443 152.526,87.713 152.296,87.883ZM150.416,84.583C150.686,84.313 151.026,84.173 151.426,84.173C151.876,84.173 152.236,84.343 152.516,84.683C152.696,84.903 152.806,85.223 152.846,85.663L149.956,85.663C149.986,85.213 150.136,84.853 150.416,84.583Z" style="fill:rgb(35,31,32);fill-rule:nonzero;"/>
        <path d="M155.726,88.753L155.726,86.043C155.726,85.673 155.776,85.333 155.876,85.013C155.936,84.813 156.046,84.653 156.196,84.533C156.346,84.423 156.526,84.363 156.716,84.363C156.926,84.363 157.136,84.423 157.356,84.543L157.666,83.733C157.356,83.543 157.056,83.453 156.766,83.453C156.556,83.453 156.366,83.513 156.196,83.633C156.026,83.743 155.836,83.993 155.636,84.353L155.636,83.563L154.846,83.563L154.846,88.753L155.726,88.753Z" style="fill:rgb(35,31,32);fill-rule:nonzero;"/>
        <path d="M159.996,88.703C160.326,87.883 160.496,87.033 160.496,86.163C160.496,85.383 160.366,84.643 160.116,83.933C159.826,83.113 159.376,82.293 158.766,81.473L158.136,81.473C158.536,82.153 158.796,82.643 158.926,82.933C159.116,83.383 159.276,83.853 159.386,84.343C159.526,84.943 159.596,85.553 159.596,86.163C159.596,87.723 159.106,89.293 158.136,90.853L158.766,90.853C159.246,90.243 159.656,89.523 159.996,88.703Z" style="fill:rgb(35,31,32);fill-rule:nonzero;"/>
        <path d="M207.369,61.458L207.369,88.997" style="fill:none;stroke:rgb(35,31,32);stroke-width:0.75px;"/>
        <path d="M204.983,84.563L205.689,84.307L207.369,88.923L209.049,84.307L209.754,84.563L207.369,91.116L204.983,84.563Z" style="fill:rgb(35,31,32);fill-rule:nonzero;"/>
        <path d="M217.482,32.643L245.02,32.643" style="fill:none;stroke:rgb(35,31,32);stroke-width:0.75px;"/>
        <path d="M240.587,35.028L240.331,34.323L244.947,32.643L240.331,30.962L240.587,30.258L247.14,32.643L240.587,35.028Z" style="fill:rgb(35,31,32);fill-rule:nonzero;"/>
        <path d="M201.225,85.458C201.236,85.398 201.255,85.348 201.255,85.279C201.255,85.111 201.136,85.011 200.967,85.011C200.869,85.011 200.6,85.081 200.559,85.437C200.382,85.07 200.034,84.812 199.636,84.812C198.503,84.812 197.272,86.203 197.272,87.634C197.272,88.617 197.878,89.203 198.594,89.203C199.18,89.203 199.647,88.736 199.745,88.626L199.755,88.637C199.547,89.52 199.428,89.928 199.428,89.948C199.387,90.037 199.05,91.02 197.997,91.02C197.808,91.02 197.481,91.011 197.203,90.921C197.5,90.833 197.61,90.573 197.61,90.404C197.61,90.247 197.5,90.058 197.233,90.058C197.014,90.058 196.696,90.236 196.696,90.632C196.696,91.041 197.064,91.239 198.017,91.239C199.259,91.239 199.973,90.464 200.124,89.869L201.225,85.458ZM199.934,87.931C199.875,88.19 199.647,88.437 199.428,88.626C199.219,88.806 198.911,88.984 198.624,88.984C198.127,88.984 197.977,88.468 197.977,88.07C197.977,87.593 198.266,86.421 198.534,85.916C198.801,85.428 199.23,85.031 199.647,85.031C200.301,85.031 200.441,85.835 200.441,85.886C200.441,85.934 200.421,85.995 200.411,86.034L199.934,87.931Z" style="fill:rgb(35,31,32);fill-rule:nonzero;"/>
        <path d="M80.448,33.819L75.538,42.323L85.358,42.323L80.448,33.819Z" style="fill:white;fill-rule:nonzero;"/>
        <path d="M80.448,33.819L75.538,42.323L85.358,42.323L80.448,33.819Z" style="fill:none;stroke:rgb(35,31,32);stroke-width:0.5px;"/>
        <path d="M81.663,22.411C81.485,22.043 81.197,21.775 80.749,21.775C79.588,21.775 78.355,23.236 78.355,24.686C78.355,25.619 78.902,26.275 79.677,26.275C79.875,26.275 80.372,26.236 80.968,25.53C81.047,25.947 81.395,26.275 81.872,26.275C82.219,26.275 82.448,26.047 82.606,25.728C82.775,25.37 82.905,24.766 82.905,24.745C82.905,24.645 82.816,24.645 82.786,24.645C82.686,24.645 82.677,24.686 82.647,24.825C82.478,25.47 82.299,26.056 81.892,26.056C81.624,26.056 81.594,25.798 81.594,25.6C81.594,25.381 81.614,25.301 81.723,24.864C81.831,24.447 81.852,24.348 81.941,23.97L82.299,22.58C82.369,22.301 82.369,22.281 82.369,22.242C82.369,22.073 82.249,21.973 82.08,21.973C81.843,21.973 81.692,22.192 81.663,22.411ZM81.017,24.983C80.968,25.163 80.968,25.183 80.819,25.352C80.382,25.897 79.975,26.056 79.697,26.056C79.2,26.056 79.061,25.509 79.061,25.122C79.061,24.626 79.378,23.405 79.606,22.947C79.914,22.361 80.363,21.994 80.76,21.994C81.405,21.994 81.544,22.808 81.544,22.867C81.544,22.926 81.524,22.987 81.514,23.036L81.017,24.983Z" style="fill:rgb(35,31,32);fill-rule:nonzero;"/>
        <path d="M246.122,41.331C246.182,41.073 246.411,40.159 247.106,40.159C247.156,40.159 247.393,40.159 247.603,40.287C247.325,40.337 247.126,40.585 247.126,40.825C247.126,40.982 247.234,41.171 247.503,41.171C247.721,41.171 248.039,40.993 248.039,40.597C248.039,40.079 247.453,39.94 247.115,39.94C246.539,39.94 246.192,40.467 246.073,40.695C245.825,40.04 245.287,39.94 245,39.94C243.967,39.94 243.4,41.222 243.4,41.47C243.4,41.57 243.5,41.57 243.52,41.57C243.6,41.57 243.63,41.55 243.648,41.46C243.987,40.407 244.642,40.159 244.979,40.159C245.169,40.159 245.517,40.248 245.517,40.825C245.517,41.132 245.348,41.798 244.979,43.188C244.822,43.804 244.473,44.222 244.036,44.222C243.976,44.222 243.748,44.222 243.539,44.092C243.787,44.043 244.006,43.834 244.006,43.556C244.006,43.287 243.787,43.209 243.639,43.209C243.341,43.209 243.092,43.467 243.092,43.784C243.092,44.242 243.589,44.44 244.026,44.44C244.682,44.44 245.039,43.745 245.07,43.686C245.189,44.053 245.547,44.44 246.142,44.44C247.165,44.44 247.731,43.159 247.731,42.911C247.731,42.811 247.642,42.811 247.612,42.811C247.523,42.811 247.503,42.851 247.483,42.92C247.156,43.982 246.479,44.222 246.162,44.222C245.775,44.222 245.615,43.904 245.615,43.565C245.615,43.348 245.675,43.129 245.784,42.692L246.122,41.331Z" style="fill:rgb(35,31,32);fill-rule:nonzero;"/>
    </g>
</svg>
